<?xml version="1.0" encoding="utf-8" standalone="no"?>
<!DOCTYPE svg PUBLIC "-//W3C//DTD SVG 1.1//EN"
  "http://www.w3.org/Graphics/SVG/1.1/DTD/svg11.dtd">
<svg xmlns:xlink="http://www.w3.org/1999/xlink" width="498.96pt" height="198pt" viewBox="0 0 498.96 198" xmlns="http://www.w3.org/2000/svg" version="1.1">
 <metadata>
  <rdf:RDF xmlns:dc="http://purl.org/dc/elements/1.1/" xmlns:cc="http://creativecommons.org/ns#" xmlns:rdf="http://www.w3.org/1999/02/22-rdf-syntax-ns#">
   <cc:Work>
    <dc:type rdf:resource="http://purl.org/dc/dcmitype/StillImage"/>
    <dc:date>2025-07-27T02:07:27.014514</dc:date>
    <dc:format>image/svg+xml</dc:format>
    <dc:creator>
     <cc:Agent>
      <dc:title>Matplotlib v3.9.2, https://matplotlib.org/</dc:title>
     </cc:Agent>
    </dc:creator>
   </cc:Work>
  </rdf:RDF>
 </metadata>
 <defs>
  <style type="text/css">*{stroke-linejoin: round; stroke-linecap: butt}</style>
 </defs>
 <g id="figure_1">
  <g id="patch_1">
   <path d="M 0 198 
L 498.96 198 
L 498.96 0 
L 0 0 
z
" style="fill: #ffffff"/>
  </g>
  <g id="axes_1">
   <g id="patch_2">
    <path d="M 38.8825 137.212701 
L 493.96 137.212701 
L 493.96 8.24 
L 38.8825 8.24 
z
" style="fill: #ffffff"/>
   </g>
   <g id="patch_3">
    <path d="M 41.203357 137.212701 
L 44.518868 137.212701 
L 44.518868 57.598359 
L 41.203357 57.598359 
z
" clip-path="url(#pfcfada2e5e)" style="fill: #1f77b4; stroke: #000000; stroke-width: 0.4; stroke-linejoin: miter"/>
   </g>
   <g id="patch_4">
    <path d="M 55.412688 137.212701 
L 58.728199 137.212701 
L 58.728199 64.213019 
L 55.412688 64.213019 
z
" clip-path="url(#pfcfada2e5e)" style="fill: #1f77b4; stroke: #000000; stroke-width: 0.4; stroke-linejoin: miter"/>
   </g>
   <g id="patch_5">
    <path d="M 69.622019 137.212701 
L 72.937529 137.212701 
L 72.937529 59.834033 
L 69.622019 59.834033 
z
" clip-path="url(#pfcfada2e5e)" style="fill: #1f77b4; stroke: #000000; stroke-width: 0.4; stroke-linejoin: miter"/>
   </g>
   <g id="patch_6">
    <path d="M 83.83135 137.212701 
L 87.14686 137.212701 
L 87.14686 64.513971 
L 83.83135 64.513971 
z
" clip-path="url(#pfcfada2e5e)" style="fill: #1f77b4; stroke: #000000; stroke-width: 0.4; stroke-linejoin: miter"/>
   </g>
   <g id="patch_7">
    <path d="M 98.04068 137.212701 
L 101.356191 137.212701 
L 101.356191 55.213325 
L 98.04068 55.213325 
z
" clip-path="url(#pfcfada2e5e)" style="fill: #1f77b4; stroke: #000000; stroke-width: 0.4; stroke-linejoin: miter"/>
   </g>
   <g id="patch_8">
    <path d="M 112.250011 137.212701 
L 115.565522 137.212701 
L 115.565522 61.758906 
L 112.250011 61.758906 
z
" clip-path="url(#pfcfada2e5e)" style="fill: #1f77b4; stroke: #000000; stroke-width: 0.4; stroke-linejoin: miter"/>
   </g>
   <g id="patch_9">
    <path d="M 126.459342 137.212701 
L 129.774852 137.212701 
L 129.774852 63.336317 
L 126.459342 63.336317 
z
" clip-path="url(#pfcfada2e5e)" style="fill: #1f77b4; stroke: #000000; stroke-width: 0.4; stroke-linejoin: miter"/>
   </g>
   <g id="patch_10">
    <path d="M 140.668673 137.212701 
L 143.984183 137.212701 
L 143.984183 62.218319 
L 140.668673 62.218319 
z
" clip-path="url(#pfcfada2e5e)" style="fill: #1f77b4; stroke: #000000; stroke-width: 0.4; stroke-linejoin: miter"/>
   </g>
   <g id="patch_11">
    <path d="M 154.878003 137.212701 
L 158.193514 137.212701 
L 158.193514 64.453458 
L 154.878003 64.453458 
z
" clip-path="url(#pfcfada2e5e)" style="fill: #1f77b4; stroke: #000000; stroke-width: 0.4; stroke-linejoin: miter"/>
   </g>
   <g id="patch_12">
    <path d="M 169.087334 137.212701 
L 172.402845 137.212701 
L 172.402845 59.798576 
L 169.087334 59.798576 
z
" clip-path="url(#pfcfada2e5e)" style="fill: #1f77b4; stroke: #000000; stroke-width: 0.4; stroke-linejoin: miter"/>
   </g>
   <g id="patch_13">
    <path d="M 183.296665 137.212701 
L 186.612176 137.212701 
L 186.612176 61.307138 
L 183.296665 61.307138 
z
" clip-path="url(#pfcfada2e5e)" style="fill: #1f77b4; stroke: #000000; stroke-width: 0.4; stroke-linejoin: miter"/>
   </g>
   <g id="patch_14">
    <path d="M 197.505996 137.212701 
L 200.821506 137.212701 
L 200.821506 63.4043 
L 197.505996 63.4043 
z
" clip-path="url(#pfcfada2e5e)" style="fill: #1f77b4; stroke: #000000; stroke-width: 0.4; stroke-linejoin: miter"/>
   </g>
   <g id="patch_15">
    <path d="M 211.715327 137.212701 
L 215.030837 137.212701 
L 215.030837 63.350538 
L 211.715327 63.350538 
z
" clip-path="url(#pfcfada2e5e)" style="fill: #1f77b4; stroke: #000000; stroke-width: 0.4; stroke-linejoin: miter"/>
   </g>
   <g id="patch_16">
    <path d="M 225.924657 137.212701 
L 229.240168 137.212701 
L 229.240168 63.012753 
L 225.924657 63.012753 
z
" clip-path="url(#pfcfada2e5e)" style="fill: #1f77b4; stroke: #000000; stroke-width: 0.4; stroke-linejoin: miter"/>
   </g>
   <g id="patch_17">
    <path d="M 240.133988 137.212701 
L 243.449499 137.212701 
L 243.449499 59.387688 
L 240.133988 59.387688 
z
" clip-path="url(#pfcfada2e5e)" style="fill: #1f77b4; stroke: #000000; stroke-width: 0.4; stroke-linejoin: miter"/>
   </g>
   <g id="patch_18">
    <path d="M 254.343319 137.212701 
L 257.658829 137.212701 
L 257.658829 65.369649 
L 254.343319 65.369649 
z
" clip-path="url(#pfcfada2e5e)" style="fill: #1f77b4; stroke: #000000; stroke-width: 0.4; stroke-linejoin: miter"/>
   </g>
   <g id="patch_19">
    <path d="M 268.55265 137.212701 
L 271.86816 137.212701 
L 271.86816 57.054321 
L 268.55265 57.054321 
z
" clip-path="url(#pfcfada2e5e)" style="fill: #1f77b4; stroke: #000000; stroke-width: 0.4; stroke-linejoin: miter"/>
   </g>
   <g id="patch_20">
    <path d="M 282.76198 137.212701 
L 286.077491 137.212701 
L 286.077491 57.67564 
L 282.76198 57.67564 
z
" clip-path="url(#pfcfada2e5e)" style="fill: #1f77b4; stroke: #000000; stroke-width: 0.4; stroke-linejoin: miter"/>
   </g>
   <g id="patch_21">
    <path d="M 296.971311 137.212701 
L 300.286822 137.212701 
L 300.286822 63.10213 
L 296.971311 63.10213 
z
" clip-path="url(#pfcfada2e5e)" style="fill: #1f77b4; stroke: #000000; stroke-width: 0.4; stroke-linejoin: miter"/>
   </g>
   <g id="patch_22">
    <path d="M 311.180642 137.212701 
L 314.496152 137.212701 
L 314.496152 61.455239 
L 311.180642 61.455239 
z
" clip-path="url(#pfcfada2e5e)" style="fill: #1f77b4; stroke: #000000; stroke-width: 0.4; stroke-linejoin: miter"/>
   </g>
   <g id="patch_23">
    <path d="M 325.389973 137.212701 
L 328.705483 137.212701 
L 328.705483 66.282073 
L 325.389973 66.282073 
z
" clip-path="url(#pfcfada2e5e)" style="fill: #1f77b4; stroke: #000000; stroke-width: 0.4; stroke-linejoin: miter"/>
   </g>
   <g id="patch_24">
    <path d="M 339.599303 137.212701 
L 342.914814 137.212701 
L 342.914814 59.235928 
L 339.599303 59.235928 
z
" clip-path="url(#pfcfada2e5e)" style="fill: #1f77b4; stroke: #000000; stroke-width: 0.4; stroke-linejoin: miter"/>
   </g>
   <g id="patch_25">
    <path d="M 353.808634 137.212701 
L 357.124145 137.212701 
L 357.124145 60.637839 
L 353.808634 60.637839 
z
" clip-path="url(#pfcfada2e5e)" style="fill: #1f77b4; stroke: #000000; stroke-width: 0.4; stroke-linejoin: miter"/>
   </g>
   <g id="patch_26">
    <path d="M 368.017965 137.212701 
L 371.333475 137.212701 
L 371.333475 62.07945 
L 368.017965 62.07945 
z
" clip-path="url(#pfcfada2e5e)" style="fill: #1f77b4; stroke: #000000; stroke-width: 0.4; stroke-linejoin: miter"/>
   </g>
   <g id="patch_27">
    <path d="M 382.227296 137.212701 
L 385.542806 137.212701 
L 385.542806 58.320699 
L 382.227296 58.320699 
z
" clip-path="url(#pfcfada2e5e)" style="fill: #1f77b4; stroke: #000000; stroke-width: 0.4; stroke-linejoin: miter"/>
   </g>
   <g id="patch_28">
    <path d="M 396.436627 137.212701 
L 399.752137 137.212701 
L 399.752137 64.456998 
L 396.436627 64.456998 
z
" clip-path="url(#pfcfada2e5e)" style="fill: #1f77b4; stroke: #000000; stroke-width: 0.4; stroke-linejoin: miter"/>
   </g>
   <g id="patch_29">
    <path d="M 410.645957 137.212701 
L 413.961468 137.212701 
L 413.961468 61.62035 
L 410.645957 61.62035 
z
" clip-path="url(#pfcfada2e5e)" style="fill: #1f77b4; stroke: #000000; stroke-width: 0.4; stroke-linejoin: miter"/>
   </g>
   <g id="patch_30">
    <path d="M 424.855288 137.212701 
L 428.170799 137.212701 
L 428.170799 57.728774 
L 424.855288 57.728774 
z
" clip-path="url(#pfcfada2e5e)" style="fill: #1f77b4; stroke: #000000; stroke-width: 0.4; stroke-linejoin: miter"/>
   </g>
   <g id="patch_31">
    <path d="M 439.064619 137.212701 
L 442.380129 137.212701 
L 442.380129 63.424984 
L 439.064619 63.424984 
z
" clip-path="url(#pfcfada2e5e)" style="fill: #1f77b4; stroke: #000000; stroke-width: 0.4; stroke-linejoin: miter"/>
   </g>
   <g id="patch_32">
    <path d="M 453.27395 137.212701 
L 456.58946 137.212701 
L 456.58946 61.061006 
L 453.27395 61.061006 
z
" clip-path="url(#pfcfada2e5e)" style="fill: #1f77b4; stroke: #000000; stroke-width: 0.4; stroke-linejoin: miter"/>
   </g>
   <g id="patch_33">
    <path d="M 467.48328 137.212701 
L 470.798791 137.212701 
L 470.798791 68.427587 
L 467.48328 68.427587 
z
" clip-path="url(#pfcfada2e5e)" style="fill: #1f77b4; stroke: #000000; stroke-width: 0.4; stroke-linejoin: miter"/>
   </g>
   <g id="patch_34">
    <path d="M 481.692611 137.212701 
L 485.008122 137.212701 
L 485.008122 66.768109 
L 481.692611 66.768109 
z
" clip-path="url(#pfcfada2e5e)" style="fill: #1f77b4; stroke: #000000; stroke-width: 0.4; stroke-linejoin: miter"/>
   </g>
   <g id="patch_35">
    <path d="M 44.518868 137.212701 
L 47.834378 137.212701 
L 47.834378 55.044166 
L 44.518868 55.044166 
z
" clip-path="url(#pfcfada2e5e)" style="fill: #ff7f0e; stroke: #000000; stroke-width: 0.4; stroke-linejoin: miter"/>
   </g>
   <g id="patch_36">
    <path d="M 58.728199 137.212701 
L 62.043709 137.212701 
L 62.043709 55.537679 
L 58.728199 55.537679 
z
" clip-path="url(#pfcfada2e5e)" style="fill: #ff7f0e; stroke: #000000; stroke-width: 0.4; stroke-linejoin: miter"/>
   </g>
   <g id="patch_37">
    <path d="M 72.937529 137.212701 
L 76.25304 137.212701 
L 76.25304 53.328738 
L 72.937529 53.328738 
z
" clip-path="url(#pfcfada2e5e)" style="fill: #ff7f0e; stroke: #000000; stroke-width: 0.4; stroke-linejoin: miter"/>
   </g>
   <g id="patch_38">
    <path d="M 87.14686 137.212701 
L 90.462371 137.212701 
L 90.462371 59.864947 
L 87.14686 59.864947 
z
" clip-path="url(#pfcfada2e5e)" style="fill: #ff7f0e; stroke: #000000; stroke-width: 0.4; stroke-linejoin: miter"/>
   </g>
   <g id="patch_39">
    <path d="M 101.356191 137.212701 
L 104.671701 137.212701 
L 104.671701 46.390626 
L 101.356191 46.390626 
z
" clip-path="url(#pfcfada2e5e)" style="fill: #ff7f0e; stroke: #000000; stroke-width: 0.4; stroke-linejoin: miter"/>
   </g>
   <g id="patch_40">
    <path d="M 115.565522 137.212701 
L 118.881032 137.212701 
L 118.881032 51.809894 
L 115.565522 51.809894 
z
" clip-path="url(#pfcfada2e5e)" style="fill: #ff7f0e; stroke: #000000; stroke-width: 0.4; stroke-linejoin: miter"/>
   </g>
   <g id="patch_41">
    <path d="M 129.774852 137.212701 
L 133.090363 137.212701 
L 133.090363 52.903433 
L 129.774852 52.903433 
z
" clip-path="url(#pfcfada2e5e)" style="fill: #ff7f0e; stroke: #000000; stroke-width: 0.4; stroke-linejoin: miter"/>
   </g>
   <g id="patch_42">
    <path d="M 143.984183 137.212701 
L 147.299694 137.212701 
L 147.299694 41.109158 
L 143.984183 41.109158 
z
" clip-path="url(#pfcfada2e5e)" style="fill: #ff7f0e; stroke: #000000; stroke-width: 0.4; stroke-linejoin: miter"/>
   </g>
   <g id="patch_43">
    <path d="M 158.193514 137.212701 
L 161.509025 137.212701 
L 161.509025 63.357149 
L 158.193514 63.357149 
z
" clip-path="url(#pfcfada2e5e)" style="fill: #ff7f0e; stroke: #000000; stroke-width: 0.4; stroke-linejoin: miter"/>
   </g>
   <g id="patch_44">
    <path d="M 172.402845 137.212701 
L 175.718355 137.212701 
L 175.718355 55.876071 
L 172.402845 55.876071 
z
" clip-path="url(#pfcfada2e5e)" style="fill: #ff7f0e; stroke: #000000; stroke-width: 0.4; stroke-linejoin: miter"/>
   </g>
   <g id="patch_45">
    <path d="M 186.612176 137.212701 
L 189.927686 137.212701 
L 189.927686 49.264799 
L 186.612176 49.264799 
z
" clip-path="url(#pfcfada2e5e)" style="fill: #ff7f0e; stroke: #000000; stroke-width: 0.4; stroke-linejoin: miter"/>
   </g>
   <g id="patch_46">
    <path d="M 200.821506 137.212701 
L 204.137017 137.212701 
L 204.137017 50.70707 
L 200.821506 50.70707 
z
" clip-path="url(#pfcfada2e5e)" style="fill: #ff7f0e; stroke: #000000; stroke-width: 0.4; stroke-linejoin: miter"/>
   </g>
   <g id="patch_47">
    <path d="M 215.030837 137.212701 
L 218.346348 137.212701 
L 218.346348 51.157971 
L 215.030837 51.157971 
z
" clip-path="url(#pfcfada2e5e)" style="fill: #ff7f0e; stroke: #000000; stroke-width: 0.4; stroke-linejoin: miter"/>
   </g>
   <g id="patch_48">
    <path d="M 229.240168 137.212701 
L 232.555678 137.212701 
L 232.555678 43.731424 
L 229.240168 43.731424 
z
" clip-path="url(#pfcfada2e5e)" style="fill: #ff7f0e; stroke: #000000; stroke-width: 0.4; stroke-linejoin: miter"/>
   </g>
   <g id="patch_49">
    <path d="M 243.449499 137.212701 
L 246.765009 137.212701 
L 246.765009 44.887312 
L 243.449499 44.887312 
z
" clip-path="url(#pfcfada2e5e)" style="fill: #ff7f0e; stroke: #000000; stroke-width: 0.4; stroke-linejoin: miter"/>
   </g>
   <g id="patch_50">
    <path d="M 257.658829 137.212701 
L 260.97434 137.212701 
L 260.97434 55.473246 
L 257.658829 55.473246 
z
" clip-path="url(#pfcfada2e5e)" style="fill: #ff7f0e; stroke: #000000; stroke-width: 0.4; stroke-linejoin: miter"/>
   </g>
   <g id="patch_51">
    <path d="M 271.86816 137.212701 
L 275.183671 137.212701 
L 275.183671 51.059195 
L 271.86816 51.059195 
z
" clip-path="url(#pfcfada2e5e)" style="fill: #ff7f0e; stroke: #000000; stroke-width: 0.4; stroke-linejoin: miter"/>
   </g>
   <g id="patch_52">
    <path d="M 286.077491 137.212701 
L 289.393001 137.212701 
L 289.393001 51.416713 
L 286.077491 51.416713 
z
" clip-path="url(#pfcfada2e5e)" style="fill: #ff7f0e; stroke: #000000; stroke-width: 0.4; stroke-linejoin: miter"/>
   </g>
   <g id="patch_53">
    <path d="M 300.286822 137.212701 
L 303.602332 137.212701 
L 303.602332 58.642859 
L 300.286822 58.642859 
z
" clip-path="url(#pfcfada2e5e)" style="fill: #ff7f0e; stroke: #000000; stroke-width: 0.4; stroke-linejoin: miter"/>
   </g>
   <g id="patch_54">
    <path d="M 314.496152 137.212701 
L 317.811663 137.212701 
L 317.811663 57.975482 
L 314.496152 57.975482 
z
" clip-path="url(#pfcfada2e5e)" style="fill: #ff7f0e; stroke: #000000; stroke-width: 0.4; stroke-linejoin: miter"/>
   </g>
   <g id="patch_55">
    <path d="M 328.705483 137.212701 
L 332.020994 137.212701 
L 332.020994 64.666192 
L 328.705483 64.666192 
z
" clip-path="url(#pfcfada2e5e)" style="fill: #ff7f0e; stroke: #000000; stroke-width: 0.4; stroke-linejoin: miter"/>
   </g>
   <g id="patch_56">
    <path d="M 342.914814 137.212701 
L 346.230324 137.212701 
L 346.230324 44.751977 
L 342.914814 44.751977 
z
" clip-path="url(#pfcfada2e5e)" style="fill: #ff7f0e; stroke: #000000; stroke-width: 0.4; stroke-linejoin: miter"/>
   </g>
   <g id="patch_57">
    <path d="M 357.124145 137.212701 
L 360.439655 137.212701 
L 360.439655 51.299682 
L 357.124145 51.299682 
z
" clip-path="url(#pfcfada2e5e)" style="fill: #ff7f0e; stroke: #000000; stroke-width: 0.4; stroke-linejoin: miter"/>
   </g>
   <g id="patch_58">
    <path d="M 371.333475 137.212701 
L 374.648986 137.212701 
L 374.648986 59.596268 
L 371.333475 59.596268 
z
" clip-path="url(#pfcfada2e5e)" style="fill: #ff7f0e; stroke: #000000; stroke-width: 0.4; stroke-linejoin: miter"/>
   </g>
   <g id="patch_59">
    <path d="M 385.542806 137.212701 
L 388.858317 137.212701 
L 388.858317 45.115954 
L 385.542806 45.115954 
z
" clip-path="url(#pfcfada2e5e)" style="fill: #ff7f0e; stroke: #000000; stroke-width: 0.4; stroke-linejoin: miter"/>
   </g>
   <g id="patch_60">
    <path d="M 399.752137 137.212701 
L 403.067648 137.212701 
L 403.067648 51.292968 
L 399.752137 51.292968 
z
" clip-path="url(#pfcfada2e5e)" style="fill: #ff7f0e; stroke: #000000; stroke-width: 0.4; stroke-linejoin: miter"/>
   </g>
   <g id="patch_61">
    <path d="M 413.961468 137.212701 
L 417.276978 137.212701 
L 417.276978 50.047901 
L 413.961468 50.047901 
z
" clip-path="url(#pfcfada2e5e)" style="fill: #ff7f0e; stroke: #000000; stroke-width: 0.4; stroke-linejoin: miter"/>
   </g>
   <g id="patch_62">
    <path d="M 428.170799 137.212701 
L 431.486309 137.212701 
L 431.486309 43.092283 
L 428.170799 43.092283 
z
" clip-path="url(#pfcfada2e5e)" style="fill: #ff7f0e; stroke: #000000; stroke-width: 0.4; stroke-linejoin: miter"/>
   </g>
   <g id="patch_63">
    <path d="M 442.380129 137.212701 
L 445.69564 137.212701 
L 445.69564 48.644606 
L 442.380129 48.644606 
z
" clip-path="url(#pfcfada2e5e)" style="fill: #ff7f0e; stroke: #000000; stroke-width: 0.4; stroke-linejoin: miter"/>
   </g>
   <g id="patch_64">
    <path d="M 456.58946 137.212701 
L 459.904971 137.212701 
L 459.904971 52.91701 
L 456.58946 52.91701 
z
" clip-path="url(#pfcfada2e5e)" style="fill: #ff7f0e; stroke: #000000; stroke-width: 0.4; stroke-linejoin: miter"/>
   </g>
   <g id="patch_65">
    <path d="M 470.798791 137.212701 
L 474.114301 137.212701 
L 474.114301 63.889397 
L 470.798791 63.889397 
z
" clip-path="url(#pfcfada2e5e)" style="fill: #ff7f0e; stroke: #000000; stroke-width: 0.4; stroke-linejoin: miter"/>
   </g>
   <g id="patch_66">
    <path d="M 485.008122 137.212701 
L 488.323632 137.212701 
L 488.323632 60.648283 
L 485.008122 60.648283 
z
" clip-path="url(#pfcfada2e5e)" style="fill: #ff7f0e; stroke: #000000; stroke-width: 0.4; stroke-linejoin: miter"/>
   </g>
   <g id="patch_67">
    <path d="M 47.834378 137.212701 
L 51.149889 137.212701 
L 51.149889 59.618584 
L 47.834378 59.618584 
z
" clip-path="url(#pfcfada2e5e)" style="fill: #2ca02c; stroke: #000000; stroke-width: 0.4; stroke-linejoin: miter"/>
   </g>
   <g id="patch_68">
    <path d="M 62.043709 137.212701 
L 65.35922 137.212701 
L 65.35922 59.197159 
L 62.043709 59.197159 
z
" clip-path="url(#pfcfada2e5e)" style="fill: #2ca02c; stroke: #000000; stroke-width: 0.4; stroke-linejoin: miter"/>
   </g>
   <g id="patch_69">
    <path d="M 76.25304 137.212701 
L 79.56855 137.212701 
L 79.56855 57.258065 
L 76.25304 57.258065 
z
" clip-path="url(#pfcfada2e5e)" style="fill: #2ca02c; stroke: #000000; stroke-width: 0.4; stroke-linejoin: miter"/>
   </g>
   <g id="patch_70">
    <path d="M 90.462371 137.212701 
L 93.777881 137.212701 
L 93.777881 62.275866 
L 90.462371 62.275866 
z
" clip-path="url(#pfcfada2e5e)" style="fill: #2ca02c; stroke: #000000; stroke-width: 0.4; stroke-linejoin: miter"/>
   </g>
   <g id="patch_71">
    <path d="M 104.671701 137.212701 
L 107.987212 137.212701 
L 107.987212 61.233837 
L 104.671701 61.233837 
z
" clip-path="url(#pfcfada2e5e)" style="fill: #2ca02c; stroke: #000000; stroke-width: 0.4; stroke-linejoin: miter"/>
   </g>
   <g id="patch_72">
    <path d="M 118.881032 137.212701 
L 122.196543 137.212701 
L 122.196543 61.106475 
L 118.881032 61.106475 
z
" clip-path="url(#pfcfada2e5e)" style="fill: #2ca02c; stroke: #000000; stroke-width: 0.4; stroke-linejoin: miter"/>
   </g>
   <g id="patch_73">
    <path d="M 133.090363 137.212701 
L 136.405873 137.212701 
L 136.405873 58.187243 
L 133.090363 58.187243 
z
" clip-path="url(#pfcfada2e5e)" style="fill: #2ca02c; stroke: #000000; stroke-width: 0.4; stroke-linejoin: miter"/>
   </g>
   <g id="patch_74">
    <path d="M 147.299694 137.212701 
L 150.615204 137.212701 
L 150.615204 59.636175 
L 147.299694 59.636175 
z
" clip-path="url(#pfcfada2e5e)" style="fill: #2ca02c; stroke: #000000; stroke-width: 0.4; stroke-linejoin: miter"/>
   </g>
   <g id="patch_75">
    <path d="M 161.509025 137.212701 
L 164.824535 137.212701 
L 164.824535 62.94604 
L 161.509025 62.94604 
z
" clip-path="url(#pfcfada2e5e)" style="fill: #2ca02c; stroke: #000000; stroke-width: 0.4; stroke-linejoin: miter"/>
   </g>
   <g id="patch_76">
    <path d="M 175.718355 137.212701 
L 179.033866 137.212701 
L 179.033866 59.104638 
L 175.718355 59.104638 
z
" clip-path="url(#pfcfada2e5e)" style="fill: #2ca02c; stroke: #000000; stroke-width: 0.4; stroke-linejoin: miter"/>
   </g>
   <g id="patch_77">
    <path d="M 189.927686 137.212701 
L 193.243197 137.212701 
L 193.243197 64.998028 
L 189.927686 64.998028 
z
" clip-path="url(#pfcfada2e5e)" style="fill: #2ca02c; stroke: #000000; stroke-width: 0.4; stroke-linejoin: miter"/>
   </g>
   <g id="patch_78">
    <path d="M 204.137017 137.212701 
L 207.452527 137.212701 
L 207.452527 61.086149 
L 204.137017 61.086149 
z
" clip-path="url(#pfcfada2e5e)" style="fill: #2ca02c; stroke: #000000; stroke-width: 0.4; stroke-linejoin: miter"/>
   </g>
   <g id="patch_79">
    <path d="M 218.346348 137.212701 
L 221.661858 137.212701 
L 221.661858 60.580403 
L 218.346348 60.580403 
z
" clip-path="url(#pfcfada2e5e)" style="fill: #2ca02c; stroke: #000000; stroke-width: 0.4; stroke-linejoin: miter"/>
   </g>
   <g id="patch_80">
    <path d="M 232.555678 137.212701 
L 235.871189 137.212701 
L 235.871189 63.366331 
L 232.555678 63.366331 
z
" clip-path="url(#pfcfada2e5e)" style="fill: #2ca02c; stroke: #000000; stroke-width: 0.4; stroke-linejoin: miter"/>
   </g>
   <g id="patch_81">
    <path d="M 246.765009 137.212701 
L 250.08052 137.212701 
L 250.08052 57.697905 
L 246.765009 57.697905 
z
" clip-path="url(#pfcfada2e5e)" style="fill: #2ca02c; stroke: #000000; stroke-width: 0.4; stroke-linejoin: miter"/>
   </g>
   <g id="patch_82">
    <path d="M 260.97434 137.212701 
L 264.28985 137.212701 
L 264.28985 61.104079 
L 260.97434 61.104079 
z
" clip-path="url(#pfcfada2e5e)" style="fill: #2ca02c; stroke: #000000; stroke-width: 0.4; stroke-linejoin: miter"/>
   </g>
   <g id="patch_83">
    <path d="M 275.183671 137.212701 
L 278.499181 137.212701 
L 278.499181 57.888254 
L 275.183671 57.888254 
z
" clip-path="url(#pfcfada2e5e)" style="fill: #2ca02c; stroke: #000000; stroke-width: 0.4; stroke-linejoin: miter"/>
   </g>
   <g id="patch_84">
    <path d="M 289.393001 137.212701 
L 292.708512 137.212701 
L 292.708512 63.654384 
L 289.393001 63.654384 
z
" clip-path="url(#pfcfada2e5e)" style="fill: #2ca02c; stroke: #000000; stroke-width: 0.4; stroke-linejoin: miter"/>
   </g>
   <g id="patch_85">
    <path d="M 303.602332 137.212701 
L 306.917843 137.212701 
L 306.917843 61.859215 
L 303.602332 61.859215 
z
" clip-path="url(#pfcfada2e5e)" style="fill: #2ca02c; stroke: #000000; stroke-width: 0.4; stroke-linejoin: miter"/>
   </g>
   <g id="patch_86">
    <path d="M 317.811663 137.212701 
L 321.127173 137.212701 
L 321.127173 55.697843 
L 317.811663 55.697843 
z
" clip-path="url(#pfcfada2e5e)" style="fill: #2ca02c; stroke: #000000; stroke-width: 0.4; stroke-linejoin: miter"/>
   </g>
   <g id="patch_87">
    <path d="M 332.020994 137.212701 
L 335.336504 137.212701 
L 335.336504 65.757783 
L 332.020994 65.757783 
z
" clip-path="url(#pfcfada2e5e)" style="fill: #2ca02c; stroke: #000000; stroke-width: 0.4; stroke-linejoin: miter"/>
   </g>
   <g id="patch_88">
    <path d="M 346.230324 137.212701 
L 349.545835 137.212701 
L 349.545835 63.339329 
L 346.230324 63.339329 
z
" clip-path="url(#pfcfada2e5e)" style="fill: #2ca02c; stroke: #000000; stroke-width: 0.4; stroke-linejoin: miter"/>
   </g>
   <g id="patch_89">
    <path d="M 360.439655 137.212701 
L 363.755166 137.212701 
L 363.755166 62.539793 
L 360.439655 62.539793 
z
" clip-path="url(#pfcfada2e5e)" style="fill: #2ca02c; stroke: #000000; stroke-width: 0.4; stroke-linejoin: miter"/>
   </g>
   <g id="patch_90">
    <path d="M 374.648986 137.212701 
L 377.964497 137.212701 
L 377.964497 57.585504 
L 374.648986 57.585504 
z
" clip-path="url(#pfcfada2e5e)" style="fill: #2ca02c; stroke: #000000; stroke-width: 0.4; stroke-linejoin: miter"/>
   </g>
   <g id="patch_91">
    <path d="M 388.858317 137.212701 
L 392.173827 137.212701 
L 392.173827 61.913891 
L 388.858317 61.913891 
z
" clip-path="url(#pfcfada2e5e)" style="fill: #2ca02c; stroke: #000000; stroke-width: 0.4; stroke-linejoin: miter"/>
   </g>
   <g id="patch_92">
    <path d="M 403.067648 137.212701 
L 406.383158 137.212701 
L 406.383158 63.172045 
L 403.067648 63.172045 
z
" clip-path="url(#pfcfada2e5e)" style="fill: #2ca02c; stroke: #000000; stroke-width: 0.4; stroke-linejoin: miter"/>
   </g>
   <g id="patch_93">
    <path d="M 417.276978 137.212701 
L 420.592489 137.212701 
L 420.592489 66.316467 
L 417.276978 66.316467 
z
" clip-path="url(#pfcfada2e5e)" style="fill: #2ca02c; stroke: #000000; stroke-width: 0.4; stroke-linejoin: miter"/>
   </g>
   <g id="patch_94">
    <path d="M 431.486309 137.212701 
L 434.80182 137.212701 
L 434.80182 61.341375 
L 431.486309 61.341375 
z
" clip-path="url(#pfcfada2e5e)" style="fill: #2ca02c; stroke: #000000; stroke-width: 0.4; stroke-linejoin: miter"/>
   </g>
   <g id="patch_95">
    <path d="M 445.69564 137.212701 
L 449.01115 137.212701 
L 449.01115 60.262807 
L 445.69564 60.262807 
z
" clip-path="url(#pfcfada2e5e)" style="fill: #2ca02c; stroke: #000000; stroke-width: 0.4; stroke-linejoin: miter"/>
   </g>
   <g id="patch_96">
    <path d="M 459.904971 137.212701 
L 463.220481 137.212701 
L 463.220481 58.502035 
L 459.904971 58.502035 
z
" clip-path="url(#pfcfada2e5e)" style="fill: #2ca02c; stroke: #000000; stroke-width: 0.4; stroke-linejoin: miter"/>
   </g>
   <g id="patch_97">
    <path d="M 474.114301 137.212701 
L 477.429812 137.212701 
L 477.429812 68.715071 
L 474.114301 68.715071 
z
" clip-path="url(#pfcfada2e5e)" style="fill: #2ca02c; stroke: #000000; stroke-width: 0.4; stroke-linejoin: miter"/>
   </g>
   <g id="patch_98">
    <path d="M 488.323632 137.212701 
L 491.639143 137.212701 
L 491.639143 62.094226 
L 488.323632 62.094226 
z
" clip-path="url(#pfcfada2e5e)" style="fill: #2ca02c; stroke: #000000; stroke-width: 0.4; stroke-linejoin: miter"/>
   </g>
   <g id="matplotlib.axis_1">
    <g id="xtick_1">
     <g id="line2d_1">
      <defs>
       <path id="m08f35c32d2" d="M 0 0 
L 0 3.5 
" style="stroke: #000000; stroke-width: 0.8"/>
      </defs>
      <g>
       <use xlink:href="#m08f35c32d2" x="46.176623" y="137.212701" style="stroke: #000000; stroke-width: 0.8"/>
      </g>
     </g>
     <g id="text_1">
      <!-- ABEHAU -->
      <g transform="translate(26.96188 171.525585) rotate(-45) scale(0.08 -0.08)">
       <defs>
        <path id="ArialMT-41" d="M -9 0 
L 1750 4581 
L 2403 4581 
L 4278 0 
L 3588 0 
L 3053 1388 
L 1138 1388 
L 634 0 
L -9 0 
z
M 1313 1881 
L 2866 1881 
L 2388 3150 
Q 2169 3728 2063 4100 
Q 1975 3659 1816 3225 
L 1313 1881 
z
" transform="scale(0.015625)"/>
        <path id="ArialMT-42" d="M 469 0 
L 469 4581 
L 2188 4581 
Q 2713 4581 3030 4442 
Q 3347 4303 3526 4014 
Q 3706 3725 3706 3409 
Q 3706 3116 3547 2856 
Q 3388 2597 3066 2438 
Q 3481 2316 3704 2022 
Q 3928 1728 3928 1328 
Q 3928 1006 3792 729 
Q 3656 453 3456 303 
Q 3256 153 2954 76 
Q 2653 0 2216 0 
L 469 0 
z
M 1075 2656 
L 2066 2656 
Q 2469 2656 2644 2709 
Q 2875 2778 2992 2937 
Q 3109 3097 3109 3338 
Q 3109 3566 3000 3739 
Q 2891 3913 2687 3977 
Q 2484 4041 1991 4041 
L 1075 4041 
L 1075 2656 
z
M 1075 541 
L 2216 541 
Q 2509 541 2628 563 
Q 2838 600 2978 687 
Q 3119 775 3209 942 
Q 3300 1109 3300 1328 
Q 3300 1584 3169 1773 
Q 3038 1963 2805 2039 
Q 2572 2116 2134 2116 
L 1075 2116 
L 1075 541 
z
" transform="scale(0.015625)"/>
        <path id="ArialMT-45" d="M 506 0 
L 506 4581 
L 3819 4581 
L 3819 4041 
L 1113 4041 
L 1113 2638 
L 3647 2638 
L 3647 2100 
L 1113 2100 
L 1113 541 
L 3925 541 
L 3925 0 
L 506 0 
z
" transform="scale(0.015625)"/>
        <path id="ArialMT-48" d="M 513 0 
L 513 4581 
L 1119 4581 
L 1119 2700 
L 3500 2700 
L 3500 4581 
L 4106 4581 
L 4106 0 
L 3500 0 
L 3500 2159 
L 1119 2159 
L 1119 0 
L 513 0 
z
" transform="scale(0.015625)"/>
        <path id="ArialMT-55" d="M 3500 4581 
L 4106 4581 
L 4106 1934 
Q 4106 1244 3950 837 
Q 3794 431 3386 176 
Q 2978 -78 2316 -78 
Q 1672 -78 1262 144 
Q 853 366 678 786 
Q 503 1206 503 1934 
L 503 4581 
L 1109 4581 
L 1109 1938 
Q 1109 1341 1220 1058 
Q 1331 775 1601 622 
Q 1872 469 2263 469 
Q 2931 469 3215 772 
Q 3500 1075 3500 1938 
L 3500 4581 
z
" transform="scale(0.015625)"/>
       </defs>
       <use xlink:href="#ArialMT-41"/>
       <use xlink:href="#ArialMT-42" x="66.699219"/>
       <use xlink:href="#ArialMT-45" x="133.398438"/>
       <use xlink:href="#ArialMT-48" x="200.097656"/>
       <use xlink:href="#ArialMT-41" x="272.314453"/>
       <use xlink:href="#ArialMT-55" x="339.013672"/>
      </g>
     </g>
    </g>
    <g id="xtick_2">
     <g id="line2d_2">
      <g>
       <use xlink:href="#m08f35c32d2" x="60.385954" y="137.212701" style="stroke: #000000; stroke-width: 0.8"/>
      </g>
     </g>
     <g id="text_2">
      <!-- TITTUO -->
      <g transform="translate(44.012896 168.683899) rotate(-45) scale(0.08 -0.08)">
       <defs>
        <path id="ArialMT-54" d="M 1659 0 
L 1659 4041 
L 150 4041 
L 150 4581 
L 3781 4581 
L 3781 4041 
L 2266 4041 
L 2266 0 
L 1659 0 
z
" transform="scale(0.015625)"/>
        <path id="ArialMT-49" d="M 597 0 
L 597 4581 
L 1203 4581 
L 1203 0 
L 597 0 
z
" transform="scale(0.015625)"/>
        <path id="ArialMT-4f" d="M 309 2231 
Q 309 3372 921 4017 
Q 1534 4663 2503 4663 
Q 3138 4663 3647 4359 
Q 4156 4056 4423 3514 
Q 4691 2972 4691 2284 
Q 4691 1588 4409 1038 
Q 4128 488 3612 205 
Q 3097 -78 2500 -78 
Q 1853 -78 1343 234 
Q 834 547 571 1087 
Q 309 1628 309 2231 
z
M 934 2222 
Q 934 1394 1379 917 
Q 1825 441 2497 441 
Q 3181 441 3623 922 
Q 4066 1403 4066 2288 
Q 4066 2847 3877 3264 
Q 3688 3681 3323 3911 
Q 2959 4141 2506 4141 
Q 1863 4141 1398 3698 
Q 934 3256 934 2222 
z
" transform="scale(0.015625)"/>
       </defs>
       <use xlink:href="#ArialMT-54"/>
       <use xlink:href="#ArialMT-49" x="61.083984"/>
       <use xlink:href="#ArialMT-54" x="88.867188"/>
       <use xlink:href="#ArialMT-54" x="149.951172"/>
       <use xlink:href="#ArialMT-55" x="211.035156"/>
       <use xlink:href="#ArialMT-4f" x="283.251953"/>
      </g>
     </g>
    </g>
    <g id="xtick_3">
     <g id="line2d_3">
      <g>
       <use xlink:href="#m08f35c32d2" x="74.595285" y="137.212701" style="stroke: #000000; stroke-width: 0.8"/>
      </g>
     </g>
     <g id="text_3">
      <!-- EGEYOG -->
      <g transform="translate(54.124543 172.781583) rotate(-45) scale(0.08 -0.08)">
       <defs>
        <path id="ArialMT-47" d="M 2638 1797 
L 2638 2334 
L 4578 2338 
L 4578 638 
Q 4131 281 3656 101 
Q 3181 -78 2681 -78 
Q 2006 -78 1454 211 
Q 903 500 622 1047 
Q 341 1594 341 2269 
Q 341 2938 620 3517 
Q 900 4097 1425 4378 
Q 1950 4659 2634 4659 
Q 3131 4659 3532 4498 
Q 3934 4338 4162 4050 
Q 4391 3763 4509 3300 
L 3963 3150 
Q 3859 3500 3706 3700 
Q 3553 3900 3268 4020 
Q 2984 4141 2638 4141 
Q 2222 4141 1919 4014 
Q 1616 3888 1430 3681 
Q 1244 3475 1141 3228 
Q 966 2803 966 2306 
Q 966 1694 1177 1281 
Q 1388 869 1791 669 
Q 2194 469 2647 469 
Q 3041 469 3416 620 
Q 3791 772 3984 944 
L 3984 1797 
L 2638 1797 
z
" transform="scale(0.015625)"/>
        <path id="ArialMT-59" d="M 1784 0 
L 1784 1941 
L 19 4581 
L 756 4581 
L 1659 3200 
Q 1909 2813 2125 2425 
Q 2331 2784 2625 3234 
L 3513 4581 
L 4219 4581 
L 2391 1941 
L 2391 0 
L 1784 0 
z
" transform="scale(0.015625)"/>
       </defs>
       <use xlink:href="#ArialMT-45"/>
       <use xlink:href="#ArialMT-47" x="66.699219"/>
       <use xlink:href="#ArialMT-45" x="144.482422"/>
       <use xlink:href="#ArialMT-59" x="211.181641"/>
       <use xlink:href="#ArialMT-4f" x="277.880859"/>
       <use xlink:href="#ArialMT-47" x="355.664062"/>
      </g>
     </g>
    </g>
    <g id="xtick_4">
     <g id="line2d_4">
      <g>
       <use xlink:href="#m08f35c32d2" x="88.804615" y="137.212701" style="stroke: #000000; stroke-width: 0.8"/>
      </g>
     </g>
     <g id="text_4">
      <!-- ABOBUP -->
      <g transform="translate(69.27521 171.840247) rotate(-45) scale(0.08 -0.08)">
       <defs>
        <path id="ArialMT-50" d="M 494 0 
L 494 4581 
L 2222 4581 
Q 2678 4581 2919 4538 
Q 3256 4481 3484 4323 
Q 3713 4166 3852 3881 
Q 3991 3597 3991 3256 
Q 3991 2672 3619 2267 
Q 3247 1863 2275 1863 
L 1100 1863 
L 1100 0 
L 494 0 
z
M 1100 2403 
L 2284 2403 
Q 2872 2403 3119 2622 
Q 3366 2841 3366 3238 
Q 3366 3525 3220 3729 
Q 3075 3934 2838 4000 
Q 2684 4041 2272 4041 
L 1100 4041 
L 1100 2403 
z
" transform="scale(0.015625)"/>
       </defs>
       <use xlink:href="#ArialMT-41"/>
       <use xlink:href="#ArialMT-42" x="66.699219"/>
       <use xlink:href="#ArialMT-4f" x="133.398438"/>
       <use xlink:href="#ArialMT-42" x="211.181641"/>
       <use xlink:href="#ArialMT-55" x="277.880859"/>
       <use xlink:href="#ArialMT-50" x="350.097656"/>
      </g>
     </g>
    </g>
    <g id="xtick_5">
     <g id="line2d_5">
      <g>
       <use xlink:href="#m08f35c32d2" x="103.013946" y="137.212701" style="stroke: #000000; stroke-width: 0.8"/>
      </g>
     </g>
     <g id="text_5">
      <!-- XIDTOW -->
      <g transform="translate(84.537246 170.787542) rotate(-45) scale(0.08 -0.08)">
       <defs>
        <path id="ArialMT-58" d="M 28 0 
L 1800 2388 
L 238 4581 
L 959 4581 
L 1791 3406 
Q 2050 3041 2159 2844 
Q 2313 3094 2522 3366 
L 3444 4581 
L 4103 4581 
L 2494 2422 
L 4228 0 
L 3478 0 
L 2325 1634 
Q 2228 1775 2125 1941 
Q 1972 1691 1906 1597 
L 756 0 
L 28 0 
z
" transform="scale(0.015625)"/>
        <path id="ArialMT-44" d="M 494 0 
L 494 4581 
L 2072 4581 
Q 2606 4581 2888 4516 
Q 3281 4425 3559 4188 
Q 3922 3881 4101 3404 
Q 4281 2928 4281 2316 
Q 4281 1794 4159 1391 
Q 4038 988 3847 723 
Q 3656 459 3429 307 
Q 3203 156 2883 78 
Q 2563 0 2147 0 
L 494 0 
z
M 1100 541 
L 2078 541 
Q 2531 541 2789 625 
Q 3047 709 3200 863 
Q 3416 1078 3536 1442 
Q 3656 1806 3656 2325 
Q 3656 3044 3420 3430 
Q 3184 3816 2847 3947 
Q 2603 4041 2063 4041 
L 1100 4041 
L 1100 541 
z
" transform="scale(0.015625)"/>
        <path id="ArialMT-57" d="M 1294 0 
L 78 4581 
L 700 4581 
L 1397 1578 
Q 1509 1106 1591 641 
Q 1766 1375 1797 1488 
L 2669 4581 
L 3400 4581 
L 4056 2263 
Q 4303 1400 4413 641 
Q 4500 1075 4641 1638 
L 5359 4581 
L 5969 4581 
L 4713 0 
L 4128 0 
L 3163 3491 
Q 3041 3928 3019 4028 
Q 2947 3713 2884 3491 
L 1913 0 
L 1294 0 
z
" transform="scale(0.015625)"/>
       </defs>
       <use xlink:href="#ArialMT-58"/>
       <use xlink:href="#ArialMT-49" x="66.699219"/>
       <use xlink:href="#ArialMT-44" x="94.482422"/>
       <use xlink:href="#ArialMT-54" x="166.699219"/>
       <use xlink:href="#ArialMT-4f" x="226.033203"/>
       <use xlink:href="#ArialMT-57" x="303.816406"/>
      </g>
     </g>
    </g>
    <g id="xtick_6">
     <g id="line2d_6">
      <g>
       <use xlink:href="#m08f35c32d2" x="117.223277" y="137.212701" style="stroke: #000000; stroke-width: 0.8"/>
      </g>
     </g>
     <g id="text_6">
      <!-- ACNCOB10 -->
      <g transform="translate(90.778367 178.755751) rotate(-45) scale(0.08 -0.08)">
       <defs>
        <path id="ArialMT-43" d="M 3763 1606 
L 4369 1453 
Q 4178 706 3683 314 
Q 3188 -78 2472 -78 
Q 1731 -78 1267 223 
Q 803 525 561 1097 
Q 319 1669 319 2325 
Q 319 3041 592 3573 
Q 866 4106 1370 4382 
Q 1875 4659 2481 4659 
Q 3169 4659 3637 4309 
Q 4106 3959 4291 3325 
L 3694 3184 
Q 3534 3684 3231 3912 
Q 2928 4141 2469 4141 
Q 1941 4141 1586 3887 
Q 1231 3634 1087 3207 
Q 944 2781 944 2328 
Q 944 1744 1114 1308 
Q 1284 872 1643 656 
Q 2003 441 2422 441 
Q 2931 441 3284 734 
Q 3638 1028 3763 1606 
z
" transform="scale(0.015625)"/>
        <path id="ArialMT-4e" d="M 488 0 
L 488 4581 
L 1109 4581 
L 3516 984 
L 3516 4581 
L 4097 4581 
L 4097 0 
L 3475 0 
L 1069 3600 
L 1069 0 
L 488 0 
z
" transform="scale(0.015625)"/>
        <path id="ArialMT-31" d="M 2384 0 
L 1822 0 
L 1822 3584 
Q 1619 3391 1289 3197 
Q 959 3003 697 2906 
L 697 3450 
Q 1169 3672 1522 3987 
Q 1875 4303 2022 4600 
L 2384 4600 
L 2384 0 
z
" transform="scale(0.015625)"/>
        <path id="ArialMT-30" d="M 266 2259 
Q 266 3072 433 3567 
Q 600 4063 929 4331 
Q 1259 4600 1759 4600 
Q 2128 4600 2406 4451 
Q 2684 4303 2865 4023 
Q 3047 3744 3150 3342 
Q 3253 2941 3253 2259 
Q 3253 1453 3087 958 
Q 2922 463 2592 192 
Q 2263 -78 1759 -78 
Q 1097 -78 719 397 
Q 266 969 266 2259 
z
M 844 2259 
Q 844 1131 1108 757 
Q 1372 384 1759 384 
Q 2147 384 2411 759 
Q 2675 1134 2675 2259 
Q 2675 3391 2411 3762 
Q 2147 4134 1753 4134 
Q 1366 4134 1134 3806 
Q 844 3388 844 2259 
z
" transform="scale(0.015625)"/>
       </defs>
       <use xlink:href="#ArialMT-41"/>
       <use xlink:href="#ArialMT-43" x="66.699219"/>
       <use xlink:href="#ArialMT-4e" x="138.916016"/>
       <use xlink:href="#ArialMT-43" x="211.132812"/>
       <use xlink:href="#ArialMT-4f" x="283.349609"/>
       <use xlink:href="#ArialMT-42" x="361.132812"/>
       <use xlink:href="#ArialMT-31" x="427.832031"/>
       <use xlink:href="#ArialMT-30" x="483.447266"/>
      </g>
     </g>
    </g>
    <g id="xtick_7">
     <g id="line2d_7">
      <g>
       <use xlink:href="#m08f35c32d2" x="131.432608" y="137.212701" style="stroke: #000000; stroke-width: 0.8"/>
      </g>
     </g>
     <g id="text_7">
      <!-- TACXUQ -->
      <g transform="translate(112.326582 171.416867) rotate(-45) scale(0.08 -0.08)">
       <defs>
        <path id="ArialMT-51" d="M 3966 491 
Q 4388 200 4744 66 
L 4566 -356 
Q 4072 -178 3581 206 
Q 3072 -78 2456 -78 
Q 1834 -78 1328 222 
Q 822 522 548 1065 
Q 275 1609 275 2291 
Q 275 2969 550 3525 
Q 825 4081 1333 4372 
Q 1841 4663 2469 4663 
Q 3103 4663 3612 4361 
Q 4122 4059 4389 3517 
Q 4656 2975 4656 2294 
Q 4656 1728 4484 1276 
Q 4313 825 3966 491 
z
M 2631 1266 
Q 3156 1119 3497 828 
Q 4031 1316 4031 2294 
Q 4031 2850 3842 3265 
Q 3653 3681 3289 3911 
Q 2925 4141 2472 4141 
Q 1794 4141 1347 3677 
Q 900 3213 900 2291 
Q 900 1397 1342 919 
Q 1784 441 2472 441 
Q 2797 441 3084 563 
Q 2800 747 2484 825 
L 2631 1266 
z
" transform="scale(0.015625)"/>
       </defs>
       <use xlink:href="#ArialMT-54"/>
       <use xlink:href="#ArialMT-41" x="53.708984"/>
       <use xlink:href="#ArialMT-43" x="120.408203"/>
       <use xlink:href="#ArialMT-58" x="192.625"/>
       <use xlink:href="#ArialMT-55" x="259.324219"/>
       <use xlink:href="#ArialMT-51" x="331.541016"/>
      </g>
     </g>
    </g>
    <g id="xtick_8">
     <g id="line2d_8">
      <g>
       <use xlink:href="#m08f35c32d2" x="145.641938" y="137.212701" style="stroke: #000000; stroke-width: 0.8"/>
      </g>
     </g>
     <g id="text_8">
      <!-- ACAZFE -->
      <g transform="translate(127.375603 170.577178) rotate(-45) scale(0.08 -0.08)">
       <defs>
        <path id="ArialMT-5a" d="M 128 0 
L 128 563 
L 2475 3497 
Q 2725 3809 2950 4041 
L 394 4041 
L 394 4581 
L 3675 4581 
L 3675 4041 
L 1103 863 
L 825 541 
L 3750 541 
L 3750 0 
L 128 0 
z
" transform="scale(0.015625)"/>
        <path id="ArialMT-46" d="M 525 0 
L 525 4581 
L 3616 4581 
L 3616 4041 
L 1131 4041 
L 1131 2622 
L 3281 2622 
L 3281 2081 
L 1131 2081 
L 1131 0 
L 525 0 
z
" transform="scale(0.015625)"/>
       </defs>
       <use xlink:href="#ArialMT-41"/>
       <use xlink:href="#ArialMT-43" x="66.699219"/>
       <use xlink:href="#ArialMT-41" x="138.916016"/>
       <use xlink:href="#ArialMT-5a" x="205.615234"/>
       <use xlink:href="#ArialMT-46" x="266.699219"/>
       <use xlink:href="#ArialMT-45" x="327.783203"/>
      </g>
     </g>
    </g>
    <g id="xtick_9">
     <g id="line2d_9">
      <g>
       <use xlink:href="#m08f35c32d2" x="159.851269" y="137.212701" style="stroke: #000000; stroke-width: 0.8"/>
      </g>
     </g>
     <g id="text_9">
      <!-- NIVHEJ -->
      <g transform="translate(143.783152 168.378959) rotate(-45) scale(0.08 -0.08)">
       <defs>
        <path id="ArialMT-56" d="M 1803 0 
L 28 4581 
L 684 4581 
L 1875 1253 
Q 2019 853 2116 503 
Q 2222 878 2363 1253 
L 3600 4581 
L 4219 4581 
L 2425 0 
L 1803 0 
z
" transform="scale(0.015625)"/>
        <path id="ArialMT-4a" d="M 184 1300 
L 731 1375 
Q 753 850 928 656 
Q 1103 463 1413 463 
Q 1641 463 1806 567 
Q 1972 672 2034 851 
Q 2097 1031 2097 1425 
L 2097 4581 
L 2703 4581 
L 2703 1459 
Q 2703 884 2564 568 
Q 2425 253 2123 87 
Q 1822 -78 1416 -78 
Q 813 -78 492 269 
Q 172 616 184 1300 
z
" transform="scale(0.015625)"/>
       </defs>
       <use xlink:href="#ArialMT-4e"/>
       <use xlink:href="#ArialMT-49" x="72.216797"/>
       <use xlink:href="#ArialMT-56" x="100"/>
       <use xlink:href="#ArialMT-48" x="166.699219"/>
       <use xlink:href="#ArialMT-45" x="238.916016"/>
       <use xlink:href="#ArialMT-4a" x="305.615234"/>
      </g>
     </g>
    </g>
    <g id="xtick_10">
     <g id="line2d_10">
      <g>
       <use xlink:href="#m08f35c32d2" x="174.0606" y="137.212701" style="stroke: #000000; stroke-width: 0.8"/>
      </g>
     </g>
     <g id="text_10">
      <!-- ADUPAS -->
      <g transform="translate(155.26305 171.108392) rotate(-45) scale(0.08 -0.08)">
       <defs>
        <path id="ArialMT-53" d="M 288 1472 
L 859 1522 
Q 900 1178 1048 958 
Q 1197 738 1509 602 
Q 1822 466 2213 466 
Q 2559 466 2825 569 
Q 3091 672 3220 851 
Q 3350 1031 3350 1244 
Q 3350 1459 3225 1620 
Q 3100 1781 2813 1891 
Q 2628 1963 1997 2114 
Q 1366 2266 1113 2400 
Q 784 2572 623 2826 
Q 463 3081 463 3397 
Q 463 3744 659 4045 
Q 856 4347 1234 4503 
Q 1613 4659 2075 4659 
Q 2584 4659 2973 4495 
Q 3363 4331 3572 4012 
Q 3781 3694 3797 3291 
L 3216 3247 
Q 3169 3681 2898 3903 
Q 2628 4125 2100 4125 
Q 1550 4125 1298 3923 
Q 1047 3722 1047 3438 
Q 1047 3191 1225 3031 
Q 1400 2872 2139 2705 
Q 2878 2538 3153 2413 
Q 3553 2228 3743 1945 
Q 3934 1663 3934 1294 
Q 3934 928 3725 604 
Q 3516 281 3123 101 
Q 2731 -78 2241 -78 
Q 1619 -78 1198 103 
Q 778 284 539 648 
Q 300 1013 288 1472 
z
" transform="scale(0.015625)"/>
       </defs>
       <use xlink:href="#ArialMT-41"/>
       <use xlink:href="#ArialMT-44" x="66.699219"/>
       <use xlink:href="#ArialMT-55" x="138.916016"/>
       <use xlink:href="#ArialMT-50" x="211.132812"/>
       <use xlink:href="#ArialMT-41" x="270.457031"/>
       <use xlink:href="#ArialMT-53" x="337.15625"/>
      </g>
     </g>
    </g>
    <g id="xtick_11">
     <g id="line2d_11">
      <g>
       <use xlink:href="#m08f35c32d2" x="188.269931" y="137.212701" style="stroke: #000000; stroke-width: 0.8"/>
      </g>
     </g>
     <g id="text_11">
      <!-- ABAHIW -->
      <g transform="translate(170.002711 170.578062) rotate(-45) scale(0.08 -0.08)">
       <use xlink:href="#ArialMT-41"/>
       <use xlink:href="#ArialMT-42" x="66.699219"/>
       <use xlink:href="#ArialMT-41" x="133.398438"/>
       <use xlink:href="#ArialMT-48" x="200.097656"/>
       <use xlink:href="#ArialMT-49" x="272.314453"/>
       <use xlink:href="#ArialMT-57" x="300.097656"/>
      </g>
     </g>
    </g>
    <g id="xtick_12">
     <g id="line2d_12">
      <g>
       <use xlink:href="#m08f35c32d2" x="202.479262" y="137.212701" style="stroke: #000000; stroke-width: 0.8"/>
      </g>
     </g>
     <g id="text_12">
      <!-- DAJLAC -->
      <g transform="translate(184.836947 169.953156) rotate(-45) scale(0.08 -0.08)">
       <defs>
        <path id="ArialMT-4c" d="M 469 0 
L 469 4581 
L 1075 4581 
L 1075 541 
L 3331 541 
L 3331 0 
L 469 0 
z
" transform="scale(0.015625)"/>
       </defs>
       <use xlink:href="#ArialMT-44"/>
       <use xlink:href="#ArialMT-41" x="72.216797"/>
       <use xlink:href="#ArialMT-4a" x="138.916016"/>
       <use xlink:href="#ArialMT-4c" x="188.916016"/>
       <use xlink:href="#ArialMT-41" x="244.53125"/>
       <use xlink:href="#ArialMT-43" x="311.230469"/>
      </g>
     </g>
    </g>
    <g id="xtick_13">
     <g id="line2d_13">
      <g>
       <use xlink:href="#m08f35c32d2" x="216.688592" y="137.212701" style="stroke: #000000; stroke-width: 0.8"/>
      </g>
     </g>
     <g id="text_13">
      <!-- OFOWIS -->
      <g transform="translate(197.798235 171.201199) rotate(-45) scale(0.08 -0.08)">
       <use xlink:href="#ArialMT-4f"/>
       <use xlink:href="#ArialMT-46" x="77.783203"/>
       <use xlink:href="#ArialMT-4f" x="138.867188"/>
       <use xlink:href="#ArialMT-57" x="216.650391"/>
       <use xlink:href="#ArialMT-49" x="311.035156"/>
       <use xlink:href="#ArialMT-53" x="338.818359"/>
      </g>
     </g>
    </g>
    <g id="xtick_14">
     <g id="line2d_14">
      <g>
       <use xlink:href="#m08f35c32d2" x="230.897923" y="137.212701" style="stroke: #000000; stroke-width: 0.8"/>
      </g>
     </g>
     <g id="text_14">
      <!-- CATSUL -->
      <g transform="translate(213.046129 170.162636) rotate(-45) scale(0.08 -0.08)">
       <use xlink:href="#ArialMT-43"/>
       <use xlink:href="#ArialMT-41" x="72.216797"/>
       <use xlink:href="#ArialMT-54" x="131.541016"/>
       <use xlink:href="#ArialMT-53" x="192.625"/>
       <use xlink:href="#ArialMT-55" x="259.324219"/>
       <use xlink:href="#ArialMT-4c" x="331.541016"/>
      </g>
     </g>
    </g>
    <g id="xtick_15">
     <g id="line2d_15">
      <g>
       <use xlink:href="#m08f35c32d2" x="245.107254" y="137.212701" style="stroke: #000000; stroke-width: 0.8"/>
      </g>
     </g>
     <g id="text_15">
      <!-- HESMUQ01 -->
      <g transform="translate(218.035671 179.382425) rotate(-45) scale(0.08 -0.08)">
       <defs>
        <path id="ArialMT-4d" d="M 475 0 
L 475 4581 
L 1388 4581 
L 2472 1338 
Q 2622 884 2691 659 
Q 2769 909 2934 1394 
L 4031 4581 
L 4847 4581 
L 4847 0 
L 4263 0 
L 4263 3834 
L 2931 0 
L 2384 0 
L 1059 3900 
L 1059 0 
L 475 0 
z
" transform="scale(0.015625)"/>
       </defs>
       <use xlink:href="#ArialMT-48"/>
       <use xlink:href="#ArialMT-45" x="72.216797"/>
       <use xlink:href="#ArialMT-53" x="138.916016"/>
       <use xlink:href="#ArialMT-4d" x="205.615234"/>
       <use xlink:href="#ArialMT-55" x="288.916016"/>
       <use xlink:href="#ArialMT-51" x="361.132812"/>
       <use xlink:href="#ArialMT-30" x="438.916016"/>
       <use xlink:href="#ArialMT-31" x="494.53125"/>
      </g>
     </g>
    </g>
    <g id="xtick_16">
     <g id="line2d_16">
      <g>
       <use xlink:href="#m08f35c32d2" x="259.316585" y="137.212701" style="stroke: #000000; stroke-width: 0.8"/>
      </g>
     </g>
     <g id="text_16">
      <!-- GUDQOL -->
      <g transform="translate(238.849379 172.778048) rotate(-45) scale(0.08 -0.08)">
       <use xlink:href="#ArialMT-47"/>
       <use xlink:href="#ArialMT-55" x="77.783203"/>
       <use xlink:href="#ArialMT-44" x="150"/>
       <use xlink:href="#ArialMT-51" x="222.216797"/>
       <use xlink:href="#ArialMT-4f" x="300"/>
       <use xlink:href="#ArialMT-4c" x="377.783203"/>
      </g>
     </g>
    </g>
    <g id="xtick_17">
     <g id="line2d_17">
      <g>
       <use xlink:href="#m08f35c32d2" x="273.525915" y="137.212701" style="stroke: #000000; stroke-width: 0.8"/>
      </g>
     </g>
     <g id="text_17">
      <!-- ABEVAG -->
      <g transform="translate(254.725714 171.111043) rotate(-45) scale(0.08 -0.08)">
       <use xlink:href="#ArialMT-41"/>
       <use xlink:href="#ArialMT-42" x="66.699219"/>
       <use xlink:href="#ArialMT-45" x="133.398438"/>
       <use xlink:href="#ArialMT-56" x="200.097656"/>
       <use xlink:href="#ArialMT-41" x="259.421875"/>
       <use xlink:href="#ArialMT-47" x="326.121094"/>
      </g>
     </g>
    </g>
    <g id="xtick_18">
     <g id="line2d_18">
      <g>
       <use xlink:href="#m08f35c32d2" x="287.735246" y="137.212701" style="stroke: #000000; stroke-width: 0.8"/>
      </g>
     </g>
     <g id="text_18">
      <!-- AKOQOH -->
      <g transform="translate(266.952494 173.093594) rotate(-45) scale(0.08 -0.08)">
       <defs>
        <path id="ArialMT-4b" d="M 469 0 
L 469 4581 
L 1075 4581 
L 1075 2309 
L 3350 4581 
L 4172 4581 
L 2250 2725 
L 4256 0 
L 3456 0 
L 1825 2319 
L 1075 1588 
L 1075 0 
L 469 0 
z
" transform="scale(0.015625)"/>
       </defs>
       <use xlink:href="#ArialMT-41"/>
       <use xlink:href="#ArialMT-4b" x="66.699219"/>
       <use xlink:href="#ArialMT-4f" x="133.398438"/>
       <use xlink:href="#ArialMT-51" x="211.181641"/>
       <use xlink:href="#ArialMT-4f" x="288.964844"/>
       <use xlink:href="#ArialMT-48" x="366.748047"/>
      </g>
     </g>
    </g>
    <g id="xtick_19">
     <g id="line2d_19">
      <g>
       <use xlink:href="#m08f35c32d2" x="301.944577" y="137.212701" style="stroke: #000000; stroke-width: 0.8"/>
      </g>
     </g>
     <g id="text_19">
      <!-- ADARUT -->
      <g transform="translate(282.736021 171.519397) rotate(-45) scale(0.08 -0.08)">
       <defs>
        <path id="ArialMT-52" d="M 503 0 
L 503 4581 
L 2534 4581 
Q 3147 4581 3465 4457 
Q 3784 4334 3975 4021 
Q 4166 3709 4166 3331 
Q 4166 2844 3850 2509 
Q 3534 2175 2875 2084 
Q 3116 1969 3241 1856 
Q 3506 1613 3744 1247 
L 4541 0 
L 3778 0 
L 3172 953 
Q 2906 1366 2734 1584 
Q 2563 1803 2427 1890 
Q 2291 1978 2150 2013 
Q 2047 2034 1813 2034 
L 1109 2034 
L 1109 0 
L 503 0 
z
M 1109 2559 
L 2413 2559 
Q 2828 2559 3062 2645 
Q 3297 2731 3419 2920 
Q 3541 3109 3541 3331 
Q 3541 3656 3305 3865 
Q 3069 4075 2559 4075 
L 1109 4075 
L 1109 2559 
z
" transform="scale(0.015625)"/>
       </defs>
       <use xlink:href="#ArialMT-41"/>
       <use xlink:href="#ArialMT-44" x="66.699219"/>
       <use xlink:href="#ArialMT-41" x="138.916016"/>
       <use xlink:href="#ArialMT-52" x="205.615234"/>
       <use xlink:href="#ArialMT-55" x="277.832031"/>
       <use xlink:href="#ArialMT-54" x="350.048828"/>
      </g>
     </g>
    </g>
    <g id="xtick_20">
     <g id="line2d_20">
      <g>
       <use xlink:href="#m08f35c32d2" x="316.153908" y="137.212701" style="stroke: #000000; stroke-width: 0.8"/>
      </g>
     </g>
     <g id="text_20">
      <!-- AFECIA -->
      <g transform="translate(299.771127 168.693622) rotate(-45) scale(0.08 -0.08)">
       <use xlink:href="#ArialMT-41"/>
       <use xlink:href="#ArialMT-46" x="66.699219"/>
       <use xlink:href="#ArialMT-45" x="127.783203"/>
       <use xlink:href="#ArialMT-43" x="194.482422"/>
       <use xlink:href="#ArialMT-49" x="266.699219"/>
       <use xlink:href="#ArialMT-41" x="294.482422"/>
      </g>
     </g>
    </g>
    <g id="xtick_21">
     <g id="line2d_21">
      <g>
       <use xlink:href="#m08f35c32d2" x="330.363238" y="137.212701" style="stroke: #000000; stroke-width: 0.8"/>
      </g>
     </g>
     <g id="text_21">
      <!-- ACOVUL -->
      <g transform="translate(311.149379 171.524701) rotate(-45) scale(0.08 -0.08)">
       <use xlink:href="#ArialMT-41"/>
       <use xlink:href="#ArialMT-43" x="66.699219"/>
       <use xlink:href="#ArialMT-4f" x="138.916016"/>
       <use xlink:href="#ArialMT-56" x="216.699219"/>
       <use xlink:href="#ArialMT-55" x="283.398438"/>
       <use xlink:href="#ArialMT-4c" x="355.615234"/>
      </g>
     </g>
    </g>
    <g id="xtick_22">
     <g id="line2d_22">
      <g>
       <use xlink:href="#m08f35c32d2" x="344.572569" y="137.212701" style="stroke: #000000; stroke-width: 0.8"/>
      </g>
     </g>
     <g id="text_22">
      <!-- ABAKIZ -->
      <g transform="translate(328.5018 168.381611) rotate(-45) scale(0.08 -0.08)">
       <use xlink:href="#ArialMT-41"/>
       <use xlink:href="#ArialMT-42" x="66.699219"/>
       <use xlink:href="#ArialMT-41" x="133.398438"/>
       <use xlink:href="#ArialMT-4b" x="200.097656"/>
       <use xlink:href="#ArialMT-49" x="266.796875"/>
       <use xlink:href="#ArialMT-5a" x="294.580078"/>
      </g>
     </g>
    </g>
    <g id="xtick_23">
     <g id="line2d_23">
      <g>
       <use xlink:href="#m08f35c32d2" x="358.7819" y="137.212701" style="stroke: #000000; stroke-width: 0.8"/>
      </g>
     </g>
     <g id="text_23">
      <!-- AFIXEV -->
      <g transform="translate(342.711131 168.381611) rotate(-45) scale(0.08 -0.08)">
       <use xlink:href="#ArialMT-41"/>
       <use xlink:href="#ArialMT-46" x="66.699219"/>
       <use xlink:href="#ArialMT-49" x="127.783203"/>
       <use xlink:href="#ArialMT-58" x="155.566406"/>
       <use xlink:href="#ArialMT-45" x="222.265625"/>
       <use xlink:href="#ArialMT-56" x="288.964844"/>
      </g>
     </g>
    </g>
    <g id="xtick_24">
     <g id="line2d_24">
      <g>
       <use xlink:href="#m08f35c32d2" x="372.991231" y="137.212701" style="stroke: #000000; stroke-width: 0.8"/>
      </g>
     </g>
     <g id="text_24">
      <!-- ABAYAF -->
      <g transform="translate(355.553094 169.748979) rotate(-45) scale(0.08 -0.08)">
       <use xlink:href="#ArialMT-41"/>
       <use xlink:href="#ArialMT-42" x="66.699219"/>
       <use xlink:href="#ArialMT-41" x="133.398438"/>
       <use xlink:href="#ArialMT-59" x="192.722656"/>
       <use xlink:href="#ArialMT-41" x="252.046875"/>
       <use xlink:href="#ArialMT-46" x="318.746094"/>
      </g>
     </g>
    </g>
    <g id="xtick_25">
     <g id="line2d_25">
      <g>
       <use xlink:href="#m08f35c32d2" x="387.200562" y="137.212701" style="stroke: #000000; stroke-width: 0.8"/>
      </g>
     </g>
     <g id="text_25">
      <!-- RULJAM -->
      <g transform="translate(368.619563 170.89184) rotate(-45) scale(0.08 -0.08)">
       <use xlink:href="#ArialMT-52"/>
       <use xlink:href="#ArialMT-55" x="72.216797"/>
       <use xlink:href="#ArialMT-4c" x="144.433594"/>
       <use xlink:href="#ArialMT-4a" x="200.048828"/>
       <use xlink:href="#ArialMT-41" x="250.048828"/>
       <use xlink:href="#ArialMT-4d" x="316.748047"/>
      </g>
     </g>
    </g>
    <g id="xtick_26">
     <g id="line2d_26">
      <g>
       <use xlink:href="#m08f35c32d2" x="401.409892" y="137.212701" style="stroke: #000000; stroke-width: 0.8"/>
      </g>
     </g>
     <g id="text_26">
      <!-- ABADOX -->
      <g transform="translate(381.880487 171.840247) rotate(-45) scale(0.08 -0.08)">
       <use xlink:href="#ArialMT-41"/>
       <use xlink:href="#ArialMT-42" x="66.699219"/>
       <use xlink:href="#ArialMT-41" x="133.398438"/>
       <use xlink:href="#ArialMT-44" x="200.097656"/>
       <use xlink:href="#ArialMT-4f" x="272.314453"/>
       <use xlink:href="#ArialMT-58" x="350.097656"/>
      </g>
     </g>
    </g>
    <g id="xtick_27">
     <g id="line2d_27">
      <g>
       <use xlink:href="#m08f35c32d2" x="415.619223" y="137.212701" style="stroke: #000000; stroke-width: 0.8"/>
      </g>
     </g>
     <g id="text_27">
      <!-- ABABIP -->
      <g transform="translate(399.230256 168.699809) rotate(-45) scale(0.08 -0.08)">
       <use xlink:href="#ArialMT-41"/>
       <use xlink:href="#ArialMT-42" x="66.699219"/>
       <use xlink:href="#ArialMT-41" x="133.398438"/>
       <use xlink:href="#ArialMT-42" x="200.097656"/>
       <use xlink:href="#ArialMT-49" x="266.796875"/>
       <use xlink:href="#ArialMT-50" x="294.580078"/>
      </g>
     </g>
    </g>
    <g id="xtick_28">
     <g id="line2d_28">
      <g>
       <use xlink:href="#m08f35c32d2" x="429.828554" y="137.212701" style="stroke: #000000; stroke-width: 0.8"/>
      </g>
     </g>
     <g id="text_28">
      <!-- GASQOK -->
      <g transform="translate(409.357812 172.781583) rotate(-45) scale(0.08 -0.08)">
       <use xlink:href="#ArialMT-47"/>
       <use xlink:href="#ArialMT-41" x="77.783203"/>
       <use xlink:href="#ArialMT-53" x="144.482422"/>
       <use xlink:href="#ArialMT-51" x="211.181641"/>
       <use xlink:href="#ArialMT-4f" x="288.964844"/>
       <use xlink:href="#ArialMT-4b" x="366.748047"/>
      </g>
     </g>
    </g>
    <g id="xtick_29">
     <g id="line2d_29">
      <g>
       <use xlink:href="#m08f35c32d2" x="444.037885" y="137.212701" style="stroke: #000000; stroke-width: 0.8"/>
      </g>
     </g>
     <g id="text_29">
      <!-- ABEKIE -->
      <g transform="translate(427.648917 168.699809) rotate(-45) scale(0.08 -0.08)">
       <use xlink:href="#ArialMT-41"/>
       <use xlink:href="#ArialMT-42" x="66.699219"/>
       <use xlink:href="#ArialMT-45" x="133.398438"/>
       <use xlink:href="#ArialMT-4b" x="200.097656"/>
       <use xlink:href="#ArialMT-49" x="266.796875"/>
       <use xlink:href="#ArialMT-45" x="294.580078"/>
      </g>
     </g>
    </g>
    <g id="xtick_30">
     <g id="line2d_30">
      <g>
       <use xlink:href="#m08f35c32d2" x="458.247215" y="137.212701" style="stroke: #000000; stroke-width: 0.8"/>
      </g>
     </g>
     <g id="text_30">
      <!-- NIWPUE01 -->
      <g transform="translate(433.376502 177.181555) rotate(-45) scale(0.08 -0.08)">
       <use xlink:href="#ArialMT-4e"/>
       <use xlink:href="#ArialMT-49" x="72.216797"/>
       <use xlink:href="#ArialMT-57" x="100"/>
       <use xlink:href="#ArialMT-50" x="194.384766"/>
       <use xlink:href="#ArialMT-55" x="261.083984"/>
       <use xlink:href="#ArialMT-45" x="333.300781"/>
       <use xlink:href="#ArialMT-30" x="400"/>
       <use xlink:href="#ArialMT-31" x="455.615234"/>
      </g>
     </g>
    </g>
    <g id="xtick_31">
     <g id="line2d_31">
      <g>
       <use xlink:href="#m08f35c32d2" x="472.456546" y="137.212701" style="stroke: #000000; stroke-width: 0.8"/>
      </g>
     </g>
     <g id="text_31">
      <!-- ABEKIF -->
      <g transform="translate(456.385777 168.381611) rotate(-45) scale(0.08 -0.08)">
       <use xlink:href="#ArialMT-41"/>
       <use xlink:href="#ArialMT-42" x="66.699219"/>
       <use xlink:href="#ArialMT-45" x="133.398438"/>
       <use xlink:href="#ArialMT-4b" x="200.097656"/>
       <use xlink:href="#ArialMT-49" x="266.796875"/>
       <use xlink:href="#ArialMT-46" x="294.580078"/>
      </g>
     </g>
    </g>
    <g id="xtick_32">
     <g id="line2d_32">
      <g>
       <use xlink:href="#m08f35c32d2" x="486.665877" y="137.212701" style="stroke: #000000; stroke-width: 0.8"/>
      </g>
     </g>
     <g id="text_32">
      <!-- APUFEX -->
      <g transform="translate(468.081343 170.895376) rotate(-45) scale(0.08 -0.08)">
       <use xlink:href="#ArialMT-41"/>
       <use xlink:href="#ArialMT-50" x="66.699219"/>
       <use xlink:href="#ArialMT-55" x="133.398438"/>
       <use xlink:href="#ArialMT-46" x="205.615234"/>
       <use xlink:href="#ArialMT-45" x="266.699219"/>
       <use xlink:href="#ArialMT-58" x="333.398438"/>
      </g>
     </g>
    </g>
    <g id="text_33">
     <!-- Task -->
     <g transform="translate(256.143125 191.664537) scale(0.1 -0.1)">
      <defs>
       <path id="ArialMT-61" d="M 2588 409 
Q 2275 144 1986 34 
Q 1697 -75 1366 -75 
Q 819 -75 525 192 
Q 231 459 231 875 
Q 231 1119 342 1320 
Q 453 1522 633 1644 
Q 813 1766 1038 1828 
Q 1203 1872 1538 1913 
Q 2219 1994 2541 2106 
Q 2544 2222 2544 2253 
Q 2544 2597 2384 2738 
Q 2169 2928 1744 2928 
Q 1347 2928 1158 2789 
Q 969 2650 878 2297 
L 328 2372 
Q 403 2725 575 2942 
Q 747 3159 1072 3276 
Q 1397 3394 1825 3394 
Q 2250 3394 2515 3294 
Q 2781 3194 2906 3042 
Q 3031 2891 3081 2659 
Q 3109 2516 3109 2141 
L 3109 1391 
Q 3109 606 3145 398 
Q 3181 191 3288 0 
L 2700 0 
Q 2613 175 2588 409 
z
M 2541 1666 
Q 2234 1541 1622 1453 
Q 1275 1403 1131 1340 
Q 988 1278 909 1158 
Q 831 1038 831 891 
Q 831 666 1001 516 
Q 1172 366 1500 366 
Q 1825 366 2078 508 
Q 2331 650 2450 897 
Q 2541 1088 2541 1459 
L 2541 1666 
z
" transform="scale(0.015625)"/>
       <path id="ArialMT-73" d="M 197 991 
L 753 1078 
Q 800 744 1014 566 
Q 1228 388 1613 388 
Q 2000 388 2187 545 
Q 2375 703 2375 916 
Q 2375 1106 2209 1216 
Q 2094 1291 1634 1406 
Q 1016 1563 777 1677 
Q 538 1791 414 1992 
Q 291 2194 291 2438 
Q 291 2659 392 2848 
Q 494 3038 669 3163 
Q 800 3259 1026 3326 
Q 1253 3394 1513 3394 
Q 1903 3394 2198 3281 
Q 2494 3169 2634 2976 
Q 2775 2784 2828 2463 
L 2278 2388 
Q 2241 2644 2061 2787 
Q 1881 2931 1553 2931 
Q 1166 2931 1000 2803 
Q 834 2675 834 2503 
Q 834 2394 903 2306 
Q 972 2216 1119 2156 
Q 1203 2125 1616 2013 
Q 2213 1853 2448 1751 
Q 2684 1650 2818 1456 
Q 2953 1263 2953 975 
Q 2953 694 2789 445 
Q 2625 197 2315 61 
Q 2006 -75 1616 -75 
Q 969 -75 630 194 
Q 291 463 197 991 
z
" transform="scale(0.015625)"/>
       <path id="ArialMT-6b" d="M 425 0 
L 425 4581 
L 988 4581 
L 988 1969 
L 2319 3319 
L 3047 3319 
L 1778 2088 
L 3175 0 
L 2481 0 
L 1384 1697 
L 988 1316 
L 988 0 
L 425 0 
z
" transform="scale(0.015625)"/>
      </defs>
      <use xlink:href="#ArialMT-54"/>
      <use xlink:href="#ArialMT-61" x="49.958984"/>
      <use xlink:href="#ArialMT-73" x="105.574219"/>
      <use xlink:href="#ArialMT-6b" x="155.574219"/>
     </g>
    </g>
   </g>
   <g id="matplotlib.axis_2">
    <g id="ytick_1">
     <g id="line2d_33">
      <defs>
       <path id="m672fe725d2" d="M 0 0 
L -3.5 0 
" style="stroke: #000000; stroke-width: 0.8"/>
      </defs>
      <g>
       <use xlink:href="#m672fe725d2" x="38.8825" y="137.212701" style="stroke: #000000; stroke-width: 0.8"/>
      </g>
     </g>
     <g id="text_34">
      <!-- 0 -->
      <g transform="translate(26.321563 140.791608) scale(0.1 -0.1)">
       <use xlink:href="#ArialMT-30"/>
      </g>
     </g>
    </g>
    <g id="ytick_2">
     <g id="line2d_34">
      <g>
       <use xlink:href="#m672fe725d2" x="38.8825" y="111.418161" style="stroke: #000000; stroke-width: 0.8"/>
      </g>
     </g>
     <g id="text_35">
      <!-- 0.2 -->
      <g transform="translate(17.9825 114.997067) scale(0.1 -0.1)">
       <defs>
        <path id="ArialMT-2e" d="M 581 0 
L 581 641 
L 1222 641 
L 1222 0 
L 581 0 
z
" transform="scale(0.015625)"/>
        <path id="ArialMT-32" d="M 3222 541 
L 3222 0 
L 194 0 
Q 188 203 259 391 
Q 375 700 629 1000 
Q 884 1300 1366 1694 
Q 2113 2306 2375 2664 
Q 2638 3022 2638 3341 
Q 2638 3675 2398 3904 
Q 2159 4134 1775 4134 
Q 1369 4134 1125 3890 
Q 881 3647 878 3216 
L 300 3275 
Q 359 3922 746 4261 
Q 1134 4600 1788 4600 
Q 2447 4600 2831 4234 
Q 3216 3869 3216 3328 
Q 3216 3053 3103 2787 
Q 2991 2522 2730 2228 
Q 2469 1934 1863 1422 
Q 1356 997 1212 845 
Q 1069 694 975 541 
L 3222 541 
z
" transform="scale(0.015625)"/>
       </defs>
       <use xlink:href="#ArialMT-30"/>
       <use xlink:href="#ArialMT-2e" x="55.615234"/>
       <use xlink:href="#ArialMT-32" x="83.398438"/>
      </g>
     </g>
    </g>
    <g id="ytick_3">
     <g id="line2d_35">
      <g>
       <use xlink:href="#m672fe725d2" x="38.8825" y="85.623621" style="stroke: #000000; stroke-width: 0.8"/>
      </g>
     </g>
     <g id="text_36">
      <!-- 0.4 -->
      <g transform="translate(17.9825 89.202527) scale(0.1 -0.1)">
       <defs>
        <path id="ArialMT-34" d="M 2069 0 
L 2069 1097 
L 81 1097 
L 81 1613 
L 2172 4581 
L 2631 4581 
L 2631 1613 
L 3250 1613 
L 3250 1097 
L 2631 1097 
L 2631 0 
L 2069 0 
z
M 2069 1613 
L 2069 3678 
L 634 1613 
L 2069 1613 
z
" transform="scale(0.015625)"/>
       </defs>
       <use xlink:href="#ArialMT-30"/>
       <use xlink:href="#ArialMT-2e" x="55.615234"/>
       <use xlink:href="#ArialMT-34" x="83.398438"/>
      </g>
     </g>
    </g>
    <g id="ytick_4">
     <g id="line2d_36">
      <g>
       <use xlink:href="#m672fe725d2" x="38.8825" y="59.829081" style="stroke: #000000; stroke-width: 0.8"/>
      </g>
     </g>
     <g id="text_37">
      <!-- 0.6 -->
      <g transform="translate(17.9825 63.407987) scale(0.1 -0.1)">
       <defs>
        <path id="ArialMT-36" d="M 3184 3459 
L 2625 3416 
Q 2550 3747 2413 3897 
Q 2184 4138 1850 4138 
Q 1581 4138 1378 3988 
Q 1113 3794 959 3422 
Q 806 3050 800 2363 
Q 1003 2672 1297 2822 
Q 1591 2972 1913 2972 
Q 2475 2972 2870 2558 
Q 3266 2144 3266 1488 
Q 3266 1056 3080 686 
Q 2894 316 2569 119 
Q 2244 -78 1831 -78 
Q 1128 -78 684 439 
Q 241 956 241 2144 
Q 241 3472 731 4075 
Q 1159 4600 1884 4600 
Q 2425 4600 2770 4297 
Q 3116 3994 3184 3459 
z
M 888 1484 
Q 888 1194 1011 928 
Q 1134 663 1356 523 
Q 1578 384 1822 384 
Q 2178 384 2434 671 
Q 2691 959 2691 1453 
Q 2691 1928 2437 2201 
Q 2184 2475 1800 2475 
Q 1419 2475 1153 2201 
Q 888 1928 888 1484 
z
" transform="scale(0.015625)"/>
       </defs>
       <use xlink:href="#ArialMT-30"/>
       <use xlink:href="#ArialMT-2e" x="55.615234"/>
       <use xlink:href="#ArialMT-36" x="83.398438"/>
      </g>
     </g>
    </g>
    <g id="ytick_5">
     <g id="line2d_37">
      <g>
       <use xlink:href="#m672fe725d2" x="38.8825" y="34.03454" style="stroke: #000000; stroke-width: 0.8"/>
      </g>
     </g>
     <g id="text_38">
      <!-- 0.8 -->
      <g transform="translate(17.9825 37.613447) scale(0.1 -0.1)">
       <defs>
        <path id="ArialMT-38" d="M 1131 2484 
Q 781 2613 612 2850 
Q 444 3088 444 3419 
Q 444 3919 803 4259 
Q 1163 4600 1759 4600 
Q 2359 4600 2725 4251 
Q 3091 3903 3091 3403 
Q 3091 3084 2923 2848 
Q 2756 2613 2416 2484 
Q 2838 2347 3058 2040 
Q 3278 1734 3278 1309 
Q 3278 722 2862 322 
Q 2447 -78 1769 -78 
Q 1091 -78 675 323 
Q 259 725 259 1325 
Q 259 1772 486 2073 
Q 713 2375 1131 2484 
z
M 1019 3438 
Q 1019 3113 1228 2906 
Q 1438 2700 1772 2700 
Q 2097 2700 2305 2904 
Q 2513 3109 2513 3406 
Q 2513 3716 2298 3927 
Q 2084 4138 1766 4138 
Q 1444 4138 1231 3931 
Q 1019 3725 1019 3438 
z
M 838 1322 
Q 838 1081 952 856 
Q 1066 631 1291 507 
Q 1516 384 1775 384 
Q 2178 384 2440 643 
Q 2703 903 2703 1303 
Q 2703 1709 2433 1975 
Q 2163 2241 1756 2241 
Q 1359 2241 1098 1978 
Q 838 1716 838 1322 
z
" transform="scale(0.015625)"/>
       </defs>
       <use xlink:href="#ArialMT-30"/>
       <use xlink:href="#ArialMT-2e" x="55.615234"/>
       <use xlink:href="#ArialMT-38" x="83.398438"/>
      </g>
     </g>
    </g>
    <g id="ytick_6">
     <g id="line2d_38">
      <g>
       <use xlink:href="#m672fe725d2" x="38.8825" y="8.24" style="stroke: #000000; stroke-width: 0.8"/>
      </g>
     </g>
     <g id="text_39">
      <!-- 1 -->
      <g transform="translate(26.321563 11.818906) scale(0.1 -0.1)">
       <use xlink:href="#ArialMT-31"/>
      </g>
     </g>
    </g>
    <g id="text_40">
     <!-- 3DOpt Score -->
     <g transform="translate(11.995 101.626351) rotate(-90) scale(0.1 -0.1)">
      <defs>
       <path id="ArialMT-33" d="M 269 1209 
L 831 1284 
Q 928 806 1161 595 
Q 1394 384 1728 384 
Q 2125 384 2398 659 
Q 2672 934 2672 1341 
Q 2672 1728 2419 1979 
Q 2166 2231 1775 2231 
Q 1616 2231 1378 2169 
L 1441 2663 
Q 1497 2656 1531 2656 
Q 1891 2656 2178 2843 
Q 2466 3031 2466 3422 
Q 2466 3731 2256 3934 
Q 2047 4138 1716 4138 
Q 1388 4138 1169 3931 
Q 950 3725 888 3313 
L 325 3413 
Q 428 3978 793 4289 
Q 1159 4600 1703 4600 
Q 2078 4600 2393 4439 
Q 2709 4278 2876 4000 
Q 3044 3722 3044 3409 
Q 3044 3113 2884 2869 
Q 2725 2625 2413 2481 
Q 2819 2388 3044 2092 
Q 3269 1797 3269 1353 
Q 3269 753 2831 336 
Q 2394 -81 1725 -81 
Q 1122 -81 723 278 
Q 325 638 269 1209 
z
" transform="scale(0.015625)"/>
       <path id="ArialMT-70" d="M 422 -1272 
L 422 3319 
L 934 3319 
L 934 2888 
Q 1116 3141 1344 3267 
Q 1572 3394 1897 3394 
Q 2322 3394 2647 3175 
Q 2972 2956 3137 2557 
Q 3303 2159 3303 1684 
Q 3303 1175 3120 767 
Q 2938 359 2589 142 
Q 2241 -75 1856 -75 
Q 1575 -75 1351 44 
Q 1128 163 984 344 
L 984 -1272 
L 422 -1272 
z
M 931 1641 
Q 931 1000 1190 694 
Q 1450 388 1819 388 
Q 2194 388 2461 705 
Q 2728 1022 2728 1688 
Q 2728 2322 2467 2637 
Q 2206 2953 1844 2953 
Q 1484 2953 1207 2617 
Q 931 2281 931 1641 
z
" transform="scale(0.015625)"/>
       <path id="ArialMT-74" d="M 1650 503 
L 1731 6 
Q 1494 -44 1306 -44 
Q 1000 -44 831 53 
Q 663 150 594 308 
Q 525 466 525 972 
L 525 2881 
L 113 2881 
L 113 3319 
L 525 3319 
L 525 4141 
L 1084 4478 
L 1084 3319 
L 1650 3319 
L 1650 2881 
L 1084 2881 
L 1084 941 
Q 1084 700 1114 631 
Q 1144 563 1211 522 
Q 1278 481 1403 481 
Q 1497 481 1650 503 
z
" transform="scale(0.015625)"/>
       <path id="ArialMT-20" transform="scale(0.015625)"/>
       <path id="ArialMT-63" d="M 2588 1216 
L 3141 1144 
Q 3050 572 2676 248 
Q 2303 -75 1759 -75 
Q 1078 -75 664 370 
Q 250 816 250 1647 
Q 250 2184 428 2587 
Q 606 2991 970 3192 
Q 1334 3394 1763 3394 
Q 2303 3394 2647 3120 
Q 2991 2847 3088 2344 
L 2541 2259 
Q 2463 2594 2264 2762 
Q 2066 2931 1784 2931 
Q 1359 2931 1093 2626 
Q 828 2322 828 1663 
Q 828 994 1084 691 
Q 1341 388 1753 388 
Q 2084 388 2306 591 
Q 2528 794 2588 1216 
z
" transform="scale(0.015625)"/>
       <path id="ArialMT-6f" d="M 213 1659 
Q 213 2581 725 3025 
Q 1153 3394 1769 3394 
Q 2453 3394 2887 2945 
Q 3322 2497 3322 1706 
Q 3322 1066 3130 698 
Q 2938 331 2570 128 
Q 2203 -75 1769 -75 
Q 1072 -75 642 372 
Q 213 819 213 1659 
z
M 791 1659 
Q 791 1022 1069 705 
Q 1347 388 1769 388 
Q 2188 388 2466 706 
Q 2744 1025 2744 1678 
Q 2744 2294 2464 2611 
Q 2184 2928 1769 2928 
Q 1347 2928 1069 2612 
Q 791 2297 791 1659 
z
" transform="scale(0.015625)"/>
       <path id="ArialMT-72" d="M 416 0 
L 416 3319 
L 922 3319 
L 922 2816 
Q 1116 3169 1280 3281 
Q 1444 3394 1641 3394 
Q 1925 3394 2219 3213 
L 2025 2691 
Q 1819 2813 1613 2813 
Q 1428 2813 1281 2702 
Q 1134 2591 1072 2394 
Q 978 2094 978 1738 
L 978 0 
L 416 0 
z
" transform="scale(0.015625)"/>
       <path id="ArialMT-65" d="M 2694 1069 
L 3275 997 
Q 3138 488 2766 206 
Q 2394 -75 1816 -75 
Q 1088 -75 661 373 
Q 234 822 234 1631 
Q 234 2469 665 2931 
Q 1097 3394 1784 3394 
Q 2450 3394 2872 2941 
Q 3294 2488 3294 1666 
Q 3294 1616 3291 1516 
L 816 1516 
Q 847 969 1125 678 
Q 1403 388 1819 388 
Q 2128 388 2347 550 
Q 2566 713 2694 1069 
z
M 847 1978 
L 2700 1978 
Q 2663 2397 2488 2606 
Q 2219 2931 1791 2931 
Q 1403 2931 1139 2672 
Q 875 2413 847 1978 
z
" transform="scale(0.015625)"/>
      </defs>
      <use xlink:href="#ArialMT-33"/>
      <use xlink:href="#ArialMT-44" x="55.615234"/>
      <use xlink:href="#ArialMT-4f" x="127.832031"/>
      <use xlink:href="#ArialMT-70" x="205.615234"/>
      <use xlink:href="#ArialMT-74" x="261.230469"/>
      <use xlink:href="#ArialMT-20" x="289.013672"/>
      <use xlink:href="#ArialMT-53" x="316.796875"/>
      <use xlink:href="#ArialMT-63" x="383.496094"/>
      <use xlink:href="#ArialMT-6f" x="433.496094"/>
      <use xlink:href="#ArialMT-72" x="489.111328"/>
      <use xlink:href="#ArialMT-65" x="522.412109"/>
     </g>
    </g>
   </g>
   <g id="patch_99">
    <path d="M 38.8825 137.212701 
L 38.8825 8.24 
" style="fill: none; stroke: #000000; stroke-width: 0.8; stroke-linejoin: miter; stroke-linecap: square"/>
   </g>
   <g id="patch_100">
    <path d="M 38.8825 137.212701 
L 493.96 137.212701 
" style="fill: none; stroke: #000000; stroke-width: 0.8; stroke-linejoin: miter; stroke-linecap: square"/>
   </g>
   <g id="legend_1">
    <g id="patch_101">
     <path d="M 443.312812 133.712701 
L 489.06 133.712701 
Q 490.46 133.712701 490.46 132.312701 
L 490.46 103.307545 
Q 490.46 101.907545 489.06 101.907545 
L 443.312812 101.907545 
Q 441.912812 101.907545 441.912812 103.307545 
L 441.912812 132.312701 
Q 441.912812 133.712701 443.312812 133.712701 
z
" style="fill: #ffffff; stroke: #000000; stroke-width: 0.4; stroke-linejoin: miter"/>
    </g>
    <g id="patch_102">
     <path d="M 444.712812 109.718014 
L 458.712812 109.718014 
L 458.712812 104.818014 
L 444.712812 104.818014 
z
" style="fill: #1f77b4; stroke: #000000; stroke-width: 0.4; stroke-linejoin: miter"/>
    </g>
    <g id="text_41">
     <!-- CCDC -->
     <g transform="translate(464.312813 109.718014) scale(0.07 -0.07)">
      <use xlink:href="#ArialMT-43"/>
      <use xlink:href="#ArialMT-43" x="72.216797"/>
      <use xlink:href="#ArialMT-44" x="144.433594"/>
      <use xlink:href="#ArialMT-43" x="216.650391"/>
     </g>
    </g>
    <g id="patch_103">
     <path d="M 444.712812 119.619733 
L 458.712812 119.619733 
L 458.712812 114.719733 
L 444.712812 114.719733 
z
" style="fill: #ff7f0e; stroke: #000000; stroke-width: 0.4; stroke-linejoin: miter"/>
    </g>
    <g id="text_42">
     <!-- OBabel -->
     <g transform="translate(464.312813 119.619733) scale(0.07 -0.07)">
      <defs>
       <path id="ArialMT-62" d="M 941 0 
L 419 0 
L 419 4581 
L 981 4581 
L 981 2947 
Q 1338 3394 1891 3394 
Q 2197 3394 2470 3270 
Q 2744 3147 2920 2923 
Q 3097 2700 3197 2384 
Q 3297 2069 3297 1709 
Q 3297 856 2875 390 
Q 2453 -75 1863 -75 
Q 1275 -75 941 416 
L 941 0 
z
M 934 1684 
Q 934 1088 1097 822 
Q 1363 388 1816 388 
Q 2184 388 2453 708 
Q 2722 1028 2722 1663 
Q 2722 2313 2464 2622 
Q 2206 2931 1841 2931 
Q 1472 2931 1203 2611 
Q 934 2291 934 1684 
z
" transform="scale(0.015625)"/>
       <path id="ArialMT-6c" d="M 409 0 
L 409 4581 
L 972 4581 
L 972 0 
L 409 0 
z
" transform="scale(0.015625)"/>
      </defs>
      <use xlink:href="#ArialMT-4f"/>
      <use xlink:href="#ArialMT-42" x="77.783203"/>
      <use xlink:href="#ArialMT-61" x="144.482422"/>
      <use xlink:href="#ArialMT-62" x="200.097656"/>
      <use xlink:href="#ArialMT-65" x="255.712891"/>
      <use xlink:href="#ArialMT-6c" x="311.328125"/>
     </g>
    </g>
    <g id="patch_104">
     <path d="M 444.712812 129.521451 
L 458.712812 129.521451 
L 458.712812 124.621451 
L 444.712812 124.621451 
z
" style="fill: #2ca02c; stroke: #000000; stroke-width: 0.4; stroke-linejoin: miter"/>
    </g>
    <g id="text_43">
     <!-- RDKit -->
     <g transform="translate(464.312813 129.521451) scale(0.07 -0.07)">
      <defs>
       <path id="ArialMT-69" d="M 425 3934 
L 425 4581 
L 988 4581 
L 988 3934 
L 425 3934 
z
M 425 0 
L 425 3319 
L 988 3319 
L 988 0 
L 425 0 
z
" transform="scale(0.015625)"/>
      </defs>
      <use xlink:href="#ArialMT-52"/>
      <use xlink:href="#ArialMT-44" x="72.216797"/>
      <use xlink:href="#ArialMT-4b" x="144.433594"/>
      <use xlink:href="#ArialMT-69" x="211.132812"/>
      <use xlink:href="#ArialMT-74" x="233.349609"/>
     </g>
    </g>
   </g>
  </g>
 </g>
 <defs>
  <clipPath id="pfcfada2e5e">
   <rect x="38.8825" y="8.24" width="455.0775" height="128.972701"/>
  </clipPath>
 </defs>
</svg>
