<?xml version="1.0" encoding="utf-8" standalone="no"?>
<!DOCTYPE svg PUBLIC "-//W3C//DTD SVG 1.1//EN"
  "http://www.w3.org/Graphics/SVG/1.1/DTD/svg11.dtd">
<svg xmlns:xlink="http://www.w3.org/1999/xlink" width="504pt" height="288pt" viewBox="0 0 504 288" xmlns="http://www.w3.org/2000/svg" version="1.1">
 <metadata>
  <rdf:RDF xmlns:dc="http://purl.org/dc/elements/1.1/" xmlns:cc="http://creativecommons.org/ns#" xmlns:rdf="http://www.w3.org/1999/02/22-rdf-syntax-ns#">
   <cc:Work>
    <dc:type rdf:resource="http://purl.org/dc/dcmitype/StillImage"/>
    <dc:date>2025-06-24T16:45:16.502877</dc:date>
    <dc:format>image/svg+xml</dc:format>
    <dc:creator>
     <cc:Agent>
      <dc:title>Matplotlib v3.9.2, https://matplotlib.org/</dc:title>
     </cc:Agent>
    </dc:creator>
   </cc:Work>
  </rdf:RDF>
 </metadata>
 <defs>
  <style type="text/css">*{stroke-linejoin: round; stroke-linecap: butt}</style>
 </defs>
 <g id="figure_1">
  <g id="patch_1">
   <path d="M 0 288 
L 504 288 
L 504 0 
L 0 0 
z
" style="fill: #ffffff"/>
  </g>
  <g id="axes_1">
   <g id="patch_2">
    <path d="M 37.7125 226.920201 
L 499 226.920201 
L 499 17.78375 
L 37.7125 17.78375 
z
" style="fill: #ffffff"/>
   </g>
   <g id="PathCollection_1">
    <defs>
     <path id="m7f0a538f2f" d="M 0 3.872983 
C 1.027127 3.872983 2.012324 3.464901 2.738613 2.738613 
C 3.464901 2.012324 3.872983 1.027127 3.872983 0 
C 3.872983 -1.027127 3.464901 -2.012324 2.738613 -2.738613 
C 2.012324 -3.464901 1.027127 -3.872983 0 -3.872983 
C -1.027127 -3.872983 -2.012324 -3.464901 -2.738613 -2.738613 
C -3.464901 -2.012324 -3.872983 -1.027127 -3.872983 0 
C -3.872983 1.027127 -3.464901 2.012324 -2.738613 2.738613 
C -2.012324 3.464901 -1.027127 3.872983 0 3.872983 
z
" style="stroke: #000000; stroke-width: 0.7"/>
    </defs>
    <g clip-path="url(#p549453a618)">
     <use xlink:href="#m7f0a538f2f" x="58.680114" y="24.057844" style="fill: #1f77b4; stroke: #000000; stroke-width: 0.7"/>
     <use xlink:href="#m7f0a538f2f" x="72.207606" y="26.149208" style="fill: #1f77b4; stroke: #000000; stroke-width: 0.7"/>
     <use xlink:href="#m7f0a538f2f" x="85.735099" y="34.514666" style="fill: #1f77b4; stroke: #000000; stroke-width: 0.7"/>
     <use xlink:href="#m7f0a538f2f" x="99.262592" y="30.331937" style="fill: #1f77b4; stroke: #000000; stroke-width: 0.7"/>
     <use xlink:href="#m7f0a538f2f" x="112.790084" y="47.062853" style="fill: #1f77b4; stroke: #000000; stroke-width: 0.7"/>
     <use xlink:href="#m7f0a538f2f" x="126.317577" y="42.880124" style="fill: #1f77b4; stroke: #000000; stroke-width: 0.7"/>
     <use xlink:href="#m7f0a538f2f" x="139.84507" y="73.989171" style="fill: #1f77b4; stroke: #000000; stroke-width: 0.7"/>
     <use xlink:href="#m7f0a538f2f" x="153.372562" y="56.68313" style="fill: #1f77b4; stroke: #000000; stroke-width: 0.7"/>
     <use xlink:href="#m7f0a538f2f" x="166.900055" y="28.240573" style="fill: #1f77b4; stroke: #000000; stroke-width: 0.7"/>
     <use xlink:href="#m7f0a538f2f" x="180.427548" y="54.90547" style="fill: #1f77b4; stroke: #000000; stroke-width: 0.7"/>
     <use xlink:href="#m7f0a538f2f" x="193.95504" y="59.61104" style="fill: #1f77b4; stroke: #000000; stroke-width: 0.7"/>
     <use xlink:href="#m7f0a538f2f" x="207.482533" y="88.890143" style="fill: #1f77b4; stroke: #000000; stroke-width: 0.7"/>
     <use xlink:href="#m7f0a538f2f" x="221.010026" y="42.880124" style="fill: #1f77b4; stroke: #000000; stroke-width: 0.7"/>
     <use xlink:href="#m7f0a538f2f" x="234.537518" y="51.245582" style="fill: #1f77b4; stroke: #000000; stroke-width: 0.7"/>
     <use xlink:href="#m7f0a538f2f" x="248.065011" y="43.80962" style="fill: #1f77b4; stroke: #000000; stroke-width: 0.7"/>
     <use xlink:href="#m7f0a538f2f" x="261.592504" y="76.341956" style="fill: #1f77b4; stroke: #000000; stroke-width: 0.7"/>
     <use xlink:href="#m7f0a538f2f" x="275.119996" y="67.976498" style="fill: #1f77b4; stroke: #000000; stroke-width: 0.7"/>
     <use xlink:href="#m7f0a538f2f" x="288.647489" y="65.362293" style="fill: #1f77b4; stroke: #000000; stroke-width: 0.7"/>
     <use xlink:href="#m7f0a538f2f" x="302.174982" y="51.245582" style="fill: #1f77b4; stroke: #000000; stroke-width: 0.7"/>
     <use xlink:href="#m7f0a538f2f" x="315.702474" y="47.295227" style="fill: #1f77b4; stroke: #000000; stroke-width: 0.7"/>
     <use xlink:href="#m7f0a538f2f" x="329.229967" y="43.507534" style="fill: #1f77b4; stroke: #000000; stroke-width: 0.7"/>
     <use xlink:href="#m7f0a538f2f" x="342.75746" y="61.702405" style="fill: #1f77b4; stroke: #000000; stroke-width: 0.7"/>
     <use xlink:href="#m7f0a538f2f" x="356.284952" y="50.1999" style="fill: #1f77b4; stroke: #000000; stroke-width: 0.7"/>
     <use xlink:href="#m7f0a538f2f" x="369.812445" y="46.435444" style="fill: #1f77b4; stroke: #000000; stroke-width: 0.7"/>
     <use xlink:href="#m7f0a538f2f" x="383.339938" y="58.216797" style="fill: #1f77b4; stroke: #000000; stroke-width: 0.7"/>
     <use xlink:href="#m7f0a538f2f" x="396.86743" y="59.146293" style="fill: #1f77b4; stroke: #000000; stroke-width: 0.7"/>
     <use xlink:href="#m7f0a538f2f" x="410.394923" y="46.226307" style="fill: #1f77b4; stroke: #000000; stroke-width: 0.7"/>
     <use xlink:href="#m7f0a538f2f" x="423.922416" y="51.843115" style="fill: #1f77b4; stroke: #000000; stroke-width: 0.7"/>
     <use xlink:href="#m7f0a538f2f" x="437.449908" y="43.71667" style="fill: #1f77b4; stroke: #000000; stroke-width: 0.7"/>
     <use xlink:href="#m7f0a538f2f" x="450.977401" y="56.68313" style="fill: #1f77b4; stroke: #000000; stroke-width: 0.7"/>
     <use xlink:href="#m7f0a538f2f" x="464.504894" y="50.946816" style="fill: #1f77b4; stroke: #000000; stroke-width: 0.7"/>
     <use xlink:href="#m7f0a538f2f" x="478.032386" y="52.141881" style="fill: #1f77b4; stroke: #000000; stroke-width: 0.7"/>
    </g>
   </g>
   <g id="PathCollection_2">
    <defs>
     <path id="m05fe36ed8b" d="M -3.872983 3.872983 
L 3.872983 3.872983 
L 3.872983 -3.872983 
L -3.872983 -3.872983 
z
" style="stroke: #000000; stroke-width: 0.7"/>
    </defs>
    <g clip-path="url(#p549453a618)">
     <use xlink:href="#m05fe36ed8b" x="58.680114" y="74.250592" style="fill: #ff7f0e; stroke: #000000; stroke-width: 0.7"/>
     <use xlink:href="#m05fe36ed8b" x="72.207606" y="59.820177" style="fill: #ff7f0e; stroke: #000000; stroke-width: 0.7"/>
     <use xlink:href="#m05fe36ed8b" x="85.735099" y="57.310539" style="fill: #ff7f0e; stroke: #000000; stroke-width: 0.7"/>
     <use xlink:href="#m05fe36ed8b" x="99.262592" y="67.976498" style="fill: #ff7f0e; stroke: #000000; stroke-width: 0.7"/>
     <use xlink:href="#m05fe36ed8b" x="112.790084" y="55.846584" style="fill: #ff7f0e; stroke: #000000; stroke-width: 0.7"/>
     <use xlink:href="#m05fe36ed8b" x="126.317577" y="79.479003" style="fill: #ff7f0e; stroke: #000000; stroke-width: 0.7"/>
     <use xlink:href="#m05fe36ed8b" x="153.372562" y="116.287019" style="fill: #ff7f0e; stroke: #000000; stroke-width: 0.7"/>
     <use xlink:href="#m05fe36ed8b" x="166.900055" y="80.524685" style="fill: #ff7f0e; stroke: #000000; stroke-width: 0.7"/>
     <use xlink:href="#m05fe36ed8b" x="180.427548" y="109.385516" style="fill: #ff7f0e; stroke: #000000; stroke-width: 0.7"/>
     <use xlink:href="#m05fe36ed8b" x="193.95504" y="74.041455" style="fill: #ff7f0e; stroke: #000000; stroke-width: 0.7"/>
     <use xlink:href="#m05fe36ed8b" x="207.482533" y="84.080005" style="fill: #ff7f0e; stroke: #000000; stroke-width: 0.7"/>
     <use xlink:href="#m05fe36ed8b" x="221.010026" y="94.327691" style="fill: #ff7f0e; stroke: #000000; stroke-width: 0.7"/>
     <use xlink:href="#m05fe36ed8b" x="234.537518" y="87.007915" style="fill: #ff7f0e; stroke: #000000; stroke-width: 0.7"/>
     <use xlink:href="#m05fe36ed8b" x="329.229967" y="104.575377" style="fill: #ff7f0e; stroke: #000000; stroke-width: 0.7"/>
     <use xlink:href="#m05fe36ed8b" x="423.922416" y="89.09928" style="fill: #ff7f0e; stroke: #000000; stroke-width: 0.7"/>
     <use xlink:href="#m05fe36ed8b" x="464.504894" y="88.262734" style="fill: #ff7f0e; stroke: #000000; stroke-width: 0.7"/>
     <use xlink:href="#m05fe36ed8b" x="478.032386" y="92.6546" style="fill: #ff7f0e; stroke: #000000; stroke-width: 0.7"/>
    </g>
   </g>
   <g id="PathCollection_3">
    <defs>
     <path id="m958266f310" d="M 0 -3.872983 
L -3.872983 3.872983 
L 3.872983 3.872983 
z
" style="stroke: #000000; stroke-width: 0.7"/>
    </defs>
    <g clip-path="url(#p549453a618)">
     <use xlink:href="#m958266f310" x="58.680114" y="24.26698" style="fill: #2ca02c; stroke: #000000; stroke-width: 0.7"/>
     <use xlink:href="#m958266f310" x="72.207606" y="38.906532" style="fill: #2ca02c; stroke: #000000; stroke-width: 0.7"/>
     <use xlink:href="#m958266f310" x="85.735099" y="40.78876" style="fill: #2ca02c; stroke: #000000; stroke-width: 0.7"/>
     <use xlink:href="#m958266f310" x="99.262592" y="32.423302" style="fill: #2ca02c; stroke: #000000; stroke-width: 0.7"/>
     <use xlink:href="#m958266f310" x="112.790084" y="60.029313" style="fill: #2ca02c; stroke: #000000; stroke-width: 0.7"/>
     <use xlink:href="#m958266f310" x="126.317577" y="44.762352" style="fill: #2ca02c; stroke: #000000; stroke-width: 0.7"/>
     <use xlink:href="#m958266f310" x="139.84507" y="88.890143" style="fill: #2ca02c; stroke: #000000; stroke-width: 0.7"/>
     <use xlink:href="#m958266f310" x="153.372562" y="49.154218" style="fill: #2ca02c; stroke: #000000; stroke-width: 0.7"/>
     <use xlink:href="#m958266f310" x="166.900055" y="38.279122" style="fill: #2ca02c; stroke: #000000; stroke-width: 0.7"/>
     <use xlink:href="#m958266f310" x="180.427548" y="58.565358" style="fill: #2ca02c; stroke: #000000; stroke-width: 0.7"/>
     <use xlink:href="#m958266f310" x="193.95504" y="83.243459" style="fill: #2ca02c; stroke: #000000; stroke-width: 0.7"/>
     <use xlink:href="#m958266f310" x="207.482533" y="109.176379" style="fill: #2ca02c; stroke: #000000; stroke-width: 0.7"/>
     <use xlink:href="#m958266f310" x="221.010026" y="82.406913" style="fill: #2ca02c; stroke: #000000; stroke-width: 0.7"/>
     <use xlink:href="#m958266f310" x="234.537518" y="57.519676" style="fill: #2ca02c; stroke: #000000; stroke-width: 0.7"/>
     <use xlink:href="#m958266f310" x="261.592504" y="56.68313" style="fill: #2ca02c; stroke: #000000; stroke-width: 0.7"/>
     <use xlink:href="#m958266f310" x="288.647489" y="82.61605" style="fill: #2ca02c; stroke: #000000; stroke-width: 0.7"/>
     <use xlink:href="#m958266f310" x="302.174982" y="65.466861" style="fill: #2ca02c; stroke: #000000; stroke-width: 0.7"/>
     <use xlink:href="#m958266f310" x="329.229967" y="82.825186" style="fill: #2ca02c; stroke: #000000; stroke-width: 0.7"/>
     <use xlink:href="#m958266f310" x="342.75746" y="60.23845" style="fill: #2ca02c; stroke: #000000; stroke-width: 0.7"/>
     <use xlink:href="#m958266f310" x="356.284952" y="74.250592" style="fill: #2ca02c; stroke: #000000; stroke-width: 0.7"/>
     <use xlink:href="#m958266f310" x="369.812445" y="96.419056" style="fill: #2ca02c; stroke: #000000; stroke-width: 0.7"/>
     <use xlink:href="#m958266f310" x="410.394923" y="90.981508" style="fill: #2ca02c; stroke: #000000; stroke-width: 0.7"/>
     <use xlink:href="#m958266f310" x="423.922416" y="80.315549" style="fill: #2ca02c; stroke: #000000; stroke-width: 0.7"/>
     <use xlink:href="#m958266f310" x="437.449908" y="89.09928" style="fill: #2ca02c; stroke: #000000; stroke-width: 0.7"/>
     <use xlink:href="#m958266f310" x="450.977401" y="62.329814" style="fill: #2ca02c; stroke: #000000; stroke-width: 0.7"/>
    </g>
   </g>
   <g id="matplotlib.axis_1">
    <g id="xtick_1">
     <g id="line2d_1">
      <defs>
       <path id="md5e801012d" d="M 0 0 
L 0 3.5 
" style="stroke: #000000; stroke-width: 0.8"/>
      </defs>
      <g>
       <use xlink:href="#md5e801012d" x="58.680114" y="226.920201" style="stroke: #000000; stroke-width: 0.8"/>
      </g>
     </g>
     <g id="text_1">
      <!-- ABAHIW -->
      <g transform="translate(35.239524 260.285562) rotate(-45) scale(0.08 -0.08)">
       <defs>
        <path id="ArialMT-41" d="M -9 0 
L 1750 4581 
L 2403 4581 
L 4278 0 
L 3588 0 
L 3053 1388 
L 1138 1388 
L 634 0 
L -9 0 
z
M 1313 1881 
L 2866 1881 
L 2388 3150 
Q 2169 3728 2063 4100 
Q 1975 3659 1816 3225 
L 1313 1881 
z
" transform="scale(0.015625)"/>
        <path id="ArialMT-42" d="M 469 0 
L 469 4581 
L 2188 4581 
Q 2713 4581 3030 4442 
Q 3347 4303 3526 4014 
Q 3706 3725 3706 3409 
Q 3706 3116 3547 2856 
Q 3388 2597 3066 2438 
Q 3481 2316 3704 2022 
Q 3928 1728 3928 1328 
Q 3928 1006 3792 729 
Q 3656 453 3456 303 
Q 3256 153 2954 76 
Q 2653 0 2216 0 
L 469 0 
z
M 1075 2656 
L 2066 2656 
Q 2469 2656 2644 2709 
Q 2875 2778 2992 2937 
Q 3109 3097 3109 3338 
Q 3109 3566 3000 3739 
Q 2891 3913 2687 3977 
Q 2484 4041 1991 4041 
L 1075 4041 
L 1075 2656 
z
M 1075 541 
L 2216 541 
Q 2509 541 2628 563 
Q 2838 600 2978 687 
Q 3119 775 3209 942 
Q 3300 1109 3300 1328 
Q 3300 1584 3169 1773 
Q 3038 1963 2805 2039 
Q 2572 2116 2134 2116 
L 1075 2116 
L 1075 541 
z
" transform="scale(0.015625)"/>
        <path id="ArialMT-48" d="M 513 0 
L 513 4581 
L 1119 4581 
L 1119 2700 
L 3500 2700 
L 3500 4581 
L 4106 4581 
L 4106 0 
L 3500 0 
L 3500 2159 
L 1119 2159 
L 1119 0 
L 513 0 
z
" transform="scale(0.015625)"/>
        <path id="ArialMT-49" d="M 597 0 
L 597 4581 
L 1203 4581 
L 1203 0 
L 597 0 
z
" transform="scale(0.015625)"/>
        <path id="ArialMT-57" d="M 1294 0 
L 78 4581 
L 700 4581 
L 1397 1578 
Q 1509 1106 1591 641 
Q 1766 1375 1797 1488 
L 2669 4581 
L 3400 4581 
L 4056 2263 
Q 4303 1400 4413 641 
Q 4500 1075 4641 1638 
L 5359 4581 
L 5969 4581 
L 4713 0 
L 4128 0 
L 3163 3491 
Q 3041 3928 3019 4028 
Q 2947 3713 2884 3491 
L 1913 0 
L 1294 0 
z
" transform="scale(0.015625)"/>
       </defs>
       <use xlink:href="#ArialMT-41"/>
       <use xlink:href="#ArialMT-42" x="66.699219"/>
       <use xlink:href="#ArialMT-41" x="133.398438"/>
       <use xlink:href="#ArialMT-48" x="200.097656"/>
       <use xlink:href="#ArialMT-49" x="272.314453"/>
       <use xlink:href="#ArialMT-57" x="300.097656"/>
      </g>
     </g>
    </g>
    <g id="xtick_2">
     <g id="line2d_2">
      <g>
       <use xlink:href="#md5e801012d" x="72.207606" y="226.920201" style="stroke: #000000; stroke-width: 0.8"/>
      </g>
     </g>
     <g id="text_2">
      <!-- ABAKIZ -->
      <g transform="translate(50.963467 258.089111) rotate(-45) scale(0.08 -0.08)">
       <defs>
        <path id="ArialMT-4b" d="M 469 0 
L 469 4581 
L 1075 4581 
L 1075 2309 
L 3350 4581 
L 4172 4581 
L 2250 2725 
L 4256 0 
L 3456 0 
L 1825 2319 
L 1075 1588 
L 1075 0 
L 469 0 
z
" transform="scale(0.015625)"/>
        <path id="ArialMT-5a" d="M 128 0 
L 128 563 
L 2475 3497 
Q 2725 3809 2950 4041 
L 394 4041 
L 394 4581 
L 3675 4581 
L 3675 4041 
L 1103 863 
L 825 541 
L 3750 541 
L 3750 0 
L 128 0 
z
" transform="scale(0.015625)"/>
       </defs>
       <use xlink:href="#ArialMT-41"/>
       <use xlink:href="#ArialMT-42" x="66.699219"/>
       <use xlink:href="#ArialMT-41" x="133.398438"/>
       <use xlink:href="#ArialMT-4b" x="200.097656"/>
       <use xlink:href="#ArialMT-49" x="266.796875"/>
       <use xlink:href="#ArialMT-5a" x="294.580078"/>
      </g>
     </g>
    </g>
    <g id="xtick_3">
     <g id="line2d_3">
      <g>
       <use xlink:href="#md5e801012d" x="85.735099" y="226.920201" style="stroke: #000000; stroke-width: 0.8"/>
      </g>
     </g>
     <g id="text_3">
      <!-- ABADOX -->
      <g transform="translate(61.032324 261.547747) rotate(-45) scale(0.08 -0.08)">
       <defs>
        <path id="ArialMT-44" d="M 494 0 
L 494 4581 
L 2072 4581 
Q 2606 4581 2888 4516 
Q 3281 4425 3559 4188 
Q 3922 3881 4101 3404 
Q 4281 2928 4281 2316 
Q 4281 1794 4159 1391 
Q 4038 988 3847 723 
Q 3656 459 3429 307 
Q 3203 156 2883 78 
Q 2563 0 2147 0 
L 494 0 
z
M 1100 541 
L 2078 541 
Q 2531 541 2789 625 
Q 3047 709 3200 863 
Q 3416 1078 3536 1442 
Q 3656 1806 3656 2325 
Q 3656 3044 3420 3430 
Q 3184 3816 2847 3947 
Q 2603 4041 2063 4041 
L 1100 4041 
L 1100 541 
z
" transform="scale(0.015625)"/>
        <path id="ArialMT-4f" d="M 309 2231 
Q 309 3372 921 4017 
Q 1534 4663 2503 4663 
Q 3138 4663 3647 4359 
Q 4156 4056 4423 3514 
Q 4691 2972 4691 2284 
Q 4691 1588 4409 1038 
Q 4128 488 3612 205 
Q 3097 -78 2500 -78 
Q 1853 -78 1343 234 
Q 834 547 571 1087 
Q 309 1628 309 2231 
z
M 934 2222 
Q 934 1394 1379 917 
Q 1825 441 2497 441 
Q 3181 441 3623 922 
Q 4066 1403 4066 2288 
Q 4066 2847 3877 3264 
Q 3688 3681 3323 3911 
Q 2959 4141 2506 4141 
Q 1863 4141 1398 3698 
Q 934 3256 934 2222 
z
" transform="scale(0.015625)"/>
        <path id="ArialMT-58" d="M 28 0 
L 1800 2388 
L 238 4581 
L 959 4581 
L 1791 3406 
Q 2050 3041 2159 2844 
Q 2313 3094 2522 3366 
L 3444 4581 
L 4103 4581 
L 2494 2422 
L 4228 0 
L 3478 0 
L 2325 1634 
Q 2228 1775 2125 1941 
Q 1972 1691 1906 1597 
L 756 0 
L 28 0 
z
" transform="scale(0.015625)"/>
       </defs>
       <use xlink:href="#ArialMT-41"/>
       <use xlink:href="#ArialMT-42" x="66.699219"/>
       <use xlink:href="#ArialMT-41" x="133.398438"/>
       <use xlink:href="#ArialMT-44" x="200.097656"/>
       <use xlink:href="#ArialMT-4f" x="272.314453"/>
       <use xlink:href="#ArialMT-58" x="350.097656"/>
      </g>
     </g>
    </g>
    <g id="xtick_4">
     <g id="line2d_4">
      <g>
       <use xlink:href="#md5e801012d" x="99.262592" y="226.920201" style="stroke: #000000; stroke-width: 0.8"/>
      </g>
     </g>
     <g id="text_4">
      <!-- ABABIP -->
      <g transform="translate(77.700254 258.407309) rotate(-45) scale(0.08 -0.08)">
       <defs>
        <path id="ArialMT-50" d="M 494 0 
L 494 4581 
L 2222 4581 
Q 2678 4581 2919 4538 
Q 3256 4481 3484 4323 
Q 3713 4166 3852 3881 
Q 3991 3597 3991 3256 
Q 3991 2672 3619 2267 
Q 3247 1863 2275 1863 
L 1100 1863 
L 1100 0 
L 494 0 
z
M 1100 2403 
L 2284 2403 
Q 2872 2403 3119 2622 
Q 3366 2841 3366 3238 
Q 3366 3525 3220 3729 
Q 3075 3934 2838 4000 
Q 2684 4041 2272 4041 
L 1100 4041 
L 1100 2403 
z
" transform="scale(0.015625)"/>
       </defs>
       <use xlink:href="#ArialMT-41"/>
       <use xlink:href="#ArialMT-42" x="66.699219"/>
       <use xlink:href="#ArialMT-41" x="133.398438"/>
       <use xlink:href="#ArialMT-42" x="200.097656"/>
       <use xlink:href="#ArialMT-49" x="266.796875"/>
       <use xlink:href="#ArialMT-50" x="294.580078"/>
      </g>
     </g>
    </g>
    <g id="xtick_5">
     <g id="line2d_5">
      <g>
       <use xlink:href="#md5e801012d" x="112.790084" y="226.920201" style="stroke: #000000; stroke-width: 0.8"/>
      </g>
     </g>
     <g id="text_5">
      <!-- GASQOK -->
      <g transform="translate(87.145973 262.489083) rotate(-45) scale(0.08 -0.08)">
       <defs>
        <path id="ArialMT-47" d="M 2638 1797 
L 2638 2334 
L 4578 2338 
L 4578 638 
Q 4131 281 3656 101 
Q 3181 -78 2681 -78 
Q 2006 -78 1454 211 
Q 903 500 622 1047 
Q 341 1594 341 2269 
Q 341 2938 620 3517 
Q 900 4097 1425 4378 
Q 1950 4659 2634 4659 
Q 3131 4659 3532 4498 
Q 3934 4338 4162 4050 
Q 4391 3763 4509 3300 
L 3963 3150 
Q 3859 3500 3706 3700 
Q 3553 3900 3268 4020 
Q 2984 4141 2638 4141 
Q 2222 4141 1919 4014 
Q 1616 3888 1430 3681 
Q 1244 3475 1141 3228 
Q 966 2803 966 2306 
Q 966 1694 1177 1281 
Q 1388 869 1791 669 
Q 2194 469 2647 469 
Q 3041 469 3416 620 
Q 3791 772 3984 944 
L 3984 1797 
L 2638 1797 
z
" transform="scale(0.015625)"/>
        <path id="ArialMT-53" d="M 288 1472 
L 859 1522 
Q 900 1178 1048 958 
Q 1197 738 1509 602 
Q 1822 466 2213 466 
Q 2559 466 2825 569 
Q 3091 672 3220 851 
Q 3350 1031 3350 1244 
Q 3350 1459 3225 1620 
Q 3100 1781 2813 1891 
Q 2628 1963 1997 2114 
Q 1366 2266 1113 2400 
Q 784 2572 623 2826 
Q 463 3081 463 3397 
Q 463 3744 659 4045 
Q 856 4347 1234 4503 
Q 1613 4659 2075 4659 
Q 2584 4659 2973 4495 
Q 3363 4331 3572 4012 
Q 3781 3694 3797 3291 
L 3216 3247 
Q 3169 3681 2898 3903 
Q 2628 4125 2100 4125 
Q 1550 4125 1298 3923 
Q 1047 3722 1047 3438 
Q 1047 3191 1225 3031 
Q 1400 2872 2139 2705 
Q 2878 2538 3153 2413 
Q 3553 2228 3743 1945 
Q 3934 1663 3934 1294 
Q 3934 928 3725 604 
Q 3516 281 3123 101 
Q 2731 -78 2241 -78 
Q 1619 -78 1198 103 
Q 778 284 539 648 
Q 300 1013 288 1472 
z
" transform="scale(0.015625)"/>
        <path id="ArialMT-51" d="M 3966 491 
Q 4388 200 4744 66 
L 4566 -356 
Q 4072 -178 3581 206 
Q 3072 -78 2456 -78 
Q 1834 -78 1328 222 
Q 822 522 548 1065 
Q 275 1609 275 2291 
Q 275 2969 550 3525 
Q 825 4081 1333 4372 
Q 1841 4663 2469 4663 
Q 3103 4663 3612 4361 
Q 4122 4059 4389 3517 
Q 4656 2975 4656 2294 
Q 4656 1728 4484 1276 
Q 4313 825 3966 491 
z
M 2631 1266 
Q 3156 1119 3497 828 
Q 4031 1316 4031 2294 
Q 4031 2850 3842 3265 
Q 3653 3681 3289 3911 
Q 2925 4141 2472 4141 
Q 1794 4141 1347 3677 
Q 900 3213 900 2291 
Q 900 1397 1342 919 
Q 1784 441 2472 441 
Q 2797 441 3084 563 
Q 2800 747 2484 825 
L 2631 1266 
z
" transform="scale(0.015625)"/>
       </defs>
       <use xlink:href="#ArialMT-47"/>
       <use xlink:href="#ArialMT-41" x="77.783203"/>
       <use xlink:href="#ArialMT-53" x="144.482422"/>
       <use xlink:href="#ArialMT-51" x="211.181641"/>
       <use xlink:href="#ArialMT-4f" x="288.964844"/>
       <use xlink:href="#ArialMT-4b" x="366.748047"/>
      </g>
     </g>
    </g>
    <g id="xtick_6">
     <g id="line2d_6">
      <g>
       <use xlink:href="#md5e801012d" x="126.317577" y="226.920201" style="stroke: #000000; stroke-width: 0.8"/>
      </g>
     </g>
     <g id="text_6">
      <!-- ABEKIE -->
      <g transform="translate(104.75524 258.407309) rotate(-45) scale(0.08 -0.08)">
       <defs>
        <path id="ArialMT-45" d="M 506 0 
L 506 4581 
L 3819 4581 
L 3819 4041 
L 1113 4041 
L 1113 2638 
L 3647 2638 
L 3647 2100 
L 1113 2100 
L 1113 541 
L 3925 541 
L 3925 0 
L 506 0 
z
" transform="scale(0.015625)"/>
       </defs>
       <use xlink:href="#ArialMT-41"/>
       <use xlink:href="#ArialMT-42" x="66.699219"/>
       <use xlink:href="#ArialMT-45" x="133.398438"/>
       <use xlink:href="#ArialMT-4b" x="200.097656"/>
       <use xlink:href="#ArialMT-49" x="266.796875"/>
       <use xlink:href="#ArialMT-45" x="294.580078"/>
      </g>
     </g>
    </g>
    <g id="xtick_7">
     <g id="line2d_7">
      <g>
       <use xlink:href="#md5e801012d" x="139.84507" y="226.920201" style="stroke: #000000; stroke-width: 0.8"/>
      </g>
     </g>
     <g id="text_7">
      <!-- NIWPUE01 -->
      <g transform="translate(109.800986 266.889055) rotate(-45) scale(0.08 -0.08)">
       <defs>
        <path id="ArialMT-4e" d="M 488 0 
L 488 4581 
L 1109 4581 
L 3516 984 
L 3516 4581 
L 4097 4581 
L 4097 0 
L 3475 0 
L 1069 3600 
L 1069 0 
L 488 0 
z
" transform="scale(0.015625)"/>
        <path id="ArialMT-55" d="M 3500 4581 
L 4106 4581 
L 4106 1934 
Q 4106 1244 3950 837 
Q 3794 431 3386 176 
Q 2978 -78 2316 -78 
Q 1672 -78 1262 144 
Q 853 366 678 786 
Q 503 1206 503 1934 
L 503 4581 
L 1109 4581 
L 1109 1938 
Q 1109 1341 1220 1058 
Q 1331 775 1601 622 
Q 1872 469 2263 469 
Q 2931 469 3215 772 
Q 3500 1075 3500 1938 
L 3500 4581 
z
" transform="scale(0.015625)"/>
        <path id="ArialMT-30" d="M 266 2259 
Q 266 3072 433 3567 
Q 600 4063 929 4331 
Q 1259 4600 1759 4600 
Q 2128 4600 2406 4451 
Q 2684 4303 2865 4023 
Q 3047 3744 3150 3342 
Q 3253 2941 3253 2259 
Q 3253 1453 3087 958 
Q 2922 463 2592 192 
Q 2263 -78 1759 -78 
Q 1097 -78 719 397 
Q 266 969 266 2259 
z
M 844 2259 
Q 844 1131 1108 757 
Q 1372 384 1759 384 
Q 2147 384 2411 759 
Q 2675 1134 2675 2259 
Q 2675 3391 2411 3762 
Q 2147 4134 1753 4134 
Q 1366 4134 1134 3806 
Q 844 3388 844 2259 
z
" transform="scale(0.015625)"/>
        <path id="ArialMT-31" d="M 2384 0 
L 1822 0 
L 1822 3584 
Q 1619 3391 1289 3197 
Q 959 3003 697 2906 
L 697 3450 
Q 1169 3672 1522 3987 
Q 1875 4303 2022 4600 
L 2384 4600 
L 2384 0 
z
" transform="scale(0.015625)"/>
       </defs>
       <use xlink:href="#ArialMT-4e"/>
       <use xlink:href="#ArialMT-49" x="72.216797"/>
       <use xlink:href="#ArialMT-57" x="100"/>
       <use xlink:href="#ArialMT-50" x="194.384766"/>
       <use xlink:href="#ArialMT-55" x="261.083984"/>
       <use xlink:href="#ArialMT-45" x="333.300781"/>
       <use xlink:href="#ArialMT-30" x="400"/>
       <use xlink:href="#ArialMT-31" x="455.615234"/>
      </g>
     </g>
    </g>
    <g id="xtick_8">
     <g id="line2d_8">
      <g>
       <use xlink:href="#md5e801012d" x="153.372562" y="226.920201" style="stroke: #000000; stroke-width: 0.8"/>
      </g>
     </g>
     <g id="text_8">
      <!-- ABEKIF -->
      <g transform="translate(132.128423 258.089111) rotate(-45) scale(0.08 -0.08)">
       <defs>
        <path id="ArialMT-46" d="M 525 0 
L 525 4581 
L 3616 4581 
L 3616 4041 
L 1131 4041 
L 1131 2622 
L 3281 2622 
L 3281 2081 
L 1131 2081 
L 1131 0 
L 525 0 
z
" transform="scale(0.015625)"/>
       </defs>
       <use xlink:href="#ArialMT-41"/>
       <use xlink:href="#ArialMT-42" x="66.699219"/>
       <use xlink:href="#ArialMT-45" x="133.398438"/>
       <use xlink:href="#ArialMT-4b" x="200.097656"/>
       <use xlink:href="#ArialMT-49" x="266.796875"/>
       <use xlink:href="#ArialMT-46" x="294.580078"/>
      </g>
     </g>
    </g>
    <g id="xtick_9">
     <g id="line2d_9">
      <g>
       <use xlink:href="#md5e801012d" x="166.900055" y="226.920201" style="stroke: #000000; stroke-width: 0.8"/>
      </g>
     </g>
     <g id="text_9">
      <!-- APUFEX -->
      <g transform="translate(143.142151 260.602876) rotate(-45) scale(0.08 -0.08)">
       <use xlink:href="#ArialMT-41"/>
       <use xlink:href="#ArialMT-50" x="66.699219"/>
       <use xlink:href="#ArialMT-55" x="133.398438"/>
       <use xlink:href="#ArialMT-46" x="205.615234"/>
       <use xlink:href="#ArialMT-45" x="266.699219"/>
       <use xlink:href="#ArialMT-58" x="333.398438"/>
      </g>
     </g>
    </g>
    <g id="xtick_10">
     <g id="line2d_10">
      <g>
       <use xlink:href="#md5e801012d" x="180.427548" y="226.920201" style="stroke: #000000; stroke-width: 0.8"/>
      </g>
     </g>
     <g id="text_10">
      <!-- ABEHAU -->
      <g transform="translate(156.039435 261.233085) rotate(-45) scale(0.08 -0.08)">
       <use xlink:href="#ArialMT-41"/>
       <use xlink:href="#ArialMT-42" x="66.699219"/>
       <use xlink:href="#ArialMT-45" x="133.398438"/>
       <use xlink:href="#ArialMT-48" x="200.097656"/>
       <use xlink:href="#ArialMT-41" x="272.314453"/>
       <use xlink:href="#ArialMT-55" x="339.013672"/>
      </g>
     </g>
    </g>
    <g id="xtick_11">
     <g id="line2d_11">
      <g>
       <use xlink:href="#md5e801012d" x="193.95504" y="226.920201" style="stroke: #000000; stroke-width: 0.8"/>
      </g>
     </g>
     <g id="text_11">
      <!-- TITTUO -->
      <g transform="translate(172.408613 258.391399) rotate(-45) scale(0.08 -0.08)">
       <defs>
        <path id="ArialMT-54" d="M 1659 0 
L 1659 4041 
L 150 4041 
L 150 4581 
L 3781 4581 
L 3781 4041 
L 2266 4041 
L 2266 0 
L 1659 0 
z
" transform="scale(0.015625)"/>
       </defs>
       <use xlink:href="#ArialMT-54"/>
       <use xlink:href="#ArialMT-49" x="61.083984"/>
       <use xlink:href="#ArialMT-54" x="88.867188"/>
       <use xlink:href="#ArialMT-54" x="149.951172"/>
       <use xlink:href="#ArialMT-55" x="211.035156"/>
       <use xlink:href="#ArialMT-4f" x="283.251953"/>
      </g>
     </g>
    </g>
    <g id="xtick_12">
     <g id="line2d_12">
      <g>
       <use xlink:href="#md5e801012d" x="207.482533" y="226.920201" style="stroke: #000000; stroke-width: 0.8"/>
      </g>
     </g>
     <g id="text_12">
      <!-- EGEYOG -->
      <g transform="translate(181.838422 262.489083) rotate(-45) scale(0.08 -0.08)">
       <defs>
        <path id="ArialMT-59" d="M 1784 0 
L 1784 1941 
L 19 4581 
L 756 4581 
L 1659 3200 
Q 1909 2813 2125 2425 
Q 2331 2784 2625 3234 
L 3513 4581 
L 4219 4581 
L 2391 1941 
L 2391 0 
L 1784 0 
z
" transform="scale(0.015625)"/>
       </defs>
       <use xlink:href="#ArialMT-45"/>
       <use xlink:href="#ArialMT-47" x="66.699219"/>
       <use xlink:href="#ArialMT-45" x="144.482422"/>
       <use xlink:href="#ArialMT-59" x="211.181641"/>
       <use xlink:href="#ArialMT-4f" x="277.880859"/>
       <use xlink:href="#ArialMT-47" x="355.664062"/>
      </g>
     </g>
    </g>
    <g id="xtick_13">
     <g id="line2d_13">
      <g>
       <use xlink:href="#md5e801012d" x="221.010026" y="226.920201" style="stroke: #000000; stroke-width: 0.8"/>
      </g>
     </g>
     <g id="text_13">
      <!-- ABOBUP -->
      <g transform="translate(196.30725 261.547747) rotate(-45) scale(0.08 -0.08)">
       <use xlink:href="#ArialMT-41"/>
       <use xlink:href="#ArialMT-42" x="66.699219"/>
       <use xlink:href="#ArialMT-4f" x="133.398438"/>
       <use xlink:href="#ArialMT-42" x="211.181641"/>
       <use xlink:href="#ArialMT-55" x="277.880859"/>
       <use xlink:href="#ArialMT-50" x="350.097656"/>
      </g>
     </g>
    </g>
    <g id="xtick_14">
     <g id="line2d_14">
      <g>
       <use xlink:href="#md5e801012d" x="234.537518" y="226.920201" style="stroke: #000000; stroke-width: 0.8"/>
      </g>
     </g>
     <g id="text_14">
      <!-- XIDTOW -->
      <g transform="translate(210.887448 260.495042) rotate(-45) scale(0.08 -0.08)">
       <use xlink:href="#ArialMT-58"/>
       <use xlink:href="#ArialMT-49" x="66.699219"/>
       <use xlink:href="#ArialMT-44" x="94.482422"/>
       <use xlink:href="#ArialMT-54" x="166.699219"/>
       <use xlink:href="#ArialMT-4f" x="226.033203"/>
       <use xlink:href="#ArialMT-57" x="303.816406"/>
      </g>
     </g>
    </g>
    <g id="xtick_15">
     <g id="line2d_15">
      <g>
       <use xlink:href="#md5e801012d" x="248.065011" y="226.920201" style="stroke: #000000; stroke-width: 0.8"/>
      </g>
     </g>
     <g id="text_15">
      <!-- ACNCOB10 -->
      <g transform="translate(216.446731 268.463251) rotate(-45) scale(0.08 -0.08)">
       <defs>
        <path id="ArialMT-43" d="M 3763 1606 
L 4369 1453 
Q 4178 706 3683 314 
Q 3188 -78 2472 -78 
Q 1731 -78 1267 223 
Q 803 525 561 1097 
Q 319 1669 319 2325 
Q 319 3041 592 3573 
Q 866 4106 1370 4382 
Q 1875 4659 2481 4659 
Q 3169 4659 3637 4309 
Q 4106 3959 4291 3325 
L 3694 3184 
Q 3534 3684 3231 3912 
Q 2928 4141 2469 4141 
Q 1941 4141 1586 3887 
Q 1231 3634 1087 3207 
Q 944 2781 944 2328 
Q 944 1744 1114 1308 
Q 1284 872 1643 656 
Q 2003 441 2422 441 
Q 2931 441 3284 734 
Q 3638 1028 3763 1606 
z
" transform="scale(0.015625)"/>
       </defs>
       <use xlink:href="#ArialMT-41"/>
       <use xlink:href="#ArialMT-43" x="66.699219"/>
       <use xlink:href="#ArialMT-4e" x="138.916016"/>
       <use xlink:href="#ArialMT-43" x="211.132812"/>
       <use xlink:href="#ArialMT-4f" x="283.349609"/>
       <use xlink:href="#ArialMT-42" x="361.132812"/>
       <use xlink:href="#ArialMT-31" x="427.832031"/>
       <use xlink:href="#ArialMT-30" x="483.447266"/>
      </g>
     </g>
    </g>
    <g id="xtick_16">
     <g id="line2d_16">
      <g>
       <use xlink:href="#md5e801012d" x="261.592504" y="226.920201" style="stroke: #000000; stroke-width: 0.8"/>
      </g>
     </g>
     <g id="text_16">
      <!-- TACXUQ -->
      <g transform="translate(237.313108 261.124367) rotate(-45) scale(0.08 -0.08)">
       <use xlink:href="#ArialMT-54"/>
       <use xlink:href="#ArialMT-41" x="53.708984"/>
       <use xlink:href="#ArialMT-43" x="120.408203"/>
       <use xlink:href="#ArialMT-58" x="192.625"/>
       <use xlink:href="#ArialMT-55" x="259.324219"/>
       <use xlink:href="#ArialMT-51" x="331.541016"/>
      </g>
     </g>
    </g>
    <g id="xtick_17">
     <g id="line2d_17">
      <g>
       <use xlink:href="#md5e801012d" x="275.119996" y="226.920201" style="stroke: #000000; stroke-width: 0.8"/>
      </g>
     </g>
     <g id="text_17">
      <!-- ACAZFE -->
      <g transform="translate(251.68029 260.284678) rotate(-45) scale(0.08 -0.08)">
       <use xlink:href="#ArialMT-41"/>
       <use xlink:href="#ArialMT-43" x="66.699219"/>
       <use xlink:href="#ArialMT-41" x="138.916016"/>
       <use xlink:href="#ArialMT-5a" x="205.615234"/>
       <use xlink:href="#ArialMT-46" x="266.699219"/>
       <use xlink:href="#ArialMT-45" x="327.783203"/>
      </g>
     </g>
    </g>
    <g id="xtick_18">
     <g id="line2d_18">
      <g>
       <use xlink:href="#md5e801012d" x="288.647489" y="226.920201" style="stroke: #000000; stroke-width: 0.8"/>
      </g>
     </g>
     <g id="text_18">
      <!-- NIVHEJ -->
      <g transform="translate(267.406001 258.086459) rotate(-45) scale(0.08 -0.08)">
       <defs>
        <path id="ArialMT-56" d="M 1803 0 
L 28 4581 
L 684 4581 
L 1875 1253 
Q 2019 853 2116 503 
Q 2222 878 2363 1253 
L 3600 4581 
L 4219 4581 
L 2425 0 
L 1803 0 
z
" transform="scale(0.015625)"/>
        <path id="ArialMT-4a" d="M 184 1300 
L 731 1375 
Q 753 850 928 656 
Q 1103 463 1413 463 
Q 1641 463 1806 567 
Q 1972 672 2034 851 
Q 2097 1031 2097 1425 
L 2097 4581 
L 2703 4581 
L 2703 1459 
Q 2703 884 2564 568 
Q 2425 253 2123 87 
Q 1822 -78 1416 -78 
Q 813 -78 492 269 
Q 172 616 184 1300 
z
" transform="scale(0.015625)"/>
       </defs>
       <use xlink:href="#ArialMT-4e"/>
       <use xlink:href="#ArialMT-49" x="72.216797"/>
       <use xlink:href="#ArialMT-56" x="100"/>
       <use xlink:href="#ArialMT-48" x="166.699219"/>
       <use xlink:href="#ArialMT-45" x="238.916016"/>
       <use xlink:href="#ArialMT-4a" x="305.615234"/>
      </g>
     </g>
    </g>
    <g id="xtick_19">
     <g id="line2d_19">
      <g>
       <use xlink:href="#md5e801012d" x="302.174982" y="226.920201" style="stroke: #000000; stroke-width: 0.8"/>
      </g>
     </g>
     <g id="text_19">
      <!-- ADUPAS -->
      <g transform="translate(278.204062 260.815892) rotate(-45) scale(0.08 -0.08)">
       <use xlink:href="#ArialMT-41"/>
       <use xlink:href="#ArialMT-44" x="66.699219"/>
       <use xlink:href="#ArialMT-55" x="138.916016"/>
       <use xlink:href="#ArialMT-50" x="211.132812"/>
       <use xlink:href="#ArialMT-41" x="270.457031"/>
       <use xlink:href="#ArialMT-53" x="337.15625"/>
      </g>
     </g>
    </g>
    <g id="xtick_20">
     <g id="line2d_20">
      <g>
       <use xlink:href="#md5e801012d" x="315.702474" y="226.920201" style="stroke: #000000; stroke-width: 0.8"/>
      </g>
     </g>
     <g id="text_20">
      <!-- DAJLAC -->
      <g transform="translate(292.88679 259.660656) rotate(-45) scale(0.08 -0.08)">
       <defs>
        <path id="ArialMT-4c" d="M 469 0 
L 469 4581 
L 1075 4581 
L 1075 541 
L 3331 541 
L 3331 0 
L 469 0 
z
" transform="scale(0.015625)"/>
       </defs>
       <use xlink:href="#ArialMT-44"/>
       <use xlink:href="#ArialMT-41" x="72.216797"/>
       <use xlink:href="#ArialMT-4a" x="138.916016"/>
       <use xlink:href="#ArialMT-4c" x="188.916016"/>
       <use xlink:href="#ArialMT-41" x="244.53125"/>
       <use xlink:href="#ArialMT-43" x="311.230469"/>
      </g>
     </g>
    </g>
    <g id="xtick_21">
     <g id="line2d_21">
      <g>
       <use xlink:href="#md5e801012d" x="329.229967" y="226.920201" style="stroke: #000000; stroke-width: 0.8"/>
      </g>
     </g>
     <g id="text_21">
      <!-- OFOWIS -->
      <g transform="translate(305.166239 260.908699) rotate(-45) scale(0.08 -0.08)">
       <use xlink:href="#ArialMT-4f"/>
       <use xlink:href="#ArialMT-46" x="77.783203"/>
       <use xlink:href="#ArialMT-4f" x="138.867188"/>
       <use xlink:href="#ArialMT-57" x="216.650391"/>
       <use xlink:href="#ArialMT-49" x="311.035156"/>
       <use xlink:href="#ArialMT-53" x="338.818359"/>
      </g>
     </g>
    </g>
    <g id="xtick_22">
     <g id="line2d_22">
      <g>
       <use xlink:href="#md5e801012d" x="342.75746" y="226.920201" style="stroke: #000000; stroke-width: 0.8"/>
      </g>
     </g>
     <g id="text_22">
      <!-- CATSUL -->
      <g transform="translate(319.732295 259.870136) rotate(-45) scale(0.08 -0.08)">
       <use xlink:href="#ArialMT-43"/>
       <use xlink:href="#ArialMT-41" x="72.216797"/>
       <use xlink:href="#ArialMT-54" x="131.541016"/>
       <use xlink:href="#ArialMT-53" x="192.625"/>
       <use xlink:href="#ArialMT-55" x="259.324219"/>
       <use xlink:href="#ArialMT-4c" x="331.541016"/>
      </g>
     </g>
    </g>
    <g id="xtick_23">
     <g id="line2d_23">
      <g>
       <use xlink:href="#md5e801012d" x="356.284952" y="226.920201" style="stroke: #000000; stroke-width: 0.8"/>
      </g>
     </g>
     <g id="text_23">
      <!-- HESMUQ01 -->
      <g transform="translate(324.039999 269.089925) rotate(-45) scale(0.08 -0.08)">
       <defs>
        <path id="ArialMT-4d" d="M 475 0 
L 475 4581 
L 1388 4581 
L 2472 1338 
Q 2622 884 2691 659 
Q 2769 909 2934 1394 
L 4031 4581 
L 4847 4581 
L 4847 0 
L 4263 0 
L 4263 3834 
L 2931 0 
L 2384 0 
L 1059 3900 
L 1059 0 
L 475 0 
z
" transform="scale(0.015625)"/>
       </defs>
       <use xlink:href="#ArialMT-48"/>
       <use xlink:href="#ArialMT-45" x="72.216797"/>
       <use xlink:href="#ArialMT-53" x="138.916016"/>
       <use xlink:href="#ArialMT-4d" x="205.615234"/>
       <use xlink:href="#ArialMT-55" x="288.916016"/>
       <use xlink:href="#ArialMT-51" x="361.132812"/>
       <use xlink:href="#ArialMT-30" x="438.916016"/>
       <use xlink:href="#ArialMT-31" x="494.53125"/>
      </g>
     </g>
    </g>
    <g id="xtick_24">
     <g id="line2d_24">
      <g>
       <use xlink:href="#md5e801012d" x="369.812445" y="226.920201" style="stroke: #000000; stroke-width: 0.8"/>
      </g>
     </g>
     <g id="text_24">
      <!-- GUDQOL -->
      <g transform="translate(344.171869 262.485548) rotate(-45) scale(0.08 -0.08)">
       <use xlink:href="#ArialMT-47"/>
       <use xlink:href="#ArialMT-55" x="77.783203"/>
       <use xlink:href="#ArialMT-44" x="150"/>
       <use xlink:href="#ArialMT-51" x="222.216797"/>
       <use xlink:href="#ArialMT-4f" x="300"/>
       <use xlink:href="#ArialMT-4c" x="377.783203"/>
      </g>
     </g>
    </g>
    <g id="xtick_25">
     <g id="line2d_25">
      <g>
       <use xlink:href="#md5e801012d" x="383.339938" y="226.920201" style="stroke: #000000; stroke-width: 0.8"/>
      </g>
     </g>
     <g id="text_25">
      <!-- ABEVAG -->
      <g transform="translate(359.366366 260.818543) rotate(-45) scale(0.08 -0.08)">
       <use xlink:href="#ArialMT-41"/>
       <use xlink:href="#ArialMT-42" x="66.699219"/>
       <use xlink:href="#ArialMT-45" x="133.398438"/>
       <use xlink:href="#ArialMT-56" x="200.097656"/>
       <use xlink:href="#ArialMT-41" x="259.421875"/>
       <use xlink:href="#ArialMT-47" x="326.121094"/>
      </g>
     </g>
    </g>
    <g id="xtick_26">
     <g id="line2d_26">
      <g>
       <use xlink:href="#md5e801012d" x="396.86743" y="226.920201" style="stroke: #000000; stroke-width: 0.8"/>
      </g>
     </g>
     <g id="text_26">
      <!-- AKOQOH -->
      <g transform="translate(370.911308 262.801094) rotate(-45) scale(0.08 -0.08)">
       <use xlink:href="#ArialMT-41"/>
       <use xlink:href="#ArialMT-4b" x="66.699219"/>
       <use xlink:href="#ArialMT-4f" x="133.398438"/>
       <use xlink:href="#ArialMT-51" x="211.181641"/>
       <use xlink:href="#ArialMT-4f" x="288.964844"/>
       <use xlink:href="#ArialMT-48" x="366.748047"/>
      </g>
     </g>
    </g>
    <g id="xtick_27">
     <g id="line2d_27">
      <g>
       <use xlink:href="#md5e801012d" x="410.394923" y="226.920201" style="stroke: #000000; stroke-width: 0.8"/>
      </g>
     </g>
     <g id="text_27">
      <!-- ADARUT -->
      <g transform="translate(386.012997 261.226897) rotate(-45) scale(0.08 -0.08)">
       <defs>
        <path id="ArialMT-52" d="M 503 0 
L 503 4581 
L 2534 4581 
Q 3147 4581 3465 4457 
Q 3784 4334 3975 4021 
Q 4166 3709 4166 3331 
Q 4166 2844 3850 2509 
Q 3534 2175 2875 2084 
Q 3116 1969 3241 1856 
Q 3506 1613 3744 1247 
L 4541 0 
L 3778 0 
L 3172 953 
Q 2906 1366 2734 1584 
Q 2563 1803 2427 1890 
Q 2291 1978 2150 2013 
Q 2047 2034 1813 2034 
L 1109 2034 
L 1109 0 
L 503 0 
z
M 1109 2559 
L 2413 2559 
Q 2828 2559 3062 2645 
Q 3297 2731 3419 2920 
Q 3541 3109 3541 3331 
Q 3541 3656 3305 3865 
Q 3069 4075 2559 4075 
L 1109 4075 
L 1109 2559 
z
" transform="scale(0.015625)"/>
       </defs>
       <use xlink:href="#ArialMT-41"/>
       <use xlink:href="#ArialMT-44" x="66.699219"/>
       <use xlink:href="#ArialMT-41" x="138.916016"/>
       <use xlink:href="#ArialMT-52" x="205.615234"/>
       <use xlink:href="#ArialMT-55" x="277.832031"/>
       <use xlink:href="#ArialMT-54" x="350.048828"/>
      </g>
     </g>
    </g>
    <g id="xtick_28">
     <g id="line2d_28">
      <g>
       <use xlink:href="#md5e801012d" x="423.922416" y="226.920201" style="stroke: #000000; stroke-width: 0.8"/>
      </g>
     </g>
     <g id="text_28">
      <!-- AFECIA -->
      <g transform="translate(402.366265 258.401122) rotate(-45) scale(0.08 -0.08)">
       <use xlink:href="#ArialMT-41"/>
       <use xlink:href="#ArialMT-46" x="66.699219"/>
       <use xlink:href="#ArialMT-45" x="127.783203"/>
       <use xlink:href="#ArialMT-43" x="194.482422"/>
       <use xlink:href="#ArialMT-49" x="266.699219"/>
       <use xlink:href="#ArialMT-41" x="294.482422"/>
      </g>
     </g>
    </g>
    <g id="xtick_29">
     <g id="line2d_29">
      <g>
       <use xlink:href="#md5e801012d" x="437.449908" y="226.920201" style="stroke: #000000; stroke-width: 0.8"/>
      </g>
     </g>
     <g id="text_29">
      <!-- ACOVUL -->
      <g transform="translate(413.062679 261.232201) rotate(-45) scale(0.08 -0.08)">
       <use xlink:href="#ArialMT-41"/>
       <use xlink:href="#ArialMT-43" x="66.699219"/>
       <use xlink:href="#ArialMT-4f" x="138.916016"/>
       <use xlink:href="#ArialMT-56" x="216.699219"/>
       <use xlink:href="#ArialMT-55" x="283.398438"/>
       <use xlink:href="#ArialMT-4c" x="355.615234"/>
      </g>
     </g>
    </g>
    <g id="xtick_30">
     <g id="line2d_30">
      <g>
       <use xlink:href="#md5e801012d" x="450.977401" y="226.920201" style="stroke: #000000; stroke-width: 0.8"/>
      </g>
     </g>
     <g id="text_30">
      <!-- AFIXEV -->
      <g transform="translate(429.733262 258.089111) rotate(-45) scale(0.08 -0.08)">
       <use xlink:href="#ArialMT-41"/>
       <use xlink:href="#ArialMT-46" x="66.699219"/>
       <use xlink:href="#ArialMT-49" x="127.783203"/>
       <use xlink:href="#ArialMT-58" x="155.566406"/>
       <use xlink:href="#ArialMT-45" x="222.265625"/>
       <use xlink:href="#ArialMT-56" x="288.964844"/>
      </g>
     </g>
    </g>
    <g id="xtick_31">
     <g id="line2d_31">
      <g>
       <use xlink:href="#md5e801012d" x="464.504894" y="226.920201" style="stroke: #000000; stroke-width: 0.8"/>
      </g>
     </g>
     <g id="text_31">
      <!-- ABAYAF -->
      <g transform="translate(441.893387 259.456479) rotate(-45) scale(0.08 -0.08)">
       <use xlink:href="#ArialMT-41"/>
       <use xlink:href="#ArialMT-42" x="66.699219"/>
       <use xlink:href="#ArialMT-41" x="133.398438"/>
       <use xlink:href="#ArialMT-59" x="192.722656"/>
       <use xlink:href="#ArialMT-41" x="252.046875"/>
       <use xlink:href="#ArialMT-46" x="318.746094"/>
      </g>
     </g>
    </g>
    <g id="xtick_32">
     <g id="line2d_32">
      <g>
       <use xlink:href="#md5e801012d" x="478.032386" y="226.920201" style="stroke: #000000; stroke-width: 0.8"/>
      </g>
     </g>
     <g id="text_32">
      <!-- RULJAM -->
      <g transform="translate(454.278018 260.59934) rotate(-45) scale(0.08 -0.08)">
       <use xlink:href="#ArialMT-52"/>
       <use xlink:href="#ArialMT-55" x="72.216797"/>
       <use xlink:href="#ArialMT-4c" x="144.433594"/>
       <use xlink:href="#ArialMT-4a" x="200.048828"/>
       <use xlink:href="#ArialMT-41" x="250.048828"/>
       <use xlink:href="#ArialMT-4d" x="316.748047"/>
      </g>
     </g>
    </g>
    <g id="text_33">
     <!-- Target -->
     <g transform="translate(254.463281 281.372037) scale(0.1 -0.1)">
      <defs>
       <path id="ArialMT-61" d="M 2588 409 
Q 2275 144 1986 34 
Q 1697 -75 1366 -75 
Q 819 -75 525 192 
Q 231 459 231 875 
Q 231 1119 342 1320 
Q 453 1522 633 1644 
Q 813 1766 1038 1828 
Q 1203 1872 1538 1913 
Q 2219 1994 2541 2106 
Q 2544 2222 2544 2253 
Q 2544 2597 2384 2738 
Q 2169 2928 1744 2928 
Q 1347 2928 1158 2789 
Q 969 2650 878 2297 
L 328 2372 
Q 403 2725 575 2942 
Q 747 3159 1072 3276 
Q 1397 3394 1825 3394 
Q 2250 3394 2515 3294 
Q 2781 3194 2906 3042 
Q 3031 2891 3081 2659 
Q 3109 2516 3109 2141 
L 3109 1391 
Q 3109 606 3145 398 
Q 3181 191 3288 0 
L 2700 0 
Q 2613 175 2588 409 
z
M 2541 1666 
Q 2234 1541 1622 1453 
Q 1275 1403 1131 1340 
Q 988 1278 909 1158 
Q 831 1038 831 891 
Q 831 666 1001 516 
Q 1172 366 1500 366 
Q 1825 366 2078 508 
Q 2331 650 2450 897 
Q 2541 1088 2541 1459 
L 2541 1666 
z
" transform="scale(0.015625)"/>
       <path id="ArialMT-72" d="M 416 0 
L 416 3319 
L 922 3319 
L 922 2816 
Q 1116 3169 1280 3281 
Q 1444 3394 1641 3394 
Q 1925 3394 2219 3213 
L 2025 2691 
Q 1819 2813 1613 2813 
Q 1428 2813 1281 2702 
Q 1134 2591 1072 2394 
Q 978 2094 978 1738 
L 978 0 
L 416 0 
z
" transform="scale(0.015625)"/>
       <path id="ArialMT-67" d="M 319 -275 
L 866 -356 
Q 900 -609 1056 -725 
Q 1266 -881 1628 -881 
Q 2019 -881 2231 -725 
Q 2444 -569 2519 -288 
Q 2563 -116 2559 434 
Q 2191 0 1641 0 
Q 956 0 581 494 
Q 206 988 206 1678 
Q 206 2153 378 2554 
Q 550 2956 876 3175 
Q 1203 3394 1644 3394 
Q 2231 3394 2613 2919 
L 2613 3319 
L 3131 3319 
L 3131 450 
Q 3131 -325 2973 -648 
Q 2816 -972 2473 -1159 
Q 2131 -1347 1631 -1347 
Q 1038 -1347 672 -1080 
Q 306 -813 319 -275 
z
M 784 1719 
Q 784 1066 1043 766 
Q 1303 466 1694 466 
Q 2081 466 2343 764 
Q 2606 1063 2606 1700 
Q 2606 2309 2336 2618 
Q 2066 2928 1684 2928 
Q 1309 2928 1046 2623 
Q 784 2319 784 1719 
z
" transform="scale(0.015625)"/>
       <path id="ArialMT-65" d="M 2694 1069 
L 3275 997 
Q 3138 488 2766 206 
Q 2394 -75 1816 -75 
Q 1088 -75 661 373 
Q 234 822 234 1631 
Q 234 2469 665 2931 
Q 1097 3394 1784 3394 
Q 2450 3394 2872 2941 
Q 3294 2488 3294 1666 
Q 3294 1616 3291 1516 
L 816 1516 
Q 847 969 1125 678 
Q 1403 388 1819 388 
Q 2128 388 2347 550 
Q 2566 713 2694 1069 
z
M 847 1978 
L 2700 1978 
Q 2663 2397 2488 2606 
Q 2219 2931 1791 2931 
Q 1403 2931 1139 2672 
Q 875 2413 847 1978 
z
" transform="scale(0.015625)"/>
       <path id="ArialMT-74" d="M 1650 503 
L 1731 6 
Q 1494 -44 1306 -44 
Q 1000 -44 831 53 
Q 663 150 594 308 
Q 525 466 525 972 
L 525 2881 
L 113 2881 
L 113 3319 
L 525 3319 
L 525 4141 
L 1084 4478 
L 1084 3319 
L 1650 3319 
L 1650 2881 
L 1084 2881 
L 1084 941 
Q 1084 700 1114 631 
Q 1144 563 1211 522 
Q 1278 481 1403 481 
Q 1497 481 1650 503 
z
" transform="scale(0.015625)"/>
      </defs>
      <use xlink:href="#ArialMT-54"/>
      <use xlink:href="#ArialMT-61" x="49.958984"/>
      <use xlink:href="#ArialMT-72" x="105.574219"/>
      <use xlink:href="#ArialMT-67" x="138.875"/>
      <use xlink:href="#ArialMT-65" x="194.490234"/>
      <use xlink:href="#ArialMT-74" x="250.105469"/>
     </g>
    </g>
   </g>
   <g id="matplotlib.axis_2">
    <g id="ytick_1">
     <g id="line2d_33">
      <defs>
       <path id="m11ab6cc251" d="M 0 0 
L -3.5 0 
" style="stroke: #000000; stroke-width: 0.8"/>
      </defs>
      <g>
       <use xlink:href="#m11ab6cc251" x="37.7125" y="226.920201" style="stroke: #000000; stroke-width: 0.8"/>
      </g>
     </g>
     <g id="text_34">
      <!-- 0.0 -->
      <g transform="translate(17.99 229.959576) scale(0.08 -0.08)">
       <defs>
        <path id="DejaVuSans-30" d="M 2034 4250 
Q 1547 4250 1301 3770 
Q 1056 3291 1056 2328 
Q 1056 1369 1301 889 
Q 1547 409 2034 409 
Q 2525 409 2770 889 
Q 3016 1369 3016 2328 
Q 3016 3291 2770 3770 
Q 2525 4250 2034 4250 
z
M 2034 4750 
Q 2819 4750 3233 4129 
Q 3647 3509 3647 2328 
Q 3647 1150 3233 529 
Q 2819 -91 2034 -91 
Q 1250 -91 836 529 
Q 422 1150 422 2328 
Q 422 3509 836 4129 
Q 1250 4750 2034 4750 
z
" transform="scale(0.015625)"/>
        <path id="DejaVuSans-2e" d="M 684 794 
L 1344 794 
L 1344 0 
L 684 0 
L 684 794 
z
" transform="scale(0.015625)"/>
       </defs>
       <use xlink:href="#DejaVuSans-30"/>
       <use xlink:href="#DejaVuSans-2e" x="63.623047"/>
       <use xlink:href="#DejaVuSans-30" x="95.410156"/>
      </g>
     </g>
    </g>
    <g id="ytick_2">
     <g id="line2d_34">
      <g>
       <use xlink:href="#m11ab6cc251" x="37.7125" y="185.092911" style="stroke: #000000; stroke-width: 0.8"/>
      </g>
     </g>
     <g id="text_35">
      <!-- 0.2 -->
      <g transform="translate(17.99 188.132286) scale(0.08 -0.08)">
       <defs>
        <path id="DejaVuSans-32" d="M 1228 531 
L 3431 531 
L 3431 0 
L 469 0 
L 469 531 
Q 828 903 1448 1529 
Q 2069 2156 2228 2338 
Q 2531 2678 2651 2914 
Q 2772 3150 2772 3378 
Q 2772 3750 2511 3984 
Q 2250 4219 1831 4219 
Q 1534 4219 1204 4116 
Q 875 4013 500 3803 
L 500 4441 
Q 881 4594 1212 4672 
Q 1544 4750 1819 4750 
Q 2544 4750 2975 4387 
Q 3406 4025 3406 3419 
Q 3406 3131 3298 2873 
Q 3191 2616 2906 2266 
Q 2828 2175 2409 1742 
Q 1991 1309 1228 531 
z
" transform="scale(0.015625)"/>
       </defs>
       <use xlink:href="#DejaVuSans-30"/>
       <use xlink:href="#DejaVuSans-2e" x="63.623047"/>
       <use xlink:href="#DejaVuSans-32" x="95.410156"/>
      </g>
     </g>
    </g>
    <g id="ytick_3">
     <g id="line2d_35">
      <g>
       <use xlink:href="#m11ab6cc251" x="37.7125" y="143.265621" style="stroke: #000000; stroke-width: 0.8"/>
      </g>
     </g>
     <g id="text_36">
      <!-- 0.4 -->
      <g transform="translate(17.99 146.304996) scale(0.08 -0.08)">
       <defs>
        <path id="DejaVuSans-34" d="M 2419 4116 
L 825 1625 
L 2419 1625 
L 2419 4116 
z
M 2253 4666 
L 3047 4666 
L 3047 1625 
L 3713 1625 
L 3713 1100 
L 3047 1100 
L 3047 0 
L 2419 0 
L 2419 1100 
L 313 1100 
L 313 1709 
L 2253 4666 
z
" transform="scale(0.015625)"/>
       </defs>
       <use xlink:href="#DejaVuSans-30"/>
       <use xlink:href="#DejaVuSans-2e" x="63.623047"/>
       <use xlink:href="#DejaVuSans-34" x="95.410156"/>
      </g>
     </g>
    </g>
    <g id="ytick_4">
     <g id="line2d_36">
      <g>
       <use xlink:href="#m11ab6cc251" x="37.7125" y="101.438331" style="stroke: #000000; stroke-width: 0.8"/>
      </g>
     </g>
     <g id="text_37">
      <!-- 0.6 -->
      <g transform="translate(17.99 104.477706) scale(0.08 -0.08)">
       <defs>
        <path id="DejaVuSans-36" d="M 2113 2584 
Q 1688 2584 1439 2293 
Q 1191 2003 1191 1497 
Q 1191 994 1439 701 
Q 1688 409 2113 409 
Q 2538 409 2786 701 
Q 3034 994 3034 1497 
Q 3034 2003 2786 2293 
Q 2538 2584 2113 2584 
z
M 3366 4563 
L 3366 3988 
Q 3128 4100 2886 4159 
Q 2644 4219 2406 4219 
Q 1781 4219 1451 3797 
Q 1122 3375 1075 2522 
Q 1259 2794 1537 2939 
Q 1816 3084 2150 3084 
Q 2853 3084 3261 2657 
Q 3669 2231 3669 1497 
Q 3669 778 3244 343 
Q 2819 -91 2113 -91 
Q 1303 -91 875 529 
Q 447 1150 447 2328 
Q 447 3434 972 4092 
Q 1497 4750 2381 4750 
Q 2619 4750 2861 4703 
Q 3103 4656 3366 4563 
z
" transform="scale(0.015625)"/>
       </defs>
       <use xlink:href="#DejaVuSans-30"/>
       <use xlink:href="#DejaVuSans-2e" x="63.623047"/>
       <use xlink:href="#DejaVuSans-36" x="95.410156"/>
      </g>
     </g>
    </g>
    <g id="ytick_5">
     <g id="line2d_37">
      <g>
       <use xlink:href="#m11ab6cc251" x="37.7125" y="59.61104" style="stroke: #000000; stroke-width: 0.8"/>
      </g>
     </g>
     <g id="text_38">
      <!-- 0.8 -->
      <g transform="translate(17.99 62.650415) scale(0.08 -0.08)">
       <defs>
        <path id="DejaVuSans-38" d="M 2034 2216 
Q 1584 2216 1326 1975 
Q 1069 1734 1069 1313 
Q 1069 891 1326 650 
Q 1584 409 2034 409 
Q 2484 409 2743 651 
Q 3003 894 3003 1313 
Q 3003 1734 2745 1975 
Q 2488 2216 2034 2216 
z
M 1403 2484 
Q 997 2584 770 2862 
Q 544 3141 544 3541 
Q 544 4100 942 4425 
Q 1341 4750 2034 4750 
Q 2731 4750 3128 4425 
Q 3525 4100 3525 3541 
Q 3525 3141 3298 2862 
Q 3072 2584 2669 2484 
Q 3125 2378 3379 2068 
Q 3634 1759 3634 1313 
Q 3634 634 3220 271 
Q 2806 -91 2034 -91 
Q 1263 -91 848 271 
Q 434 634 434 1313 
Q 434 1759 690 2068 
Q 947 2378 1403 2484 
z
M 1172 3481 
Q 1172 3119 1398 2916 
Q 1625 2713 2034 2713 
Q 2441 2713 2670 2916 
Q 2900 3119 2900 3481 
Q 2900 3844 2670 4047 
Q 2441 4250 2034 4250 
Q 1625 4250 1398 4047 
Q 1172 3844 1172 3481 
z
" transform="scale(0.015625)"/>
       </defs>
       <use xlink:href="#DejaVuSans-30"/>
       <use xlink:href="#DejaVuSans-2e" x="63.623047"/>
       <use xlink:href="#DejaVuSans-38" x="95.410156"/>
      </g>
     </g>
    </g>
    <g id="ytick_6">
     <g id="line2d_38">
      <g>
       <use xlink:href="#m11ab6cc251" x="37.7125" y="17.78375" style="stroke: #000000; stroke-width: 0.8"/>
      </g>
     </g>
     <g id="text_39">
      <!-- 1.0 -->
      <g transform="translate(17.99 20.823125) scale(0.08 -0.08)">
       <defs>
        <path id="DejaVuSans-31" d="M 794 531 
L 1825 531 
L 1825 4091 
L 703 3866 
L 703 4441 
L 1819 4666 
L 2450 4666 
L 2450 531 
L 3481 531 
L 3481 0 
L 794 0 
L 794 531 
z
" transform="scale(0.015625)"/>
       </defs>
       <use xlink:href="#DejaVuSans-31"/>
       <use xlink:href="#DejaVuSans-2e" x="63.623047"/>
       <use xlink:href="#DejaVuSans-30" x="95.410156"/>
      </g>
     </g>
    </g>
    <g id="text_40">
     <!-- Avg Similarity -->
     <g transform="translate(11.885313 152.547288) rotate(-90) scale(0.1 -0.1)">
      <defs>
       <path id="ArialMT-76" d="M 1344 0 
L 81 3319 
L 675 3319 
L 1388 1331 
Q 1503 1009 1600 663 
Q 1675 925 1809 1294 
L 2547 3319 
L 3125 3319 
L 1869 0 
L 1344 0 
z
" transform="scale(0.015625)"/>
       <path id="ArialMT-20" transform="scale(0.015625)"/>
       <path id="ArialMT-69" d="M 425 3934 
L 425 4581 
L 988 4581 
L 988 3934 
L 425 3934 
z
M 425 0 
L 425 3319 
L 988 3319 
L 988 0 
L 425 0 
z
" transform="scale(0.015625)"/>
       <path id="ArialMT-6d" d="M 422 0 
L 422 3319 
L 925 3319 
L 925 2853 
Q 1081 3097 1340 3245 
Q 1600 3394 1931 3394 
Q 2300 3394 2536 3241 
Q 2772 3088 2869 2813 
Q 3263 3394 3894 3394 
Q 4388 3394 4653 3120 
Q 4919 2847 4919 2278 
L 4919 0 
L 4359 0 
L 4359 2091 
Q 4359 2428 4304 2576 
Q 4250 2725 4106 2815 
Q 3963 2906 3769 2906 
Q 3419 2906 3187 2673 
Q 2956 2441 2956 1928 
L 2956 0 
L 2394 0 
L 2394 2156 
Q 2394 2531 2256 2718 
Q 2119 2906 1806 2906 
Q 1569 2906 1367 2781 
Q 1166 2656 1075 2415 
Q 984 2175 984 1722 
L 984 0 
L 422 0 
z
" transform="scale(0.015625)"/>
       <path id="ArialMT-6c" d="M 409 0 
L 409 4581 
L 972 4581 
L 972 0 
L 409 0 
z
" transform="scale(0.015625)"/>
       <path id="ArialMT-79" d="M 397 -1278 
L 334 -750 
Q 519 -800 656 -800 
Q 844 -800 956 -737 
Q 1069 -675 1141 -563 
Q 1194 -478 1313 -144 
Q 1328 -97 1363 -6 
L 103 3319 
L 709 3319 
L 1400 1397 
Q 1534 1031 1641 628 
Q 1738 1016 1872 1384 
L 2581 3319 
L 3144 3319 
L 1881 -56 
Q 1678 -603 1566 -809 
Q 1416 -1088 1222 -1217 
Q 1028 -1347 759 -1347 
Q 597 -1347 397 -1278 
z
" transform="scale(0.015625)"/>
      </defs>
      <use xlink:href="#ArialMT-41"/>
      <use xlink:href="#ArialMT-76" x="64.949219"/>
      <use xlink:href="#ArialMT-67" x="114.949219"/>
      <use xlink:href="#ArialMT-20" x="170.564453"/>
      <use xlink:href="#ArialMT-53" x="198.347656"/>
      <use xlink:href="#ArialMT-69" x="265.046875"/>
      <use xlink:href="#ArialMT-6d" x="287.263672"/>
      <use xlink:href="#ArialMT-69" x="370.564453"/>
      <use xlink:href="#ArialMT-6c" x="392.78125"/>
      <use xlink:href="#ArialMT-61" x="414.998047"/>
      <use xlink:href="#ArialMT-72" x="470.613281"/>
      <use xlink:href="#ArialMT-69" x="503.914062"/>
      <use xlink:href="#ArialMT-74" x="526.130859"/>
      <use xlink:href="#ArialMT-79" x="553.914062"/>
     </g>
    </g>
   </g>
   <g id="patch_3">
    <path d="M 37.7125 226.920201 
L 37.7125 17.78375 
" style="fill: none; stroke: #000000; stroke-width: 0.8; stroke-linejoin: miter; stroke-linecap: square"/>
   </g>
   <g id="patch_4">
    <path d="M 37.7125 226.920201 
L 499 226.920201 
" style="fill: none; stroke: #000000; stroke-width: 0.8; stroke-linejoin: miter; stroke-linecap: square"/>
   </g>
   <g id="text_41">
    <!-- Average 3D Similarity per Target -->
    <g transform="translate(191.6625 11.78375) scale(0.1 -0.1)">
     <defs>
      <path id="Arial-BoldMT-41" d="M 4597 0 
L 3591 0 
L 3191 1041 
L 1359 1041 
L 981 0 
L 0 0 
L 1784 4581 
L 2763 4581 
L 4597 0 
z
M 2894 1813 
L 2263 3513 
L 1644 1813 
L 2894 1813 
z
" transform="scale(0.015625)"/>
      <path id="Arial-BoldMT-76" d="M 1372 0 
L 34 3319 
L 956 3319 
L 1581 1625 
L 1763 1059 
Q 1834 1275 1853 1344 
Q 1897 1484 1947 1625 
L 2578 3319 
L 3481 3319 
L 2163 0 
L 1372 0 
z
" transform="scale(0.015625)"/>
      <path id="Arial-BoldMT-65" d="M 2381 1056 
L 3256 909 
Q 3088 428 2723 176 
Q 2359 -75 1813 -75 
Q 947 -75 531 491 
Q 203 944 203 1634 
Q 203 2459 634 2926 
Q 1066 3394 1725 3394 
Q 2466 3394 2894 2905 
Q 3322 2416 3303 1406 
L 1103 1406 
Q 1113 1016 1316 798 
Q 1519 581 1822 581 
Q 2028 581 2168 693 
Q 2309 806 2381 1056 
z
M 2431 1944 
Q 2422 2325 2234 2523 
Q 2047 2722 1778 2722 
Q 1491 2722 1303 2513 
Q 1116 2303 1119 1944 
L 2431 1944 
z
" transform="scale(0.015625)"/>
      <path id="Arial-BoldMT-72" d="M 1300 0 
L 422 0 
L 422 3319 
L 1238 3319 
L 1238 2847 
Q 1447 3181 1614 3287 
Q 1781 3394 1994 3394 
Q 2294 3394 2572 3228 
L 2300 2463 
Q 2078 2606 1888 2606 
Q 1703 2606 1575 2504 
Q 1447 2403 1373 2137 
Q 1300 1872 1300 1025 
L 1300 0 
z
" transform="scale(0.015625)"/>
      <path id="Arial-BoldMT-61" d="M 1116 2306 
L 319 2450 
Q 453 2931 781 3162 
Q 1109 3394 1756 3394 
Q 2344 3394 2631 3255 
Q 2919 3116 3036 2902 
Q 3153 2688 3153 2116 
L 3144 1091 
Q 3144 653 3186 445 
Q 3228 238 3344 0 
L 2475 0 
Q 2441 88 2391 259 
Q 2369 338 2359 363 
Q 2134 144 1878 34 
Q 1622 -75 1331 -75 
Q 819 -75 523 203 
Q 228 481 228 906 
Q 228 1188 362 1408 
Q 497 1628 739 1745 
Q 981 1863 1438 1950 
Q 2053 2066 2291 2166 
L 2291 2253 
Q 2291 2506 2166 2614 
Q 2041 2722 1694 2722 
Q 1459 2722 1328 2630 
Q 1197 2538 1116 2306 
z
M 2291 1594 
Q 2122 1538 1756 1459 
Q 1391 1381 1278 1306 
Q 1106 1184 1106 997 
Q 1106 813 1243 678 
Q 1381 544 1594 544 
Q 1831 544 2047 700 
Q 2206 819 2256 991 
Q 2291 1103 2291 1419 
L 2291 1594 
z
" transform="scale(0.015625)"/>
      <path id="Arial-BoldMT-67" d="M 378 -219 
L 1381 -341 
Q 1406 -516 1497 -581 
Q 1622 -675 1891 -675 
Q 2234 -675 2406 -572 
Q 2522 -503 2581 -350 
Q 2622 -241 2622 53 
L 2622 538 
Q 2228 0 1628 0 
Q 959 0 569 566 
Q 263 1013 263 1678 
Q 263 2513 664 2953 
Q 1066 3394 1663 3394 
Q 2278 3394 2678 2853 
L 2678 3319 
L 3500 3319 
L 3500 341 
Q 3500 -247 3403 -537 
Q 3306 -828 3131 -993 
Q 2956 -1159 2664 -1253 
Q 2372 -1347 1925 -1347 
Q 1081 -1347 728 -1058 
Q 375 -769 375 -325 
Q 375 -281 378 -219 
z
M 1163 1728 
Q 1163 1200 1367 954 
Q 1572 709 1872 709 
Q 2194 709 2416 961 
Q 2638 1213 2638 1706 
Q 2638 2222 2425 2472 
Q 2213 2722 1888 2722 
Q 1572 2722 1367 2476 
Q 1163 2231 1163 1728 
z
" transform="scale(0.015625)"/>
      <path id="Arial-BoldMT-20" transform="scale(0.015625)"/>
      <path id="Arial-BoldMT-33" d="M 241 1216 
L 1091 1319 
Q 1131 994 1309 822 
Q 1488 650 1741 650 
Q 2013 650 2198 856 
Q 2384 1063 2384 1413 
Q 2384 1744 2206 1937 
Q 2028 2131 1772 2131 
Q 1603 2131 1369 2066 
L 1466 2781 
Q 1822 2772 2009 2936 
Q 2197 3100 2197 3372 
Q 2197 3603 2059 3740 
Q 1922 3878 1694 3878 
Q 1469 3878 1309 3722 
Q 1150 3566 1116 3266 
L 306 3403 
Q 391 3819 561 4067 
Q 731 4316 1036 4458 
Q 1341 4600 1719 4600 
Q 2366 4600 2756 4188 
Q 3078 3850 3078 3425 
Q 3078 2822 2419 2463 
Q 2813 2378 3048 2084 
Q 3284 1791 3284 1375 
Q 3284 772 2843 347 
Q 2403 -78 1747 -78 
Q 1125 -78 715 280 
Q 306 638 241 1216 
z
" transform="scale(0.015625)"/>
      <path id="Arial-BoldMT-44" d="M 463 4581 
L 2153 4581 
Q 2725 4581 3025 4494 
Q 3428 4375 3715 4072 
Q 4003 3769 4153 3330 
Q 4303 2891 4303 2247 
Q 4303 1681 4163 1272 
Q 3991 772 3672 463 
Q 3431 228 3022 97 
Q 2716 0 2203 0 
L 463 0 
L 463 4581 
z
M 1388 3806 
L 1388 772 
L 2078 772 
Q 2466 772 2638 816 
Q 2863 872 3011 1006 
Q 3159 1141 3253 1448 
Q 3347 1756 3347 2288 
Q 3347 2819 3253 3103 
Q 3159 3388 2990 3547 
Q 2822 3706 2563 3763 
Q 2369 3806 1803 3806 
L 1388 3806 
z
" transform="scale(0.015625)"/>
      <path id="Arial-BoldMT-53" d="M 231 1491 
L 1131 1578 
Q 1213 1125 1461 912 
Q 1709 700 2131 700 
Q 2578 700 2804 889 
Q 3031 1078 3031 1331 
Q 3031 1494 2936 1608 
Q 2841 1722 2603 1806 
Q 2441 1863 1863 2006 
Q 1119 2191 819 2459 
Q 397 2838 397 3381 
Q 397 3731 595 4036 
Q 794 4341 1167 4500 
Q 1541 4659 2069 4659 
Q 2931 4659 3367 4281 
Q 3803 3903 3825 3272 
L 2900 3231 
Q 2841 3584 2645 3739 
Q 2450 3894 2059 3894 
Q 1656 3894 1428 3728 
Q 1281 3622 1281 3444 
Q 1281 3281 1419 3166 
Q 1594 3019 2269 2859 
Q 2944 2700 3267 2529 
Q 3591 2359 3773 2064 
Q 3956 1769 3956 1334 
Q 3956 941 3737 597 
Q 3519 253 3119 86 
Q 2719 -81 2122 -81 
Q 1253 -81 787 320 
Q 322 722 231 1491 
z
" transform="scale(0.015625)"/>
      <path id="Arial-BoldMT-69" d="M 459 3769 
L 459 4581 
L 1338 4581 
L 1338 3769 
L 459 3769 
z
M 459 0 
L 459 3319 
L 1338 3319 
L 1338 0 
L 459 0 
z
" transform="scale(0.015625)"/>
      <path id="Arial-BoldMT-6d" d="M 394 3319 
L 1203 3319 
L 1203 2866 
Q 1638 3394 2238 3394 
Q 2556 3394 2790 3262 
Q 3025 3131 3175 2866 
Q 3394 3131 3647 3262 
Q 3900 3394 4188 3394 
Q 4553 3394 4806 3245 
Q 5059 3097 5184 2809 
Q 5275 2597 5275 2122 
L 5275 0 
L 4397 0 
L 4397 1897 
Q 4397 2391 4306 2534 
Q 4184 2722 3931 2722 
Q 3747 2722 3584 2609 
Q 3422 2497 3350 2280 
Q 3278 2063 3278 1594 
L 3278 0 
L 2400 0 
L 2400 1819 
Q 2400 2303 2353 2443 
Q 2306 2584 2207 2653 
Q 2109 2722 1941 2722 
Q 1738 2722 1575 2612 
Q 1413 2503 1342 2297 
Q 1272 2091 1272 1613 
L 1272 0 
L 394 0 
L 394 3319 
z
" transform="scale(0.015625)"/>
      <path id="Arial-BoldMT-6c" d="M 459 0 
L 459 4581 
L 1338 4581 
L 1338 0 
L 459 0 
z
" transform="scale(0.015625)"/>
      <path id="Arial-BoldMT-74" d="M 1981 3319 
L 1981 2619 
L 1381 2619 
L 1381 1281 
Q 1381 875 1398 808 
Q 1416 741 1477 697 
Q 1538 653 1625 653 
Q 1747 653 1978 738 
L 2053 56 
Q 1747 -75 1359 -75 
Q 1122 -75 931 4 
Q 741 84 652 211 
Q 563 338 528 553 
Q 500 706 500 1172 
L 500 2619 
L 97 2619 
L 97 3319 
L 500 3319 
L 500 3978 
L 1381 4491 
L 1381 3319 
L 1981 3319 
z
" transform="scale(0.015625)"/>
      <path id="Arial-BoldMT-79" d="M 44 3319 
L 978 3319 
L 1772 963 
L 2547 3319 
L 3456 3319 
L 2284 125 
L 2075 -453 
Q 1959 -744 1854 -897 
Q 1750 -1050 1614 -1145 
Q 1478 -1241 1279 -1294 
Q 1081 -1347 831 -1347 
Q 578 -1347 334 -1294 
L 256 -606 
Q 463 -647 628 -647 
Q 934 -647 1081 -467 
Q 1228 -288 1306 -9 
L 44 3319 
z
" transform="scale(0.015625)"/>
      <path id="Arial-BoldMT-70" d="M 434 3319 
L 1253 3319 
L 1253 2831 
Q 1413 3081 1684 3237 
Q 1956 3394 2288 3394 
Q 2866 3394 3269 2941 
Q 3672 2488 3672 1678 
Q 3672 847 3265 386 
Q 2859 -75 2281 -75 
Q 2006 -75 1782 34 
Q 1559 144 1313 409 
L 1313 -1263 
L 434 -1263 
L 434 3319 
z
M 1303 1716 
Q 1303 1156 1525 889 
Q 1747 622 2066 622 
Q 2372 622 2575 867 
Q 2778 1113 2778 1672 
Q 2778 2194 2568 2447 
Q 2359 2700 2050 2700 
Q 1728 2700 1515 2451 
Q 1303 2203 1303 1716 
z
" transform="scale(0.015625)"/>
      <path id="Arial-BoldMT-54" d="M 1497 0 
L 1497 3806 
L 138 3806 
L 138 4581 
L 3778 4581 
L 3778 3806 
L 2422 3806 
L 2422 0 
L 1497 0 
z
" transform="scale(0.015625)"/>
     </defs>
     <use xlink:href="#Arial-BoldMT-41"/>
     <use xlink:href="#Arial-BoldMT-76" x="68.466797"/>
     <use xlink:href="#Arial-BoldMT-65" x="124.082031"/>
     <use xlink:href="#Arial-BoldMT-72" x="179.697266"/>
     <use xlink:href="#Arial-BoldMT-61" x="218.613281"/>
     <use xlink:href="#Arial-BoldMT-67" x="274.228516"/>
     <use xlink:href="#Arial-BoldMT-65" x="335.3125"/>
     <use xlink:href="#Arial-BoldMT-20" x="390.927734"/>
     <use xlink:href="#Arial-BoldMT-33" x="418.710938"/>
     <use xlink:href="#Arial-BoldMT-44" x="474.326172"/>
     <use xlink:href="#Arial-BoldMT-20" x="546.542969"/>
     <use xlink:href="#Arial-BoldMT-53" x="574.326172"/>
     <use xlink:href="#Arial-BoldMT-69" x="641.025391"/>
     <use xlink:href="#Arial-BoldMT-6d" x="668.808594"/>
     <use xlink:href="#Arial-BoldMT-69" x="757.724609"/>
     <use xlink:href="#Arial-BoldMT-6c" x="785.507812"/>
     <use xlink:href="#Arial-BoldMT-61" x="813.291016"/>
     <use xlink:href="#Arial-BoldMT-72" x="868.90625"/>
     <use xlink:href="#Arial-BoldMT-69" x="907.822266"/>
     <use xlink:href="#Arial-BoldMT-74" x="935.605469"/>
     <use xlink:href="#Arial-BoldMT-79" x="968.90625"/>
     <use xlink:href="#Arial-BoldMT-20" x="1024.521484"/>
     <use xlink:href="#Arial-BoldMT-70" x="1052.304688"/>
     <use xlink:href="#Arial-BoldMT-65" x="1113.388672"/>
     <use xlink:href="#Arial-BoldMT-72" x="1169.003906"/>
     <use xlink:href="#Arial-BoldMT-20" x="1207.919922"/>
     <use xlink:href="#Arial-BoldMT-54" x="1235.703125"/>
     <use xlink:href="#Arial-BoldMT-61" x="1289.412109"/>
     <use xlink:href="#Arial-BoldMT-72" x="1345.027344"/>
     <use xlink:href="#Arial-BoldMT-67" x="1383.943359"/>
     <use xlink:href="#Arial-BoldMT-65" x="1445.027344"/>
     <use xlink:href="#Arial-BoldMT-74" x="1500.642578"/>
    </g>
   </g>
   <g id="legend_1">
    <g id="patch_5">
     <path d="M 446.401562 223.420201 
L 494.1 223.420201 
Q 495.5 223.420201 495.5 222.020201 
L 495.5 191.896139 
Q 495.5 190.496139 494.1 190.496139 
L 446.401562 190.496139 
Q 445.001562 190.496139 445.001562 191.896139 
L 445.001562 222.020201 
Q 445.001562 223.420201 446.401562 223.420201 
z
" style="fill: #ffffff; opacity: 0.8; stroke: #000000; stroke-linejoin: miter"/>
    </g>
    <g id="PathCollection_4">
     <g>
      <use xlink:href="#m7f0a538f2f" x="454.801562" y="196.777545" style="fill: #1f77b4; stroke: #000000; stroke-width: 0.7"/>
     </g>
    </g>
    <g id="text_42">
     <!-- CCDC -->
     <g transform="translate(467.401563 198.615045) scale(0.07 -0.07)">
      <defs>
       <path id="DejaVuSans-43" d="M 4122 4306 
L 4122 3641 
Q 3803 3938 3442 4084 
Q 3081 4231 2675 4231 
Q 1875 4231 1450 3742 
Q 1025 3253 1025 2328 
Q 1025 1406 1450 917 
Q 1875 428 2675 428 
Q 3081 428 3442 575 
Q 3803 722 4122 1019 
L 4122 359 
Q 3791 134 3420 21 
Q 3050 -91 2638 -91 
Q 1578 -91 968 557 
Q 359 1206 359 2328 
Q 359 3453 968 4101 
Q 1578 4750 2638 4750 
Q 3056 4750 3426 4639 
Q 3797 4528 4122 4306 
z
" transform="scale(0.015625)"/>
       <path id="DejaVuSans-44" d="M 1259 4147 
L 1259 519 
L 2022 519 
Q 2988 519 3436 956 
Q 3884 1394 3884 2338 
Q 3884 3275 3436 3711 
Q 2988 4147 2022 4147 
L 1259 4147 
z
M 628 4666 
L 1925 4666 
Q 3281 4666 3915 4102 
Q 4550 3538 4550 2338 
Q 4550 1131 3912 565 
Q 3275 0 1925 0 
L 628 0 
L 628 4666 
z
" transform="scale(0.015625)"/>
      </defs>
      <use xlink:href="#DejaVuSans-43"/>
      <use xlink:href="#DejaVuSans-43" x="69.824219"/>
      <use xlink:href="#DejaVuSans-44" x="139.648438"/>
      <use xlink:href="#DejaVuSans-43" x="216.650391"/>
     </g>
    </g>
    <g id="PathCollection_5">
     <g>
      <use xlink:href="#m05fe36ed8b" x="454.801562" y="207.052233" style="fill: #ff7f0e; stroke: #000000; stroke-width: 0.7"/>
     </g>
    </g>
    <g id="text_43">
     <!-- RDKit -->
     <g transform="translate(467.401563 208.889733) scale(0.07 -0.07)">
      <defs>
       <path id="DejaVuSans-52" d="M 2841 2188 
Q 3044 2119 3236 1894 
Q 3428 1669 3622 1275 
L 4263 0 
L 3584 0 
L 2988 1197 
Q 2756 1666 2539 1819 
Q 2322 1972 1947 1972 
L 1259 1972 
L 1259 0 
L 628 0 
L 628 4666 
L 2053 4666 
Q 2853 4666 3247 4331 
Q 3641 3997 3641 3322 
Q 3641 2881 3436 2590 
Q 3231 2300 2841 2188 
z
M 1259 4147 
L 1259 2491 
L 2053 2491 
Q 2509 2491 2742 2702 
Q 2975 2913 2975 3322 
Q 2975 3731 2742 3939 
Q 2509 4147 2053 4147 
L 1259 4147 
z
" transform="scale(0.015625)"/>
       <path id="DejaVuSans-4b" d="M 628 4666 
L 1259 4666 
L 1259 2694 
L 3353 4666 
L 4166 4666 
L 1850 2491 
L 4331 0 
L 3500 0 
L 1259 2247 
L 1259 0 
L 628 0 
L 628 4666 
z
" transform="scale(0.015625)"/>
       <path id="DejaVuSans-69" d="M 603 3500 
L 1178 3500 
L 1178 0 
L 603 0 
L 603 3500 
z
M 603 4863 
L 1178 4863 
L 1178 4134 
L 603 4134 
L 603 4863 
z
" transform="scale(0.015625)"/>
       <path id="DejaVuSans-74" d="M 1172 4494 
L 1172 3500 
L 2356 3500 
L 2356 3053 
L 1172 3053 
L 1172 1153 
Q 1172 725 1289 603 
Q 1406 481 1766 481 
L 2356 481 
L 2356 0 
L 1766 0 
Q 1100 0 847 248 
Q 594 497 594 1153 
L 594 3053 
L 172 3053 
L 172 3500 
L 594 3500 
L 594 4494 
L 1172 4494 
z
" transform="scale(0.015625)"/>
      </defs>
      <use xlink:href="#DejaVuSans-52"/>
      <use xlink:href="#DejaVuSans-44" x="69.482422"/>
      <use xlink:href="#DejaVuSans-4b" x="146.484375"/>
      <use xlink:href="#DejaVuSans-69" x="212.060547"/>
      <use xlink:href="#DejaVuSans-74" x="239.84375"/>
     </g>
    </g>
    <g id="PathCollection_6">
     <g>
      <use xlink:href="#m958266f310" x="454.801562" y="217.32692" style="fill: #2ca02c; stroke: #000000; stroke-width: 0.7"/>
     </g>
    </g>
    <g id="text_44">
     <!-- OBabel -->
     <g transform="translate(467.401563 219.16442) scale(0.07 -0.07)">
      <defs>
       <path id="DejaVuSans-4f" d="M 2522 4238 
Q 1834 4238 1429 3725 
Q 1025 3213 1025 2328 
Q 1025 1447 1429 934 
Q 1834 422 2522 422 
Q 3209 422 3611 934 
Q 4013 1447 4013 2328 
Q 4013 3213 3611 3725 
Q 3209 4238 2522 4238 
z
M 2522 4750 
Q 3503 4750 4090 4092 
Q 4678 3434 4678 2328 
Q 4678 1225 4090 567 
Q 3503 -91 2522 -91 
Q 1538 -91 948 565 
Q 359 1222 359 2328 
Q 359 3434 948 4092 
Q 1538 4750 2522 4750 
z
" transform="scale(0.015625)"/>
       <path id="DejaVuSans-42" d="M 1259 2228 
L 1259 519 
L 2272 519 
Q 2781 519 3026 730 
Q 3272 941 3272 1375 
Q 3272 1813 3026 2020 
Q 2781 2228 2272 2228 
L 1259 2228 
z
M 1259 4147 
L 1259 2741 
L 2194 2741 
Q 2656 2741 2882 2914 
Q 3109 3088 3109 3444 
Q 3109 3797 2882 3972 
Q 2656 4147 2194 4147 
L 1259 4147 
z
M 628 4666 
L 2241 4666 
Q 2963 4666 3353 4366 
Q 3744 4066 3744 3513 
Q 3744 3084 3544 2831 
Q 3344 2578 2956 2516 
Q 3422 2416 3680 2098 
Q 3938 1781 3938 1306 
Q 3938 681 3513 340 
Q 3088 0 2303 0 
L 628 0 
L 628 4666 
z
" transform="scale(0.015625)"/>
       <path id="DejaVuSans-61" d="M 2194 1759 
Q 1497 1759 1228 1600 
Q 959 1441 959 1056 
Q 959 750 1161 570 
Q 1363 391 1709 391 
Q 2188 391 2477 730 
Q 2766 1069 2766 1631 
L 2766 1759 
L 2194 1759 
z
M 3341 1997 
L 3341 0 
L 2766 0 
L 2766 531 
Q 2569 213 2275 61 
Q 1981 -91 1556 -91 
Q 1019 -91 701 211 
Q 384 513 384 1019 
Q 384 1609 779 1909 
Q 1175 2209 1959 2209 
L 2766 2209 
L 2766 2266 
Q 2766 2663 2505 2880 
Q 2244 3097 1772 3097 
Q 1472 3097 1187 3025 
Q 903 2953 641 2809 
L 641 3341 
Q 956 3463 1253 3523 
Q 1550 3584 1831 3584 
Q 2591 3584 2966 3190 
Q 3341 2797 3341 1997 
z
" transform="scale(0.015625)"/>
       <path id="DejaVuSans-62" d="M 3116 1747 
Q 3116 2381 2855 2742 
Q 2594 3103 2138 3103 
Q 1681 3103 1420 2742 
Q 1159 2381 1159 1747 
Q 1159 1113 1420 752 
Q 1681 391 2138 391 
Q 2594 391 2855 752 
Q 3116 1113 3116 1747 
z
M 1159 2969 
Q 1341 3281 1617 3432 
Q 1894 3584 2278 3584 
Q 2916 3584 3314 3078 
Q 3713 2572 3713 1747 
Q 3713 922 3314 415 
Q 2916 -91 2278 -91 
Q 1894 -91 1617 61 
Q 1341 213 1159 525 
L 1159 0 
L 581 0 
L 581 4863 
L 1159 4863 
L 1159 2969 
z
" transform="scale(0.015625)"/>
       <path id="DejaVuSans-65" d="M 3597 1894 
L 3597 1613 
L 953 1613 
Q 991 1019 1311 708 
Q 1631 397 2203 397 
Q 2534 397 2845 478 
Q 3156 559 3463 722 
L 3463 178 
Q 3153 47 2828 -22 
Q 2503 -91 2169 -91 
Q 1331 -91 842 396 
Q 353 884 353 1716 
Q 353 2575 817 3079 
Q 1281 3584 2069 3584 
Q 2775 3584 3186 3129 
Q 3597 2675 3597 1894 
z
M 3022 2063 
Q 3016 2534 2758 2815 
Q 2500 3097 2075 3097 
Q 1594 3097 1305 2825 
Q 1016 2553 972 2059 
L 3022 2063 
z
" transform="scale(0.015625)"/>
       <path id="DejaVuSans-6c" d="M 603 4863 
L 1178 4863 
L 1178 0 
L 603 0 
L 603 4863 
z
" transform="scale(0.015625)"/>
      </defs>
      <use xlink:href="#DejaVuSans-4f"/>
      <use xlink:href="#DejaVuSans-42" x="78.710938"/>
      <use xlink:href="#DejaVuSans-61" x="147.314453"/>
      <use xlink:href="#DejaVuSans-62" x="208.59375"/>
      <use xlink:href="#DejaVuSans-65" x="272.070312"/>
      <use xlink:href="#DejaVuSans-6c" x="333.59375"/>
     </g>
    </g>
   </g>
  </g>
 </g>
 <defs>
  <clipPath id="p549453a618">
   <rect x="37.7125" y="17.78375" width="461.2875" height="209.136451"/>
  </clipPath>
 </defs>
</svg>
