<?xml version="1.0" encoding="utf-8" standalone="no"?>
<!DOCTYPE svg PUBLIC "-//W3C//DTD SVG 1.1//EN"
  "http://www.w3.org/Graphics/SVG/1.1/DTD/svg11.dtd">
<svg xmlns:xlink="http://www.w3.org/1999/xlink" width="237.6pt" height="151.2pt" viewBox="0 0 237.6 151.2" xmlns="http://www.w3.org/2000/svg" version="1.1">
 <metadata>
  <rdf:RDF xmlns:dc="http://purl.org/dc/elements/1.1/" xmlns:cc="http://creativecommons.org/ns#" xmlns:rdf="http://www.w3.org/1999/02/22-rdf-syntax-ns#">
   <cc:Work>
    <dc:type rdf:resource="http://purl.org/dc/dcmitype/StillImage"/>
    <dc:date>2025-06-26T12:01:51.858581</dc:date>
    <dc:format>image/svg+xml</dc:format>
    <dc:creator>
     <cc:Agent>
      <dc:title>Matplotlib v3.9.2, https://matplotlib.org/</dc:title>
     </cc:Agent>
    </dc:creator>
   </cc:Work>
  </rdf:RDF>
 </metadata>
 <defs>
  <style type="text/css">*{stroke-linejoin: round; stroke-linecap: butt}</style>
 </defs>
 <g id="figure_1">
  <g id="patch_1">
   <path d="M 0 151.2 
L 237.6 151.2 
L 237.6 0 
L 0 0 
z
" style="fill: #ffffff"/>
  </g>
  <g id="axes_1">
   <g id="patch_2">
    <path d="M 33.18 97.337364 
L 233.6 97.337364 
L 233.6 15.805 
L 33.18 15.805 
z
" style="fill: #ffffff"/>
   </g>
   <g id="patch_3">
    <path d="M 42.29 97.337364 
L 43.556077 97.337364 
L 43.556077 15.805 
L 42.29 15.805 
z
" clip-path="url(#p475fd4e9a0)" style="fill: #1f77b4; stroke: #000000; stroke-width: 0.35; stroke-linejoin: miter"/>
   </g>
   <g id="patch_4">
    <path d="M 48.044896 97.337364 
L 49.310973 97.337364 
L 49.310973 15.805 
L 48.044896 15.805 
z
" clip-path="url(#p475fd4e9a0)" style="fill: #1f77b4; stroke: #000000; stroke-width: 0.35; stroke-linejoin: miter"/>
   </g>
   <g id="patch_5">
    <path d="M 53.799792 97.337364 
L 55.065869 97.337364 
L 55.065869 15.805 
L 53.799792 15.805 
z
" clip-path="url(#p475fd4e9a0)" style="fill: #1f77b4; stroke: #000000; stroke-width: 0.35; stroke-linejoin: miter"/>
   </g>
   <g id="patch_6">
    <path d="M 59.554687 97.337364 
L 60.820764 97.337364 
L 60.820764 15.805 
L 59.554687 15.805 
z
" clip-path="url(#p475fd4e9a0)" style="fill: #1f77b4; stroke: #000000; stroke-width: 0.35; stroke-linejoin: miter"/>
   </g>
   <g id="patch_7">
    <path d="M 65.309583 97.337364 
L 66.57566 97.337364 
L 66.57566 15.805 
L 65.309583 15.805 
z
" clip-path="url(#p475fd4e9a0)" style="fill: #1f77b4; stroke: #000000; stroke-width: 0.35; stroke-linejoin: miter"/>
   </g>
   <g id="patch_8">
    <path d="M 71.064479 97.337364 
L 72.330556 97.337364 
L 72.330556 15.805 
L 71.064479 15.805 
z
" clip-path="url(#p475fd4e9a0)" style="fill: #1f77b4; stroke: #000000; stroke-width: 0.35; stroke-linejoin: miter"/>
   </g>
   <g id="patch_9">
    <path d="M 76.819375 97.337364 
L 78.085452 97.337364 
L 78.085452 32.111473 
L 76.819375 32.111473 
z
" clip-path="url(#p475fd4e9a0)" style="fill: #1f77b4; stroke: #000000; stroke-width: 0.35; stroke-linejoin: miter"/>
   </g>
   <g id="patch_10">
    <path d="M 82.57427 97.337364 
L 83.840347 97.337364 
L 83.840347 56.571182 
L 82.57427 56.571182 
z
" clip-path="url(#p475fd4e9a0)" style="fill: #1f77b4; stroke: #000000; stroke-width: 0.35; stroke-linejoin: miter"/>
   </g>
   <g id="patch_11">
    <path d="M 88.329166 97.337364 
L 89.595243 97.337364 
L 89.595243 15.805 
L 88.329166 15.805 
z
" clip-path="url(#p475fd4e9a0)" style="fill: #1f77b4; stroke: #000000; stroke-width: 0.35; stroke-linejoin: miter"/>
   </g>
   <g id="patch_12">
    <path d="M 94.084062 97.337364 
L 95.350139 97.337364 
L 95.350139 32.111473 
L 94.084062 32.111473 
z
" clip-path="url(#p475fd4e9a0)" style="fill: #1f77b4; stroke: #000000; stroke-width: 0.35; stroke-linejoin: miter"/>
   </g>
   <g id="patch_13">
    <path d="M 99.838958 97.337364 
L 101.105035 97.337364 
L 101.105035 23.958236 
L 99.838958 23.958236 
z
" clip-path="url(#p475fd4e9a0)" style="fill: #1f77b4; stroke: #000000; stroke-width: 0.35; stroke-linejoin: miter"/>
   </g>
   <g id="patch_14">
    <path d="M 105.593853 97.337364 
L 106.859931 97.337364 
L 106.859931 15.805 
L 105.593853 15.805 
z
" clip-path="url(#p475fd4e9a0)" style="fill: #1f77b4; stroke: #000000; stroke-width: 0.35; stroke-linejoin: miter"/>
   </g>
   <g id="patch_15">
    <path d="M 111.348749 97.337364 
L 112.614826 97.337364 
L 112.614826 15.805 
L 111.348749 15.805 
z
" clip-path="url(#p475fd4e9a0)" style="fill: #1f77b4; stroke: #000000; stroke-width: 0.35; stroke-linejoin: miter"/>
   </g>
   <g id="patch_16">
    <path d="M 117.103645 97.337364 
L 118.369722 97.337364 
L 118.369722 15.805 
L 117.103645 15.805 
z
" clip-path="url(#p475fd4e9a0)" style="fill: #1f77b4; stroke: #000000; stroke-width: 0.35; stroke-linejoin: miter"/>
   </g>
   <g id="patch_17">
    <path d="M 122.858541 97.337364 
L 124.124618 97.337364 
L 124.124618 23.958236 
L 122.858541 23.958236 
z
" clip-path="url(#p475fd4e9a0)" style="fill: #1f77b4; stroke: #000000; stroke-width: 0.35; stroke-linejoin: miter"/>
   </g>
   <g id="patch_18">
    <path d="M 128.613437 97.337364 
L 129.879514 97.337364 
L 129.879514 64.724418 
L 128.613437 64.724418 
z
" clip-path="url(#p475fd4e9a0)" style="fill: #1f77b4; stroke: #000000; stroke-width: 0.35; stroke-linejoin: miter"/>
   </g>
   <g id="patch_19">
    <path d="M 134.368332 97.337364 
L 135.634409 97.337364 
L 135.634409 64.724418 
L 134.368332 64.724418 
z
" clip-path="url(#p475fd4e9a0)" style="fill: #1f77b4; stroke: #000000; stroke-width: 0.35; stroke-linejoin: miter"/>
   </g>
   <g id="patch_20">
    <path d="M 140.123228 97.337364 
L 141.389305 97.337364 
L 141.389305 64.724418 
L 140.123228 64.724418 
z
" clip-path="url(#p475fd4e9a0)" style="fill: #1f77b4; stroke: #000000; stroke-width: 0.35; stroke-linejoin: miter"/>
   </g>
   <g id="patch_21">
    <path d="M 145.878124 97.337364 
L 147.144201 97.337364 
L 147.144201 72.877655 
L 145.878124 72.877655 
z
" clip-path="url(#p475fd4e9a0)" style="fill: #1f77b4; stroke: #000000; stroke-width: 0.35; stroke-linejoin: miter"/>
   </g>
   <g id="patch_22">
    <path d="M 151.63302 97.337364 
L 152.899097 97.337364 
L 152.899097 23.958236 
L 151.63302 23.958236 
z
" clip-path="url(#p475fd4e9a0)" style="fill: #1f77b4; stroke: #000000; stroke-width: 0.35; stroke-linejoin: miter"/>
   </g>
   <g id="patch_23">
    <path d="M 157.387915 97.337364 
L 158.653992 97.337364 
L 158.653992 15.805 
L 157.387915 15.805 
z
" clip-path="url(#p475fd4e9a0)" style="fill: #1f77b4; stroke: #000000; stroke-width: 0.35; stroke-linejoin: miter"/>
   </g>
   <g id="patch_24">
    <path d="M 163.142811 97.337364 
L 164.408888 97.337364 
L 164.408888 23.958236 
L 163.142811 23.958236 
z
" clip-path="url(#p475fd4e9a0)" style="fill: #1f77b4; stroke: #000000; stroke-width: 0.35; stroke-linejoin: miter"/>
   </g>
   <g id="patch_25">
    <path d="M 168.897707 97.337364 
L 170.163784 97.337364 
L 170.163784 15.805 
L 168.897707 15.805 
z
" clip-path="url(#p475fd4e9a0)" style="fill: #1f77b4; stroke: #000000; stroke-width: 0.35; stroke-linejoin: miter"/>
   </g>
   <g id="patch_26">
    <path d="M 174.652603 97.337364 
L 175.91868 97.337364 
L 175.91868 15.805 
L 174.652603 15.805 
z
" clip-path="url(#p475fd4e9a0)" style="fill: #1f77b4; stroke: #000000; stroke-width: 0.35; stroke-linejoin: miter"/>
   </g>
   <g id="patch_27">
    <path d="M 180.407498 97.337364 
L 181.673575 97.337364 
L 181.673575 23.958236 
L 180.407498 23.958236 
z
" clip-path="url(#p475fd4e9a0)" style="fill: #1f77b4; stroke: #000000; stroke-width: 0.35; stroke-linejoin: miter"/>
   </g>
   <g id="patch_28">
    <path d="M 186.162394 97.337364 
L 187.428471 97.337364 
L 187.428471 23.958236 
L 186.162394 23.958236 
z
" clip-path="url(#p475fd4e9a0)" style="fill: #1f77b4; stroke: #000000; stroke-width: 0.35; stroke-linejoin: miter"/>
   </g>
   <g id="patch_29">
    <path d="M 191.91729 97.337364 
L 193.183367 97.337364 
L 193.183367 15.805 
L 191.91729 15.805 
z
" clip-path="url(#p475fd4e9a0)" style="fill: #1f77b4; stroke: #000000; stroke-width: 0.35; stroke-linejoin: miter"/>
   </g>
   <g id="patch_30">
    <path d="M 197.672186 97.337364 
L 198.938263 97.337364 
L 198.938263 40.264709 
L 197.672186 40.264709 
z
" clip-path="url(#p475fd4e9a0)" style="fill: #1f77b4; stroke: #000000; stroke-width: 0.35; stroke-linejoin: miter"/>
   </g>
   <g id="patch_31">
    <path d="M 203.427081 97.337364 
L 204.693159 97.337364 
L 204.693159 15.805 
L 203.427081 15.805 
z
" clip-path="url(#p475fd4e9a0)" style="fill: #1f77b4; stroke: #000000; stroke-width: 0.35; stroke-linejoin: miter"/>
   </g>
   <g id="patch_32">
    <path d="M 209.181977 97.337364 
L 210.448054 97.337364 
L 210.448054 15.805 
L 209.181977 15.805 
z
" clip-path="url(#p475fd4e9a0)" style="fill: #1f77b4; stroke: #000000; stroke-width: 0.35; stroke-linejoin: miter"/>
   </g>
   <g id="patch_33">
    <path d="M 214.936873 97.337364 
L 216.20295 97.337364 
L 216.20295 40.264709 
L 214.936873 40.264709 
z
" clip-path="url(#p475fd4e9a0)" style="fill: #1f77b4; stroke: #000000; stroke-width: 0.35; stroke-linejoin: miter"/>
   </g>
   <g id="patch_34">
    <path d="M 220.691769 97.337364 
L 221.957846 97.337364 
L 221.957846 40.264709 
L 220.691769 40.264709 
z
" clip-path="url(#p475fd4e9a0)" style="fill: #1f77b4; stroke: #000000; stroke-width: 0.35; stroke-linejoin: miter"/>
   </g>
   <g id="patch_35">
    <path d="M 43.556077 97.337364 
L 44.822154 97.337364 
L 44.822154 15.805 
L 43.556077 15.805 
z
" clip-path="url(#p475fd4e9a0)" style="fill: #ff7f0e; stroke: #000000; stroke-width: 0.35; stroke-linejoin: miter"/>
   </g>
   <g id="patch_36">
    <path d="M 49.310973 97.337364 
L 50.57705 97.337364 
L 50.57705 15.805 
L 49.310973 15.805 
z
" clip-path="url(#p475fd4e9a0)" style="fill: #ff7f0e; stroke: #000000; stroke-width: 0.35; stroke-linejoin: miter"/>
   </g>
   <g id="patch_37">
    <path d="M 55.065869 97.337364 
L 56.331946 97.337364 
L 56.331946 15.805 
L 55.065869 15.805 
z
" clip-path="url(#p475fd4e9a0)" style="fill: #ff7f0e; stroke: #000000; stroke-width: 0.35; stroke-linejoin: miter"/>
   </g>
   <g id="patch_38">
    <path d="M 60.820764 97.337364 
L 62.086841 97.337364 
L 62.086841 15.805 
L 60.820764 15.805 
z
" clip-path="url(#p475fd4e9a0)" style="fill: #ff7f0e; stroke: #000000; stroke-width: 0.35; stroke-linejoin: miter"/>
   </g>
   <g id="patch_39">
    <path d="M 66.57566 97.337364 
L 67.841737 97.337364 
L 67.841737 15.805 
L 66.57566 15.805 
z
" clip-path="url(#p475fd4e9a0)" style="fill: #ff7f0e; stroke: #000000; stroke-width: 0.35; stroke-linejoin: miter"/>
   </g>
   <g id="patch_40">
    <path d="M 72.330556 97.337364 
L 73.596633 97.337364 
L 73.596633 15.805 
L 72.330556 15.805 
z
" clip-path="url(#p475fd4e9a0)" style="fill: #ff7f0e; stroke: #000000; stroke-width: 0.35; stroke-linejoin: miter"/>
   </g>
   <g id="patch_41">
    <path d="M 78.085452 97.337364 
L 79.351529 97.337364 
L 79.351529 97.337364 
L 78.085452 97.337364 
z
" clip-path="url(#p475fd4e9a0)" style="fill: #ff7f0e; stroke: #000000; stroke-width: 0.35; stroke-linejoin: miter"/>
   </g>
   <g id="patch_42">
    <path d="M 83.840347 97.337364 
L 85.106425 97.337364 
L 85.106425 15.805 
L 83.840347 15.805 
z
" clip-path="url(#p475fd4e9a0)" style="fill: #ff7f0e; stroke: #000000; stroke-width: 0.35; stroke-linejoin: miter"/>
   </g>
   <g id="patch_43">
    <path d="M 89.595243 97.337364 
L 90.86132 97.337364 
L 90.86132 15.805 
L 89.595243 15.805 
z
" clip-path="url(#p475fd4e9a0)" style="fill: #ff7f0e; stroke: #000000; stroke-width: 0.35; stroke-linejoin: miter"/>
   </g>
   <g id="patch_44">
    <path d="M 95.350139 97.337364 
L 96.616216 97.337364 
L 96.616216 15.805 
L 95.350139 15.805 
z
" clip-path="url(#p475fd4e9a0)" style="fill: #ff7f0e; stroke: #000000; stroke-width: 0.35; stroke-linejoin: miter"/>
   </g>
   <g id="patch_45">
    <path d="M 101.105035 97.337364 
L 102.371112 97.337364 
L 102.371112 15.805 
L 101.105035 15.805 
z
" clip-path="url(#p475fd4e9a0)" style="fill: #ff7f0e; stroke: #000000; stroke-width: 0.35; stroke-linejoin: miter"/>
   </g>
   <g id="patch_46">
    <path d="M 106.859931 97.337364 
L 108.126008 97.337364 
L 108.126008 15.805 
L 106.859931 15.805 
z
" clip-path="url(#p475fd4e9a0)" style="fill: #ff7f0e; stroke: #000000; stroke-width: 0.35; stroke-linejoin: miter"/>
   </g>
   <g id="patch_47">
    <path d="M 112.614826 97.337364 
L 113.880903 97.337364 
L 113.880903 15.805 
L 112.614826 15.805 
z
" clip-path="url(#p475fd4e9a0)" style="fill: #ff7f0e; stroke: #000000; stroke-width: 0.35; stroke-linejoin: miter"/>
   </g>
   <g id="patch_48">
    <path d="M 118.369722 97.337364 
L 119.635799 97.337364 
L 119.635799 15.805 
L 118.369722 15.805 
z
" clip-path="url(#p475fd4e9a0)" style="fill: #ff7f0e; stroke: #000000; stroke-width: 0.35; stroke-linejoin: miter"/>
   </g>
   <g id="patch_49">
    <path d="M 124.124618 97.337364 
L 125.390695 97.337364 
L 125.390695 97.337364 
L 124.124618 97.337364 
z
" clip-path="url(#p475fd4e9a0)" style="fill: #ff7f0e; stroke: #000000; stroke-width: 0.35; stroke-linejoin: miter"/>
   </g>
   <g id="patch_50">
    <path d="M 129.879514 97.337364 
L 131.145591 97.337364 
L 131.145591 97.337364 
L 129.879514 97.337364 
z
" clip-path="url(#p475fd4e9a0)" style="fill: #ff7f0e; stroke: #000000; stroke-width: 0.35; stroke-linejoin: miter"/>
   </g>
   <g id="patch_51">
    <path d="M 135.634409 97.337364 
L 136.900486 97.337364 
L 136.900486 97.337364 
L 135.634409 97.337364 
z
" clip-path="url(#p475fd4e9a0)" style="fill: #ff7f0e; stroke: #000000; stroke-width: 0.35; stroke-linejoin: miter"/>
   </g>
   <g id="patch_52">
    <path d="M 141.389305 97.337364 
L 142.655382 97.337364 
L 142.655382 97.337364 
L 141.389305 97.337364 
z
" clip-path="url(#p475fd4e9a0)" style="fill: #ff7f0e; stroke: #000000; stroke-width: 0.35; stroke-linejoin: miter"/>
   </g>
   <g id="patch_53">
    <path d="M 147.144201 97.337364 
L 148.410278 97.337364 
L 148.410278 97.337364 
L 147.144201 97.337364 
z
" clip-path="url(#p475fd4e9a0)" style="fill: #ff7f0e; stroke: #000000; stroke-width: 0.35; stroke-linejoin: miter"/>
   </g>
   <g id="patch_54">
    <path d="M 152.899097 97.337364 
L 154.165174 97.337364 
L 154.165174 97.337364 
L 152.899097 97.337364 
z
" clip-path="url(#p475fd4e9a0)" style="fill: #ff7f0e; stroke: #000000; stroke-width: 0.35; stroke-linejoin: miter"/>
   </g>
   <g id="patch_55">
    <path d="M 158.653992 97.337364 
L 159.920069 97.337364 
L 159.920069 15.805 
L 158.653992 15.805 
z
" clip-path="url(#p475fd4e9a0)" style="fill: #ff7f0e; stroke: #000000; stroke-width: 0.35; stroke-linejoin: miter"/>
   </g>
   <g id="patch_56">
    <path d="M 164.408888 97.337364 
L 165.674965 97.337364 
L 165.674965 97.337364 
L 164.408888 97.337364 
z
" clip-path="url(#p475fd4e9a0)" style="fill: #ff7f0e; stroke: #000000; stroke-width: 0.35; stroke-linejoin: miter"/>
   </g>
   <g id="patch_57">
    <path d="M 170.163784 97.337364 
L 171.429861 97.337364 
L 171.429861 97.337364 
L 170.163784 97.337364 
z
" clip-path="url(#p475fd4e9a0)" style="fill: #ff7f0e; stroke: #000000; stroke-width: 0.35; stroke-linejoin: miter"/>
   </g>
   <g id="patch_58">
    <path d="M 175.91868 97.337364 
L 177.184757 97.337364 
L 177.184757 97.337364 
L 175.91868 97.337364 
z
" clip-path="url(#p475fd4e9a0)" style="fill: #ff7f0e; stroke: #000000; stroke-width: 0.35; stroke-linejoin: miter"/>
   </g>
   <g id="patch_59">
    <path d="M 181.673575 97.337364 
L 182.939653 97.337364 
L 182.939653 97.337364 
L 181.673575 97.337364 
z
" clip-path="url(#p475fd4e9a0)" style="fill: #ff7f0e; stroke: #000000; stroke-width: 0.35; stroke-linejoin: miter"/>
   </g>
   <g id="patch_60">
    <path d="M 187.428471 97.337364 
L 188.694548 97.337364 
L 188.694548 97.337364 
L 187.428471 97.337364 
z
" clip-path="url(#p475fd4e9a0)" style="fill: #ff7f0e; stroke: #000000; stroke-width: 0.35; stroke-linejoin: miter"/>
   </g>
   <g id="patch_61">
    <path d="M 193.183367 97.337364 
L 194.449444 97.337364 
L 194.449444 97.337364 
L 193.183367 97.337364 
z
" clip-path="url(#p475fd4e9a0)" style="fill: #ff7f0e; stroke: #000000; stroke-width: 0.35; stroke-linejoin: miter"/>
   </g>
   <g id="patch_62">
    <path d="M 198.938263 97.337364 
L 200.20434 97.337364 
L 200.20434 15.805 
L 198.938263 15.805 
z
" clip-path="url(#p475fd4e9a0)" style="fill: #ff7f0e; stroke: #000000; stroke-width: 0.35; stroke-linejoin: miter"/>
   </g>
   <g id="patch_63">
    <path d="M 204.693159 97.337364 
L 205.959236 97.337364 
L 205.959236 97.337364 
L 204.693159 97.337364 
z
" clip-path="url(#p475fd4e9a0)" style="fill: #ff7f0e; stroke: #000000; stroke-width: 0.35; stroke-linejoin: miter"/>
   </g>
   <g id="patch_64">
    <path d="M 210.448054 97.337364 
L 211.714131 97.337364 
L 211.714131 97.337364 
L 210.448054 97.337364 
z
" clip-path="url(#p475fd4e9a0)" style="fill: #ff7f0e; stroke: #000000; stroke-width: 0.35; stroke-linejoin: miter"/>
   </g>
   <g id="patch_65">
    <path d="M 216.20295 97.337364 
L 217.469027 97.337364 
L 217.469027 15.805 
L 216.20295 15.805 
z
" clip-path="url(#p475fd4e9a0)" style="fill: #ff7f0e; stroke: #000000; stroke-width: 0.35; stroke-linejoin: miter"/>
   </g>
   <g id="patch_66">
    <path d="M 221.957846 97.337364 
L 223.223923 97.337364 
L 223.223923 15.805 
L 221.957846 15.805 
z
" clip-path="url(#p475fd4e9a0)" style="fill: #ff7f0e; stroke: #000000; stroke-width: 0.35; stroke-linejoin: miter"/>
   </g>
   <g id="patch_67">
    <path d="M 44.822154 97.337364 
L 46.088231 97.337364 
L 46.088231 15.805 
L 44.822154 15.805 
z
" clip-path="url(#p475fd4e9a0)" style="fill: #2ca02c; stroke: #000000; stroke-width: 0.35; stroke-linejoin: miter"/>
   </g>
   <g id="patch_68">
    <path d="M 50.57705 97.337364 
L 51.843127 97.337364 
L 51.843127 15.805 
L 50.57705 15.805 
z
" clip-path="url(#p475fd4e9a0)" style="fill: #2ca02c; stroke: #000000; stroke-width: 0.35; stroke-linejoin: miter"/>
   </g>
   <g id="patch_69">
    <path d="M 56.331946 97.337364 
L 57.598023 97.337364 
L 57.598023 15.805 
L 56.331946 15.805 
z
" clip-path="url(#p475fd4e9a0)" style="fill: #2ca02c; stroke: #000000; stroke-width: 0.35; stroke-linejoin: miter"/>
   </g>
   <g id="patch_70">
    <path d="M 62.086841 97.337364 
L 63.352919 97.337364 
L 63.352919 15.805 
L 62.086841 15.805 
z
" clip-path="url(#p475fd4e9a0)" style="fill: #2ca02c; stroke: #000000; stroke-width: 0.35; stroke-linejoin: miter"/>
   </g>
   <g id="patch_71">
    <path d="M 67.841737 97.337364 
L 69.107814 97.337364 
L 69.107814 15.805 
L 67.841737 15.805 
z
" clip-path="url(#p475fd4e9a0)" style="fill: #2ca02c; stroke: #000000; stroke-width: 0.35; stroke-linejoin: miter"/>
   </g>
   <g id="patch_72">
    <path d="M 73.596633 97.337364 
L 74.86271 97.337364 
L 74.86271 15.805 
L 73.596633 15.805 
z
" clip-path="url(#p475fd4e9a0)" style="fill: #2ca02c; stroke: #000000; stroke-width: 0.35; stroke-linejoin: miter"/>
   </g>
   <g id="patch_73">
    <path d="M 79.351529 97.337364 
L 80.617606 97.337364 
L 80.617606 15.805 
L 79.351529 15.805 
z
" clip-path="url(#p475fd4e9a0)" style="fill: #2ca02c; stroke: #000000; stroke-width: 0.35; stroke-linejoin: miter"/>
   </g>
   <g id="patch_74">
    <path d="M 85.106425 97.337364 
L 86.372502 97.337364 
L 86.372502 15.805 
L 85.106425 15.805 
z
" clip-path="url(#p475fd4e9a0)" style="fill: #2ca02c; stroke: #000000; stroke-width: 0.35; stroke-linejoin: miter"/>
   </g>
   <g id="patch_75">
    <path d="M 90.86132 97.337364 
L 92.127397 97.337364 
L 92.127397 15.805 
L 90.86132 15.805 
z
" clip-path="url(#p475fd4e9a0)" style="fill: #2ca02c; stroke: #000000; stroke-width: 0.35; stroke-linejoin: miter"/>
   </g>
   <g id="patch_76">
    <path d="M 96.616216 97.337364 
L 97.882293 97.337364 
L 97.882293 15.805 
L 96.616216 15.805 
z
" clip-path="url(#p475fd4e9a0)" style="fill: #2ca02c; stroke: #000000; stroke-width: 0.35; stroke-linejoin: miter"/>
   </g>
   <g id="patch_77">
    <path d="M 102.371112 97.337364 
L 103.637189 97.337364 
L 103.637189 15.805 
L 102.371112 15.805 
z
" clip-path="url(#p475fd4e9a0)" style="fill: #2ca02c; stroke: #000000; stroke-width: 0.35; stroke-linejoin: miter"/>
   </g>
   <g id="patch_78">
    <path d="M 108.126008 97.337364 
L 109.392085 97.337364 
L 109.392085 15.805 
L 108.126008 15.805 
z
" clip-path="url(#p475fd4e9a0)" style="fill: #2ca02c; stroke: #000000; stroke-width: 0.35; stroke-linejoin: miter"/>
   </g>
   <g id="patch_79">
    <path d="M 113.880903 97.337364 
L 115.14698 97.337364 
L 115.14698 15.805 
L 113.880903 15.805 
z
" clip-path="url(#p475fd4e9a0)" style="fill: #2ca02c; stroke: #000000; stroke-width: 0.35; stroke-linejoin: miter"/>
   </g>
   <g id="patch_80">
    <path d="M 119.635799 97.337364 
L 120.901876 97.337364 
L 120.901876 15.805 
L 119.635799 15.805 
z
" clip-path="url(#p475fd4e9a0)" style="fill: #2ca02c; stroke: #000000; stroke-width: 0.35; stroke-linejoin: miter"/>
   </g>
   <g id="patch_81">
    <path d="M 125.390695 97.337364 
L 126.656772 97.337364 
L 126.656772 97.337364 
L 125.390695 97.337364 
z
" clip-path="url(#p475fd4e9a0)" style="fill: #2ca02c; stroke: #000000; stroke-width: 0.35; stroke-linejoin: miter"/>
   </g>
   <g id="patch_82">
    <path d="M 131.145591 97.337364 
L 132.411668 97.337364 
L 132.411668 15.805 
L 131.145591 15.805 
z
" clip-path="url(#p475fd4e9a0)" style="fill: #2ca02c; stroke: #000000; stroke-width: 0.35; stroke-linejoin: miter"/>
   </g>
   <g id="patch_83">
    <path d="M 136.900486 97.337364 
L 138.166563 97.337364 
L 138.166563 97.337364 
L 136.900486 97.337364 
z
" clip-path="url(#p475fd4e9a0)" style="fill: #2ca02c; stroke: #000000; stroke-width: 0.35; stroke-linejoin: miter"/>
   </g>
   <g id="patch_84">
    <path d="M 142.655382 97.337364 
L 143.921459 97.337364 
L 143.921459 15.805 
L 142.655382 15.805 
z
" clip-path="url(#p475fd4e9a0)" style="fill: #2ca02c; stroke: #000000; stroke-width: 0.35; stroke-linejoin: miter"/>
   </g>
   <g id="patch_85">
    <path d="M 148.410278 97.337364 
L 149.676355 97.337364 
L 149.676355 15.805 
L 148.410278 15.805 
z
" clip-path="url(#p475fd4e9a0)" style="fill: #2ca02c; stroke: #000000; stroke-width: 0.35; stroke-linejoin: miter"/>
   </g>
   <g id="patch_86">
    <path d="M 154.165174 97.337364 
L 155.431251 97.337364 
L 155.431251 97.337364 
L 154.165174 97.337364 
z
" clip-path="url(#p475fd4e9a0)" style="fill: #2ca02c; stroke: #000000; stroke-width: 0.35; stroke-linejoin: miter"/>
   </g>
   <g id="patch_87">
    <path d="M 159.920069 97.337364 
L 161.186147 97.337364 
L 161.186147 15.805 
L 159.920069 15.805 
z
" clip-path="url(#p475fd4e9a0)" style="fill: #2ca02c; stroke: #000000; stroke-width: 0.35; stroke-linejoin: miter"/>
   </g>
   <g id="patch_88">
    <path d="M 165.674965 97.337364 
L 166.941042 97.337364 
L 166.941042 15.805 
L 165.674965 15.805 
z
" clip-path="url(#p475fd4e9a0)" style="fill: #2ca02c; stroke: #000000; stroke-width: 0.35; stroke-linejoin: miter"/>
   </g>
   <g id="patch_89">
    <path d="M 171.429861 97.337364 
L 172.695938 97.337364 
L 172.695938 15.805 
L 171.429861 15.805 
z
" clip-path="url(#p475fd4e9a0)" style="fill: #2ca02c; stroke: #000000; stroke-width: 0.35; stroke-linejoin: miter"/>
   </g>
   <g id="patch_90">
    <path d="M 177.184757 97.337364 
L 178.450834 97.337364 
L 178.450834 15.805 
L 177.184757 15.805 
z
" clip-path="url(#p475fd4e9a0)" style="fill: #2ca02c; stroke: #000000; stroke-width: 0.35; stroke-linejoin: miter"/>
   </g>
   <g id="patch_91">
    <path d="M 182.939653 97.337364 
L 184.20573 97.337364 
L 184.20573 97.337364 
L 182.939653 97.337364 
z
" clip-path="url(#p475fd4e9a0)" style="fill: #2ca02c; stroke: #000000; stroke-width: 0.35; stroke-linejoin: miter"/>
   </g>
   <g id="patch_92">
    <path d="M 188.694548 97.337364 
L 189.960625 97.337364 
L 189.960625 97.337364 
L 188.694548 97.337364 
z
" clip-path="url(#p475fd4e9a0)" style="fill: #2ca02c; stroke: #000000; stroke-width: 0.35; stroke-linejoin: miter"/>
   </g>
   <g id="patch_93">
    <path d="M 194.449444 97.337364 
L 195.715521 97.337364 
L 195.715521 15.805 
L 194.449444 15.805 
z
" clip-path="url(#p475fd4e9a0)" style="fill: #2ca02c; stroke: #000000; stroke-width: 0.35; stroke-linejoin: miter"/>
   </g>
   <g id="patch_94">
    <path d="M 200.20434 97.337364 
L 201.470417 97.337364 
L 201.470417 15.805 
L 200.20434 15.805 
z
" clip-path="url(#p475fd4e9a0)" style="fill: #2ca02c; stroke: #000000; stroke-width: 0.35; stroke-linejoin: miter"/>
   </g>
   <g id="patch_95">
    <path d="M 205.959236 97.337364 
L 207.225313 97.337364 
L 207.225313 15.805 
L 205.959236 15.805 
z
" clip-path="url(#p475fd4e9a0)" style="fill: #2ca02c; stroke: #000000; stroke-width: 0.35; stroke-linejoin: miter"/>
   </g>
   <g id="patch_96">
    <path d="M 211.714131 97.337364 
L 212.980208 97.337364 
L 212.980208 15.805 
L 211.714131 15.805 
z
" clip-path="url(#p475fd4e9a0)" style="fill: #2ca02c; stroke: #000000; stroke-width: 0.35; stroke-linejoin: miter"/>
   </g>
   <g id="patch_97">
    <path d="M 217.469027 97.337364 
L 218.735104 97.337364 
L 218.735104 97.337364 
L 217.469027 97.337364 
z
" clip-path="url(#p475fd4e9a0)" style="fill: #2ca02c; stroke: #000000; stroke-width: 0.35; stroke-linejoin: miter"/>
   </g>
   <g id="patch_98">
    <path d="M 223.223923 97.337364 
L 224.49 97.337364 
L 224.49 97.337364 
L 223.223923 97.337364 
z
" clip-path="url(#p475fd4e9a0)" style="fill: #2ca02c; stroke: #000000; stroke-width: 0.35; stroke-linejoin: miter"/>
   </g>
   <g id="matplotlib.axis_1">
    <g id="xtick_1">
     <g id="line2d_1">
      <defs>
       <path id="m664e283996" d="M 0 0 
L 0 3.5 
" style="stroke: #000000; stroke-width: 0.8"/>
      </defs>
      <g>
       <use xlink:href="#m664e283996" x="44.189116" y="97.337364" style="stroke: #000000; stroke-width: 0.8"/>
      </g>
     </g>
     <g id="text_1">
      <!-- ABAHIW -->
      <g transform="translate(23.6786 127.407054) rotate(-45) scale(0.07 -0.07)">
       <defs>
        <path id="ArialMT-41" d="M -9 0 
L 1750 4581 
L 2403 4581 
L 4278 0 
L 3588 0 
L 3053 1388 
L 1138 1388 
L 634 0 
L -9 0 
z
M 1313 1881 
L 2866 1881 
L 2388 3150 
Q 2169 3728 2063 4100 
Q 1975 3659 1816 3225 
L 1313 1881 
z
" transform="scale(0.015625)"/>
        <path id="ArialMT-42" d="M 469 0 
L 469 4581 
L 2188 4581 
Q 2713 4581 3030 4442 
Q 3347 4303 3526 4014 
Q 3706 3725 3706 3409 
Q 3706 3116 3547 2856 
Q 3388 2597 3066 2438 
Q 3481 2316 3704 2022 
Q 3928 1728 3928 1328 
Q 3928 1006 3792 729 
Q 3656 453 3456 303 
Q 3256 153 2954 76 
Q 2653 0 2216 0 
L 469 0 
z
M 1075 2656 
L 2066 2656 
Q 2469 2656 2644 2709 
Q 2875 2778 2992 2937 
Q 3109 3097 3109 3338 
Q 3109 3566 3000 3739 
Q 2891 3913 2687 3977 
Q 2484 4041 1991 4041 
L 1075 4041 
L 1075 2656 
z
M 1075 541 
L 2216 541 
Q 2509 541 2628 563 
Q 2838 600 2978 687 
Q 3119 775 3209 942 
Q 3300 1109 3300 1328 
Q 3300 1584 3169 1773 
Q 3038 1963 2805 2039 
Q 2572 2116 2134 2116 
L 1075 2116 
L 1075 541 
z
" transform="scale(0.015625)"/>
        <path id="ArialMT-48" d="M 513 0 
L 513 4581 
L 1119 4581 
L 1119 2700 
L 3500 2700 
L 3500 4581 
L 4106 4581 
L 4106 0 
L 3500 0 
L 3500 2159 
L 1119 2159 
L 1119 0 
L 513 0 
z
" transform="scale(0.015625)"/>
        <path id="ArialMT-49" d="M 597 0 
L 597 4581 
L 1203 4581 
L 1203 0 
L 597 0 
z
" transform="scale(0.015625)"/>
        <path id="ArialMT-57" d="M 1294 0 
L 78 4581 
L 700 4581 
L 1397 1578 
Q 1509 1106 1591 641 
Q 1766 1375 1797 1488 
L 2669 4581 
L 3400 4581 
L 4056 2263 
Q 4303 1400 4413 641 
Q 4500 1075 4641 1638 
L 5359 4581 
L 5969 4581 
L 4713 0 
L 4128 0 
L 3163 3491 
Q 3041 3928 3019 4028 
Q 2947 3713 2884 3491 
L 1913 0 
L 1294 0 
z
" transform="scale(0.015625)"/>
       </defs>
       <use xlink:href="#ArialMT-41"/>
       <use xlink:href="#ArialMT-42" x="66.699219"/>
       <use xlink:href="#ArialMT-41" x="133.398438"/>
       <use xlink:href="#ArialMT-48" x="200.097656"/>
       <use xlink:href="#ArialMT-49" x="272.314453"/>
       <use xlink:href="#ArialMT-57" x="300.097656"/>
      </g>
     </g>
    </g>
    <g id="xtick_2">
     <g id="line2d_2">
      <g>
       <use xlink:href="#m664e283996" x="49.944011" y="97.337364" style="stroke: #000000; stroke-width: 0.8"/>
      </g>
     </g>
     <g id="text_2">
      <!-- ABAKIZ -->
      <g transform="translate(31.355389 125.48516) rotate(-45) scale(0.07 -0.07)">
       <defs>
        <path id="ArialMT-4b" d="M 469 0 
L 469 4581 
L 1075 4581 
L 1075 2309 
L 3350 4581 
L 4172 4581 
L 2250 2725 
L 4256 0 
L 3456 0 
L 1825 2319 
L 1075 1588 
L 1075 0 
L 469 0 
z
" transform="scale(0.015625)"/>
        <path id="ArialMT-5a" d="M 128 0 
L 128 563 
L 2475 3497 
Q 2725 3809 2950 4041 
L 394 4041 
L 394 4581 
L 3675 4581 
L 3675 4041 
L 1103 863 
L 825 541 
L 3750 541 
L 3750 0 
L 128 0 
z
" transform="scale(0.015625)"/>
       </defs>
       <use xlink:href="#ArialMT-41"/>
       <use xlink:href="#ArialMT-42" x="66.699219"/>
       <use xlink:href="#ArialMT-41" x="133.398438"/>
       <use xlink:href="#ArialMT-4b" x="200.097656"/>
       <use xlink:href="#ArialMT-49" x="266.796875"/>
       <use xlink:href="#ArialMT-5a" x="294.580078"/>
      </g>
     </g>
    </g>
    <g id="xtick_3">
     <g id="line2d_3">
      <g>
       <use xlink:href="#m664e283996" x="55.698907" y="97.337364" style="stroke: #000000; stroke-width: 0.8"/>
      </g>
     </g>
     <g id="text_3">
      <!-- ABADOX -->
      <g transform="translate(34.083979 128.511466) rotate(-45) scale(0.07 -0.07)">
       <defs>
        <path id="ArialMT-44" d="M 494 0 
L 494 4581 
L 2072 4581 
Q 2606 4581 2888 4516 
Q 3281 4425 3559 4188 
Q 3922 3881 4101 3404 
Q 4281 2928 4281 2316 
Q 4281 1794 4159 1391 
Q 4038 988 3847 723 
Q 3656 459 3429 307 
Q 3203 156 2883 78 
Q 2563 0 2147 0 
L 494 0 
z
M 1100 541 
L 2078 541 
Q 2531 541 2789 625 
Q 3047 709 3200 863 
Q 3416 1078 3536 1442 
Q 3656 1806 3656 2325 
Q 3656 3044 3420 3430 
Q 3184 3816 2847 3947 
Q 2603 4041 2063 4041 
L 1100 4041 
L 1100 541 
z
" transform="scale(0.015625)"/>
        <path id="ArialMT-4f" d="M 309 2231 
Q 309 3372 921 4017 
Q 1534 4663 2503 4663 
Q 3138 4663 3647 4359 
Q 4156 4056 4423 3514 
Q 4691 2972 4691 2284 
Q 4691 1588 4409 1038 
Q 4128 488 3612 205 
Q 3097 -78 2500 -78 
Q 1853 -78 1343 234 
Q 834 547 571 1087 
Q 309 1628 309 2231 
z
M 934 2222 
Q 934 1394 1379 917 
Q 1825 441 2497 441 
Q 3181 441 3623 922 
Q 4066 1403 4066 2288 
Q 4066 2847 3877 3264 
Q 3688 3681 3323 3911 
Q 2959 4141 2506 4141 
Q 1863 4141 1398 3698 
Q 934 3256 934 2222 
z
" transform="scale(0.015625)"/>
        <path id="ArialMT-58" d="M 28 0 
L 1800 2388 
L 238 4581 
L 959 4581 
L 1791 3406 
Q 2050 3041 2159 2844 
Q 2313 3094 2522 3366 
L 3444 4581 
L 4103 4581 
L 2494 2422 
L 4228 0 
L 3478 0 
L 2325 1634 
Q 2228 1775 2125 1941 
Q 1972 1691 1906 1597 
L 756 0 
L 28 0 
z
" transform="scale(0.015625)"/>
       </defs>
       <use xlink:href="#ArialMT-41"/>
       <use xlink:href="#ArialMT-42" x="66.699219"/>
       <use xlink:href="#ArialMT-41" x="133.398438"/>
       <use xlink:href="#ArialMT-44" x="200.097656"/>
       <use xlink:href="#ArialMT-4f" x="272.314453"/>
       <use xlink:href="#ArialMT-58" x="350.097656"/>
      </g>
     </g>
    </g>
    <g id="xtick_4">
     <g id="line2d_4">
      <g>
       <use xlink:href="#m664e283996" x="61.453803" y="97.337364" style="stroke: #000000; stroke-width: 0.8"/>
      </g>
     </g>
     <g id="text_4">
      <!-- ABABIP -->
      <g transform="translate(42.586758 125.763583) rotate(-45) scale(0.07 -0.07)">
       <defs>
        <path id="ArialMT-50" d="M 494 0 
L 494 4581 
L 2222 4581 
Q 2678 4581 2919 4538 
Q 3256 4481 3484 4323 
Q 3713 4166 3852 3881 
Q 3991 3597 3991 3256 
Q 3991 2672 3619 2267 
Q 3247 1863 2275 1863 
L 1100 1863 
L 1100 0 
L 494 0 
z
M 1100 2403 
L 2284 2403 
Q 2872 2403 3119 2622 
Q 3366 2841 3366 3238 
Q 3366 3525 3220 3729 
Q 3075 3934 2838 4000 
Q 2684 4041 2272 4041 
L 1100 4041 
L 1100 2403 
z
" transform="scale(0.015625)"/>
       </defs>
       <use xlink:href="#ArialMT-41"/>
       <use xlink:href="#ArialMT-42" x="66.699219"/>
       <use xlink:href="#ArialMT-41" x="133.398438"/>
       <use xlink:href="#ArialMT-42" x="200.097656"/>
       <use xlink:href="#ArialMT-49" x="266.796875"/>
       <use xlink:href="#ArialMT-50" x="294.580078"/>
      </g>
     </g>
    </g>
    <g id="xtick_5">
     <g id="line2d_5">
      <g>
       <use xlink:href="#m664e283996" x="67.208699" y="97.337364" style="stroke: #000000; stroke-width: 0.8"/>
      </g>
     </g>
     <g id="text_5">
      <!-- GASQOK -->
      <g transform="translate(44.770101 129.335135) rotate(-45) scale(0.07 -0.07)">
       <defs>
        <path id="ArialMT-47" d="M 2638 1797 
L 2638 2334 
L 4578 2338 
L 4578 638 
Q 4131 281 3656 101 
Q 3181 -78 2681 -78 
Q 2006 -78 1454 211 
Q 903 500 622 1047 
Q 341 1594 341 2269 
Q 341 2938 620 3517 
Q 900 4097 1425 4378 
Q 1950 4659 2634 4659 
Q 3131 4659 3532 4498 
Q 3934 4338 4162 4050 
Q 4391 3763 4509 3300 
L 3963 3150 
Q 3859 3500 3706 3700 
Q 3553 3900 3268 4020 
Q 2984 4141 2638 4141 
Q 2222 4141 1919 4014 
Q 1616 3888 1430 3681 
Q 1244 3475 1141 3228 
Q 966 2803 966 2306 
Q 966 1694 1177 1281 
Q 1388 869 1791 669 
Q 2194 469 2647 469 
Q 3041 469 3416 620 
Q 3791 772 3984 944 
L 3984 1797 
L 2638 1797 
z
" transform="scale(0.015625)"/>
        <path id="ArialMT-53" d="M 288 1472 
L 859 1522 
Q 900 1178 1048 958 
Q 1197 738 1509 602 
Q 1822 466 2213 466 
Q 2559 466 2825 569 
Q 3091 672 3220 851 
Q 3350 1031 3350 1244 
Q 3350 1459 3225 1620 
Q 3100 1781 2813 1891 
Q 2628 1963 1997 2114 
Q 1366 2266 1113 2400 
Q 784 2572 623 2826 
Q 463 3081 463 3397 
Q 463 3744 659 4045 
Q 856 4347 1234 4503 
Q 1613 4659 2075 4659 
Q 2584 4659 2973 4495 
Q 3363 4331 3572 4012 
Q 3781 3694 3797 3291 
L 3216 3247 
Q 3169 3681 2898 3903 
Q 2628 4125 2100 4125 
Q 1550 4125 1298 3923 
Q 1047 3722 1047 3438 
Q 1047 3191 1225 3031 
Q 1400 2872 2139 2705 
Q 2878 2538 3153 2413 
Q 3553 2228 3743 1945 
Q 3934 1663 3934 1294 
Q 3934 928 3725 604 
Q 3516 281 3123 101 
Q 2731 -78 2241 -78 
Q 1619 -78 1198 103 
Q 778 284 539 648 
Q 300 1013 288 1472 
z
" transform="scale(0.015625)"/>
        <path id="ArialMT-51" d="M 3966 491 
Q 4388 200 4744 66 
L 4566 -356 
Q 4072 -178 3581 206 
Q 3072 -78 2456 -78 
Q 1834 -78 1328 222 
Q 822 522 548 1065 
Q 275 1609 275 2291 
Q 275 2969 550 3525 
Q 825 4081 1333 4372 
Q 1841 4663 2469 4663 
Q 3103 4663 3612 4361 
Q 4122 4059 4389 3517 
Q 4656 2975 4656 2294 
Q 4656 1728 4484 1276 
Q 4313 825 3966 491 
z
M 2631 1266 
Q 3156 1119 3497 828 
Q 4031 1316 4031 2294 
Q 4031 2850 3842 3265 
Q 3653 3681 3289 3911 
Q 2925 4141 2472 4141 
Q 1794 4141 1347 3677 
Q 900 3213 900 2291 
Q 900 1397 1342 919 
Q 1784 441 2472 441 
Q 2797 441 3084 563 
Q 2800 747 2484 825 
L 2631 1266 
z
" transform="scale(0.015625)"/>
       </defs>
       <use xlink:href="#ArialMT-47"/>
       <use xlink:href="#ArialMT-41" x="77.783203"/>
       <use xlink:href="#ArialMT-53" x="144.482422"/>
       <use xlink:href="#ArialMT-51" x="211.181641"/>
       <use xlink:href="#ArialMT-4f" x="288.964844"/>
       <use xlink:href="#ArialMT-4b" x="366.748047"/>
      </g>
     </g>
    </g>
    <g id="xtick_6">
     <g id="line2d_6">
      <g>
       <use xlink:href="#m664e283996" x="72.963594" y="97.337364" style="stroke: #000000; stroke-width: 0.8"/>
      </g>
     </g>
     <g id="text_6">
      <!-- ABEKIE -->
      <g transform="translate(54.096549 125.763583) rotate(-45) scale(0.07 -0.07)">
       <defs>
        <path id="ArialMT-45" d="M 506 0 
L 506 4581 
L 3819 4581 
L 3819 4041 
L 1113 4041 
L 1113 2638 
L 3647 2638 
L 3647 2100 
L 1113 2100 
L 1113 541 
L 3925 541 
L 3925 0 
L 506 0 
z
" transform="scale(0.015625)"/>
       </defs>
       <use xlink:href="#ArialMT-41"/>
       <use xlink:href="#ArialMT-42" x="66.699219"/>
       <use xlink:href="#ArialMT-45" x="133.398438"/>
       <use xlink:href="#ArialMT-4b" x="200.097656"/>
       <use xlink:href="#ArialMT-49" x="266.796875"/>
       <use xlink:href="#ArialMT-45" x="294.580078"/>
      </g>
     </g>
    </g>
    <g id="xtick_7">
     <g id="line2d_7">
      <g>
       <use xlink:href="#m664e283996" x="78.71849" y="97.337364" style="stroke: #000000; stroke-width: 0.8"/>
      </g>
     </g>
     <g id="text_7">
      <!-- NIWPUE01 -->
      <g transform="translate(52.429917 133.185111) rotate(-45) scale(0.07 -0.07)">
       <defs>
        <path id="ArialMT-4e" d="M 488 0 
L 488 4581 
L 1109 4581 
L 3516 984 
L 3516 4581 
L 4097 4581 
L 4097 0 
L 3475 0 
L 1069 3600 
L 1069 0 
L 488 0 
z
" transform="scale(0.015625)"/>
        <path id="ArialMT-55" d="M 3500 4581 
L 4106 4581 
L 4106 1934 
Q 4106 1244 3950 837 
Q 3794 431 3386 176 
Q 2978 -78 2316 -78 
Q 1672 -78 1262 144 
Q 853 366 678 786 
Q 503 1206 503 1934 
L 503 4581 
L 1109 4581 
L 1109 1938 
Q 1109 1341 1220 1058 
Q 1331 775 1601 622 
Q 1872 469 2263 469 
Q 2931 469 3215 772 
Q 3500 1075 3500 1938 
L 3500 4581 
z
" transform="scale(0.015625)"/>
        <path id="ArialMT-30" d="M 266 2259 
Q 266 3072 433 3567 
Q 600 4063 929 4331 
Q 1259 4600 1759 4600 
Q 2128 4600 2406 4451 
Q 2684 4303 2865 4023 
Q 3047 3744 3150 3342 
Q 3253 2941 3253 2259 
Q 3253 1453 3087 958 
Q 2922 463 2592 192 
Q 2263 -78 1759 -78 
Q 1097 -78 719 397 
Q 266 969 266 2259 
z
M 844 2259 
Q 844 1131 1108 757 
Q 1372 384 1759 384 
Q 2147 384 2411 759 
Q 2675 1134 2675 2259 
Q 2675 3391 2411 3762 
Q 2147 4134 1753 4134 
Q 1366 4134 1134 3806 
Q 844 3388 844 2259 
z
" transform="scale(0.015625)"/>
        <path id="ArialMT-31" d="M 2384 0 
L 1822 0 
L 1822 3584 
Q 1619 3391 1289 3197 
Q 959 3003 697 2906 
L 697 3450 
Q 1169 3672 1522 3987 
Q 1875 4303 2022 4600 
L 2384 4600 
L 2384 0 
z
" transform="scale(0.015625)"/>
       </defs>
       <use xlink:href="#ArialMT-4e"/>
       <use xlink:href="#ArialMT-49" x="72.216797"/>
       <use xlink:href="#ArialMT-57" x="100"/>
       <use xlink:href="#ArialMT-50" x="194.384766"/>
       <use xlink:href="#ArialMT-55" x="261.083984"/>
       <use xlink:href="#ArialMT-45" x="333.300781"/>
       <use xlink:href="#ArialMT-30" x="400"/>
       <use xlink:href="#ArialMT-31" x="455.615234"/>
      </g>
     </g>
    </g>
    <g id="xtick_8">
     <g id="line2d_8">
      <g>
       <use xlink:href="#m664e283996" x="84.473386" y="97.337364" style="stroke: #000000; stroke-width: 0.8"/>
      </g>
     </g>
     <g id="text_8">
      <!-- ABEKIF -->
      <g transform="translate(65.884764 125.48516) rotate(-45) scale(0.07 -0.07)">
       <defs>
        <path id="ArialMT-46" d="M 525 0 
L 525 4581 
L 3616 4581 
L 3616 4041 
L 1131 4041 
L 1131 2622 
L 3281 2622 
L 3281 2081 
L 1131 2081 
L 1131 0 
L 525 0 
z
" transform="scale(0.015625)"/>
       </defs>
       <use xlink:href="#ArialMT-41"/>
       <use xlink:href="#ArialMT-42" x="66.699219"/>
       <use xlink:href="#ArialMT-45" x="133.398438"/>
       <use xlink:href="#ArialMT-4b" x="200.097656"/>
       <use xlink:href="#ArialMT-49" x="266.796875"/>
       <use xlink:href="#ArialMT-46" x="294.580078"/>
      </g>
     </g>
    </g>
    <g id="xtick_9">
     <g id="line2d_9">
      <g>
       <use xlink:href="#m664e283996" x="90.228282" y="97.337364" style="stroke: #000000; stroke-width: 0.8"/>
      </g>
     </g>
     <g id="text_9">
      <!-- APUFEX -->
      <g transform="translate(69.440116 127.684704) rotate(-45) scale(0.07 -0.07)">
       <use xlink:href="#ArialMT-41"/>
       <use xlink:href="#ArialMT-50" x="66.699219"/>
       <use xlink:href="#ArialMT-55" x="133.398438"/>
       <use xlink:href="#ArialMT-46" x="205.615234"/>
       <use xlink:href="#ArialMT-45" x="266.699219"/>
       <use xlink:href="#ArialMT-58" x="333.398438"/>
      </g>
     </g>
    </g>
    <g id="xtick_10">
     <g id="line2d_10">
      <g>
       <use xlink:href="#m664e283996" x="95.983178" y="97.337364" style="stroke: #000000; stroke-width: 0.8"/>
      </g>
     </g>
     <g id="text_10">
      <!-- ABEHAU -->
      <g transform="translate(74.643579 128.236137) rotate(-45) scale(0.07 -0.07)">
       <use xlink:href="#ArialMT-41"/>
       <use xlink:href="#ArialMT-42" x="66.699219"/>
       <use xlink:href="#ArialMT-45" x="133.398438"/>
       <use xlink:href="#ArialMT-48" x="200.097656"/>
       <use xlink:href="#ArialMT-41" x="272.314453"/>
       <use xlink:href="#ArialMT-55" x="339.013672"/>
      </g>
     </g>
    </g>
    <g id="xtick_11">
     <g id="line2d_11">
      <g>
       <use xlink:href="#m664e283996" x="101.738073" y="97.337364" style="stroke: #000000; stroke-width: 0.8"/>
      </g>
     </g>
     <g id="text_11">
      <!-- TITTUO -->
      <g transform="translate(82.884949 125.749662) rotate(-45) scale(0.07 -0.07)">
       <defs>
        <path id="ArialMT-54" d="M 1659 0 
L 1659 4041 
L 150 4041 
L 150 4581 
L 3781 4581 
L 3781 4041 
L 2266 4041 
L 2266 0 
L 1659 0 
z
" transform="scale(0.015625)"/>
       </defs>
       <use xlink:href="#ArialMT-54"/>
       <use xlink:href="#ArialMT-49" x="61.083984"/>
       <use xlink:href="#ArialMT-54" x="88.867188"/>
       <use xlink:href="#ArialMT-54" x="149.951172"/>
       <use xlink:href="#ArialMT-55" x="211.035156"/>
       <use xlink:href="#ArialMT-4f" x="283.251953"/>
      </g>
     </g>
    </g>
    <g id="xtick_12">
     <g id="line2d_12">
      <g>
       <use xlink:href="#m664e283996" x="107.492969" y="97.337364" style="stroke: #000000; stroke-width: 0.8"/>
      </g>
     </g>
     <g id="text_12">
      <!-- EGEYOG -->
      <g transform="translate(85.054372 129.335135) rotate(-45) scale(0.07 -0.07)">
       <defs>
        <path id="ArialMT-59" d="M 1784 0 
L 1784 1941 
L 19 4581 
L 756 4581 
L 1659 3200 
Q 1909 2813 2125 2425 
Q 2331 2784 2625 3234 
L 3513 4581 
L 4219 4581 
L 2391 1941 
L 2391 0 
L 1784 0 
z
" transform="scale(0.015625)"/>
       </defs>
       <use xlink:href="#ArialMT-45"/>
       <use xlink:href="#ArialMT-47" x="66.699219"/>
       <use xlink:href="#ArialMT-45" x="144.482422"/>
       <use xlink:href="#ArialMT-59" x="211.181641"/>
       <use xlink:href="#ArialMT-4f" x="277.880859"/>
       <use xlink:href="#ArialMT-47" x="355.664062"/>
      </g>
     </g>
    </g>
    <g id="xtick_13">
     <g id="line2d_13">
      <g>
       <use xlink:href="#m664e283996" x="113.247865" y="97.337364" style="stroke: #000000; stroke-width: 0.8"/>
      </g>
     </g>
     <g id="text_13">
      <!-- ABOBUP -->
      <g transform="translate(91.632936 128.511466) rotate(-45) scale(0.07 -0.07)">
       <use xlink:href="#ArialMT-41"/>
       <use xlink:href="#ArialMT-42" x="66.699219"/>
       <use xlink:href="#ArialMT-4f" x="133.398438"/>
       <use xlink:href="#ArialMT-42" x="211.181641"/>
       <use xlink:href="#ArialMT-55" x="277.880859"/>
       <use xlink:href="#ArialMT-50" x="350.097656"/>
      </g>
     </g>
    </g>
    <g id="xtick_14">
     <g id="line2d_14">
      <g>
       <use xlink:href="#m664e283996" x="119.002761" y="97.337364" style="stroke: #000000; stroke-width: 0.8"/>
      </g>
     </g>
     <g id="text_14">
      <!-- XIDTOW -->
      <g transform="translate(98.308949 127.590349) rotate(-45) scale(0.07 -0.07)">
       <use xlink:href="#ArialMT-58"/>
       <use xlink:href="#ArialMT-49" x="66.699219"/>
       <use xlink:href="#ArialMT-44" x="94.482422"/>
       <use xlink:href="#ArialMT-54" x="166.699219"/>
       <use xlink:href="#ArialMT-4f" x="226.033203"/>
       <use xlink:href="#ArialMT-57" x="303.816406"/>
      </g>
     </g>
    </g>
    <g id="xtick_15">
     <g id="line2d_15">
      <g>
       <use xlink:href="#m664e283996" x="124.757656" y="97.337364" style="stroke: #000000; stroke-width: 0.8"/>
      </g>
     </g>
     <g id="text_15">
      <!-- ACNCOB10 -->
      <g transform="translate(97.091662 134.562533) rotate(-45) scale(0.07 -0.07)">
       <defs>
        <path id="ArialMT-43" d="M 3763 1606 
L 4369 1453 
Q 4178 706 3683 314 
Q 3188 -78 2472 -78 
Q 1731 -78 1267 223 
Q 803 525 561 1097 
Q 319 1669 319 2325 
Q 319 3041 592 3573 
Q 866 4106 1370 4382 
Q 1875 4659 2481 4659 
Q 3169 4659 3637 4309 
Q 4106 3959 4291 3325 
L 3694 3184 
Q 3534 3684 3231 3912 
Q 2928 4141 2469 4141 
Q 1941 4141 1586 3887 
Q 1231 3634 1087 3207 
Q 944 2781 944 2328 
Q 944 1744 1114 1308 
Q 1284 872 1643 656 
Q 2003 441 2422 441 
Q 2931 441 3284 734 
Q 3638 1028 3763 1606 
z
" transform="scale(0.015625)"/>
       </defs>
       <use xlink:href="#ArialMT-41"/>
       <use xlink:href="#ArialMT-43" x="66.699219"/>
       <use xlink:href="#ArialMT-4e" x="138.916016"/>
       <use xlink:href="#ArialMT-43" x="211.132812"/>
       <use xlink:href="#ArialMT-4f" x="283.349609"/>
       <use xlink:href="#ArialMT-42" x="361.132812"/>
       <use xlink:href="#ArialMT-31" x="427.832031"/>
       <use xlink:href="#ArialMT-30" x="483.447266"/>
      </g>
     </g>
    </g>
    <g id="xtick_16">
     <g id="line2d_16">
      <g>
       <use xlink:href="#m664e283996" x="130.512552" y="97.337364" style="stroke: #000000; stroke-width: 0.8"/>
      </g>
     </g>
     <g id="text_16">
      <!-- TACXUQ -->
      <g transform="translate(109.268081 128.141009) rotate(-45) scale(0.07 -0.07)">
       <use xlink:href="#ArialMT-54"/>
       <use xlink:href="#ArialMT-41" x="53.708984"/>
       <use xlink:href="#ArialMT-43" x="120.408203"/>
       <use xlink:href="#ArialMT-58" x="192.625"/>
       <use xlink:href="#ArialMT-55" x="259.324219"/>
       <use xlink:href="#ArialMT-51" x="331.541016"/>
      </g>
     </g>
    </g>
    <g id="xtick_17">
     <g id="line2d_17">
      <g>
       <use xlink:href="#m664e283996" x="136.267448" y="97.337364" style="stroke: #000000; stroke-width: 0.8"/>
      </g>
     </g>
     <g id="text_17">
      <!-- ACAZFE -->
      <g transform="translate(115.757705 127.40628) rotate(-45) scale(0.07 -0.07)">
       <use xlink:href="#ArialMT-41"/>
       <use xlink:href="#ArialMT-43" x="66.699219"/>
       <use xlink:href="#ArialMT-41" x="138.916016"/>
       <use xlink:href="#ArialMT-5a" x="205.615234"/>
       <use xlink:href="#ArialMT-46" x="266.699219"/>
       <use xlink:href="#ArialMT-45" x="327.783203"/>
      </g>
     </g>
    </g>
    <g id="xtick_18">
     <g id="line2d_18">
      <g>
       <use xlink:href="#m664e283996" x="142.022344" y="97.337364" style="stroke: #000000; stroke-width: 0.8"/>
      </g>
     </g>
     <g id="text_18">
      <!-- NIVHEJ -->
      <g transform="translate(123.436042 125.48284) rotate(-45) scale(0.07 -0.07)">
       <defs>
        <path id="ArialMT-56" d="M 1803 0 
L 28 4581 
L 684 4581 
L 1875 1253 
Q 2019 853 2116 503 
Q 2222 878 2363 1253 
L 3600 4581 
L 4219 4581 
L 2425 0 
L 1803 0 
z
" transform="scale(0.015625)"/>
        <path id="ArialMT-4a" d="M 184 1300 
L 731 1375 
Q 753 850 928 656 
Q 1103 463 1413 463 
Q 1641 463 1806 567 
Q 1972 672 2034 851 
Q 2097 1031 2097 1425 
L 2097 4581 
L 2703 4581 
L 2703 1459 
Q 2703 884 2564 568 
Q 2425 253 2123 87 
Q 1822 -78 1416 -78 
Q 813 -78 492 269 
Q 172 616 184 1300 
z
" transform="scale(0.015625)"/>
       </defs>
       <use xlink:href="#ArialMT-4e"/>
       <use xlink:href="#ArialMT-49" x="72.216797"/>
       <use xlink:href="#ArialMT-56" x="100"/>
       <use xlink:href="#ArialMT-48" x="166.699219"/>
       <use xlink:href="#ArialMT-45" x="238.916016"/>
       <use xlink:href="#ArialMT-4a" x="305.615234"/>
      </g>
     </g>
    </g>
    <g id="xtick_19">
     <g id="line2d_19">
      <g>
       <use xlink:href="#m664e283996" x="147.777239" y="97.337364" style="stroke: #000000; stroke-width: 0.8"/>
      </g>
     </g>
     <g id="text_19">
      <!-- ADUPAS -->
      <g transform="translate(126.802685 127.871093) rotate(-45) scale(0.07 -0.07)">
       <use xlink:href="#ArialMT-41"/>
       <use xlink:href="#ArialMT-44" x="66.699219"/>
       <use xlink:href="#ArialMT-55" x="138.916016"/>
       <use xlink:href="#ArialMT-50" x="211.132812"/>
       <use xlink:href="#ArialMT-41" x="270.457031"/>
       <use xlink:href="#ArialMT-53" x="337.15625"/>
      </g>
     </g>
    </g>
    <g id="xtick_20">
     <g id="line2d_20">
      <g>
       <use xlink:href="#m664e283996" x="153.532135" y="97.337364" style="stroke: #000000; stroke-width: 0.8"/>
      </g>
     </g>
     <g id="text_20">
      <!-- DAJLAC -->
      <g transform="translate(133.568412 126.860261) rotate(-45) scale(0.07 -0.07)">
       <defs>
        <path id="ArialMT-4c" d="M 469 0 
L 469 4581 
L 1075 4581 
L 1075 541 
L 3331 541 
L 3331 0 
L 469 0 
z
" transform="scale(0.015625)"/>
       </defs>
       <use xlink:href="#ArialMT-44"/>
       <use xlink:href="#ArialMT-41" x="72.216797"/>
       <use xlink:href="#ArialMT-4a" x="138.916016"/>
       <use xlink:href="#ArialMT-4c" x="188.916016"/>
       <use xlink:href="#ArialMT-41" x="244.53125"/>
       <use xlink:href="#ArialMT-43" x="311.230469"/>
      </g>
     </g>
    </g>
    <g id="xtick_21">
     <g id="line2d_21">
      <g>
       <use xlink:href="#m664e283996" x="159.287031" y="97.337364" style="stroke: #000000; stroke-width: 0.8"/>
      </g>
     </g>
     <g id="text_21">
      <!-- OFOWIS -->
      <g transform="translate(138.231269 127.952299) rotate(-45) scale(0.07 -0.07)">
       <use xlink:href="#ArialMT-4f"/>
       <use xlink:href="#ArialMT-46" x="77.783203"/>
       <use xlink:href="#ArialMT-4f" x="138.867188"/>
       <use xlink:href="#ArialMT-57" x="216.650391"/>
       <use xlink:href="#ArialMT-49" x="311.035156"/>
       <use xlink:href="#ArialMT-53" x="338.818359"/>
      </g>
     </g>
    </g>
    <g id="xtick_22">
     <g id="line2d_22">
      <g>
       <use xlink:href="#m664e283996" x="165.041927" y="97.337364" style="stroke: #000000; stroke-width: 0.8"/>
      </g>
     </g>
     <g id="text_22">
      <!-- CATSUL -->
      <g transform="translate(144.894908 127.043557) rotate(-45) scale(0.07 -0.07)">
       <use xlink:href="#ArialMT-43"/>
       <use xlink:href="#ArialMT-41" x="72.216797"/>
       <use xlink:href="#ArialMT-54" x="131.541016"/>
       <use xlink:href="#ArialMT-53" x="192.625"/>
       <use xlink:href="#ArialMT-55" x="259.324219"/>
       <use xlink:href="#ArialMT-4c" x="331.541016"/>
      </g>
     </g>
    </g>
    <g id="xtick_23">
     <g id="line2d_23">
      <g>
       <use xlink:href="#m664e283996" x="170.796822" y="97.337364" style="stroke: #000000; stroke-width: 0.8"/>
      </g>
     </g>
     <g id="text_23">
      <!-- HESMUQ01 -->
      <g transform="translate(142.582489 135.110872) rotate(-45) scale(0.07 -0.07)">
       <defs>
        <path id="ArialMT-4d" d="M 475 0 
L 475 4581 
L 1388 4581 
L 2472 1338 
Q 2622 884 2691 659 
Q 2769 909 2934 1394 
L 4031 4581 
L 4847 4581 
L 4847 0 
L 4263 0 
L 4263 3834 
L 2931 0 
L 2384 0 
L 1059 3900 
L 1059 0 
L 475 0 
z
" transform="scale(0.015625)"/>
       </defs>
       <use xlink:href="#ArialMT-48"/>
       <use xlink:href="#ArialMT-45" x="72.216797"/>
       <use xlink:href="#ArialMT-53" x="138.916016"/>
       <use xlink:href="#ArialMT-4d" x="205.615234"/>
       <use xlink:href="#ArialMT-55" x="288.916016"/>
       <use xlink:href="#ArialMT-51" x="361.132812"/>
       <use xlink:href="#ArialMT-30" x="438.916016"/>
       <use xlink:href="#ArialMT-31" x="494.53125"/>
      </g>
     </g>
    </g>
    <g id="xtick_24">
     <g id="line2d_24">
      <g>
       <use xlink:href="#m664e283996" x="176.551718" y="97.337364" style="stroke: #000000; stroke-width: 0.8"/>
      </g>
     </g>
     <g id="text_24">
      <!-- GUDQOL -->
      <g transform="translate(154.116214 129.332042) rotate(-45) scale(0.07 -0.07)">
       <use xlink:href="#ArialMT-47"/>
       <use xlink:href="#ArialMT-55" x="77.783203"/>
       <use xlink:href="#ArialMT-44" x="150"/>
       <use xlink:href="#ArialMT-51" x="222.216797"/>
       <use xlink:href="#ArialMT-4f" x="300"/>
       <use xlink:href="#ArialMT-4c" x="377.783203"/>
      </g>
     </g>
    </g>
    <g id="xtick_25">
     <g id="line2d_25">
      <g>
       <use xlink:href="#m664e283996" x="182.306614" y="97.337364" style="stroke: #000000; stroke-width: 0.8"/>
      </g>
     </g>
     <g id="text_25">
      <!-- ABEVAG -->
      <g transform="translate(161.329739 127.873413) rotate(-45) scale(0.07 -0.07)">
       <use xlink:href="#ArialMT-41"/>
       <use xlink:href="#ArialMT-42" x="66.699219"/>
       <use xlink:href="#ArialMT-45" x="133.398438"/>
       <use xlink:href="#ArialMT-56" x="200.097656"/>
       <use xlink:href="#ArialMT-41" x="259.421875"/>
       <use xlink:href="#ArialMT-47" x="326.121094"/>
      </g>
     </g>
    </g>
    <g id="xtick_26">
     <g id="line2d_26">
      <g>
       <use xlink:href="#m664e283996" x="188.06151" y="97.337364" style="stroke: #000000; stroke-width: 0.8"/>
      </g>
     </g>
     <g id="text_26">
      <!-- AKOQOH -->
      <g transform="translate(165.349903 129.608145) rotate(-45) scale(0.07 -0.07)">
       <use xlink:href="#ArialMT-41"/>
       <use xlink:href="#ArialMT-4b" x="66.699219"/>
       <use xlink:href="#ArialMT-4f" x="133.398438"/>
       <use xlink:href="#ArialMT-51" x="211.181641"/>
       <use xlink:href="#ArialMT-4f" x="288.964844"/>
       <use xlink:href="#ArialMT-48" x="366.748047"/>
      </g>
     </g>
    </g>
    <g id="xtick_27">
     <g id="line2d_27">
      <g>
       <use xlink:href="#m664e283996" x="193.816406" y="97.337364" style="stroke: #000000; stroke-width: 0.8"/>
      </g>
     </g>
     <g id="text_27">
      <!-- ADARUT -->
      <g transform="translate(172.482221 128.230723) rotate(-45) scale(0.07 -0.07)">
       <defs>
        <path id="ArialMT-52" d="M 503 0 
L 503 4581 
L 2534 4581 
Q 3147 4581 3465 4457 
Q 3784 4334 3975 4021 
Q 4166 3709 4166 3331 
Q 4166 2844 3850 2509 
Q 3534 2175 2875 2084 
Q 3116 1969 3241 1856 
Q 3506 1613 3744 1247 
L 4541 0 
L 3778 0 
L 3172 953 
Q 2906 1366 2734 1584 
Q 2563 1803 2427 1890 
Q 2291 1978 2150 2013 
Q 2047 2034 1813 2034 
L 1109 2034 
L 1109 0 
L 503 0 
z
M 1109 2559 
L 2413 2559 
Q 2828 2559 3062 2645 
Q 3297 2731 3419 2920 
Q 3541 3109 3541 3331 
Q 3541 3656 3305 3865 
Q 3069 4075 2559 4075 
L 1109 4075 
L 1109 2559 
z
" transform="scale(0.015625)"/>
       </defs>
       <use xlink:href="#ArialMT-41"/>
       <use xlink:href="#ArialMT-44" x="66.699219"/>
       <use xlink:href="#ArialMT-41" x="138.916016"/>
       <use xlink:href="#ArialMT-52" x="205.615234"/>
       <use xlink:href="#ArialMT-55" x="277.832031"/>
       <use xlink:href="#ArialMT-54" x="350.048828"/>
      </g>
     </g>
    </g>
    <g id="xtick_28">
     <g id="line2d_28">
      <g>
       <use xlink:href="#m664e283996" x="199.571301" y="97.337364" style="stroke: #000000; stroke-width: 0.8"/>
      </g>
     </g>
     <g id="text_28">
      <!-- AFECIA -->
      <g transform="translate(180.70967 125.758169) rotate(-45) scale(0.07 -0.07)">
       <use xlink:href="#ArialMT-41"/>
       <use xlink:href="#ArialMT-46" x="66.699219"/>
       <use xlink:href="#ArialMT-45" x="127.783203"/>
       <use xlink:href="#ArialMT-43" x="194.482422"/>
       <use xlink:href="#ArialMT-49" x="266.699219"/>
       <use xlink:href="#ArialMT-41" x="294.482422"/>
      </g>
     </g>
    </g>
    <g id="xtick_29">
     <g id="line2d_29">
      <g>
       <use xlink:href="#m664e283996" x="205.326197" y="97.337364" style="stroke: #000000; stroke-width: 0.8"/>
      </g>
     </g>
     <g id="text_29">
      <!-- ACOVUL -->
      <g transform="translate(183.987372 128.235363) rotate(-45) scale(0.07 -0.07)">
       <use xlink:href="#ArialMT-41"/>
       <use xlink:href="#ArialMT-43" x="66.699219"/>
       <use xlink:href="#ArialMT-4f" x="138.916016"/>
       <use xlink:href="#ArialMT-56" x="216.699219"/>
       <use xlink:href="#ArialMT-55" x="283.398438"/>
       <use xlink:href="#ArialMT-4c" x="355.615234"/>
      </g>
     </g>
    </g>
    <g id="xtick_30">
     <g id="line2d_30">
      <g>
       <use xlink:href="#m664e283996" x="211.081093" y="97.337364" style="stroke: #000000; stroke-width: 0.8"/>
      </g>
     </g>
     <g id="text_30">
      <!-- AFIXEV -->
      <g transform="translate(192.492471 125.48516) rotate(-45) scale(0.07 -0.07)">
       <use xlink:href="#ArialMT-41"/>
       <use xlink:href="#ArialMT-46" x="66.699219"/>
       <use xlink:href="#ArialMT-49" x="127.783203"/>
       <use xlink:href="#ArialMT-58" x="155.566406"/>
       <use xlink:href="#ArialMT-45" x="222.265625"/>
       <use xlink:href="#ArialMT-56" x="288.964844"/>
      </g>
     </g>
    </g>
    <g id="xtick_31">
     <g id="line2d_31">
      <g>
       <use xlink:href="#m664e283996" x="216.835989" y="97.337364" style="stroke: #000000; stroke-width: 0.8"/>
      </g>
     </g>
     <g id="text_31">
      <!-- ABAYAF -->
      <g transform="translate(197.05092 126.681607) rotate(-45) scale(0.07 -0.07)">
       <use xlink:href="#ArialMT-41"/>
       <use xlink:href="#ArialMT-42" x="66.699219"/>
       <use xlink:href="#ArialMT-41" x="133.398438"/>
       <use xlink:href="#ArialMT-59" x="192.722656"/>
       <use xlink:href="#ArialMT-41" x="252.046875"/>
       <use xlink:href="#ArialMT-46" x="318.746094"/>
      </g>
     </g>
    </g>
    <g id="xtick_32">
     <g id="line2d_32">
      <g>
       <use xlink:href="#m664e283996" x="222.590884" y="97.337364" style="stroke: #000000; stroke-width: 0.8"/>
      </g>
     </g>
     <g id="text_32">
      <!-- RULJAM -->
      <g transform="translate(201.805812 127.68161) rotate(-45) scale(0.07 -0.07)">
       <use xlink:href="#ArialMT-52"/>
       <use xlink:href="#ArialMT-55" x="72.216797"/>
       <use xlink:href="#ArialMT-4c" x="144.433594"/>
       <use xlink:href="#ArialMT-4a" x="200.048828"/>
       <use xlink:href="#ArialMT-41" x="250.048828"/>
       <use xlink:href="#ArialMT-4d" x="316.748047"/>
      </g>
     </g>
    </g>
    <g id="text_33">
     <!-- Target -->
     <g transform="translate(122.275625 145.820884) scale(0.08 -0.08)">
      <defs>
       <path id="ArialMT-61" d="M 2588 409 
Q 2275 144 1986 34 
Q 1697 -75 1366 -75 
Q 819 -75 525 192 
Q 231 459 231 875 
Q 231 1119 342 1320 
Q 453 1522 633 1644 
Q 813 1766 1038 1828 
Q 1203 1872 1538 1913 
Q 2219 1994 2541 2106 
Q 2544 2222 2544 2253 
Q 2544 2597 2384 2738 
Q 2169 2928 1744 2928 
Q 1347 2928 1158 2789 
Q 969 2650 878 2297 
L 328 2372 
Q 403 2725 575 2942 
Q 747 3159 1072 3276 
Q 1397 3394 1825 3394 
Q 2250 3394 2515 3294 
Q 2781 3194 2906 3042 
Q 3031 2891 3081 2659 
Q 3109 2516 3109 2141 
L 3109 1391 
Q 3109 606 3145 398 
Q 3181 191 3288 0 
L 2700 0 
Q 2613 175 2588 409 
z
M 2541 1666 
Q 2234 1541 1622 1453 
Q 1275 1403 1131 1340 
Q 988 1278 909 1158 
Q 831 1038 831 891 
Q 831 666 1001 516 
Q 1172 366 1500 366 
Q 1825 366 2078 508 
Q 2331 650 2450 897 
Q 2541 1088 2541 1459 
L 2541 1666 
z
" transform="scale(0.015625)"/>
       <path id="ArialMT-72" d="M 416 0 
L 416 3319 
L 922 3319 
L 922 2816 
Q 1116 3169 1280 3281 
Q 1444 3394 1641 3394 
Q 1925 3394 2219 3213 
L 2025 2691 
Q 1819 2813 1613 2813 
Q 1428 2813 1281 2702 
Q 1134 2591 1072 2394 
Q 978 2094 978 1738 
L 978 0 
L 416 0 
z
" transform="scale(0.015625)"/>
       <path id="ArialMT-67" d="M 319 -275 
L 866 -356 
Q 900 -609 1056 -725 
Q 1266 -881 1628 -881 
Q 2019 -881 2231 -725 
Q 2444 -569 2519 -288 
Q 2563 -116 2559 434 
Q 2191 0 1641 0 
Q 956 0 581 494 
Q 206 988 206 1678 
Q 206 2153 378 2554 
Q 550 2956 876 3175 
Q 1203 3394 1644 3394 
Q 2231 3394 2613 2919 
L 2613 3319 
L 3131 3319 
L 3131 450 
Q 3131 -325 2973 -648 
Q 2816 -972 2473 -1159 
Q 2131 -1347 1631 -1347 
Q 1038 -1347 672 -1080 
Q 306 -813 319 -275 
z
M 784 1719 
Q 784 1066 1043 766 
Q 1303 466 1694 466 
Q 2081 466 2343 764 
Q 2606 1063 2606 1700 
Q 2606 2309 2336 2618 
Q 2066 2928 1684 2928 
Q 1309 2928 1046 2623 
Q 784 2319 784 1719 
z
" transform="scale(0.015625)"/>
       <path id="ArialMT-65" d="M 2694 1069 
L 3275 997 
Q 3138 488 2766 206 
Q 2394 -75 1816 -75 
Q 1088 -75 661 373 
Q 234 822 234 1631 
Q 234 2469 665 2931 
Q 1097 3394 1784 3394 
Q 2450 3394 2872 2941 
Q 3294 2488 3294 1666 
Q 3294 1616 3291 1516 
L 816 1516 
Q 847 969 1125 678 
Q 1403 388 1819 388 
Q 2128 388 2347 550 
Q 2566 713 2694 1069 
z
M 847 1978 
L 2700 1978 
Q 2663 2397 2488 2606 
Q 2219 2931 1791 2931 
Q 1403 2931 1139 2672 
Q 875 2413 847 1978 
z
" transform="scale(0.015625)"/>
       <path id="ArialMT-74" d="M 1650 503 
L 1731 6 
Q 1494 -44 1306 -44 
Q 1000 -44 831 53 
Q 663 150 594 308 
Q 525 466 525 972 
L 525 2881 
L 113 2881 
L 113 3319 
L 525 3319 
L 525 4141 
L 1084 4478 
L 1084 3319 
L 1650 3319 
L 1650 2881 
L 1084 2881 
L 1084 941 
Q 1084 700 1114 631 
Q 1144 563 1211 522 
Q 1278 481 1403 481 
Q 1497 481 1650 503 
z
" transform="scale(0.015625)"/>
      </defs>
      <use xlink:href="#ArialMT-54"/>
      <use xlink:href="#ArialMT-61" x="49.958984"/>
      <use xlink:href="#ArialMT-72" x="105.574219"/>
      <use xlink:href="#ArialMT-67" x="138.875"/>
      <use xlink:href="#ArialMT-65" x="194.490234"/>
      <use xlink:href="#ArialMT-74" x="250.105469"/>
     </g>
    </g>
   </g>
   <g id="matplotlib.axis_2">
    <g id="ytick_1">
     <g id="line2d_33">
      <defs>
       <path id="m5c0275ce7e" d="M 0 0 
L -3.5 0 
" style="stroke: #000000; stroke-width: 0.8"/>
      </defs>
      <g>
       <use xlink:href="#m5c0275ce7e" x="33.18" y="97.337364" style="stroke: #000000; stroke-width: 0.8"/>
      </g>
     </g>
     <g id="text_34">
      <!-- 0.0 -->
      <g transform="translate(15.047812 99.996817) scale(0.07 -0.07)">
       <defs>
        <path id="DejaVuSans-30" d="M 2034 4250 
Q 1547 4250 1301 3770 
Q 1056 3291 1056 2328 
Q 1056 1369 1301 889 
Q 1547 409 2034 409 
Q 2525 409 2770 889 
Q 3016 1369 3016 2328 
Q 3016 3291 2770 3770 
Q 2525 4250 2034 4250 
z
M 2034 4750 
Q 2819 4750 3233 4129 
Q 3647 3509 3647 2328 
Q 3647 1150 3233 529 
Q 2819 -91 2034 -91 
Q 1250 -91 836 529 
Q 422 1150 422 2328 
Q 422 3509 836 4129 
Q 1250 4750 2034 4750 
z
" transform="scale(0.015625)"/>
        <path id="DejaVuSans-2e" d="M 684 794 
L 1344 794 
L 1344 0 
L 684 0 
L 684 794 
z
" transform="scale(0.015625)"/>
       </defs>
       <use xlink:href="#DejaVuSans-30"/>
       <use xlink:href="#DejaVuSans-2e" x="63.623047"/>
       <use xlink:href="#DejaVuSans-30" x="95.410156"/>
      </g>
     </g>
    </g>
    <g id="ytick_2">
     <g id="line2d_34">
      <g>
       <use xlink:href="#m5c0275ce7e" x="33.18" y="81.030891" style="stroke: #000000; stroke-width: 0.8"/>
      </g>
     </g>
     <g id="text_35">
      <!-- 0.2 -->
      <g transform="translate(15.047812 83.690344) scale(0.07 -0.07)">
       <defs>
        <path id="DejaVuSans-32" d="M 1228 531 
L 3431 531 
L 3431 0 
L 469 0 
L 469 531 
Q 828 903 1448 1529 
Q 2069 2156 2228 2338 
Q 2531 2678 2651 2914 
Q 2772 3150 2772 3378 
Q 2772 3750 2511 3984 
Q 2250 4219 1831 4219 
Q 1534 4219 1204 4116 
Q 875 4013 500 3803 
L 500 4441 
Q 881 4594 1212 4672 
Q 1544 4750 1819 4750 
Q 2544 4750 2975 4387 
Q 3406 4025 3406 3419 
Q 3406 3131 3298 2873 
Q 3191 2616 2906 2266 
Q 2828 2175 2409 1742 
Q 1991 1309 1228 531 
z
" transform="scale(0.015625)"/>
       </defs>
       <use xlink:href="#DejaVuSans-30"/>
       <use xlink:href="#DejaVuSans-2e" x="63.623047"/>
       <use xlink:href="#DejaVuSans-32" x="95.410156"/>
      </g>
     </g>
    </g>
    <g id="ytick_3">
     <g id="line2d_35">
      <g>
       <use xlink:href="#m5c0275ce7e" x="33.18" y="64.724418" style="stroke: #000000; stroke-width: 0.8"/>
      </g>
     </g>
     <g id="text_36">
      <!-- 0.4 -->
      <g transform="translate(15.047812 67.383871) scale(0.07 -0.07)">
       <defs>
        <path id="DejaVuSans-34" d="M 2419 4116 
L 825 1625 
L 2419 1625 
L 2419 4116 
z
M 2253 4666 
L 3047 4666 
L 3047 1625 
L 3713 1625 
L 3713 1100 
L 3047 1100 
L 3047 0 
L 2419 0 
L 2419 1100 
L 313 1100 
L 313 1709 
L 2253 4666 
z
" transform="scale(0.015625)"/>
       </defs>
       <use xlink:href="#DejaVuSans-30"/>
       <use xlink:href="#DejaVuSans-2e" x="63.623047"/>
       <use xlink:href="#DejaVuSans-34" x="95.410156"/>
      </g>
     </g>
    </g>
    <g id="ytick_4">
     <g id="line2d_36">
      <g>
       <use xlink:href="#m5c0275ce7e" x="33.18" y="48.417945" style="stroke: #000000; stroke-width: 0.8"/>
      </g>
     </g>
     <g id="text_37">
      <!-- 0.6 -->
      <g transform="translate(15.047812 51.077399) scale(0.07 -0.07)">
       <defs>
        <path id="DejaVuSans-36" d="M 2113 2584 
Q 1688 2584 1439 2293 
Q 1191 2003 1191 1497 
Q 1191 994 1439 701 
Q 1688 409 2113 409 
Q 2538 409 2786 701 
Q 3034 994 3034 1497 
Q 3034 2003 2786 2293 
Q 2538 2584 2113 2584 
z
M 3366 4563 
L 3366 3988 
Q 3128 4100 2886 4159 
Q 2644 4219 2406 4219 
Q 1781 4219 1451 3797 
Q 1122 3375 1075 2522 
Q 1259 2794 1537 2939 
Q 1816 3084 2150 3084 
Q 2853 3084 3261 2657 
Q 3669 2231 3669 1497 
Q 3669 778 3244 343 
Q 2819 -91 2113 -91 
Q 1303 -91 875 529 
Q 447 1150 447 2328 
Q 447 3434 972 4092 
Q 1497 4750 2381 4750 
Q 2619 4750 2861 4703 
Q 3103 4656 3366 4563 
z
" transform="scale(0.015625)"/>
       </defs>
       <use xlink:href="#DejaVuSans-30"/>
       <use xlink:href="#DejaVuSans-2e" x="63.623047"/>
       <use xlink:href="#DejaVuSans-36" x="95.410156"/>
      </g>
     </g>
    </g>
    <g id="ytick_5">
     <g id="line2d_37">
      <g>
       <use xlink:href="#m5c0275ce7e" x="33.18" y="32.111473" style="stroke: #000000; stroke-width: 0.8"/>
      </g>
     </g>
     <g id="text_38">
      <!-- 0.8 -->
      <g transform="translate(15.047812 34.770926) scale(0.07 -0.07)">
       <defs>
        <path id="DejaVuSans-38" d="M 2034 2216 
Q 1584 2216 1326 1975 
Q 1069 1734 1069 1313 
Q 1069 891 1326 650 
Q 1584 409 2034 409 
Q 2484 409 2743 651 
Q 3003 894 3003 1313 
Q 3003 1734 2745 1975 
Q 2488 2216 2034 2216 
z
M 1403 2484 
Q 997 2584 770 2862 
Q 544 3141 544 3541 
Q 544 4100 942 4425 
Q 1341 4750 2034 4750 
Q 2731 4750 3128 4425 
Q 3525 4100 3525 3541 
Q 3525 3141 3298 2862 
Q 3072 2584 2669 2484 
Q 3125 2378 3379 2068 
Q 3634 1759 3634 1313 
Q 3634 634 3220 271 
Q 2806 -91 2034 -91 
Q 1263 -91 848 271 
Q 434 634 434 1313 
Q 434 1759 690 2068 
Q 947 2378 1403 2484 
z
M 1172 3481 
Q 1172 3119 1398 2916 
Q 1625 2713 2034 2713 
Q 2441 2713 2670 2916 
Q 2900 3119 2900 3481 
Q 2900 3844 2670 4047 
Q 2441 4250 2034 4250 
Q 1625 4250 1398 4047 
Q 1172 3844 1172 3481 
z
" transform="scale(0.015625)"/>
       </defs>
       <use xlink:href="#DejaVuSans-30"/>
       <use xlink:href="#DejaVuSans-2e" x="63.623047"/>
       <use xlink:href="#DejaVuSans-38" x="95.410156"/>
      </g>
     </g>
    </g>
    <g id="ytick_6">
     <g id="line2d_38">
      <g>
       <use xlink:href="#m5c0275ce7e" x="33.18" y="15.805" style="stroke: #000000; stroke-width: 0.8"/>
      </g>
     </g>
     <g id="text_39">
      <!-- 1.0 -->
      <g transform="translate(15.047812 18.464453) scale(0.07 -0.07)">
       <defs>
        <path id="DejaVuSans-31" d="M 794 531 
L 1825 531 
L 1825 4091 
L 703 3866 
L 703 4441 
L 1819 4666 
L 2450 4666 
L 2450 531 
L 3481 531 
L 3481 0 
L 794 0 
L 794 531 
z
" transform="scale(0.015625)"/>
       </defs>
       <use xlink:href="#DejaVuSans-31"/>
       <use xlink:href="#DejaVuSans-2e" x="63.623047"/>
       <use xlink:href="#DejaVuSans-30" x="95.410156"/>
      </g>
     </g>
    </g>
    <g id="text_40">
     <!-- Success Rate -->
     <g transform="translate(9.457812 81.248057) rotate(-90) scale(0.08 -0.08)">
      <defs>
       <path id="ArialMT-75" d="M 2597 0 
L 2597 488 
Q 2209 -75 1544 -75 
Q 1250 -75 995 37 
Q 741 150 617 320 
Q 494 491 444 738 
Q 409 903 409 1263 
L 409 3319 
L 972 3319 
L 972 1478 
Q 972 1038 1006 884 
Q 1059 663 1231 536 
Q 1403 409 1656 409 
Q 1909 409 2131 539 
Q 2353 669 2445 892 
Q 2538 1116 2538 1541 
L 2538 3319 
L 3100 3319 
L 3100 0 
L 2597 0 
z
" transform="scale(0.015625)"/>
       <path id="ArialMT-63" d="M 2588 1216 
L 3141 1144 
Q 3050 572 2676 248 
Q 2303 -75 1759 -75 
Q 1078 -75 664 370 
Q 250 816 250 1647 
Q 250 2184 428 2587 
Q 606 2991 970 3192 
Q 1334 3394 1763 3394 
Q 2303 3394 2647 3120 
Q 2991 2847 3088 2344 
L 2541 2259 
Q 2463 2594 2264 2762 
Q 2066 2931 1784 2931 
Q 1359 2931 1093 2626 
Q 828 2322 828 1663 
Q 828 994 1084 691 
Q 1341 388 1753 388 
Q 2084 388 2306 591 
Q 2528 794 2588 1216 
z
" transform="scale(0.015625)"/>
       <path id="ArialMT-73" d="M 197 991 
L 753 1078 
Q 800 744 1014 566 
Q 1228 388 1613 388 
Q 2000 388 2187 545 
Q 2375 703 2375 916 
Q 2375 1106 2209 1216 
Q 2094 1291 1634 1406 
Q 1016 1563 777 1677 
Q 538 1791 414 1992 
Q 291 2194 291 2438 
Q 291 2659 392 2848 
Q 494 3038 669 3163 
Q 800 3259 1026 3326 
Q 1253 3394 1513 3394 
Q 1903 3394 2198 3281 
Q 2494 3169 2634 2976 
Q 2775 2784 2828 2463 
L 2278 2388 
Q 2241 2644 2061 2787 
Q 1881 2931 1553 2931 
Q 1166 2931 1000 2803 
Q 834 2675 834 2503 
Q 834 2394 903 2306 
Q 972 2216 1119 2156 
Q 1203 2125 1616 2013 
Q 2213 1853 2448 1751 
Q 2684 1650 2818 1456 
Q 2953 1263 2953 975 
Q 2953 694 2789 445 
Q 2625 197 2315 61 
Q 2006 -75 1616 -75 
Q 969 -75 630 194 
Q 291 463 197 991 
z
" transform="scale(0.015625)"/>
       <path id="ArialMT-20" transform="scale(0.015625)"/>
      </defs>
      <use xlink:href="#ArialMT-53"/>
      <use xlink:href="#ArialMT-75" x="66.699219"/>
      <use xlink:href="#ArialMT-63" x="122.314453"/>
      <use xlink:href="#ArialMT-63" x="172.314453"/>
      <use xlink:href="#ArialMT-65" x="222.314453"/>
      <use xlink:href="#ArialMT-73" x="277.929688"/>
      <use xlink:href="#ArialMT-73" x="327.929688"/>
      <use xlink:href="#ArialMT-20" x="377.929688"/>
      <use xlink:href="#ArialMT-52" x="405.712891"/>
      <use xlink:href="#ArialMT-61" x="477.929688"/>
      <use xlink:href="#ArialMT-74" x="533.544922"/>
      <use xlink:href="#ArialMT-65" x="561.328125"/>
     </g>
    </g>
   </g>
   <g id="patch_99">
    <path d="M 33.18 97.337364 
L 33.18 15.805 
" style="fill: none; stroke: #000000; stroke-width: 0.8; stroke-linejoin: miter; stroke-linecap: square"/>
   </g>
   <g id="patch_100">
    <path d="M 33.18 97.337364 
L 233.6 97.337364 
" style="fill: none; stroke: #000000; stroke-width: 0.8; stroke-linejoin: miter; stroke-linecap: square"/>
   </g>
   <g id="text_41">
    <!-- Success Rates per Target -->
    <g transform="translate(84.77625 9.805) scale(0.08 -0.08)">
     <defs>
      <path id="Arial-BoldMT-53" d="M 231 1491 
L 1131 1578 
Q 1213 1125 1461 912 
Q 1709 700 2131 700 
Q 2578 700 2804 889 
Q 3031 1078 3031 1331 
Q 3031 1494 2936 1608 
Q 2841 1722 2603 1806 
Q 2441 1863 1863 2006 
Q 1119 2191 819 2459 
Q 397 2838 397 3381 
Q 397 3731 595 4036 
Q 794 4341 1167 4500 
Q 1541 4659 2069 4659 
Q 2931 4659 3367 4281 
Q 3803 3903 3825 3272 
L 2900 3231 
Q 2841 3584 2645 3739 
Q 2450 3894 2059 3894 
Q 1656 3894 1428 3728 
Q 1281 3622 1281 3444 
Q 1281 3281 1419 3166 
Q 1594 3019 2269 2859 
Q 2944 2700 3267 2529 
Q 3591 2359 3773 2064 
Q 3956 1769 3956 1334 
Q 3956 941 3737 597 
Q 3519 253 3119 86 
Q 2719 -81 2122 -81 
Q 1253 -81 787 320 
Q 322 722 231 1491 
z
" transform="scale(0.015625)"/>
      <path id="Arial-BoldMT-75" d="M 2644 0 
L 2644 497 
Q 2463 231 2167 78 
Q 1872 -75 1544 -75 
Q 1209 -75 943 72 
Q 678 219 559 484 
Q 441 750 441 1219 
L 441 3319 
L 1319 3319 
L 1319 1794 
Q 1319 1094 1367 936 
Q 1416 778 1544 686 
Q 1672 594 1869 594 
Q 2094 594 2272 717 
Q 2450 841 2515 1023 
Q 2581 1206 2581 1919 
L 2581 3319 
L 3459 3319 
L 3459 0 
L 2644 0 
z
" transform="scale(0.015625)"/>
      <path id="Arial-BoldMT-63" d="M 3353 2338 
L 2488 2181 
Q 2444 2441 2289 2572 
Q 2134 2703 1888 2703 
Q 1559 2703 1364 2476 
Q 1169 2250 1169 1719 
Q 1169 1128 1367 884 
Q 1566 641 1900 641 
Q 2150 641 2309 783 
Q 2469 925 2534 1272 
L 3397 1125 
Q 3263 531 2881 228 
Q 2500 -75 1859 -75 
Q 1131 -75 698 384 
Q 266 844 266 1656 
Q 266 2478 700 2936 
Q 1134 3394 1875 3394 
Q 2481 3394 2839 3133 
Q 3197 2872 3353 2338 
z
" transform="scale(0.015625)"/>
      <path id="Arial-BoldMT-65" d="M 2381 1056 
L 3256 909 
Q 3088 428 2723 176 
Q 2359 -75 1813 -75 
Q 947 -75 531 491 
Q 203 944 203 1634 
Q 203 2459 634 2926 
Q 1066 3394 1725 3394 
Q 2466 3394 2894 2905 
Q 3322 2416 3303 1406 
L 1103 1406 
Q 1113 1016 1316 798 
Q 1519 581 1822 581 
Q 2028 581 2168 693 
Q 2309 806 2381 1056 
z
M 2431 1944 
Q 2422 2325 2234 2523 
Q 2047 2722 1778 2722 
Q 1491 2722 1303 2513 
Q 1116 2303 1119 1944 
L 2431 1944 
z
" transform="scale(0.015625)"/>
      <path id="Arial-BoldMT-73" d="M 150 947 
L 1031 1081 
Q 1088 825 1259 692 
Q 1431 559 1741 559 
Q 2081 559 2253 684 
Q 2369 772 2369 919 
Q 2369 1019 2306 1084 
Q 2241 1147 2013 1200 
Q 950 1434 666 1628 
Q 272 1897 272 2375 
Q 272 2806 612 3100 
Q 953 3394 1669 3394 
Q 2350 3394 2681 3172 
Q 3013 2950 3138 2516 
L 2309 2363 
Q 2256 2556 2107 2659 
Q 1959 2763 1684 2763 
Q 1338 2763 1188 2666 
Q 1088 2597 1088 2488 
Q 1088 2394 1175 2328 
Q 1294 2241 1995 2081 
Q 2697 1922 2975 1691 
Q 3250 1456 3250 1038 
Q 3250 581 2869 253 
Q 2488 -75 1741 -75 
Q 1063 -75 667 200 
Q 272 475 150 947 
z
" transform="scale(0.015625)"/>
      <path id="Arial-BoldMT-20" transform="scale(0.015625)"/>
      <path id="Arial-BoldMT-52" d="M 469 0 
L 469 4581 
L 2416 4581 
Q 3150 4581 3483 4457 
Q 3816 4334 4016 4018 
Q 4216 3703 4216 3297 
Q 4216 2781 3912 2445 
Q 3609 2109 3006 2022 
Q 3306 1847 3501 1637 
Q 3697 1428 4028 894 
L 4588 0 
L 3481 0 
L 2813 997 
Q 2456 1531 2325 1670 
Q 2194 1809 2047 1861 
Q 1900 1913 1581 1913 
L 1394 1913 
L 1394 0 
L 469 0 
z
M 1394 2644 
L 2078 2644 
Q 2744 2644 2909 2700 
Q 3075 2756 3169 2893 
Q 3263 3031 3263 3238 
Q 3263 3469 3139 3611 
Q 3016 3753 2791 3791 
Q 2678 3806 2116 3806 
L 1394 3806 
L 1394 2644 
z
" transform="scale(0.015625)"/>
      <path id="Arial-BoldMT-61" d="M 1116 2306 
L 319 2450 
Q 453 2931 781 3162 
Q 1109 3394 1756 3394 
Q 2344 3394 2631 3255 
Q 2919 3116 3036 2902 
Q 3153 2688 3153 2116 
L 3144 1091 
Q 3144 653 3186 445 
Q 3228 238 3344 0 
L 2475 0 
Q 2441 88 2391 259 
Q 2369 338 2359 363 
Q 2134 144 1878 34 
Q 1622 -75 1331 -75 
Q 819 -75 523 203 
Q 228 481 228 906 
Q 228 1188 362 1408 
Q 497 1628 739 1745 
Q 981 1863 1438 1950 
Q 2053 2066 2291 2166 
L 2291 2253 
Q 2291 2506 2166 2614 
Q 2041 2722 1694 2722 
Q 1459 2722 1328 2630 
Q 1197 2538 1116 2306 
z
M 2291 1594 
Q 2122 1538 1756 1459 
Q 1391 1381 1278 1306 
Q 1106 1184 1106 997 
Q 1106 813 1243 678 
Q 1381 544 1594 544 
Q 1831 544 2047 700 
Q 2206 819 2256 991 
Q 2291 1103 2291 1419 
L 2291 1594 
z
" transform="scale(0.015625)"/>
      <path id="Arial-BoldMT-74" d="M 1981 3319 
L 1981 2619 
L 1381 2619 
L 1381 1281 
Q 1381 875 1398 808 
Q 1416 741 1477 697 
Q 1538 653 1625 653 
Q 1747 653 1978 738 
L 2053 56 
Q 1747 -75 1359 -75 
Q 1122 -75 931 4 
Q 741 84 652 211 
Q 563 338 528 553 
Q 500 706 500 1172 
L 500 2619 
L 97 2619 
L 97 3319 
L 500 3319 
L 500 3978 
L 1381 4491 
L 1381 3319 
L 1981 3319 
z
" transform="scale(0.015625)"/>
      <path id="Arial-BoldMT-70" d="M 434 3319 
L 1253 3319 
L 1253 2831 
Q 1413 3081 1684 3237 
Q 1956 3394 2288 3394 
Q 2866 3394 3269 2941 
Q 3672 2488 3672 1678 
Q 3672 847 3265 386 
Q 2859 -75 2281 -75 
Q 2006 -75 1782 34 
Q 1559 144 1313 409 
L 1313 -1263 
L 434 -1263 
L 434 3319 
z
M 1303 1716 
Q 1303 1156 1525 889 
Q 1747 622 2066 622 
Q 2372 622 2575 867 
Q 2778 1113 2778 1672 
Q 2778 2194 2568 2447 
Q 2359 2700 2050 2700 
Q 1728 2700 1515 2451 
Q 1303 2203 1303 1716 
z
" transform="scale(0.015625)"/>
      <path id="Arial-BoldMT-72" d="M 1300 0 
L 422 0 
L 422 3319 
L 1238 3319 
L 1238 2847 
Q 1447 3181 1614 3287 
Q 1781 3394 1994 3394 
Q 2294 3394 2572 3228 
L 2300 2463 
Q 2078 2606 1888 2606 
Q 1703 2606 1575 2504 
Q 1447 2403 1373 2137 
Q 1300 1872 1300 1025 
L 1300 0 
z
" transform="scale(0.015625)"/>
      <path id="Arial-BoldMT-54" d="M 1497 0 
L 1497 3806 
L 138 3806 
L 138 4581 
L 3778 4581 
L 3778 3806 
L 2422 3806 
L 2422 0 
L 1497 0 
z
" transform="scale(0.015625)"/>
      <path id="Arial-BoldMT-67" d="M 378 -219 
L 1381 -341 
Q 1406 -516 1497 -581 
Q 1622 -675 1891 -675 
Q 2234 -675 2406 -572 
Q 2522 -503 2581 -350 
Q 2622 -241 2622 53 
L 2622 538 
Q 2228 0 1628 0 
Q 959 0 569 566 
Q 263 1013 263 1678 
Q 263 2513 664 2953 
Q 1066 3394 1663 3394 
Q 2278 3394 2678 2853 
L 2678 3319 
L 3500 3319 
L 3500 341 
Q 3500 -247 3403 -537 
Q 3306 -828 3131 -993 
Q 2956 -1159 2664 -1253 
Q 2372 -1347 1925 -1347 
Q 1081 -1347 728 -1058 
Q 375 -769 375 -325 
Q 375 -281 378 -219 
z
M 1163 1728 
Q 1163 1200 1367 954 
Q 1572 709 1872 709 
Q 2194 709 2416 961 
Q 2638 1213 2638 1706 
Q 2638 2222 2425 2472 
Q 2213 2722 1888 2722 
Q 1572 2722 1367 2476 
Q 1163 2231 1163 1728 
z
" transform="scale(0.015625)"/>
     </defs>
     <use xlink:href="#Arial-BoldMT-53"/>
     <use xlink:href="#Arial-BoldMT-75" x="66.699219"/>
     <use xlink:href="#Arial-BoldMT-63" x="127.783203"/>
     <use xlink:href="#Arial-BoldMT-63" x="183.398438"/>
     <use xlink:href="#Arial-BoldMT-65" x="239.013672"/>
     <use xlink:href="#Arial-BoldMT-73" x="294.628906"/>
     <use xlink:href="#Arial-BoldMT-73" x="350.244141"/>
     <use xlink:href="#Arial-BoldMT-20" x="405.859375"/>
     <use xlink:href="#Arial-BoldMT-52" x="433.642578"/>
     <use xlink:href="#Arial-BoldMT-61" x="505.859375"/>
     <use xlink:href="#Arial-BoldMT-74" x="561.474609"/>
     <use xlink:href="#Arial-BoldMT-65" x="594.775391"/>
     <use xlink:href="#Arial-BoldMT-73" x="650.390625"/>
     <use xlink:href="#Arial-BoldMT-20" x="706.005859"/>
     <use xlink:href="#Arial-BoldMT-70" x="733.789062"/>
     <use xlink:href="#Arial-BoldMT-65" x="794.873047"/>
     <use xlink:href="#Arial-BoldMT-72" x="850.488281"/>
     <use xlink:href="#Arial-BoldMT-20" x="889.404297"/>
     <use xlink:href="#Arial-BoldMT-54" x="917.1875"/>
     <use xlink:href="#Arial-BoldMT-61" x="970.896484"/>
     <use xlink:href="#Arial-BoldMT-72" x="1026.511719"/>
     <use xlink:href="#Arial-BoldMT-67" x="1065.427734"/>
     <use xlink:href="#Arial-BoldMT-65" x="1126.511719"/>
     <use xlink:href="#Arial-BoldMT-74" x="1182.126953"/>
    </g>
   </g>
   <g id="legend_1">
    <g id="patch_101">
     <path d="M 38.58 50.625625 
L 78.864375 50.625625 
Q 80.064375 50.625625 80.064375 49.425625 
L 80.064375 21.205 
Q 80.064375 20.005 78.864375 20.005 
L 38.58 20.005 
Q 37.38 20.005 37.38 21.205 
L 37.38 49.425625 
Q 37.38 50.625625 38.58 50.625625 
z
" style="fill: #ffffff; stroke: #000000; stroke-linejoin: miter"/>
    </g>
    <g id="patch_102">
     <path d="M 40.98 28.164062 
L 49.98 28.164062 
L 49.98 23.964062 
L 40.98 23.964062 
z
" style="fill: #1f77b4; stroke: #000000; stroke-width: 0.35; stroke-linejoin: miter"/>
    </g>
    <g id="text_42">
     <!-- CCDC -->
     <g transform="translate(54.78 28.164062) scale(0.06 -0.06)">
      <defs>
       <path id="DejaVuSans-43" d="M 4122 4306 
L 4122 3641 
Q 3803 3938 3442 4084 
Q 3081 4231 2675 4231 
Q 1875 4231 1450 3742 
Q 1025 3253 1025 2328 
Q 1025 1406 1450 917 
Q 1875 428 2675 428 
Q 3081 428 3442 575 
Q 3803 722 4122 1019 
L 4122 359 
Q 3791 134 3420 21 
Q 3050 -91 2638 -91 
Q 1578 -91 968 557 
Q 359 1206 359 2328 
Q 359 3453 968 4101 
Q 1578 4750 2638 4750 
Q 3056 4750 3426 4639 
Q 3797 4528 4122 4306 
z
" transform="scale(0.015625)"/>
       <path id="DejaVuSans-44" d="M 1259 4147 
L 1259 519 
L 2022 519 
Q 2988 519 3436 956 
Q 3884 1394 3884 2338 
Q 3884 3275 3436 3711 
Q 2988 4147 2022 4147 
L 1259 4147 
z
M 628 4666 
L 1925 4666 
Q 3281 4666 3915 4102 
Q 4550 3538 4550 2338 
Q 4550 1131 3912 565 
Q 3275 0 1925 0 
L 628 0 
L 628 4666 
z
" transform="scale(0.015625)"/>
      </defs>
      <use xlink:href="#DejaVuSans-43"/>
      <use xlink:href="#DejaVuSans-43" x="69.824219"/>
      <use xlink:href="#DejaVuSans-44" x="139.648438"/>
      <use xlink:href="#DejaVuSans-43" x="216.650391"/>
     </g>
    </g>
    <g id="patch_103">
     <path d="M 40.98 36.970937 
L 49.98 36.970937 
L 49.98 32.770937 
L 40.98 32.770937 
z
" style="fill: #ff7f0e; stroke: #000000; stroke-width: 0.35; stroke-linejoin: miter"/>
    </g>
    <g id="text_43">
     <!-- RDKit -->
     <g transform="translate(54.78 36.970937) scale(0.06 -0.06)">
      <defs>
       <path id="DejaVuSans-52" d="M 2841 2188 
Q 3044 2119 3236 1894 
Q 3428 1669 3622 1275 
L 4263 0 
L 3584 0 
L 2988 1197 
Q 2756 1666 2539 1819 
Q 2322 1972 1947 1972 
L 1259 1972 
L 1259 0 
L 628 0 
L 628 4666 
L 2053 4666 
Q 2853 4666 3247 4331 
Q 3641 3997 3641 3322 
Q 3641 2881 3436 2590 
Q 3231 2300 2841 2188 
z
M 1259 4147 
L 1259 2491 
L 2053 2491 
Q 2509 2491 2742 2702 
Q 2975 2913 2975 3322 
Q 2975 3731 2742 3939 
Q 2509 4147 2053 4147 
L 1259 4147 
z
" transform="scale(0.015625)"/>
       <path id="DejaVuSans-4b" d="M 628 4666 
L 1259 4666 
L 1259 2694 
L 3353 4666 
L 4166 4666 
L 1850 2491 
L 4331 0 
L 3500 0 
L 1259 2247 
L 1259 0 
L 628 0 
L 628 4666 
z
" transform="scale(0.015625)"/>
       <path id="DejaVuSans-69" d="M 603 3500 
L 1178 3500 
L 1178 0 
L 603 0 
L 603 3500 
z
M 603 4863 
L 1178 4863 
L 1178 4134 
L 603 4134 
L 603 4863 
z
" transform="scale(0.015625)"/>
       <path id="DejaVuSans-74" d="M 1172 4494 
L 1172 3500 
L 2356 3500 
L 2356 3053 
L 1172 3053 
L 1172 1153 
Q 1172 725 1289 603 
Q 1406 481 1766 481 
L 2356 481 
L 2356 0 
L 1766 0 
Q 1100 0 847 248 
Q 594 497 594 1153 
L 594 3053 
L 172 3053 
L 172 3500 
L 594 3500 
L 594 4494 
L 1172 4494 
z
" transform="scale(0.015625)"/>
      </defs>
      <use xlink:href="#DejaVuSans-52"/>
      <use xlink:href="#DejaVuSans-44" x="69.482422"/>
      <use xlink:href="#DejaVuSans-4b" x="146.484375"/>
      <use xlink:href="#DejaVuSans-69" x="212.060547"/>
      <use xlink:href="#DejaVuSans-74" x="239.84375"/>
     </g>
    </g>
    <g id="patch_104">
     <path d="M 40.98 45.777812 
L 49.98 45.777812 
L 49.98 41.577812 
L 40.98 41.577812 
z
" style="fill: #2ca02c; stroke: #000000; stroke-width: 0.35; stroke-linejoin: miter"/>
    </g>
    <g id="text_44">
     <!-- OBabel -->
     <g transform="translate(54.78 45.777812) scale(0.06 -0.06)">
      <defs>
       <path id="DejaVuSans-4f" d="M 2522 4238 
Q 1834 4238 1429 3725 
Q 1025 3213 1025 2328 
Q 1025 1447 1429 934 
Q 1834 422 2522 422 
Q 3209 422 3611 934 
Q 4013 1447 4013 2328 
Q 4013 3213 3611 3725 
Q 3209 4238 2522 4238 
z
M 2522 4750 
Q 3503 4750 4090 4092 
Q 4678 3434 4678 2328 
Q 4678 1225 4090 567 
Q 3503 -91 2522 -91 
Q 1538 -91 948 565 
Q 359 1222 359 2328 
Q 359 3434 948 4092 
Q 1538 4750 2522 4750 
z
" transform="scale(0.015625)"/>
       <path id="DejaVuSans-42" d="M 1259 2228 
L 1259 519 
L 2272 519 
Q 2781 519 3026 730 
Q 3272 941 3272 1375 
Q 3272 1813 3026 2020 
Q 2781 2228 2272 2228 
L 1259 2228 
z
M 1259 4147 
L 1259 2741 
L 2194 2741 
Q 2656 2741 2882 2914 
Q 3109 3088 3109 3444 
Q 3109 3797 2882 3972 
Q 2656 4147 2194 4147 
L 1259 4147 
z
M 628 4666 
L 2241 4666 
Q 2963 4666 3353 4366 
Q 3744 4066 3744 3513 
Q 3744 3084 3544 2831 
Q 3344 2578 2956 2516 
Q 3422 2416 3680 2098 
Q 3938 1781 3938 1306 
Q 3938 681 3513 340 
Q 3088 0 2303 0 
L 628 0 
L 628 4666 
z
" transform="scale(0.015625)"/>
       <path id="DejaVuSans-61" d="M 2194 1759 
Q 1497 1759 1228 1600 
Q 959 1441 959 1056 
Q 959 750 1161 570 
Q 1363 391 1709 391 
Q 2188 391 2477 730 
Q 2766 1069 2766 1631 
L 2766 1759 
L 2194 1759 
z
M 3341 1997 
L 3341 0 
L 2766 0 
L 2766 531 
Q 2569 213 2275 61 
Q 1981 -91 1556 -91 
Q 1019 -91 701 211 
Q 384 513 384 1019 
Q 384 1609 779 1909 
Q 1175 2209 1959 2209 
L 2766 2209 
L 2766 2266 
Q 2766 2663 2505 2880 
Q 2244 3097 1772 3097 
Q 1472 3097 1187 3025 
Q 903 2953 641 2809 
L 641 3341 
Q 956 3463 1253 3523 
Q 1550 3584 1831 3584 
Q 2591 3584 2966 3190 
Q 3341 2797 3341 1997 
z
" transform="scale(0.015625)"/>
       <path id="DejaVuSans-62" d="M 3116 1747 
Q 3116 2381 2855 2742 
Q 2594 3103 2138 3103 
Q 1681 3103 1420 2742 
Q 1159 2381 1159 1747 
Q 1159 1113 1420 752 
Q 1681 391 2138 391 
Q 2594 391 2855 752 
Q 3116 1113 3116 1747 
z
M 1159 2969 
Q 1341 3281 1617 3432 
Q 1894 3584 2278 3584 
Q 2916 3584 3314 3078 
Q 3713 2572 3713 1747 
Q 3713 922 3314 415 
Q 2916 -91 2278 -91 
Q 1894 -91 1617 61 
Q 1341 213 1159 525 
L 1159 0 
L 581 0 
L 581 4863 
L 1159 4863 
L 1159 2969 
z
" transform="scale(0.015625)"/>
       <path id="DejaVuSans-65" d="M 3597 1894 
L 3597 1613 
L 953 1613 
Q 991 1019 1311 708 
Q 1631 397 2203 397 
Q 2534 397 2845 478 
Q 3156 559 3463 722 
L 3463 178 
Q 3153 47 2828 -22 
Q 2503 -91 2169 -91 
Q 1331 -91 842 396 
Q 353 884 353 1716 
Q 353 2575 817 3079 
Q 1281 3584 2069 3584 
Q 2775 3584 3186 3129 
Q 3597 2675 3597 1894 
z
M 3022 2063 
Q 3016 2534 2758 2815 
Q 2500 3097 2075 3097 
Q 1594 3097 1305 2825 
Q 1016 2553 972 2059 
L 3022 2063 
z
" transform="scale(0.015625)"/>
       <path id="DejaVuSans-6c" d="M 603 4863 
L 1178 4863 
L 1178 0 
L 603 0 
L 603 4863 
z
" transform="scale(0.015625)"/>
      </defs>
      <use xlink:href="#DejaVuSans-4f"/>
      <use xlink:href="#DejaVuSans-42" x="78.710938"/>
      <use xlink:href="#DejaVuSans-61" x="147.314453"/>
      <use xlink:href="#DejaVuSans-62" x="208.59375"/>
      <use xlink:href="#DejaVuSans-65" x="272.070312"/>
      <use xlink:href="#DejaVuSans-6c" x="333.59375"/>
     </g>
    </g>
   </g>
  </g>
 </g>
 <defs>
  <clipPath id="p475fd4e9a0">
   <rect x="33.18" y="15.805" width="200.42" height="81.532364"/>
  </clipPath>
 </defs>
</svg>
