<?xml version="1.0" encoding="utf-8" standalone="no"?>
<!DOCTYPE svg PUBLIC "-//W3C//DTD SVG 1.1//EN"
  "http://www.w3.org/Graphics/SVG/1.1/DTD/svg11.dtd">
<svg xmlns:xlink="http://www.w3.org/1999/xlink" width="498.96pt" height="237.6pt" viewBox="0 0 498.96 237.6" xmlns="http://www.w3.org/2000/svg" version="1.1">
 <metadata>
  <rdf:RDF xmlns:dc="http://purl.org/dc/elements/1.1/" xmlns:cc="http://creativecommons.org/ns#" xmlns:rdf="http://www.w3.org/1999/02/22-rdf-syntax-ns#">
   <cc:Work>
    <dc:type rdf:resource="http://purl.org/dc/dcmitype/StillImage"/>
    <dc:date>2025-06-30T11:57:07.659220</dc:date>
    <dc:format>image/svg+xml</dc:format>
    <dc:creator>
     <cc:Agent>
      <dc:title>Matplotlib v3.9.2, https://matplotlib.org/</dc:title>
     </cc:Agent>
    </dc:creator>
   </cc:Work>
  </rdf:RDF>
 </metadata>
 <defs>
  <style type="text/css">*{stroke-linejoin: round; stroke-linecap: butt}</style>
 </defs>
 <g id="figure_1">
  <g id="patch_1">
   <path d="M 0 237.6 
L 498.96 237.6 
L 498.96 0 
L 0 0 
z
" style="fill: #ffffff"/>
  </g>
  <g id="axes_1">
   <g id="patch_2">
    <path d="M 38.8825 176.520201 
L 493.96 176.520201 
L 493.96 17.78375 
L 38.8825 17.78375 
z
" style="fill: #ffffff"/>
   </g>
   <g id="matplotlib.axis_1">
    <g id="xtick_1">
     <g id="line2d_1">
      <defs>
       <path id="mc32fd18a88" d="M 0 0 
L 0 3.5 
" style="stroke: #000000; stroke-width: 0.8"/>
      </defs>
      <g>
       <use xlink:href="#mc32fd18a88" x="46.176623" y="176.520201" style="stroke: #000000; stroke-width: 0.8"/>
      </g>
     </g>
     <g id="text_1">
      <!-- ABAHIW -->
      <g transform="translate(27.909403 209.885562) rotate(-45) scale(0.08 -0.08)">
       <defs>
        <path id="ArialMT-41" d="M -9 0 
L 1750 4581 
L 2403 4581 
L 4278 0 
L 3588 0 
L 3053 1388 
L 1138 1388 
L 634 0 
L -9 0 
z
M 1313 1881 
L 2866 1881 
L 2388 3150 
Q 2169 3728 2063 4100 
Q 1975 3659 1816 3225 
L 1313 1881 
z
" transform="scale(0.015625)"/>
        <path id="ArialMT-42" d="M 469 0 
L 469 4581 
L 2188 4581 
Q 2713 4581 3030 4442 
Q 3347 4303 3526 4014 
Q 3706 3725 3706 3409 
Q 3706 3116 3547 2856 
Q 3388 2597 3066 2438 
Q 3481 2316 3704 2022 
Q 3928 1728 3928 1328 
Q 3928 1006 3792 729 
Q 3656 453 3456 303 
Q 3256 153 2954 76 
Q 2653 0 2216 0 
L 469 0 
z
M 1075 2656 
L 2066 2656 
Q 2469 2656 2644 2709 
Q 2875 2778 2992 2937 
Q 3109 3097 3109 3338 
Q 3109 3566 3000 3739 
Q 2891 3913 2687 3977 
Q 2484 4041 1991 4041 
L 1075 4041 
L 1075 2656 
z
M 1075 541 
L 2216 541 
Q 2509 541 2628 563 
Q 2838 600 2978 687 
Q 3119 775 3209 942 
Q 3300 1109 3300 1328 
Q 3300 1584 3169 1773 
Q 3038 1963 2805 2039 
Q 2572 2116 2134 2116 
L 1075 2116 
L 1075 541 
z
" transform="scale(0.015625)"/>
        <path id="ArialMT-48" d="M 513 0 
L 513 4581 
L 1119 4581 
L 1119 2700 
L 3500 2700 
L 3500 4581 
L 4106 4581 
L 4106 0 
L 3500 0 
L 3500 2159 
L 1119 2159 
L 1119 0 
L 513 0 
z
" transform="scale(0.015625)"/>
        <path id="ArialMT-49" d="M 597 0 
L 597 4581 
L 1203 4581 
L 1203 0 
L 597 0 
z
" transform="scale(0.015625)"/>
        <path id="ArialMT-57" d="M 1294 0 
L 78 4581 
L 700 4581 
L 1397 1578 
Q 1509 1106 1591 641 
Q 1766 1375 1797 1488 
L 2669 4581 
L 3400 4581 
L 4056 2263 
Q 4303 1400 4413 641 
Q 4500 1075 4641 1638 
L 5359 4581 
L 5969 4581 
L 4713 0 
L 4128 0 
L 3163 3491 
Q 3041 3928 3019 4028 
Q 2947 3713 2884 3491 
L 1913 0 
L 1294 0 
z
" transform="scale(0.015625)"/>
       </defs>
       <use xlink:href="#ArialMT-41"/>
       <use xlink:href="#ArialMT-42" x="66.699219"/>
       <use xlink:href="#ArialMT-41" x="133.398438"/>
       <use xlink:href="#ArialMT-48" x="200.097656"/>
       <use xlink:href="#ArialMT-49" x="272.314453"/>
       <use xlink:href="#ArialMT-57" x="300.097656"/>
      </g>
     </g>
    </g>
    <g id="xtick_2">
     <g id="line2d_2">
      <g>
       <use xlink:href="#mc32fd18a88" x="60.385954" y="176.520201" style="stroke: #000000; stroke-width: 0.8"/>
      </g>
     </g>
     <g id="text_2">
      <!-- ABAKIZ -->
      <g transform="translate(44.315185 207.689111) rotate(-45) scale(0.08 -0.08)">
       <defs>
        <path id="ArialMT-4b" d="M 469 0 
L 469 4581 
L 1075 4581 
L 1075 2309 
L 3350 4581 
L 4172 4581 
L 2250 2725 
L 4256 0 
L 3456 0 
L 1825 2319 
L 1075 1588 
L 1075 0 
L 469 0 
z
" transform="scale(0.015625)"/>
        <path id="ArialMT-5a" d="M 128 0 
L 128 563 
L 2475 3497 
Q 2725 3809 2950 4041 
L 394 4041 
L 394 4581 
L 3675 4581 
L 3675 4041 
L 1103 863 
L 825 541 
L 3750 541 
L 3750 0 
L 128 0 
z
" transform="scale(0.015625)"/>
       </defs>
       <use xlink:href="#ArialMT-41"/>
       <use xlink:href="#ArialMT-42" x="66.699219"/>
       <use xlink:href="#ArialMT-41" x="133.398438"/>
       <use xlink:href="#ArialMT-4b" x="200.097656"/>
       <use xlink:href="#ArialMT-49" x="266.796875"/>
       <use xlink:href="#ArialMT-5a" x="294.580078"/>
      </g>
     </g>
    </g>
    <g id="xtick_3">
     <g id="line2d_3">
      <g>
       <use xlink:href="#mc32fd18a88" x="74.595285" y="176.520201" style="stroke: #000000; stroke-width: 0.8"/>
      </g>
     </g>
     <g id="text_3">
      <!-- ABADOX -->
      <g transform="translate(55.065879 211.147747) rotate(-45) scale(0.08 -0.08)">
       <defs>
        <path id="ArialMT-44" d="M 494 0 
L 494 4581 
L 2072 4581 
Q 2606 4581 2888 4516 
Q 3281 4425 3559 4188 
Q 3922 3881 4101 3404 
Q 4281 2928 4281 2316 
Q 4281 1794 4159 1391 
Q 4038 988 3847 723 
Q 3656 459 3429 307 
Q 3203 156 2883 78 
Q 2563 0 2147 0 
L 494 0 
z
M 1100 541 
L 2078 541 
Q 2531 541 2789 625 
Q 3047 709 3200 863 
Q 3416 1078 3536 1442 
Q 3656 1806 3656 2325 
Q 3656 3044 3420 3430 
Q 3184 3816 2847 3947 
Q 2603 4041 2063 4041 
L 1100 4041 
L 1100 541 
z
" transform="scale(0.015625)"/>
        <path id="ArialMT-4f" d="M 309 2231 
Q 309 3372 921 4017 
Q 1534 4663 2503 4663 
Q 3138 4663 3647 4359 
Q 4156 4056 4423 3514 
Q 4691 2972 4691 2284 
Q 4691 1588 4409 1038 
Q 4128 488 3612 205 
Q 3097 -78 2500 -78 
Q 1853 -78 1343 234 
Q 834 547 571 1087 
Q 309 1628 309 2231 
z
M 934 2222 
Q 934 1394 1379 917 
Q 1825 441 2497 441 
Q 3181 441 3623 922 
Q 4066 1403 4066 2288 
Q 4066 2847 3877 3264 
Q 3688 3681 3323 3911 
Q 2959 4141 2506 4141 
Q 1863 4141 1398 3698 
Q 934 3256 934 2222 
z
" transform="scale(0.015625)"/>
        <path id="ArialMT-58" d="M 28 0 
L 1800 2388 
L 238 4581 
L 959 4581 
L 1791 3406 
Q 2050 3041 2159 2844 
Q 2313 3094 2522 3366 
L 3444 4581 
L 4103 4581 
L 2494 2422 
L 4228 0 
L 3478 0 
L 2325 1634 
Q 2228 1775 2125 1941 
Q 1972 1691 1906 1597 
L 756 0 
L 28 0 
z
" transform="scale(0.015625)"/>
       </defs>
       <use xlink:href="#ArialMT-41"/>
       <use xlink:href="#ArialMT-42" x="66.699219"/>
       <use xlink:href="#ArialMT-41" x="133.398438"/>
       <use xlink:href="#ArialMT-44" x="200.097656"/>
       <use xlink:href="#ArialMT-4f" x="272.314453"/>
       <use xlink:href="#ArialMT-58" x="350.097656"/>
      </g>
     </g>
    </g>
    <g id="xtick_4">
     <g id="line2d_4">
      <g>
       <use xlink:href="#mc32fd18a88" x="88.804615" y="176.520201" style="stroke: #000000; stroke-width: 0.8"/>
      </g>
     </g>
     <g id="text_4">
      <!-- ABABIP -->
      <g transform="translate(72.415648 208.007309) rotate(-45) scale(0.08 -0.08)">
       <defs>
        <path id="ArialMT-50" d="M 494 0 
L 494 4581 
L 2222 4581 
Q 2678 4581 2919 4538 
Q 3256 4481 3484 4323 
Q 3713 4166 3852 3881 
Q 3991 3597 3991 3256 
Q 3991 2672 3619 2267 
Q 3247 1863 2275 1863 
L 1100 1863 
L 1100 0 
L 494 0 
z
M 1100 2403 
L 2284 2403 
Q 2872 2403 3119 2622 
Q 3366 2841 3366 3238 
Q 3366 3525 3220 3729 
Q 3075 3934 2838 4000 
Q 2684 4041 2272 4041 
L 1100 4041 
L 1100 2403 
z
" transform="scale(0.015625)"/>
       </defs>
       <use xlink:href="#ArialMT-41"/>
       <use xlink:href="#ArialMT-42" x="66.699219"/>
       <use xlink:href="#ArialMT-41" x="133.398438"/>
       <use xlink:href="#ArialMT-42" x="200.097656"/>
       <use xlink:href="#ArialMT-49" x="266.796875"/>
       <use xlink:href="#ArialMT-50" x="294.580078"/>
      </g>
     </g>
    </g>
    <g id="xtick_5">
     <g id="line2d_5">
      <g>
       <use xlink:href="#mc32fd18a88" x="103.013946" y="176.520201" style="stroke: #000000; stroke-width: 0.8"/>
      </g>
     </g>
     <g id="text_5">
      <!-- GASQOK -->
      <g transform="translate(82.543205 212.089083) rotate(-45) scale(0.08 -0.08)">
       <defs>
        <path id="ArialMT-47" d="M 2638 1797 
L 2638 2334 
L 4578 2338 
L 4578 638 
Q 4131 281 3656 101 
Q 3181 -78 2681 -78 
Q 2006 -78 1454 211 
Q 903 500 622 1047 
Q 341 1594 341 2269 
Q 341 2938 620 3517 
Q 900 4097 1425 4378 
Q 1950 4659 2634 4659 
Q 3131 4659 3532 4498 
Q 3934 4338 4162 4050 
Q 4391 3763 4509 3300 
L 3963 3150 
Q 3859 3500 3706 3700 
Q 3553 3900 3268 4020 
Q 2984 4141 2638 4141 
Q 2222 4141 1919 4014 
Q 1616 3888 1430 3681 
Q 1244 3475 1141 3228 
Q 966 2803 966 2306 
Q 966 1694 1177 1281 
Q 1388 869 1791 669 
Q 2194 469 2647 469 
Q 3041 469 3416 620 
Q 3791 772 3984 944 
L 3984 1797 
L 2638 1797 
z
" transform="scale(0.015625)"/>
        <path id="ArialMT-53" d="M 288 1472 
L 859 1522 
Q 900 1178 1048 958 
Q 1197 738 1509 602 
Q 1822 466 2213 466 
Q 2559 466 2825 569 
Q 3091 672 3220 851 
Q 3350 1031 3350 1244 
Q 3350 1459 3225 1620 
Q 3100 1781 2813 1891 
Q 2628 1963 1997 2114 
Q 1366 2266 1113 2400 
Q 784 2572 623 2826 
Q 463 3081 463 3397 
Q 463 3744 659 4045 
Q 856 4347 1234 4503 
Q 1613 4659 2075 4659 
Q 2584 4659 2973 4495 
Q 3363 4331 3572 4012 
Q 3781 3694 3797 3291 
L 3216 3247 
Q 3169 3681 2898 3903 
Q 2628 4125 2100 4125 
Q 1550 4125 1298 3923 
Q 1047 3722 1047 3438 
Q 1047 3191 1225 3031 
Q 1400 2872 2139 2705 
Q 2878 2538 3153 2413 
Q 3553 2228 3743 1945 
Q 3934 1663 3934 1294 
Q 3934 928 3725 604 
Q 3516 281 3123 101 
Q 2731 -78 2241 -78 
Q 1619 -78 1198 103 
Q 778 284 539 648 
Q 300 1013 288 1472 
z
" transform="scale(0.015625)"/>
        <path id="ArialMT-51" d="M 3966 491 
Q 4388 200 4744 66 
L 4566 -356 
Q 4072 -178 3581 206 
Q 3072 -78 2456 -78 
Q 1834 -78 1328 222 
Q 822 522 548 1065 
Q 275 1609 275 2291 
Q 275 2969 550 3525 
Q 825 4081 1333 4372 
Q 1841 4663 2469 4663 
Q 3103 4663 3612 4361 
Q 4122 4059 4389 3517 
Q 4656 2975 4656 2294 
Q 4656 1728 4484 1276 
Q 4313 825 3966 491 
z
M 2631 1266 
Q 3156 1119 3497 828 
Q 4031 1316 4031 2294 
Q 4031 2850 3842 3265 
Q 3653 3681 3289 3911 
Q 2925 4141 2472 4141 
Q 1794 4141 1347 3677 
Q 900 3213 900 2291 
Q 900 1397 1342 919 
Q 1784 441 2472 441 
Q 2797 441 3084 563 
Q 2800 747 2484 825 
L 2631 1266 
z
" transform="scale(0.015625)"/>
       </defs>
       <use xlink:href="#ArialMT-47"/>
       <use xlink:href="#ArialMT-41" x="77.783203"/>
       <use xlink:href="#ArialMT-53" x="144.482422"/>
       <use xlink:href="#ArialMT-51" x="211.181641"/>
       <use xlink:href="#ArialMT-4f" x="288.964844"/>
       <use xlink:href="#ArialMT-4b" x="366.748047"/>
      </g>
     </g>
    </g>
    <g id="xtick_6">
     <g id="line2d_6">
      <g>
       <use xlink:href="#mc32fd18a88" x="117.223277" y="176.520201" style="stroke: #000000; stroke-width: 0.8"/>
      </g>
     </g>
     <g id="text_6">
      <!-- ABEKIE -->
      <g transform="translate(100.83431 208.007309) rotate(-45) scale(0.08 -0.08)">
       <defs>
        <path id="ArialMT-45" d="M 506 0 
L 506 4581 
L 3819 4581 
L 3819 4041 
L 1113 4041 
L 1113 2638 
L 3647 2638 
L 3647 2100 
L 1113 2100 
L 1113 541 
L 3925 541 
L 3925 0 
L 506 0 
z
" transform="scale(0.015625)"/>
       </defs>
       <use xlink:href="#ArialMT-41"/>
       <use xlink:href="#ArialMT-42" x="66.699219"/>
       <use xlink:href="#ArialMT-45" x="133.398438"/>
       <use xlink:href="#ArialMT-4b" x="200.097656"/>
       <use xlink:href="#ArialMT-49" x="266.796875"/>
       <use xlink:href="#ArialMT-45" x="294.580078"/>
      </g>
     </g>
    </g>
    <g id="xtick_7">
     <g id="line2d_7">
      <g>
       <use xlink:href="#mc32fd18a88" x="131.432608" y="176.520201" style="stroke: #000000; stroke-width: 0.8"/>
      </g>
     </g>
     <g id="text_7">
      <!-- NIWPUE01 -->
      <g transform="translate(106.561894 216.489055) rotate(-45) scale(0.08 -0.08)">
       <defs>
        <path id="ArialMT-4e" d="M 488 0 
L 488 4581 
L 1109 4581 
L 3516 984 
L 3516 4581 
L 4097 4581 
L 4097 0 
L 3475 0 
L 1069 3600 
L 1069 0 
L 488 0 
z
" transform="scale(0.015625)"/>
        <path id="ArialMT-55" d="M 3500 4581 
L 4106 4581 
L 4106 1934 
Q 4106 1244 3950 837 
Q 3794 431 3386 176 
Q 2978 -78 2316 -78 
Q 1672 -78 1262 144 
Q 853 366 678 786 
Q 503 1206 503 1934 
L 503 4581 
L 1109 4581 
L 1109 1938 
Q 1109 1341 1220 1058 
Q 1331 775 1601 622 
Q 1872 469 2263 469 
Q 2931 469 3215 772 
Q 3500 1075 3500 1938 
L 3500 4581 
z
" transform="scale(0.015625)"/>
        <path id="ArialMT-30" d="M 266 2259 
Q 266 3072 433 3567 
Q 600 4063 929 4331 
Q 1259 4600 1759 4600 
Q 2128 4600 2406 4451 
Q 2684 4303 2865 4023 
Q 3047 3744 3150 3342 
Q 3253 2941 3253 2259 
Q 3253 1453 3087 958 
Q 2922 463 2592 192 
Q 2263 -78 1759 -78 
Q 1097 -78 719 397 
Q 266 969 266 2259 
z
M 844 2259 
Q 844 1131 1108 757 
Q 1372 384 1759 384 
Q 2147 384 2411 759 
Q 2675 1134 2675 2259 
Q 2675 3391 2411 3762 
Q 2147 4134 1753 4134 
Q 1366 4134 1134 3806 
Q 844 3388 844 2259 
z
" transform="scale(0.015625)"/>
        <path id="ArialMT-31" d="M 2384 0 
L 1822 0 
L 1822 3584 
Q 1619 3391 1289 3197 
Q 959 3003 697 2906 
L 697 3450 
Q 1169 3672 1522 3987 
Q 1875 4303 2022 4600 
L 2384 4600 
L 2384 0 
z
" transform="scale(0.015625)"/>
       </defs>
       <use xlink:href="#ArialMT-4e"/>
       <use xlink:href="#ArialMT-49" x="72.216797"/>
       <use xlink:href="#ArialMT-57" x="100"/>
       <use xlink:href="#ArialMT-50" x="194.384766"/>
       <use xlink:href="#ArialMT-55" x="261.083984"/>
       <use xlink:href="#ArialMT-45" x="333.300781"/>
       <use xlink:href="#ArialMT-30" x="400"/>
       <use xlink:href="#ArialMT-31" x="455.615234"/>
      </g>
     </g>
    </g>
    <g id="xtick_8">
     <g id="line2d_8">
      <g>
       <use xlink:href="#mc32fd18a88" x="145.641938" y="176.520201" style="stroke: #000000; stroke-width: 0.8"/>
      </g>
     </g>
     <g id="text_8">
      <!-- ABEKIF -->
      <g transform="translate(129.571169 207.689111) rotate(-45) scale(0.08 -0.08)">
       <defs>
        <path id="ArialMT-46" d="M 525 0 
L 525 4581 
L 3616 4581 
L 3616 4041 
L 1131 4041 
L 1131 2622 
L 3281 2622 
L 3281 2081 
L 1131 2081 
L 1131 0 
L 525 0 
z
" transform="scale(0.015625)"/>
       </defs>
       <use xlink:href="#ArialMT-41"/>
       <use xlink:href="#ArialMT-42" x="66.699219"/>
       <use xlink:href="#ArialMT-45" x="133.398438"/>
       <use xlink:href="#ArialMT-4b" x="200.097656"/>
       <use xlink:href="#ArialMT-49" x="266.796875"/>
       <use xlink:href="#ArialMT-46" x="294.580078"/>
      </g>
     </g>
    </g>
    <g id="xtick_9">
     <g id="line2d_9">
      <g>
       <use xlink:href="#mc32fd18a88" x="159.851269" y="176.520201" style="stroke: #000000; stroke-width: 0.8"/>
      </g>
     </g>
     <g id="text_9">
      <!-- APUFEX -->
      <g transform="translate(141.266735 210.202876) rotate(-45) scale(0.08 -0.08)">
       <use xlink:href="#ArialMT-41"/>
       <use xlink:href="#ArialMT-50" x="66.699219"/>
       <use xlink:href="#ArialMT-55" x="133.398438"/>
       <use xlink:href="#ArialMT-46" x="205.615234"/>
       <use xlink:href="#ArialMT-45" x="266.699219"/>
       <use xlink:href="#ArialMT-58" x="333.398438"/>
      </g>
     </g>
    </g>
    <g id="xtick_10">
     <g id="line2d_10">
      <g>
       <use xlink:href="#mc32fd18a88" x="174.0606" y="176.520201" style="stroke: #000000; stroke-width: 0.8"/>
      </g>
     </g>
     <g id="text_10">
      <!-- ABEHAU -->
      <g transform="translate(154.845857 210.833085) rotate(-45) scale(0.08 -0.08)">
       <use xlink:href="#ArialMT-41"/>
       <use xlink:href="#ArialMT-42" x="66.699219"/>
       <use xlink:href="#ArialMT-45" x="133.398438"/>
       <use xlink:href="#ArialMT-48" x="200.097656"/>
       <use xlink:href="#ArialMT-41" x="272.314453"/>
       <use xlink:href="#ArialMT-55" x="339.013672"/>
      </g>
     </g>
    </g>
    <g id="xtick_11">
     <g id="line2d_11">
      <g>
       <use xlink:href="#mc32fd18a88" x="188.269931" y="176.520201" style="stroke: #000000; stroke-width: 0.8"/>
      </g>
     </g>
     <g id="text_11">
      <!-- TITTUO -->
      <g transform="translate(171.896873 207.991399) rotate(-45) scale(0.08 -0.08)">
       <defs>
        <path id="ArialMT-54" d="M 1659 0 
L 1659 4041 
L 150 4041 
L 150 4581 
L 3781 4581 
L 3781 4041 
L 2266 4041 
L 2266 0 
L 1659 0 
z
" transform="scale(0.015625)"/>
       </defs>
       <use xlink:href="#ArialMT-54"/>
       <use xlink:href="#ArialMT-49" x="61.083984"/>
       <use xlink:href="#ArialMT-54" x="88.867188"/>
       <use xlink:href="#ArialMT-54" x="149.951172"/>
       <use xlink:href="#ArialMT-55" x="211.035156"/>
       <use xlink:href="#ArialMT-4f" x="283.251953"/>
      </g>
     </g>
    </g>
    <g id="xtick_12">
     <g id="line2d_12">
      <g>
       <use xlink:href="#mc32fd18a88" x="202.479262" y="176.520201" style="stroke: #000000; stroke-width: 0.8"/>
      </g>
     </g>
     <g id="text_12">
      <!-- EGEYOG -->
      <g transform="translate(182.00852 212.089083) rotate(-45) scale(0.08 -0.08)">
       <defs>
        <path id="ArialMT-59" d="M 1784 0 
L 1784 1941 
L 19 4581 
L 756 4581 
L 1659 3200 
Q 1909 2813 2125 2425 
Q 2331 2784 2625 3234 
L 3513 4581 
L 4219 4581 
L 2391 1941 
L 2391 0 
L 1784 0 
z
" transform="scale(0.015625)"/>
       </defs>
       <use xlink:href="#ArialMT-45"/>
       <use xlink:href="#ArialMT-47" x="66.699219"/>
       <use xlink:href="#ArialMT-45" x="144.482422"/>
       <use xlink:href="#ArialMT-59" x="211.181641"/>
       <use xlink:href="#ArialMT-4f" x="277.880859"/>
       <use xlink:href="#ArialMT-47" x="355.664062"/>
      </g>
     </g>
    </g>
    <g id="xtick_13">
     <g id="line2d_13">
      <g>
       <use xlink:href="#mc32fd18a88" x="216.688592" y="176.520201" style="stroke: #000000; stroke-width: 0.8"/>
      </g>
     </g>
     <g id="text_13">
      <!-- ABOBUP -->
      <g transform="translate(197.159187 211.147747) rotate(-45) scale(0.08 -0.08)">
       <use xlink:href="#ArialMT-41"/>
       <use xlink:href="#ArialMT-42" x="66.699219"/>
       <use xlink:href="#ArialMT-4f" x="133.398438"/>
       <use xlink:href="#ArialMT-42" x="211.181641"/>
       <use xlink:href="#ArialMT-55" x="277.880859"/>
       <use xlink:href="#ArialMT-50" x="350.097656"/>
      </g>
     </g>
    </g>
    <g id="xtick_14">
     <g id="line2d_14">
      <g>
       <use xlink:href="#mc32fd18a88" x="230.897923" y="176.520201" style="stroke: #000000; stroke-width: 0.8"/>
      </g>
     </g>
     <g id="text_14">
      <!-- XIDTOW -->
      <g transform="translate(212.421223 210.095042) rotate(-45) scale(0.08 -0.08)">
       <use xlink:href="#ArialMT-58"/>
       <use xlink:href="#ArialMT-49" x="66.699219"/>
       <use xlink:href="#ArialMT-44" x="94.482422"/>
       <use xlink:href="#ArialMT-54" x="166.699219"/>
       <use xlink:href="#ArialMT-4f" x="226.033203"/>
       <use xlink:href="#ArialMT-57" x="303.816406"/>
      </g>
     </g>
    </g>
    <g id="xtick_15">
     <g id="line2d_15">
      <g>
       <use xlink:href="#mc32fd18a88" x="245.107254" y="176.520201" style="stroke: #000000; stroke-width: 0.8"/>
      </g>
     </g>
     <g id="text_15">
      <!-- ACNCOB10 -->
      <g transform="translate(218.662344 218.063251) rotate(-45) scale(0.08 -0.08)">
       <defs>
        <path id="ArialMT-43" d="M 3763 1606 
L 4369 1453 
Q 4178 706 3683 314 
Q 3188 -78 2472 -78 
Q 1731 -78 1267 223 
Q 803 525 561 1097 
Q 319 1669 319 2325 
Q 319 3041 592 3573 
Q 866 4106 1370 4382 
Q 1875 4659 2481 4659 
Q 3169 4659 3637 4309 
Q 4106 3959 4291 3325 
L 3694 3184 
Q 3534 3684 3231 3912 
Q 2928 4141 2469 4141 
Q 1941 4141 1586 3887 
Q 1231 3634 1087 3207 
Q 944 2781 944 2328 
Q 944 1744 1114 1308 
Q 1284 872 1643 656 
Q 2003 441 2422 441 
Q 2931 441 3284 734 
Q 3638 1028 3763 1606 
z
" transform="scale(0.015625)"/>
       </defs>
       <use xlink:href="#ArialMT-41"/>
       <use xlink:href="#ArialMT-43" x="66.699219"/>
       <use xlink:href="#ArialMT-4e" x="138.916016"/>
       <use xlink:href="#ArialMT-43" x="211.132812"/>
       <use xlink:href="#ArialMT-4f" x="283.349609"/>
       <use xlink:href="#ArialMT-42" x="361.132812"/>
       <use xlink:href="#ArialMT-31" x="427.832031"/>
       <use xlink:href="#ArialMT-30" x="483.447266"/>
      </g>
     </g>
    </g>
    <g id="xtick_16">
     <g id="line2d_16">
      <g>
       <use xlink:href="#mc32fd18a88" x="259.316585" y="176.520201" style="stroke: #000000; stroke-width: 0.8"/>
      </g>
     </g>
     <g id="text_16">
      <!-- TACXUQ -->
      <g transform="translate(240.210559 210.724367) rotate(-45) scale(0.08 -0.08)">
       <use xlink:href="#ArialMT-54"/>
       <use xlink:href="#ArialMT-41" x="53.708984"/>
       <use xlink:href="#ArialMT-43" x="120.408203"/>
       <use xlink:href="#ArialMT-58" x="192.625"/>
       <use xlink:href="#ArialMT-55" x="259.324219"/>
       <use xlink:href="#ArialMT-51" x="331.541016"/>
      </g>
     </g>
    </g>
    <g id="xtick_17">
     <g id="line2d_17">
      <g>
       <use xlink:href="#mc32fd18a88" x="273.525915" y="176.520201" style="stroke: #000000; stroke-width: 0.8"/>
      </g>
     </g>
     <g id="text_17">
      <!-- ACAZFE -->
      <g transform="translate(255.259579 209.884678) rotate(-45) scale(0.08 -0.08)">
       <use xlink:href="#ArialMT-41"/>
       <use xlink:href="#ArialMT-43" x="66.699219"/>
       <use xlink:href="#ArialMT-41" x="138.916016"/>
       <use xlink:href="#ArialMT-5a" x="205.615234"/>
       <use xlink:href="#ArialMT-46" x="266.699219"/>
       <use xlink:href="#ArialMT-45" x="327.783203"/>
      </g>
     </g>
    </g>
    <g id="xtick_18">
     <g id="line2d_18">
      <g>
       <use xlink:href="#mc32fd18a88" x="287.735246" y="176.520201" style="stroke: #000000; stroke-width: 0.8"/>
      </g>
     </g>
     <g id="text_18">
      <!-- NIVHEJ -->
      <g transform="translate(271.667128 207.686459) rotate(-45) scale(0.08 -0.08)">
       <defs>
        <path id="ArialMT-56" d="M 1803 0 
L 28 4581 
L 684 4581 
L 1875 1253 
Q 2019 853 2116 503 
Q 2222 878 2363 1253 
L 3600 4581 
L 4219 4581 
L 2425 0 
L 1803 0 
z
" transform="scale(0.015625)"/>
        <path id="ArialMT-4a" d="M 184 1300 
L 731 1375 
Q 753 850 928 656 
Q 1103 463 1413 463 
Q 1641 463 1806 567 
Q 1972 672 2034 851 
Q 2097 1031 2097 1425 
L 2097 4581 
L 2703 4581 
L 2703 1459 
Q 2703 884 2564 568 
Q 2425 253 2123 87 
Q 1822 -78 1416 -78 
Q 813 -78 492 269 
Q 172 616 184 1300 
z
" transform="scale(0.015625)"/>
       </defs>
       <use xlink:href="#ArialMT-4e"/>
       <use xlink:href="#ArialMT-49" x="72.216797"/>
       <use xlink:href="#ArialMT-56" x="100"/>
       <use xlink:href="#ArialMT-48" x="166.699219"/>
       <use xlink:href="#ArialMT-45" x="238.916016"/>
       <use xlink:href="#ArialMT-4a" x="305.615234"/>
      </g>
     </g>
    </g>
    <g id="xtick_19">
     <g id="line2d_19">
      <g>
       <use xlink:href="#mc32fd18a88" x="301.944577" y="176.520201" style="stroke: #000000; stroke-width: 0.8"/>
      </g>
     </g>
     <g id="text_19">
      <!-- ADUPAS -->
      <g transform="translate(283.147027 210.415892) rotate(-45) scale(0.08 -0.08)">
       <use xlink:href="#ArialMT-41"/>
       <use xlink:href="#ArialMT-44" x="66.699219"/>
       <use xlink:href="#ArialMT-55" x="138.916016"/>
       <use xlink:href="#ArialMT-50" x="211.132812"/>
       <use xlink:href="#ArialMT-41" x="270.457031"/>
       <use xlink:href="#ArialMT-53" x="337.15625"/>
      </g>
     </g>
    </g>
    <g id="xtick_20">
     <g id="line2d_20">
      <g>
       <use xlink:href="#mc32fd18a88" x="316.153908" y="176.520201" style="stroke: #000000; stroke-width: 0.8"/>
      </g>
     </g>
     <g id="text_20">
      <!-- DAJLAC -->
      <g transform="translate(298.511593 209.260656) rotate(-45) scale(0.08 -0.08)">
       <defs>
        <path id="ArialMT-4c" d="M 469 0 
L 469 4581 
L 1075 4581 
L 1075 541 
L 3331 541 
L 3331 0 
L 469 0 
z
" transform="scale(0.015625)"/>
       </defs>
       <use xlink:href="#ArialMT-44"/>
       <use xlink:href="#ArialMT-41" x="72.216797"/>
       <use xlink:href="#ArialMT-4a" x="138.916016"/>
       <use xlink:href="#ArialMT-4c" x="188.916016"/>
       <use xlink:href="#ArialMT-41" x="244.53125"/>
       <use xlink:href="#ArialMT-43" x="311.230469"/>
      </g>
     </g>
    </g>
    <g id="xtick_21">
     <g id="line2d_21">
      <g>
       <use xlink:href="#mc32fd18a88" x="330.363238" y="176.520201" style="stroke: #000000; stroke-width: 0.8"/>
      </g>
     </g>
     <g id="text_21">
      <!-- OFOWIS -->
      <g transform="translate(311.472881 210.508699) rotate(-45) scale(0.08 -0.08)">
       <use xlink:href="#ArialMT-4f"/>
       <use xlink:href="#ArialMT-46" x="77.783203"/>
       <use xlink:href="#ArialMT-4f" x="138.867188"/>
       <use xlink:href="#ArialMT-57" x="216.650391"/>
       <use xlink:href="#ArialMT-49" x="311.035156"/>
       <use xlink:href="#ArialMT-53" x="338.818359"/>
      </g>
     </g>
    </g>
    <g id="xtick_22">
     <g id="line2d_22">
      <g>
       <use xlink:href="#mc32fd18a88" x="344.572569" y="176.520201" style="stroke: #000000; stroke-width: 0.8"/>
      </g>
     </g>
     <g id="text_22">
      <!-- CATSUL -->
      <g transform="translate(326.720775 209.470136) rotate(-45) scale(0.08 -0.08)">
       <use xlink:href="#ArialMT-43"/>
       <use xlink:href="#ArialMT-41" x="72.216797"/>
       <use xlink:href="#ArialMT-54" x="131.541016"/>
       <use xlink:href="#ArialMT-53" x="192.625"/>
       <use xlink:href="#ArialMT-55" x="259.324219"/>
       <use xlink:href="#ArialMT-4c" x="331.541016"/>
      </g>
     </g>
    </g>
    <g id="xtick_23">
     <g id="line2d_23">
      <g>
       <use xlink:href="#mc32fd18a88" x="358.7819" y="176.520201" style="stroke: #000000; stroke-width: 0.8"/>
      </g>
     </g>
     <g id="text_23">
      <!-- HESMUQ01 -->
      <g transform="translate(331.710317 218.689925) rotate(-45) scale(0.08 -0.08)">
       <defs>
        <path id="ArialMT-4d" d="M 475 0 
L 475 4581 
L 1388 4581 
L 2472 1338 
Q 2622 884 2691 659 
Q 2769 909 2934 1394 
L 4031 4581 
L 4847 4581 
L 4847 0 
L 4263 0 
L 4263 3834 
L 2931 0 
L 2384 0 
L 1059 3900 
L 1059 0 
L 475 0 
z
" transform="scale(0.015625)"/>
       </defs>
       <use xlink:href="#ArialMT-48"/>
       <use xlink:href="#ArialMT-45" x="72.216797"/>
       <use xlink:href="#ArialMT-53" x="138.916016"/>
       <use xlink:href="#ArialMT-4d" x="205.615234"/>
       <use xlink:href="#ArialMT-55" x="288.916016"/>
       <use xlink:href="#ArialMT-51" x="361.132812"/>
       <use xlink:href="#ArialMT-30" x="438.916016"/>
       <use xlink:href="#ArialMT-31" x="494.53125"/>
      </g>
     </g>
    </g>
    <g id="xtick_24">
     <g id="line2d_24">
      <g>
       <use xlink:href="#mc32fd18a88" x="372.991231" y="176.520201" style="stroke: #000000; stroke-width: 0.8"/>
      </g>
     </g>
     <g id="text_24">
      <!-- GUDQOL -->
      <g transform="translate(352.524025 212.085548) rotate(-45) scale(0.08 -0.08)">
       <use xlink:href="#ArialMT-47"/>
       <use xlink:href="#ArialMT-55" x="77.783203"/>
       <use xlink:href="#ArialMT-44" x="150"/>
       <use xlink:href="#ArialMT-51" x="222.216797"/>
       <use xlink:href="#ArialMT-4f" x="300"/>
       <use xlink:href="#ArialMT-4c" x="377.783203"/>
      </g>
     </g>
    </g>
    <g id="xtick_25">
     <g id="line2d_25">
      <g>
       <use xlink:href="#mc32fd18a88" x="387.200562" y="176.520201" style="stroke: #000000; stroke-width: 0.8"/>
      </g>
     </g>
     <g id="text_25">
      <!-- ABEVAG -->
      <g transform="translate(368.40036 210.418543) rotate(-45) scale(0.08 -0.08)">
       <use xlink:href="#ArialMT-41"/>
       <use xlink:href="#ArialMT-42" x="66.699219"/>
       <use xlink:href="#ArialMT-45" x="133.398438"/>
       <use xlink:href="#ArialMT-56" x="200.097656"/>
       <use xlink:href="#ArialMT-41" x="259.421875"/>
       <use xlink:href="#ArialMT-47" x="326.121094"/>
      </g>
     </g>
    </g>
    <g id="xtick_26">
     <g id="line2d_26">
      <g>
       <use xlink:href="#mc32fd18a88" x="401.409892" y="176.520201" style="stroke: #000000; stroke-width: 0.8"/>
      </g>
     </g>
     <g id="text_26">
      <!-- AKOQOH -->
      <g transform="translate(380.62714 212.401094) rotate(-45) scale(0.08 -0.08)">
       <use xlink:href="#ArialMT-41"/>
       <use xlink:href="#ArialMT-4b" x="66.699219"/>
       <use xlink:href="#ArialMT-4f" x="133.398438"/>
       <use xlink:href="#ArialMT-51" x="211.181641"/>
       <use xlink:href="#ArialMT-4f" x="288.964844"/>
       <use xlink:href="#ArialMT-48" x="366.748047"/>
      </g>
     </g>
    </g>
    <g id="xtick_27">
     <g id="line2d_27">
      <g>
       <use xlink:href="#mc32fd18a88" x="415.619223" y="176.520201" style="stroke: #000000; stroke-width: 0.8"/>
      </g>
     </g>
     <g id="text_27">
      <!-- ADARUT -->
      <g transform="translate(396.410667 210.826897) rotate(-45) scale(0.08 -0.08)">
       <defs>
        <path id="ArialMT-52" d="M 503 0 
L 503 4581 
L 2534 4581 
Q 3147 4581 3465 4457 
Q 3784 4334 3975 4021 
Q 4166 3709 4166 3331 
Q 4166 2844 3850 2509 
Q 3534 2175 2875 2084 
Q 3116 1969 3241 1856 
Q 3506 1613 3744 1247 
L 4541 0 
L 3778 0 
L 3172 953 
Q 2906 1366 2734 1584 
Q 2563 1803 2427 1890 
Q 2291 1978 2150 2013 
Q 2047 2034 1813 2034 
L 1109 2034 
L 1109 0 
L 503 0 
z
M 1109 2559 
L 2413 2559 
Q 2828 2559 3062 2645 
Q 3297 2731 3419 2920 
Q 3541 3109 3541 3331 
Q 3541 3656 3305 3865 
Q 3069 4075 2559 4075 
L 1109 4075 
L 1109 2559 
z
" transform="scale(0.015625)"/>
       </defs>
       <use xlink:href="#ArialMT-41"/>
       <use xlink:href="#ArialMT-44" x="66.699219"/>
       <use xlink:href="#ArialMT-41" x="138.916016"/>
       <use xlink:href="#ArialMT-52" x="205.615234"/>
       <use xlink:href="#ArialMT-55" x="277.832031"/>
       <use xlink:href="#ArialMT-54" x="350.048828"/>
      </g>
     </g>
    </g>
    <g id="xtick_28">
     <g id="line2d_28">
      <g>
       <use xlink:href="#mc32fd18a88" x="429.828554" y="176.520201" style="stroke: #000000; stroke-width: 0.8"/>
      </g>
     </g>
     <g id="text_28">
      <!-- AFECIA -->
      <g transform="translate(413.445774 208.001122) rotate(-45) scale(0.08 -0.08)">
       <use xlink:href="#ArialMT-41"/>
       <use xlink:href="#ArialMT-46" x="66.699219"/>
       <use xlink:href="#ArialMT-45" x="127.783203"/>
       <use xlink:href="#ArialMT-43" x="194.482422"/>
       <use xlink:href="#ArialMT-49" x="266.699219"/>
       <use xlink:href="#ArialMT-41" x="294.482422"/>
      </g>
     </g>
    </g>
    <g id="xtick_29">
     <g id="line2d_29">
      <g>
       <use xlink:href="#mc32fd18a88" x="444.037885" y="176.520201" style="stroke: #000000; stroke-width: 0.8"/>
      </g>
     </g>
     <g id="text_29">
      <!-- ACOVUL -->
      <g transform="translate(424.824026 210.832201) rotate(-45) scale(0.08 -0.08)">
       <use xlink:href="#ArialMT-41"/>
       <use xlink:href="#ArialMT-43" x="66.699219"/>
       <use xlink:href="#ArialMT-4f" x="138.916016"/>
       <use xlink:href="#ArialMT-56" x="216.699219"/>
       <use xlink:href="#ArialMT-55" x="283.398438"/>
       <use xlink:href="#ArialMT-4c" x="355.615234"/>
      </g>
     </g>
    </g>
    <g id="xtick_30">
     <g id="line2d_30">
      <g>
       <use xlink:href="#mc32fd18a88" x="458.247215" y="176.520201" style="stroke: #000000; stroke-width: 0.8"/>
      </g>
     </g>
     <g id="text_30">
      <!-- AFIXEV -->
      <g transform="translate(442.176446 207.689111) rotate(-45) scale(0.08 -0.08)">
       <use xlink:href="#ArialMT-41"/>
       <use xlink:href="#ArialMT-46" x="66.699219"/>
       <use xlink:href="#ArialMT-49" x="127.783203"/>
       <use xlink:href="#ArialMT-58" x="155.566406"/>
       <use xlink:href="#ArialMT-45" x="222.265625"/>
       <use xlink:href="#ArialMT-56" x="288.964844"/>
      </g>
     </g>
    </g>
    <g id="xtick_31">
     <g id="line2d_31">
      <g>
       <use xlink:href="#mc32fd18a88" x="472.456546" y="176.520201" style="stroke: #000000; stroke-width: 0.8"/>
      </g>
     </g>
     <g id="text_31">
      <!-- ABAYAF -->
      <g transform="translate(455.018409 209.056479) rotate(-45) scale(0.08 -0.08)">
       <use xlink:href="#ArialMT-41"/>
       <use xlink:href="#ArialMT-42" x="66.699219"/>
       <use xlink:href="#ArialMT-41" x="133.398438"/>
       <use xlink:href="#ArialMT-59" x="192.722656"/>
       <use xlink:href="#ArialMT-41" x="252.046875"/>
       <use xlink:href="#ArialMT-46" x="318.746094"/>
      </g>
     </g>
    </g>
    <g id="xtick_32">
     <g id="line2d_32">
      <g>
       <use xlink:href="#mc32fd18a88" x="486.665877" y="176.520201" style="stroke: #000000; stroke-width: 0.8"/>
      </g>
     </g>
     <g id="text_32">
      <!-- RULJAM -->
      <g transform="translate(468.084878 210.19934) rotate(-45) scale(0.08 -0.08)">
       <use xlink:href="#ArialMT-52"/>
       <use xlink:href="#ArialMT-55" x="72.216797"/>
       <use xlink:href="#ArialMT-4c" x="144.433594"/>
       <use xlink:href="#ArialMT-4a" x="200.048828"/>
       <use xlink:href="#ArialMT-41" x="250.048828"/>
       <use xlink:href="#ArialMT-4d" x="316.748047"/>
      </g>
     </g>
    </g>
    <g id="text_33">
     <!-- Target -->
     <g transform="translate(252.528281 230.972037) scale(0.1 -0.1)">
      <defs>
       <path id="ArialMT-61" d="M 2588 409 
Q 2275 144 1986 34 
Q 1697 -75 1366 -75 
Q 819 -75 525 192 
Q 231 459 231 875 
Q 231 1119 342 1320 
Q 453 1522 633 1644 
Q 813 1766 1038 1828 
Q 1203 1872 1538 1913 
Q 2219 1994 2541 2106 
Q 2544 2222 2544 2253 
Q 2544 2597 2384 2738 
Q 2169 2928 1744 2928 
Q 1347 2928 1158 2789 
Q 969 2650 878 2297 
L 328 2372 
Q 403 2725 575 2942 
Q 747 3159 1072 3276 
Q 1397 3394 1825 3394 
Q 2250 3394 2515 3294 
Q 2781 3194 2906 3042 
Q 3031 2891 3081 2659 
Q 3109 2516 3109 2141 
L 3109 1391 
Q 3109 606 3145 398 
Q 3181 191 3288 0 
L 2700 0 
Q 2613 175 2588 409 
z
M 2541 1666 
Q 2234 1541 1622 1453 
Q 1275 1403 1131 1340 
Q 988 1278 909 1158 
Q 831 1038 831 891 
Q 831 666 1001 516 
Q 1172 366 1500 366 
Q 1825 366 2078 508 
Q 2331 650 2450 897 
Q 2541 1088 2541 1459 
L 2541 1666 
z
" transform="scale(0.015625)"/>
       <path id="ArialMT-72" d="M 416 0 
L 416 3319 
L 922 3319 
L 922 2816 
Q 1116 3169 1280 3281 
Q 1444 3394 1641 3394 
Q 1925 3394 2219 3213 
L 2025 2691 
Q 1819 2813 1613 2813 
Q 1428 2813 1281 2702 
Q 1134 2591 1072 2394 
Q 978 2094 978 1738 
L 978 0 
L 416 0 
z
" transform="scale(0.015625)"/>
       <path id="ArialMT-67" d="M 319 -275 
L 866 -356 
Q 900 -609 1056 -725 
Q 1266 -881 1628 -881 
Q 2019 -881 2231 -725 
Q 2444 -569 2519 -288 
Q 2563 -116 2559 434 
Q 2191 0 1641 0 
Q 956 0 581 494 
Q 206 988 206 1678 
Q 206 2153 378 2554 
Q 550 2956 876 3175 
Q 1203 3394 1644 3394 
Q 2231 3394 2613 2919 
L 2613 3319 
L 3131 3319 
L 3131 450 
Q 3131 -325 2973 -648 
Q 2816 -972 2473 -1159 
Q 2131 -1347 1631 -1347 
Q 1038 -1347 672 -1080 
Q 306 -813 319 -275 
z
M 784 1719 
Q 784 1066 1043 766 
Q 1303 466 1694 466 
Q 2081 466 2343 764 
Q 2606 1063 2606 1700 
Q 2606 2309 2336 2618 
Q 2066 2928 1684 2928 
Q 1309 2928 1046 2623 
Q 784 2319 784 1719 
z
" transform="scale(0.015625)"/>
       <path id="ArialMT-65" d="M 2694 1069 
L 3275 997 
Q 3138 488 2766 206 
Q 2394 -75 1816 -75 
Q 1088 -75 661 373 
Q 234 822 234 1631 
Q 234 2469 665 2931 
Q 1097 3394 1784 3394 
Q 2450 3394 2872 2941 
Q 3294 2488 3294 1666 
Q 3294 1616 3291 1516 
L 816 1516 
Q 847 969 1125 678 
Q 1403 388 1819 388 
Q 2128 388 2347 550 
Q 2566 713 2694 1069 
z
M 847 1978 
L 2700 1978 
Q 2663 2397 2488 2606 
Q 2219 2931 1791 2931 
Q 1403 2931 1139 2672 
Q 875 2413 847 1978 
z
" transform="scale(0.015625)"/>
       <path id="ArialMT-74" d="M 1650 503 
L 1731 6 
Q 1494 -44 1306 -44 
Q 1000 -44 831 53 
Q 663 150 594 308 
Q 525 466 525 972 
L 525 2881 
L 113 2881 
L 113 3319 
L 525 3319 
L 525 4141 
L 1084 4478 
L 1084 3319 
L 1650 3319 
L 1650 2881 
L 1084 2881 
L 1084 941 
Q 1084 700 1114 631 
Q 1144 563 1211 522 
Q 1278 481 1403 481 
Q 1497 481 1650 503 
z
" transform="scale(0.015625)"/>
      </defs>
      <use xlink:href="#ArialMT-54"/>
      <use xlink:href="#ArialMT-61" x="49.958984"/>
      <use xlink:href="#ArialMT-72" x="105.574219"/>
      <use xlink:href="#ArialMT-67" x="138.875"/>
      <use xlink:href="#ArialMT-65" x="194.490234"/>
      <use xlink:href="#ArialMT-74" x="250.105469"/>
     </g>
    </g>
   </g>
   <g id="matplotlib.axis_2">
    <g id="ytick_1">
     <g id="line2d_33">
      <defs>
       <path id="mc6c311b296" d="M 0 0 
L -3.5 0 
" style="stroke: #000000; stroke-width: 0.8"/>
      </defs>
      <g>
       <use xlink:href="#mc6c311b296" x="38.8825" y="176.520201" style="stroke: #000000; stroke-width: 0.8"/>
      </g>
     </g>
     <g id="text_34">
      <!-- 0.0 -->
      <g transform="translate(17.9825 180.099108) scale(0.1 -0.1)">
       <defs>
        <path id="ArialMT-2e" d="M 581 0 
L 581 641 
L 1222 641 
L 1222 0 
L 581 0 
z
" transform="scale(0.015625)"/>
       </defs>
       <use xlink:href="#ArialMT-30"/>
       <use xlink:href="#ArialMT-2e" x="55.615234"/>
       <use xlink:href="#ArialMT-30" x="83.398438"/>
      </g>
     </g>
    </g>
    <g id="ytick_2">
     <g id="line2d_34">
      <g>
       <use xlink:href="#mc6c311b296" x="38.8825" y="143.470763" style="stroke: #000000; stroke-width: 0.8"/>
      </g>
     </g>
     <g id="text_35">
      <!-- 0.5 -->
      <g transform="translate(17.9825 147.049669) scale(0.1 -0.1)">
       <defs>
        <path id="ArialMT-35" d="M 266 1200 
L 856 1250 
Q 922 819 1161 601 
Q 1400 384 1738 384 
Q 2144 384 2425 690 
Q 2706 997 2706 1503 
Q 2706 1984 2436 2262 
Q 2166 2541 1728 2541 
Q 1456 2541 1237 2417 
Q 1019 2294 894 2097 
L 366 2166 
L 809 4519 
L 3088 4519 
L 3088 3981 
L 1259 3981 
L 1013 2750 
Q 1425 3038 1878 3038 
Q 2478 3038 2890 2622 
Q 3303 2206 3303 1553 
Q 3303 931 2941 478 
Q 2500 -78 1738 -78 
Q 1113 -78 717 272 
Q 322 622 266 1200 
z
" transform="scale(0.015625)"/>
       </defs>
       <use xlink:href="#ArialMT-30"/>
       <use xlink:href="#ArialMT-2e" x="55.615234"/>
       <use xlink:href="#ArialMT-35" x="83.398438"/>
      </g>
     </g>
    </g>
    <g id="ytick_3">
     <g id="line2d_35">
      <g>
       <use xlink:href="#mc6c311b296" x="38.8825" y="110.421325" style="stroke: #000000; stroke-width: 0.8"/>
      </g>
     </g>
     <g id="text_36">
      <!-- 1.0 -->
      <g transform="translate(17.9825 114.000231) scale(0.1 -0.1)">
       <use xlink:href="#ArialMT-31"/>
       <use xlink:href="#ArialMT-2e" x="55.615234"/>
       <use xlink:href="#ArialMT-30" x="83.398438"/>
      </g>
     </g>
    </g>
    <g id="ytick_4">
     <g id="line2d_36">
      <g>
       <use xlink:href="#mc6c311b296" x="38.8825" y="77.371887" style="stroke: #000000; stroke-width: 0.8"/>
      </g>
     </g>
     <g id="text_37">
      <!-- 1.5 -->
      <g transform="translate(17.9825 80.950793) scale(0.1 -0.1)">
       <use xlink:href="#ArialMT-31"/>
       <use xlink:href="#ArialMT-2e" x="55.615234"/>
       <use xlink:href="#ArialMT-35" x="83.398438"/>
      </g>
     </g>
    </g>
    <g id="ytick_5">
     <g id="line2d_37">
      <g>
       <use xlink:href="#mc6c311b296" x="38.8825" y="44.322449" style="stroke: #000000; stroke-width: 0.8"/>
      </g>
     </g>
     <g id="text_38">
      <!-- 2.0 -->
      <g transform="translate(17.9825 47.901355) scale(0.1 -0.1)">
       <defs>
        <path id="ArialMT-32" d="M 3222 541 
L 3222 0 
L 194 0 
Q 188 203 259 391 
Q 375 700 629 1000 
Q 884 1300 1366 1694 
Q 2113 2306 2375 2664 
Q 2638 3022 2638 3341 
Q 2638 3675 2398 3904 
Q 2159 4134 1775 4134 
Q 1369 4134 1125 3890 
Q 881 3647 878 3216 
L 300 3275 
Q 359 3922 746 4261 
Q 1134 4600 1788 4600 
Q 2447 4600 2831 4234 
Q 3216 3869 3216 3328 
Q 3216 3053 3103 2787 
Q 2991 2522 2730 2228 
Q 2469 1934 1863 1422 
Q 1356 997 1212 845 
Q 1069 694 975 541 
L 3222 541 
z
" transform="scale(0.015625)"/>
       </defs>
       <use xlink:href="#ArialMT-32"/>
       <use xlink:href="#ArialMT-2e" x="55.615234"/>
       <use xlink:href="#ArialMT-30" x="83.398438"/>
      </g>
     </g>
    </g>
    <g id="text_39">
     <!-- Avg Generation Time (s) -->
     <g transform="translate(11.877813 151.248851) rotate(-90) scale(0.1 -0.1)">
      <defs>
       <path id="ArialMT-76" d="M 1344 0 
L 81 3319 
L 675 3319 
L 1388 1331 
Q 1503 1009 1600 663 
Q 1675 925 1809 1294 
L 2547 3319 
L 3125 3319 
L 1869 0 
L 1344 0 
z
" transform="scale(0.015625)"/>
       <path id="ArialMT-20" transform="scale(0.015625)"/>
       <path id="ArialMT-6e" d="M 422 0 
L 422 3319 
L 928 3319 
L 928 2847 
Q 1294 3394 1984 3394 
Q 2284 3394 2536 3286 
Q 2788 3178 2913 3003 
Q 3038 2828 3088 2588 
Q 3119 2431 3119 2041 
L 3119 0 
L 2556 0 
L 2556 2019 
Q 2556 2363 2490 2533 
Q 2425 2703 2258 2804 
Q 2091 2906 1866 2906 
Q 1506 2906 1245 2678 
Q 984 2450 984 1813 
L 984 0 
L 422 0 
z
" transform="scale(0.015625)"/>
       <path id="ArialMT-69" d="M 425 3934 
L 425 4581 
L 988 4581 
L 988 3934 
L 425 3934 
z
M 425 0 
L 425 3319 
L 988 3319 
L 988 0 
L 425 0 
z
" transform="scale(0.015625)"/>
       <path id="ArialMT-6f" d="M 213 1659 
Q 213 2581 725 3025 
Q 1153 3394 1769 3394 
Q 2453 3394 2887 2945 
Q 3322 2497 3322 1706 
Q 3322 1066 3130 698 
Q 2938 331 2570 128 
Q 2203 -75 1769 -75 
Q 1072 -75 642 372 
Q 213 819 213 1659 
z
M 791 1659 
Q 791 1022 1069 705 
Q 1347 388 1769 388 
Q 2188 388 2466 706 
Q 2744 1025 2744 1678 
Q 2744 2294 2464 2611 
Q 2184 2928 1769 2928 
Q 1347 2928 1069 2612 
Q 791 2297 791 1659 
z
" transform="scale(0.015625)"/>
       <path id="ArialMT-6d" d="M 422 0 
L 422 3319 
L 925 3319 
L 925 2853 
Q 1081 3097 1340 3245 
Q 1600 3394 1931 3394 
Q 2300 3394 2536 3241 
Q 2772 3088 2869 2813 
Q 3263 3394 3894 3394 
Q 4388 3394 4653 3120 
Q 4919 2847 4919 2278 
L 4919 0 
L 4359 0 
L 4359 2091 
Q 4359 2428 4304 2576 
Q 4250 2725 4106 2815 
Q 3963 2906 3769 2906 
Q 3419 2906 3187 2673 
Q 2956 2441 2956 1928 
L 2956 0 
L 2394 0 
L 2394 2156 
Q 2394 2531 2256 2718 
Q 2119 2906 1806 2906 
Q 1569 2906 1367 2781 
Q 1166 2656 1075 2415 
Q 984 2175 984 1722 
L 984 0 
L 422 0 
z
" transform="scale(0.015625)"/>
       <path id="ArialMT-28" d="M 1497 -1347 
Q 1031 -759 709 28 
Q 388 816 388 1659 
Q 388 2403 628 3084 
Q 909 3875 1497 4659 
L 1900 4659 
Q 1522 4009 1400 3731 
Q 1209 3300 1100 2831 
Q 966 2247 966 1656 
Q 966 153 1900 -1347 
L 1497 -1347 
z
" transform="scale(0.015625)"/>
       <path id="ArialMT-73" d="M 197 991 
L 753 1078 
Q 800 744 1014 566 
Q 1228 388 1613 388 
Q 2000 388 2187 545 
Q 2375 703 2375 916 
Q 2375 1106 2209 1216 
Q 2094 1291 1634 1406 
Q 1016 1563 777 1677 
Q 538 1791 414 1992 
Q 291 2194 291 2438 
Q 291 2659 392 2848 
Q 494 3038 669 3163 
Q 800 3259 1026 3326 
Q 1253 3394 1513 3394 
Q 1903 3394 2198 3281 
Q 2494 3169 2634 2976 
Q 2775 2784 2828 2463 
L 2278 2388 
Q 2241 2644 2061 2787 
Q 1881 2931 1553 2931 
Q 1166 2931 1000 2803 
Q 834 2675 834 2503 
Q 834 2394 903 2306 
Q 972 2216 1119 2156 
Q 1203 2125 1616 2013 
Q 2213 1853 2448 1751 
Q 2684 1650 2818 1456 
Q 2953 1263 2953 975 
Q 2953 694 2789 445 
Q 2625 197 2315 61 
Q 2006 -75 1616 -75 
Q 969 -75 630 194 
Q 291 463 197 991 
z
" transform="scale(0.015625)"/>
       <path id="ArialMT-29" d="M 791 -1347 
L 388 -1347 
Q 1322 153 1322 1656 
Q 1322 2244 1188 2822 
Q 1081 3291 891 3722 
Q 769 4003 388 4659 
L 791 4659 
Q 1378 3875 1659 3084 
Q 1900 2403 1900 1659 
Q 1900 816 1576 28 
Q 1253 -759 791 -1347 
z
" transform="scale(0.015625)"/>
      </defs>
      <use xlink:href="#ArialMT-41"/>
      <use xlink:href="#ArialMT-76" x="64.949219"/>
      <use xlink:href="#ArialMT-67" x="114.949219"/>
      <use xlink:href="#ArialMT-20" x="170.564453"/>
      <use xlink:href="#ArialMT-47" x="198.347656"/>
      <use xlink:href="#ArialMT-65" x="276.130859"/>
      <use xlink:href="#ArialMT-6e" x="331.746094"/>
      <use xlink:href="#ArialMT-65" x="387.361328"/>
      <use xlink:href="#ArialMT-72" x="442.976562"/>
      <use xlink:href="#ArialMT-61" x="476.277344"/>
      <use xlink:href="#ArialMT-74" x="531.892578"/>
      <use xlink:href="#ArialMT-69" x="559.675781"/>
      <use xlink:href="#ArialMT-6f" x="581.892578"/>
      <use xlink:href="#ArialMT-6e" x="637.507812"/>
      <use xlink:href="#ArialMT-20" x="693.123047"/>
      <use xlink:href="#ArialMT-54" x="719.15625"/>
      <use xlink:href="#ArialMT-69" x="776.490234"/>
      <use xlink:href="#ArialMT-6d" x="798.707031"/>
      <use xlink:href="#ArialMT-65" x="882.007812"/>
      <use xlink:href="#ArialMT-20" x="937.623047"/>
      <use xlink:href="#ArialMT-28" x="965.40625"/>
      <use xlink:href="#ArialMT-73" x="998.707031"/>
      <use xlink:href="#ArialMT-29" x="1048.707031"/>
     </g>
    </g>
   </g>
   <g id="patch_3">
    <path d="M 38.8825 176.520201 
L 38.8825 17.78375 
" style="fill: none; stroke: #000000; stroke-width: 0.8; stroke-linejoin: miter; stroke-linecap: square"/>
   </g>
   <g id="patch_4">
    <path d="M 38.8825 176.520201 
L 493.96 176.520201 
" style="fill: none; stroke: #000000; stroke-width: 0.8; stroke-linejoin: miter; stroke-linecap: square"/>
   </g>
   <g id="text_40">
    <!-- Average Generation Time -->
    <g transform="translate(206.123594 11.78375) scale(0.1 -0.1)">
     <defs>
      <path id="Arial-BoldMT-41" d="M 4597 0 
L 3591 0 
L 3191 1041 
L 1359 1041 
L 981 0 
L 0 0 
L 1784 4581 
L 2763 4581 
L 4597 0 
z
M 2894 1813 
L 2263 3513 
L 1644 1813 
L 2894 1813 
z
" transform="scale(0.015625)"/>
      <path id="Arial-BoldMT-76" d="M 1372 0 
L 34 3319 
L 956 3319 
L 1581 1625 
L 1763 1059 
Q 1834 1275 1853 1344 
Q 1897 1484 1947 1625 
L 2578 3319 
L 3481 3319 
L 2163 0 
L 1372 0 
z
" transform="scale(0.015625)"/>
      <path id="Arial-BoldMT-65" d="M 2381 1056 
L 3256 909 
Q 3088 428 2723 176 
Q 2359 -75 1813 -75 
Q 947 -75 531 491 
Q 203 944 203 1634 
Q 203 2459 634 2926 
Q 1066 3394 1725 3394 
Q 2466 3394 2894 2905 
Q 3322 2416 3303 1406 
L 1103 1406 
Q 1113 1016 1316 798 
Q 1519 581 1822 581 
Q 2028 581 2168 693 
Q 2309 806 2381 1056 
z
M 2431 1944 
Q 2422 2325 2234 2523 
Q 2047 2722 1778 2722 
Q 1491 2722 1303 2513 
Q 1116 2303 1119 1944 
L 2431 1944 
z
" transform="scale(0.015625)"/>
      <path id="Arial-BoldMT-72" d="M 1300 0 
L 422 0 
L 422 3319 
L 1238 3319 
L 1238 2847 
Q 1447 3181 1614 3287 
Q 1781 3394 1994 3394 
Q 2294 3394 2572 3228 
L 2300 2463 
Q 2078 2606 1888 2606 
Q 1703 2606 1575 2504 
Q 1447 2403 1373 2137 
Q 1300 1872 1300 1025 
L 1300 0 
z
" transform="scale(0.015625)"/>
      <path id="Arial-BoldMT-61" d="M 1116 2306 
L 319 2450 
Q 453 2931 781 3162 
Q 1109 3394 1756 3394 
Q 2344 3394 2631 3255 
Q 2919 3116 3036 2902 
Q 3153 2688 3153 2116 
L 3144 1091 
Q 3144 653 3186 445 
Q 3228 238 3344 0 
L 2475 0 
Q 2441 88 2391 259 
Q 2369 338 2359 363 
Q 2134 144 1878 34 
Q 1622 -75 1331 -75 
Q 819 -75 523 203 
Q 228 481 228 906 
Q 228 1188 362 1408 
Q 497 1628 739 1745 
Q 981 1863 1438 1950 
Q 2053 2066 2291 2166 
L 2291 2253 
Q 2291 2506 2166 2614 
Q 2041 2722 1694 2722 
Q 1459 2722 1328 2630 
Q 1197 2538 1116 2306 
z
M 2291 1594 
Q 2122 1538 1756 1459 
Q 1391 1381 1278 1306 
Q 1106 1184 1106 997 
Q 1106 813 1243 678 
Q 1381 544 1594 544 
Q 1831 544 2047 700 
Q 2206 819 2256 991 
Q 2291 1103 2291 1419 
L 2291 1594 
z
" transform="scale(0.015625)"/>
      <path id="Arial-BoldMT-67" d="M 378 -219 
L 1381 -341 
Q 1406 -516 1497 -581 
Q 1622 -675 1891 -675 
Q 2234 -675 2406 -572 
Q 2522 -503 2581 -350 
Q 2622 -241 2622 53 
L 2622 538 
Q 2228 0 1628 0 
Q 959 0 569 566 
Q 263 1013 263 1678 
Q 263 2513 664 2953 
Q 1066 3394 1663 3394 
Q 2278 3394 2678 2853 
L 2678 3319 
L 3500 3319 
L 3500 341 
Q 3500 -247 3403 -537 
Q 3306 -828 3131 -993 
Q 2956 -1159 2664 -1253 
Q 2372 -1347 1925 -1347 
Q 1081 -1347 728 -1058 
Q 375 -769 375 -325 
Q 375 -281 378 -219 
z
M 1163 1728 
Q 1163 1200 1367 954 
Q 1572 709 1872 709 
Q 2194 709 2416 961 
Q 2638 1213 2638 1706 
Q 2638 2222 2425 2472 
Q 2213 2722 1888 2722 
Q 1572 2722 1367 2476 
Q 1163 2231 1163 1728 
z
" transform="scale(0.015625)"/>
      <path id="Arial-BoldMT-20" transform="scale(0.015625)"/>
      <path id="Arial-BoldMT-47" d="M 2597 1684 
L 2597 2456 
L 4591 2456 
L 4591 631 
Q 4300 350 3748 136 
Q 3197 -78 2631 -78 
Q 1913 -78 1378 223 
Q 844 525 575 1086 
Q 306 1647 306 2306 
Q 306 3022 606 3578 
Q 906 4134 1484 4431 
Q 1925 4659 2581 4659 
Q 3434 4659 3914 4301 
Q 4394 3944 4531 3313 
L 3613 3141 
Q 3516 3478 3248 3673 
Q 2981 3869 2581 3869 
Q 1975 3869 1617 3484 
Q 1259 3100 1259 2344 
Q 1259 1528 1621 1120 
Q 1984 713 2572 713 
Q 2863 713 3155 827 
Q 3447 941 3656 1103 
L 3656 1684 
L 2597 1684 
z
" transform="scale(0.015625)"/>
      <path id="Arial-BoldMT-6e" d="M 3478 0 
L 2600 0 
L 2600 1694 
Q 2600 2231 2544 2389 
Q 2488 2547 2361 2634 
Q 2234 2722 2056 2722 
Q 1828 2722 1647 2597 
Q 1466 2472 1398 2265 
Q 1331 2059 1331 1503 
L 1331 0 
L 453 0 
L 453 3319 
L 1269 3319 
L 1269 2831 
Q 1703 3394 2363 3394 
Q 2653 3394 2893 3289 
Q 3134 3184 3257 3021 
Q 3381 2859 3429 2653 
Q 3478 2447 3478 2063 
L 3478 0 
z
" transform="scale(0.015625)"/>
      <path id="Arial-BoldMT-74" d="M 1981 3319 
L 1981 2619 
L 1381 2619 
L 1381 1281 
Q 1381 875 1398 808 
Q 1416 741 1477 697 
Q 1538 653 1625 653 
Q 1747 653 1978 738 
L 2053 56 
Q 1747 -75 1359 -75 
Q 1122 -75 931 4 
Q 741 84 652 211 
Q 563 338 528 553 
Q 500 706 500 1172 
L 500 2619 
L 97 2619 
L 97 3319 
L 500 3319 
L 500 3978 
L 1381 4491 
L 1381 3319 
L 1981 3319 
z
" transform="scale(0.015625)"/>
      <path id="Arial-BoldMT-69" d="M 459 3769 
L 459 4581 
L 1338 4581 
L 1338 3769 
L 459 3769 
z
M 459 0 
L 459 3319 
L 1338 3319 
L 1338 0 
L 459 0 
z
" transform="scale(0.015625)"/>
      <path id="Arial-BoldMT-6f" d="M 256 1706 
Q 256 2144 472 2553 
Q 688 2963 1083 3178 
Q 1478 3394 1966 3394 
Q 2719 3394 3200 2905 
Q 3681 2416 3681 1669 
Q 3681 916 3195 420 
Q 2709 -75 1972 -75 
Q 1516 -75 1102 131 
Q 688 338 472 736 
Q 256 1134 256 1706 
z
M 1156 1659 
Q 1156 1166 1390 903 
Q 1625 641 1969 641 
Q 2313 641 2545 903 
Q 2778 1166 2778 1666 
Q 2778 2153 2545 2415 
Q 2313 2678 1969 2678 
Q 1625 2678 1390 2415 
Q 1156 2153 1156 1659 
z
" transform="scale(0.015625)"/>
      <path id="Arial-BoldMT-54" d="M 1497 0 
L 1497 3806 
L 138 3806 
L 138 4581 
L 3778 4581 
L 3778 3806 
L 2422 3806 
L 2422 0 
L 1497 0 
z
" transform="scale(0.015625)"/>
      <path id="Arial-BoldMT-6d" d="M 394 3319 
L 1203 3319 
L 1203 2866 
Q 1638 3394 2238 3394 
Q 2556 3394 2790 3262 
Q 3025 3131 3175 2866 
Q 3394 3131 3647 3262 
Q 3900 3394 4188 3394 
Q 4553 3394 4806 3245 
Q 5059 3097 5184 2809 
Q 5275 2597 5275 2122 
L 5275 0 
L 4397 0 
L 4397 1897 
Q 4397 2391 4306 2534 
Q 4184 2722 3931 2722 
Q 3747 2722 3584 2609 
Q 3422 2497 3350 2280 
Q 3278 2063 3278 1594 
L 3278 0 
L 2400 0 
L 2400 1819 
Q 2400 2303 2353 2443 
Q 2306 2584 2207 2653 
Q 2109 2722 1941 2722 
Q 1738 2722 1575 2612 
Q 1413 2503 1342 2297 
Q 1272 2091 1272 1613 
L 1272 0 
L 394 0 
L 394 3319 
z
" transform="scale(0.015625)"/>
     </defs>
     <use xlink:href="#Arial-BoldMT-41"/>
     <use xlink:href="#Arial-BoldMT-76" x="68.466797"/>
     <use xlink:href="#Arial-BoldMT-65" x="124.082031"/>
     <use xlink:href="#Arial-BoldMT-72" x="179.697266"/>
     <use xlink:href="#Arial-BoldMT-61" x="218.613281"/>
     <use xlink:href="#Arial-BoldMT-67" x="274.228516"/>
     <use xlink:href="#Arial-BoldMT-65" x="335.3125"/>
     <use xlink:href="#Arial-BoldMT-20" x="390.927734"/>
     <use xlink:href="#Arial-BoldMT-47" x="418.710938"/>
     <use xlink:href="#Arial-BoldMT-65" x="496.494141"/>
     <use xlink:href="#Arial-BoldMT-6e" x="552.109375"/>
     <use xlink:href="#Arial-BoldMT-65" x="613.193359"/>
     <use xlink:href="#Arial-BoldMT-72" x="668.808594"/>
     <use xlink:href="#Arial-BoldMT-61" x="707.724609"/>
     <use xlink:href="#Arial-BoldMT-74" x="763.339844"/>
     <use xlink:href="#Arial-BoldMT-69" x="796.640625"/>
     <use xlink:href="#Arial-BoldMT-6f" x="824.423828"/>
     <use xlink:href="#Arial-BoldMT-6e" x="885.507812"/>
     <use xlink:href="#Arial-BoldMT-20" x="946.591797"/>
     <use xlink:href="#Arial-BoldMT-54" x="974.375"/>
     <use xlink:href="#Arial-BoldMT-69" x="1033.708984"/>
     <use xlink:href="#Arial-BoldMT-6d" x="1061.492188"/>
     <use xlink:href="#Arial-BoldMT-65" x="1150.408203"/>
    </g>
   </g>
   <g id="legend_1">
    <g id="patch_5">
     <path d="M 443.312812 53.088906 
L 489.06 53.088906 
Q 490.46 53.088906 490.46 51.688906 
L 490.46 22.68375 
Q 490.46 21.28375 489.06 21.28375 
L 443.312812 21.28375 
Q 441.912812 21.28375 441.912812 22.68375 
L 441.912812 51.688906 
Q 441.912812 53.088906 443.312812 53.088906 
z
" style="fill: #ffffff; opacity: 0.8; stroke: #000000; stroke-width: 0.4; stroke-linejoin: miter"/>
    </g>
    <g id="PathCollection_1">
     <defs>
      <path id="m8378e4bf0e" d="M 0 3.354102 
C 0.889518 3.354102 1.742724 3.000693 2.371708 2.371708 
C 3.000693 1.742724 3.354102 0.889518 3.354102 0 
C 3.354102 -0.889518 3.000693 -1.742724 2.371708 -2.371708 
C 1.742724 -3.000693 0.889518 -3.354102 0 -3.354102 
C -0.889518 -3.354102 -1.742724 -3.000693 -2.371708 -2.371708 
C -3.000693 -1.742724 -3.354102 -0.889518 -3.354102 0 
C -3.354102 0.889518 -3.000693 1.742724 -2.371708 2.371708 
C -1.742724 3.000693 -0.889518 3.354102 0 3.354102 
z
" style="stroke: #000000; stroke-width: 0.4"/>
     </defs>
     <g>
      <use xlink:href="#m8378e4bf0e" x="451.712812" y="27.256719" style="fill: #1f77b4; stroke: #000000; stroke-width: 0.4"/>
     </g>
    </g>
    <g id="text_41">
     <!-- CCDC -->
     <g transform="translate(464.312813 29.094219) scale(0.07 -0.07)">
      <use xlink:href="#ArialMT-43"/>
      <use xlink:href="#ArialMT-43" x="72.216797"/>
      <use xlink:href="#ArialMT-44" x="144.433594"/>
      <use xlink:href="#ArialMT-43" x="216.650391"/>
     </g>
    </g>
    <g id="PathCollection_2">
     <defs>
      <path id="md69c23401b" d="M -3.354102 3.354102 
L 3.354102 3.354102 
L 3.354102 -3.354102 
L -3.354102 -3.354102 
z
" style="stroke: #000000; stroke-width: 0.4"/>
     </defs>
     <g>
      <use xlink:href="#md69c23401b" x="451.712812" y="37.158437" style="fill: #ff7f0e; stroke: #000000; stroke-width: 0.4"/>
     </g>
    </g>
    <g id="text_42">
     <!-- OBabel -->
     <g transform="translate(464.312813 38.995937) scale(0.07 -0.07)">
      <defs>
       <path id="ArialMT-62" d="M 941 0 
L 419 0 
L 419 4581 
L 981 4581 
L 981 2947 
Q 1338 3394 1891 3394 
Q 2197 3394 2470 3270 
Q 2744 3147 2920 2923 
Q 3097 2700 3197 2384 
Q 3297 2069 3297 1709 
Q 3297 856 2875 390 
Q 2453 -75 1863 -75 
Q 1275 -75 941 416 
L 941 0 
z
M 934 1684 
Q 934 1088 1097 822 
Q 1363 388 1816 388 
Q 2184 388 2453 708 
Q 2722 1028 2722 1663 
Q 2722 2313 2464 2622 
Q 2206 2931 1841 2931 
Q 1472 2931 1203 2611 
Q 934 2291 934 1684 
z
" transform="scale(0.015625)"/>
       <path id="ArialMT-6c" d="M 409 0 
L 409 4581 
L 972 4581 
L 972 0 
L 409 0 
z
" transform="scale(0.015625)"/>
      </defs>
      <use xlink:href="#ArialMT-4f"/>
      <use xlink:href="#ArialMT-42" x="77.783203"/>
      <use xlink:href="#ArialMT-61" x="144.482422"/>
      <use xlink:href="#ArialMT-62" x="200.097656"/>
      <use xlink:href="#ArialMT-65" x="255.712891"/>
      <use xlink:href="#ArialMT-6c" x="311.328125"/>
     </g>
    </g>
    <g id="PathCollection_3">
     <defs>
      <path id="med666d481e" d="M 0 -3.354102 
L -3.354102 3.354102 
L 3.354102 3.354102 
z
" style="stroke: #000000; stroke-width: 0.4"/>
     </defs>
     <g>
      <use xlink:href="#med666d481e" x="451.712812" y="47.060156" style="fill: #2ca02c; stroke: #000000; stroke-width: 0.4"/>
     </g>
    </g>
    <g id="text_43">
     <!-- RDKit -->
     <g transform="translate(464.312813 48.897656) scale(0.07 -0.07)">
      <use xlink:href="#ArialMT-52"/>
      <use xlink:href="#ArialMT-44" x="72.216797"/>
      <use xlink:href="#ArialMT-4b" x="144.433594"/>
      <use xlink:href="#ArialMT-69" x="211.132812"/>
      <use xlink:href="#ArialMT-74" x="233.349609"/>
     </g>
    </g>
   </g>
   <g id="PathCollection_4">
    <g clip-path="url(#p277f16c05b)">
     <use xlink:href="#m8378e4bf0e" x="42.861113" y="111.214512" style="fill: #1f77b4; stroke: #000000; stroke-width: 0.4"/>
     <use xlink:href="#m8378e4bf0e" x="57.070443" y="136.926974" style="fill: #1f77b4; stroke: #000000; stroke-width: 0.4"/>
     <use xlink:href="#m8378e4bf0e" x="71.279774" y="154.046583" style="fill: #1f77b4; stroke: #000000; stroke-width: 0.4"/>
     <use xlink:href="#m8378e4bf0e" x="85.489105" y="152.592408" style="fill: #1f77b4; stroke: #000000; stroke-width: 0.4"/>
     <use xlink:href="#m8378e4bf0e" x="99.698436" y="83.783478" style="fill: #1f77b4; stroke: #000000; stroke-width: 0.4"/>
     <use xlink:href="#m8378e4bf0e" x="113.907766" y="111.346709" style="fill: #1f77b4; stroke: #000000; stroke-width: 0.4"/>
     <use xlink:href="#m8378e4bf0e" x="128.117097" y="129.424752" style="fill: #1f77b4; stroke: #000000; stroke-width: 0.4"/>
     <use xlink:href="#m8378e4bf0e" x="142.326428" y="129.854395" style="fill: #1f77b4; stroke: #000000; stroke-width: 0.4"/>
     <use xlink:href="#m8378e4bf0e" x="156.535759" y="151.600925" style="fill: #1f77b4; stroke: #000000; stroke-width: 0.4"/>
     <use xlink:href="#m8378e4bf0e" x="170.74509" y="57.4596" style="fill: #1f77b4; stroke: #000000; stroke-width: 0.4"/>
     <use xlink:href="#m8378e4bf0e" x="184.95442" y="103.150449" style="fill: #1f77b4; stroke: #000000; stroke-width: 0.4"/>
     <use xlink:href="#m8378e4bf0e" x="199.163751" y="142.809774" style="fill: #1f77b4; stroke: #000000; stroke-width: 0.4"/>
     <use xlink:href="#m8378e4bf0e" x="213.373082" y="118.485388" style="fill: #1f77b4; stroke: #000000; stroke-width: 0.4"/>
     <use xlink:href="#m8378e4bf0e" x="227.582413" y="86.163037" style="fill: #1f77b4; stroke: #000000; stroke-width: 0.4"/>
     <use xlink:href="#m8378e4bf0e" x="241.791743" y="76.931228" style="fill: #1f77b4; stroke: #000000; stroke-width: 0.4"/>
     <use xlink:href="#m8378e4bf0e" x="256.001074" y="85.964741" style="fill: #1f77b4; stroke: #000000; stroke-width: 0.4"/>
     <use xlink:href="#m8378e4bf0e" x="270.210405" y="106.124898" style="fill: #1f77b4; stroke: #000000; stroke-width: 0.4"/>
     <use xlink:href="#m8378e4bf0e" x="284.419736" y="113.726269" style="fill: #1f77b4; stroke: #000000; stroke-width: 0.4"/>
     <use xlink:href="#m8378e4bf0e" x="298.629066" y="100.286164" style="fill: #1f77b4; stroke: #000000; stroke-width: 0.4"/>
     <use xlink:href="#m8378e4bf0e" x="312.838397" y="126.652271" style="fill: #1f77b4; stroke: #000000; stroke-width: 0.4"/>
     <use xlink:href="#m8378e4bf0e" x="327.047728" y="69.968813" style="fill: #1f77b4; stroke: #000000; stroke-width: 0.4"/>
     <use xlink:href="#m8378e4bf0e" x="341.257059" y="102.48946" style="fill: #1f77b4; stroke: #000000; stroke-width: 0.4"/>
     <use xlink:href="#m8378e4bf0e" x="355.466389" y="99.779406" style="fill: #1f77b4; stroke: #000000; stroke-width: 0.4"/>
     <use xlink:href="#m8378e4bf0e" x="369.67572" y="106.521491" style="fill: #1f77b4; stroke: #000000; stroke-width: 0.4"/>
     <use xlink:href="#m8378e4bf0e" x="383.885051" y="154.340356" style="fill: #1f77b4; stroke: #000000; stroke-width: 0.4"/>
     <use xlink:href="#m8378e4bf0e" x="398.094382" y="51.887098" style="fill: #1f77b4; stroke: #000000; stroke-width: 0.4"/>
     <use xlink:href="#m8378e4bf0e" x="412.303713" y="70.167109" style="fill: #1f77b4; stroke: #000000; stroke-width: 0.4"/>
     <use xlink:href="#m8378e4bf0e" x="426.513043" y="25.342629" style="fill: #1f77b4; stroke: #000000; stroke-width: 0.4"/>
     <use xlink:href="#m8378e4bf0e" x="440.722374" y="128.400219" style="fill: #1f77b4; stroke: #000000; stroke-width: 0.4"/>
     <use xlink:href="#m8378e4bf0e" x="454.931705" y="65.540188" style="fill: #1f77b4; stroke: #000000; stroke-width: 0.4"/>
     <use xlink:href="#m8378e4bf0e" x="469.141036" y="70.006584" style="fill: #1f77b4; stroke: #000000; stroke-width: 0.4"/>
     <use xlink:href="#m8378e4bf0e" x="483.350366" y="134.689055" style="fill: #1f77b4; stroke: #000000; stroke-width: 0.4"/>
    </g>
   </g>
   <g id="PathCollection_5">
    <g clip-path="url(#p277f16c05b)">
     <use xlink:href="#md69c23401b" x="42.861113" y="159.929383" style="fill: #ff7f0e; stroke: #000000; stroke-width: 0.4"/>
     <use xlink:href="#md69c23401b" x="57.070443" y="164.291909" style="fill: #ff7f0e; stroke: #000000; stroke-width: 0.4"/>
     <use xlink:href="#md69c23401b" x="71.279774" y="164.754601" style="fill: #ff7f0e; stroke: #000000; stroke-width: 0.4"/>
     <use xlink:href="#md69c23401b" x="85.489105" y="158.541307" style="fill: #ff7f0e; stroke: #000000; stroke-width: 0.4"/>
     <use xlink:href="#md69c23401b" x="99.698436" y="155.699055" style="fill: #ff7f0e; stroke: #000000; stroke-width: 0.4"/>
     <use xlink:href="#md69c23401b" x="113.907766" y="142.743676" style="fill: #ff7f0e; stroke: #000000; stroke-width: 0.4"/>
     <use xlink:href="#md69c23401b" x="128.117097" y="176.520201" style="fill: #ff7f0e; stroke: #000000; stroke-width: 0.4"/>
     <use xlink:href="#md69c23401b" x="142.326428" y="176.321905" style="fill: #ff7f0e; stroke: #000000; stroke-width: 0.4"/>
     <use xlink:href="#md69c23401b" x="156.535759" y="175.793114" style="fill: #ff7f0e; stroke: #000000; stroke-width: 0.4"/>
     <use xlink:href="#md69c23401b" x="170.74509" y="174.537235" style="fill: #ff7f0e; stroke: #000000; stroke-width: 0.4"/>
     <use xlink:href="#md69c23401b" x="184.95442" y="175.198224" style="fill: #ff7f0e; stroke: #000000; stroke-width: 0.4"/>
     <use xlink:href="#md69c23401b" x="199.163751" y="175.264323" style="fill: #ff7f0e; stroke: #000000; stroke-width: 0.4"/>
     <use xlink:href="#md69c23401b" x="213.373082" y="175.264323" style="fill: #ff7f0e; stroke: #000000; stroke-width: 0.4"/>
     <use xlink:href="#md69c23401b" x="227.582413" y="174.537235" style="fill: #ff7f0e; stroke: #000000; stroke-width: 0.4"/>
     <use xlink:href="#md69c23401b" x="256.001074" y="175.859213" style="fill: #ff7f0e; stroke: #000000; stroke-width: 0.4"/>
     <use xlink:href="#md69c23401b" x="284.419736" y="173.479653" style="fill: #ff7f0e; stroke: #000000; stroke-width: 0.4"/>
     <use xlink:href="#md69c23401b" x="298.629066" y="174.405037" style="fill: #ff7f0e; stroke: #000000; stroke-width: 0.4"/>
     <use xlink:href="#md69c23401b" x="327.047728" y="172.752565" style="fill: #ff7f0e; stroke: #000000; stroke-width: 0.4"/>
     <use xlink:href="#md69c23401b" x="341.257059" y="175.132125" style="fill: #ff7f0e; stroke: #000000; stroke-width: 0.4"/>
     <use xlink:href="#md69c23401b" x="355.466389" y="174.338938" style="fill: #ff7f0e; stroke: #000000; stroke-width: 0.4"/>
     <use xlink:href="#md69c23401b" x="369.67572" y="168.456138" style="fill: #ff7f0e; stroke: #000000; stroke-width: 0.4"/>
     <use xlink:href="#md69c23401b" x="412.303713" y="155.236363" style="fill: #ff7f0e; stroke: #000000; stroke-width: 0.4"/>
     <use xlink:href="#md69c23401b" x="426.513043" y="172.554269" style="fill: #ff7f0e; stroke: #000000; stroke-width: 0.4"/>
     <use xlink:href="#md69c23401b" x="440.722374" y="169.249325" style="fill: #ff7f0e; stroke: #000000; stroke-width: 0.4"/>
     <use xlink:href="#md69c23401b" x="454.931705" y="172.554269" style="fill: #ff7f0e; stroke: #000000; stroke-width: 0.4"/>
    </g>
   </g>
   <g id="PathCollection_6">
    <g clip-path="url(#p277f16c05b)">
     <use xlink:href="#med666d481e" x="42.861113" y="172.884763" style="fill: #2ca02c; stroke: #000000; stroke-width: 0.4"/>
     <use xlink:href="#med666d481e" x="57.070443" y="174.669433" style="fill: #2ca02c; stroke: #000000; stroke-width: 0.4"/>
     <use xlink:href="#med666d481e" x="71.279774" y="175.859213" style="fill: #2ca02c; stroke: #000000; stroke-width: 0.4"/>
     <use xlink:href="#med666d481e" x="85.489105" y="174.537235" style="fill: #2ca02c; stroke: #000000; stroke-width: 0.4"/>
     <use xlink:href="#med666d481e" x="99.698436" y="174.338938" style="fill: #2ca02c; stroke: #000000; stroke-width: 0.4"/>
     <use xlink:href="#med666d481e" x="113.907766" y="167.398556" style="fill: #2ca02c; stroke: #000000; stroke-width: 0.4"/>
     <use xlink:href="#med666d481e" x="142.326428" y="174.603334" style="fill: #2ca02c; stroke: #000000; stroke-width: 0.4"/>
     <use xlink:href="#med666d481e" x="156.535759" y="175.528718" style="fill: #2ca02c; stroke: #000000; stroke-width: 0.4"/>
     <use xlink:href="#med666d481e" x="170.74509" y="170.571302" style="fill: #2ca02c; stroke: #000000; stroke-width: 0.4"/>
     <use xlink:href="#med666d481e" x="184.95442" y="169.183226" style="fill: #2ca02c; stroke: #000000; stroke-width: 0.4"/>
     <use xlink:href="#med666d481e" x="199.163751" y="175.660916" style="fill: #2ca02c; stroke: #000000; stroke-width: 0.4"/>
     <use xlink:href="#med666d481e" x="213.373082" y="172.884763" style="fill: #2ca02c; stroke: #000000; stroke-width: 0.4"/>
     <use xlink:href="#med666d481e" x="227.582413" y="165.283392" style="fill: #2ca02c; stroke: #000000; stroke-width: 0.4"/>
     <use xlink:href="#med666d481e" x="327.047728" y="173.413554" style="fill: #2ca02c; stroke: #000000; stroke-width: 0.4"/>
     <use xlink:href="#med666d481e" x="426.513043" y="153.187298" style="fill: #2ca02c; stroke: #000000; stroke-width: 0.4"/>
     <use xlink:href="#med666d481e" x="469.141036" y="151.072134" style="fill: #2ca02c; stroke: #000000; stroke-width: 0.4"/>
     <use xlink:href="#med666d481e" x="483.350366" y="172.422071" style="fill: #2ca02c; stroke: #000000; stroke-width: 0.4"/>
    </g>
   </g>
  </g>
 </g>
 <defs>
  <clipPath id="p277f16c05b">
   <rect x="38.8825" y="17.78375" width="455.0775" height="158.736451"/>
  </clipPath>
 </defs>
</svg>
